<svg width="99" height="66" viewBox="0 0 99 66" fill="none" xmlns="http://www.w3.org/2000/svg">
<path d="M8.57573 11.9381L9.55573 12.1391L10.1235 9.37095L7.9405 11.1652L8.57573 11.9381ZM5.61266 13.24L5.41902 12.2585L5.40744 12.2609L5.61266 13.24ZM2.34275 13.2995L1.36275 13.0985L1.16175 14.0785L2.14175 14.2795L2.34275 13.2995ZM3.85728 5.91524L3.90181 4.91584L3.04883 4.87783L2.87728 5.71424L3.85728 5.91524ZM8.93351 4.99053L8.57693 4.05578L8.56719 4.05961L8.93351 4.99053ZM13.1362 1.7523L13.3372 0.772296L12.6872 0.638981L12.3116 1.18593L13.1362 1.7523ZM20.5744 3.27789L21.5544 3.47889L21.7554 2.49889L20.7754 2.29789L20.5744 3.27789ZM11.0671 49.6319L10.8661 50.6119L11.8461 50.8129L12.0471 49.8329L11.0671 49.6319ZM1.25732 47.6199L0.277322 47.4189L0.0763222 48.3989L1.05632 48.5999L1.25732 47.6199ZM7.9405 11.1652C7.33007 11.667 6.50555 12.0442 5.41903 12.2586L5.80629 14.2215C7.13926 13.9585 8.29012 13.4678 9.21096 12.7109L7.9405 11.1652ZM5.40744 12.2609C4.34534 12.4835 3.39526 12.4942 2.54375 12.3195L2.14175 14.2795C3.3025 14.5176 4.53237 14.4886 5.81789 14.2192L5.40744 12.2609ZM3.32275 13.5005L4.83728 6.11624L2.87728 5.71424L1.36275 13.0985L3.32275 13.5005ZM3.81275 6.91465C5.60537 6.99453 7.43742 6.65432 9.29983 5.92145L8.56719 4.05961C6.92661 4.70519 5.37451 4.98145 3.90181 4.91584L3.81275 6.91465ZM9.29007 5.92523C11.2538 5.17614 12.8235 3.97465 13.9609 2.31866L12.3116 1.18593C11.4202 2.48388 10.1881 3.44121 8.57695 4.05583L9.29007 5.92523ZM12.9352 2.7323L20.3734 4.25789L20.7754 2.29789L13.3372 0.772296L12.9352 2.7323ZM19.5944 3.07689L10.0871 49.4309L12.0471 49.8329L21.5544 3.47889L19.5944 3.07689ZM11.2681 48.6519L1.45832 46.6399L1.05632 48.5999L10.8661 50.6119L11.2681 48.6519ZM2.23732 47.8209L9.55573 12.1391L7.59573 11.7371L0.277322 47.4189L2.23732 47.8209ZM29.6192 45.0119L28.7745 44.4758L28.7698 44.4833L28.7652 44.4908L29.6192 45.0119ZM33.0936 40.6694L32.3938 39.9545L32.3938 39.9545L33.0936 40.6694ZM37.9597 36.3877L38.5924 37.1626L38.5977 37.1582L37.9597 36.3877ZM42.8368 32.0521L42.1454 31.329L42.1391 31.3351L42.1329 31.3412L42.8368 32.0521ZM46.2462 27.7525L45.398 27.222L45.3922 27.2314L46.2462 27.7525ZM48.5443 19.0124L47.5779 19.2709L47.5806 19.2809L47.5835 19.2909L48.5443 19.0124ZM42.4953 26.8708L42.2943 27.8508L43.2743 28.0518L43.4753 27.0718L42.4953 26.8708ZM32.7394 24.8699L31.7525 24.706L31.5947 25.6563L32.5384 25.8499L32.7394 24.8699ZM33.2175 21.9911L32.2375 21.7901L32.2337 21.8085L32.2306 21.8271L33.2175 21.9911ZM36.0754 13.5343L35.2021 13.0461L35.2021 13.0461L36.0754 13.5343ZM40.9096 9.1337L40.5376 8.20506L40.9096 9.1337ZM57.0396 14.0147L56.1954 14.5515L56.1999 14.5585L57.0396 14.0147ZM55.8252 30.6158L54.9642 30.1063L54.959 30.1152L55.8252 30.6158ZM52.1325 35.4752L51.4324 34.7606L51.4266 34.7662L51.4209 34.772L52.1325 35.4752ZM46.9734 40.09L47.5995 40.8703L47.6083 40.8631L46.9734 40.09ZM43.0941 43.3945L42.4157 42.6593L42.408 42.6664L42.4004 42.6737L43.0941 43.3945ZM40.2085 46.5097L39.4364 45.8736L38.3798 47.1559L40.0075 47.4897L40.2085 46.5097ZM52.8211 49.0966L53.8011 49.2976L54.0021 48.3176L53.0221 48.1166L52.8211 49.0966ZM51.0302 57.8284L50.8292 58.8084L51.8092 59.0094L52.0102 58.0294L51.0302 57.8284ZM26.9908 52.8979L26.0108 52.6969L25.8098 53.6769L26.7898 53.8779L26.9908 52.8979ZM28.424 50.889C28.8382 48.8696 29.5243 47.088 30.4732 45.5329L28.7652 44.4908C27.6835 46.2637 26.9195 48.2661 26.464 50.487L28.424 50.889ZM30.4639 45.5479C31.4783 43.9493 32.589 42.5633 33.7934 41.3843L32.3938 39.9545C31.0682 41.2521 29.8626 42.7611 28.7745 44.4758L30.4639 45.5479ZM33.7934 41.3843C35.0299 40.1738 36.6274 38.7672 38.5924 37.1625L37.3269 35.6128C35.3338 37.2404 33.6873 38.6882 32.3938 39.9545L33.7934 41.3843ZM38.5977 37.1582C40.6396 35.4675 42.29 34.0015 43.5407 32.7629L42.1329 31.3412C40.9402 32.5223 39.3392 33.9466 37.3216 35.6171L38.5977 37.1582ZM43.5281 32.7752C44.8555 31.5061 46.045 30.0029 47.1002 28.2735L45.3922 27.2314C44.4168 28.8301 43.3333 30.1933 42.1454 31.329L43.5281 32.7752ZM47.0943 28.2829C48.2213 26.4811 49.0096 24.4615 49.4663 22.2345L47.5063 21.8325C47.0934 23.8456 46.3883 25.6387 45.398 27.222L47.0943 28.2829ZM49.4663 22.2345C49.7386 20.9069 49.7895 19.7148 49.5051 18.7338L47.5835 19.2909C47.7377 19.8228 47.7499 20.6448 47.5063 21.8325L49.4663 22.2345ZM49.5107 18.7539C49.3574 18.1805 49.0599 17.6787 48.6072 17.29C48.162 16.9079 47.6167 16.6775 47.026 16.5564L46.624 18.5164C46.9675 18.5868 47.1759 18.6983 47.3039 18.8082C47.4242 18.9115 47.5193 19.0519 47.5779 19.2709L49.5107 18.7539ZM47.026 16.5564C46.4889 16.4462 45.9472 16.4621 45.4281 16.6433C44.9104 16.824 44.4749 17.1483 44.1163 17.5641C43.4217 18.3696 42.9719 19.5678 42.6761 21.0103L44.6361 21.4123C44.9077 20.088 45.2698 19.2903 45.6315 18.8707C45.8011 18.6741 45.9549 18.5786 46.0875 18.5323C46.2187 18.4865 46.3885 18.4681 46.624 18.5164L47.026 16.5564ZM42.6761 21.0103L41.5153 26.6698L43.4753 27.0718L44.6361 21.4123L42.6761 21.0103ZM42.6963 25.8908L32.9404 23.8899L32.5384 25.8499L42.2943 27.8508L42.6963 25.8908ZM33.7263 25.0338L34.2044 22.155L32.2306 21.8271L31.7525 24.706L33.7263 25.0338ZM34.1975 22.1921C34.9081 18.7275 35.8336 16.0171 36.9486 14.0224L35.2021 13.0461C33.9511 15.2842 32.9714 18.2116 32.2375 21.7901L34.1975 22.1921ZM36.9486 14.0224C38.0321 12.0838 39.4766 10.7856 41.2817 10.0623L40.5376 8.20506C38.2629 9.11644 36.4845 10.7519 35.2021 13.0461L36.9486 14.0224ZM41.2817 10.0623C43.0731 9.3446 45.4564 9.23395 48.5116 9.86059L48.9136 7.90059C45.6446 7.23011 42.8259 7.2882 40.5376 8.20506L41.2817 10.0623ZM48.5116 9.86059C52.2033 10.6178 54.7075 12.2119 56.1954 14.5515L57.8837 13.4778C56.0306 10.5639 52.9836 8.73535 48.9136 7.90059L48.5116 9.86059ZM56.1999 14.5585C57.6941 16.8657 58.132 19.8664 57.3493 23.6828L59.3093 24.0848C60.1627 19.924 59.7408 16.3453 57.8793 13.4709L56.1999 14.5585ZM57.3493 23.6828C56.8449 26.1421 56.0457 28.2788 54.9643 30.1063L56.6861 31.1253C57.8969 29.0794 58.7672 26.728 59.3093 24.0848L57.3493 23.6828ZM54.959 30.1152C53.8946 31.957 52.7173 33.5018 51.4324 34.7606L52.8326 36.1898C54.2657 34.7858 55.5501 33.091 56.6913 31.1164L54.959 30.1152ZM51.4209 34.772C50.1304 36.0778 48.439 37.5921 46.3386 39.3168L47.6083 40.8631C49.7405 39.1123 51.4885 37.5501 52.8441 36.1784L51.4209 34.772ZM46.3474 39.3097C44.8113 40.5421 43.4996 41.659 42.4157 42.6593L43.7726 44.1297C44.8133 43.1693 46.0878 42.0831 47.5995 40.8702L46.3474 39.3097ZM42.4004 42.6737C41.3466 43.6879 40.3585 44.7545 39.4364 45.8736L40.9806 47.1459C41.8532 46.0868 42.7889 45.0766 43.7878 44.1154L42.4004 42.6737ZM40.0075 47.4897L52.6201 50.0766L53.0221 48.1166L40.4095 45.5297L40.0075 47.4897ZM51.8411 48.8956L50.0502 57.6274L52.0102 58.0294L53.8011 49.2976L51.8411 48.8956ZM51.2312 56.8484L27.1918 51.9179L26.7898 53.8779L50.8292 58.8084L51.2312 56.8484ZM27.9708 53.0989L28.424 50.889L26.464 50.487L26.0108 52.6969L27.9708 53.0989ZM69.0094 58.7638L68.1371 59.2537L68.1413 59.2609L69.0094 58.7638ZM69.2135 43.5281L69.4145 42.5481L68.4345 42.3471L68.2335 43.3271L69.2135 43.5281ZM78.6999 45.4738L79.6799 45.6748L79.8809 44.6948L78.9009 44.4938L78.6999 45.4738ZM77.5696 53.7232L76.5943 53.9458L76.5963 53.9544L76.5984 53.9631L77.5696 53.7232ZM81.2763 54.8205L80.5724 54.1096L80.5555 54.1264L80.5394 54.1439L81.2763 54.8205ZM82.31 53.0666L83.2652 53.3642L83.2665 53.3596L82.31 53.0666ZM79.6783 41.7989L78.6983 41.5979L78.4409 42.8531L79.721 42.7984L79.6783 41.7989ZM81.3808 33.4983L81.5818 32.5183L80.6018 32.3173L80.4008 33.2973L81.3808 33.4983ZM85.321 33.1831L85.8124 34.0545L85.8229 34.0485L85.8333 34.0423L85.321 33.1831ZM83.8572 25.8058L83.1279 25.121L83.1082 25.142L83.0897 25.1642L83.8572 25.8058ZM82.9534 27.4739L82.0141 27.1298L82.0056 27.1529L81.9983 27.1764L82.9534 27.4739ZM82.4711 29.0039L81.5193 28.6959L81.5022 28.7486L81.4911 28.8029L82.4711 29.0039ZM82.1837 30.4053L81.9827 31.3853L82.9627 31.5863L83.1637 30.6063L82.1837 30.4053ZM72.5895 28.4375L71.6033 28.2692L71.4406 29.2231L72.3885 29.4175L72.5895 28.4375ZM72.8672 26.8094L71.889 26.6001L71.8846 26.6206L71.8811 26.6412L72.8672 26.8094ZM77.7982 18.1038L78.349 18.9389L78.3565 18.9339L77.7982 18.1038ZM94.6458 37.2861L95.4514 37.8793L95.457 37.8716L94.6458 37.2861ZM90.6959 39.5652L90.5499 38.5755L88.249 38.915L90.0779 40.3519L90.6959 39.5652ZM93.0552 42.5767L92.1187 42.9287L92.1264 42.9491L92.135 42.9692L93.0552 42.5767ZM93.5873 46.2805L92.5895 46.2091L92.5886 46.2219L92.588 46.2348L93.5873 46.2805ZM87.5427 62.0595L86.9139 61.2813L86.9071 61.2869L87.5427 62.0595ZM77.4516 62.7879C73.5465 61.987 71.115 60.4273 69.8775 58.2666L68.1413 59.2609C69.7712 62.1068 72.8338 63.8833 77.0496 64.7479L77.4516 62.7879ZM69.8816 58.2738C68.6222 56.0318 68.3229 52.8495 69.1986 48.5801L67.2386 48.1781C66.316 52.6765 66.5439 56.4173 68.1372 59.2537L69.8816 58.2738ZM69.1986 48.5801L70.1935 43.7291L68.2335 43.3271L67.2386 48.1781L69.1986 48.5801ZM69.0125 44.5081L78.4989 46.4538L78.9009 44.4938L69.4145 42.5481L69.0125 44.5081ZM77.7199 45.2728L76.725 50.1238L78.685 50.5258L79.6799 45.6748L77.7199 45.2728ZM76.725 50.1238C76.4244 51.5892 76.3517 52.8826 76.5943 53.9458L78.545 53.5007C78.3931 52.8353 78.4107 51.8632 78.685 50.5258L76.725 50.1238ZM76.5984 53.9631C76.9237 55.2803 77.9673 56.0055 79.2925 56.2773L79.6945 54.3173C78.8636 54.1469 78.6247 53.8228 78.5408 53.4834L76.5984 53.9631ZM79.2925 56.2773C80.3104 56.4861 81.2906 56.2841 82.0132 55.497L80.5394 54.1439C80.394 54.3022 80.1857 54.4181 79.6945 54.3173L79.2925 56.2773ZM81.9802 55.5313C82.5792 54.9381 83.0029 54.2061 83.2652 53.3642L81.3549 52.7691C81.1786 53.335 80.9131 53.7722 80.5724 54.1096L81.9802 55.5313ZM83.2665 53.3596C83.5072 52.5741 83.7717 51.4669 84.0611 50.0557L82.1011 49.6537C81.8157 51.0454 81.5661 52.0794 81.3535 52.7736L83.2665 53.3596ZM84.0611 50.0557L84.2933 48.9238L82.3333 48.5218L82.1011 49.6537L84.0611 50.0557ZM84.2933 48.9238C84.718 46.8533 84.7366 45.0613 84.1792 43.6634C83.5893 42.184 82.4095 41.2817 80.8067 40.9529L80.4047 42.9129C81.425 43.1222 82.0081 43.6205 82.3207 44.4045C82.6658 45.2698 82.7267 46.6038 82.3333 48.5218L84.2933 48.9238ZM80.8067 40.9529C80.365 40.8623 79.9318 40.7868 79.6356 40.7994L79.721 42.7984C79.6986 42.7993 79.7369 42.7969 79.8804 42.8177C80.0083 42.8362 80.1815 42.8671 80.4047 42.9129L80.8067 40.9529ZM80.6583 41.9999L82.3608 33.6993L80.4008 33.2973L78.6983 41.5979L80.6583 41.9999ZM81.1798 34.4783C82.9528 34.8419 84.544 34.7697 85.8124 34.0545L84.8296 32.3117C84.1503 32.6948 83.1147 32.8327 81.5818 32.5183L81.1798 34.4783ZM85.8333 34.0423C87.1471 33.259 87.9078 31.8487 88.2703 30.081L86.3103 29.679C86.0096 31.1452 85.4574 31.937 84.8086 32.3238L85.8333 34.0423ZM88.2703 30.081C88.552 28.7075 88.604 27.4789 88.2793 26.4984C87.9244 25.4265 87.1409 24.7279 86.0345 24.5009L85.6325 26.4609C86.0354 26.5436 86.2493 26.7329 86.38 27.1274C86.5408 27.6131 86.5666 28.4292 86.3103 29.679L88.2703 30.081ZM86.0345 24.5009C85.0032 24.2894 83.88 24.32 83.1279 25.121L84.5865 26.4906C84.601 26.4752 84.7954 26.2892 85.6325 26.4609L86.0345 24.5009ZM83.0897 25.1642C82.6466 25.6943 82.2953 26.3622 82.0141 27.1298L83.8928 27.8181C84.1219 27.1926 84.3732 26.7484 84.6248 26.4474L83.0897 25.1642ZM81.9983 27.1764C81.7791 27.88 81.6197 28.3855 81.5193 28.6959L83.4229 29.3119C83.527 28.9902 83.6892 28.4757 83.9085 27.7714L81.9983 27.1764ZM81.4911 28.8029L81.2037 30.2043L83.1637 30.6063L83.4511 29.2049L81.4911 28.8029ZM82.3847 29.4253L72.7905 27.4575L72.3885 29.4175L81.9827 31.3853L82.3847 29.4253ZM73.5756 28.6057L73.8534 26.9777L71.8811 26.6412L71.6033 28.2692L73.5756 28.6057ZM73.8455 27.0187C74.724 22.9123 76.2768 20.3057 78.349 18.9389L77.2473 17.2687C74.5561 19.0438 72.8216 22.241 71.889 26.6001L73.8455 27.0187ZM78.3565 18.9339C80.4387 17.5333 83.3725 17.123 87.3253 17.9337L87.7273 15.9737C83.4873 15.1041 79.9357 15.4604 77.2398 17.2737L78.3565 18.9339ZM87.3253 17.9337C91.0975 18.7074 93.5477 20.2352 94.8993 22.3873C96.2571 24.5492 96.6339 27.5429 95.8188 31.5168L97.7788 31.9188C98.6515 27.6641 98.3267 24.0827 96.5937 21.3232C94.8545 18.5539 91.8245 16.814 87.7273 15.9737L87.3253 17.9337ZM95.8188 31.5168C95.3399 33.8518 94.6613 35.5551 93.8346 36.7007L95.457 37.8716C96.5134 36.4078 97.2702 34.399 97.7788 31.9188L95.8188 31.5168ZM93.8402 36.693C93.0792 37.7265 92.0112 38.36 90.5499 38.5755L90.8419 40.5549C92.7787 40.2692 94.3439 39.3833 95.4513 37.8793L93.8402 36.693ZM90.0779 40.3519C91.1322 41.1802 91.7861 42.0439 92.1187 42.9287L93.9916 42.2246C93.5005 40.9184 92.5816 39.7745 91.314 38.7786L90.0779 40.3519ZM92.135 42.9692C92.5159 43.862 92.6809 44.9322 92.5895 46.2091L94.5852 46.352C94.6945 44.8242 94.5048 43.4252 93.9753 42.1841L92.135 42.9692ZM92.588 46.2348C92.5269 47.5694 92.2702 49.3663 91.8031 51.6436L93.7631 52.0456C94.2394 49.7235 94.5188 47.811 94.5867 46.3262L92.588 46.2348ZM91.8031 51.6436C90.8467 56.3066 89.1749 59.4546 86.914 61.2813L88.1714 62.8376C90.9373 60.6029 92.7591 56.9409 93.7631 52.0456L91.8031 51.6436ZM86.9071 61.2869C84.7451 63.0655 81.6626 63.6516 77.4516 62.7879L77.0496 64.7479C81.6064 65.6825 85.3853 65.1297 88.1782 62.832L86.9071 61.2869Z" fill="white"/>
</svg>
