<svg width="146" height="75" viewBox="0 0 146 75" fill="none" xmlns="http://www.w3.org/2000/svg">
<path d="M3.79091 46.1848L3.00808 46.8077L3.01421 46.8153L3.79091 46.1848ZM3.56525 30.5801L3.76625 29.6001L2.78625 29.3991L2.58525 30.3791L3.56525 30.5801ZM13.2133 32.5589L14.1933 32.7599L14.3943 31.7799L13.4143 31.5789L13.2133 32.5589ZM15.921 41.5394L15.1782 40.8693L15.1632 40.8859L15.1489 40.9032L15.921 41.5394ZM19.1145 26.2429L18.1199 26.3501L18.1225 26.3745L18.1263 26.3987L19.1145 26.2429ZM14.0784 27.7936L13.8774 28.7736L14.8574 28.9746L15.0584 27.9946L14.0784 27.7936ZM5.61609 26.058L4.63609 25.857L4.43509 26.837L5.41509 27.038L5.61609 26.058ZM10.6682 1.4257L10.8692 0.445696L9.88922 0.244696L9.68822 1.2247L10.6682 1.4257ZM32.7133 5.94719L33.6933 6.14819L33.8943 5.16819L32.9143 4.96719L32.7133 5.94719ZM30.9335 14.6251L30.7325 15.6051L31.7125 15.8061L31.9135 14.8261L30.9335 14.6251ZM17.6741 11.9056L17.8751 10.9256L16.8951 10.7246L16.6941 11.7046L17.6741 11.9056ZM16.3364 18.4275L15.3564 18.2265L14.7627 21.1213L16.9928 19.1824L16.3364 18.4275ZM18.5325 17.3052L18.7909 18.2716L18.7909 18.2716L18.5325 17.3052ZM28.4322 22.9865L27.4685 23.2551L27.4713 23.2651L28.4322 22.9865ZM25.2278 44.9086L24.3201 44.4877L24.3159 44.4971L25.2278 44.9086ZM20.4433 50.1619L20.8985 51.0527L20.4433 50.1619ZM12.2788 49.7128C8.73407 48.9857 6.20582 47.5723 4.56761 45.5542L3.01421 46.8153C5.02287 49.2897 8.01919 50.8816 11.8768 51.6728L12.2788 49.7128ZM4.57371 45.5618C2.98634 43.567 2.45527 40.971 3.14126 37.6264L1.18126 37.2244C0.407991 40.9946 0.963359 44.2381 3.00811 46.8077L4.57371 45.5618ZM3.14126 37.6264L4.54525 30.7811L2.58525 30.3791L1.18126 37.2244L3.14126 37.6264ZM3.36425 31.5601L13.0123 33.5389L13.4143 31.5789L3.76625 29.6001L3.36425 31.5601ZM12.2333 32.3579L11.4263 36.2926L13.3863 36.6946L14.1933 32.7599L12.2333 32.3579ZM11.4263 36.2926C11.092 37.9227 10.9755 39.3255 11.1385 40.4551L13.1188 40.1694C13.0034 39.3697 13.0721 38.2267 13.3863 36.6946L11.4263 36.2926ZM11.1385 40.4551C11.2324 41.1064 11.486 41.7027 11.9473 42.1744C12.4049 42.6423 12.9967 42.9157 13.6456 43.0488L14.0476 41.0888C13.6903 41.0155 13.4927 40.893 13.3777 40.7754C13.2663 40.6615 13.164 40.4828 13.1188 40.1694L11.1385 40.4551ZM13.6456 43.0488C14.7959 43.2847 15.9266 43.1058 16.6931 42.1756L15.1489 40.9032C15.018 41.0621 14.7658 41.2361 14.0476 41.0888L13.6456 43.0488ZM16.6638 42.2095C17.3233 41.4785 17.7351 40.4122 17.9927 39.1559L16.0327 38.7539C15.804 39.8693 15.488 40.5259 15.1782 40.8693L16.6638 42.2095ZM17.9927 39.1559L19.861 30.0468L17.901 29.6448L16.0327 38.7539L17.9927 39.1559ZM19.861 30.0468C20.1746 28.518 20.2757 27.1837 20.1027 26.087L18.1263 26.3987C18.2464 27.1595 18.1918 28.2272 17.901 29.6448L19.861 30.0468ZM20.1092 26.1356C20.0396 25.491 19.8127 24.8899 19.3677 24.4106C18.9249 23.9336 18.3422 23.659 17.7054 23.5284L17.3034 25.4884C17.6368 25.5568 17.8075 25.6708 17.9014 25.7719C17.9932 25.8708 18.0862 26.0374 18.1199 26.3501L20.1092 26.1356ZM17.7054 23.5284C16.5538 23.2922 15.4784 23.528 14.6349 24.3368C13.8503 25.0892 13.3769 26.2346 13.0984 27.5926L15.0584 27.9946C15.3031 26.8014 15.6624 26.1236 16.0197 25.781C16.3183 25.4947 16.6943 25.3635 17.3034 25.4884L17.7054 23.5284ZM14.2794 26.8136L5.81709 25.078L5.41509 27.038L13.8774 28.7736L14.2794 26.8136ZM6.59609 26.259L11.6482 1.6267L9.68822 1.2247L4.63609 25.857L6.59609 26.259ZM10.4672 2.4057L32.5123 6.92719L32.9143 4.96719L10.8692 0.445696L10.4672 2.4057ZM31.7333 5.74619L29.9535 14.4241L31.9135 14.8261L33.6933 6.14819L31.7333 5.74619ZM31.1345 13.6451L17.8751 10.9256L17.4731 12.8856L30.7325 15.6051L31.1345 13.6451ZM16.6941 11.7046L15.3564 18.2265L17.3164 18.6285L18.6541 12.1066L16.6941 11.7046ZM16.9928 19.1824C17.4544 18.7811 18.0443 18.4713 18.7909 18.2716L18.274 16.3388C17.2774 16.6053 16.4033 17.0437 15.68 17.6725L16.9928 19.1824ZM18.7909 18.2716C19.4929 18.0838 20.2729 18.0655 21.1481 18.245L21.5501 16.285C20.413 16.0518 19.3152 16.0603 18.274 16.3388L18.7909 18.2716ZM21.1481 18.245C24.7766 18.9893 26.7561 20.699 27.4685 23.2551L29.3958 22.7179C28.4257 19.2373 25.6831 17.1327 21.5501 16.285L21.1481 18.245ZM27.4713 23.2651C28.2837 26.0671 28.2411 29.8929 27.2314 34.8162L29.1914 35.2182C30.2304 30.1521 30.3351 25.9574 29.393 22.708L27.4713 23.2651ZM27.2314 34.8162C26.3918 38.9096 25.4164 42.1235 24.3202 44.4878L26.1354 45.3294C27.3221 42.7698 28.3358 39.3895 29.1914 35.2182L27.2314 34.8162ZM24.3159 44.4971C23.2977 46.7533 21.85 48.3195 19.988 49.271L20.8985 51.0527C23.2195 49.8666 24.9615 47.9306 26.1396 45.3201L24.3159 44.4971ZM19.988 49.271C18.1798 50.1951 15.6511 50.4044 12.2788 49.7128L11.8768 51.6728C15.4755 52.4109 18.5238 52.2662 20.8985 51.0527L19.988 49.271ZM50.0558 57.8081L49.8548 58.7881L51.2437 59.073L51.0465 57.669L50.0558 57.8081ZM40.6233 55.8735L39.6331 56.0157L39.733 56.7121L40.4223 56.8535L40.6233 55.8735ZM38.912 43.952L39.9023 43.8099L39.4956 40.9764L38.0488 43.4464L38.912 43.952ZM32.8617 54.2816L32.6607 55.2616L33.3627 55.4056L33.7249 54.7872L32.8617 54.2816ZM25.7469 52.8223L24.8842 52.3158L24.1764 53.5214L25.5459 53.8023L25.7469 52.8223ZM37.3141 33.121L38.1768 33.6275L38.354 33.3257L38.3044 32.9792L37.3141 33.121ZM34.497 13.4463L34.698 12.4663L33.3052 12.1806L33.5067 13.5881L34.497 13.4463ZM44.0912 15.4141L45.0821 15.2766L44.9849 14.5762L44.2922 14.4341L44.0912 15.4141ZM45.5191 25.7047L44.5282 25.8422L44.9198 28.6644L46.3785 26.2169L45.5191 25.7047ZM50.8287 16.796L51.0297 15.816L50.3333 15.6731L49.9694 16.2838L50.8287 16.796ZM57.8357 18.2331L58.6952 18.7451L59.4155 17.5359L58.0367 17.2531L57.8357 18.2331ZM47.0424 36.352L46.1829 35.84L46.0028 36.1425L46.0517 36.4911L47.0424 36.352ZM50.2568 56.8281L40.8243 54.8935L40.4223 56.8535L49.8548 58.7881L50.2568 56.8281ZM41.6136 55.7314L39.9023 43.8099L37.9218 44.0942L39.6331 56.0157L41.6136 55.7314ZM38.0488 43.4464L31.9985 53.776L33.7249 54.7872L39.7753 44.4577L38.0488 43.4464ZM33.0627 53.3016L25.9479 51.8423L25.5459 53.8023L32.6607 55.2616L33.0627 53.3016ZM26.6096 53.3288L38.1768 33.6275L36.4514 32.6145L24.8842 52.3158L26.6096 53.3288ZM38.3044 32.9792L35.4873 13.3045L33.5067 13.5881L36.3238 33.2628L38.3044 32.9792ZM34.296 14.4263L43.8902 16.3941L44.2922 14.4341L34.698 12.4663L34.296 14.4263ZM43.1003 15.5516L44.5282 25.8422L46.51 25.5672L45.0821 15.2766L43.1003 15.5516ZM46.3785 26.2169L51.6881 17.3081L49.9694 16.2838L44.6598 25.1926L46.3785 26.2169ZM50.6277 17.776L57.6347 19.2131L58.0367 17.2531L51.0297 15.816L50.6277 17.776ZM56.9763 17.7211L46.1829 35.84L47.9019 36.864L58.6952 18.7451L56.9763 17.7211ZM46.0517 36.4911L49.0651 57.9473L51.0465 57.669L48.0331 36.2128L46.0517 36.4911ZM54.516 50.2978L53.6713 49.7618L53.6666 49.7692L53.662 49.7768L54.516 50.2978ZM57.9904 45.9554L57.2905 45.2405L57.2905 45.2405L57.9904 45.9554ZM62.8564 41.6737L63.4892 42.4485L63.4944 42.4442L62.8564 41.6737ZM67.7336 37.3381L67.0422 36.615L67.0359 36.621L67.0296 36.6272L67.7336 37.3381ZM71.1429 33.0384L70.2947 32.5079L70.289 32.5174L71.1429 33.0384ZM73.4411 24.2983L72.4746 24.5568L72.4773 24.5669L72.4802 24.5769L73.4411 24.2983ZM67.3921 32.1568L67.1911 33.1368L68.1711 33.3378L68.3721 32.3578L67.3921 32.1568ZM57.6362 30.1558L56.6493 29.9919L56.4914 30.9423L57.4352 31.1358L57.6362 30.1558ZM58.1143 27.277L57.1343 27.076L57.1305 27.0945L57.1274 27.1131L58.1143 27.277ZM60.9721 18.8202L60.0989 18.3321L60.0989 18.3321L60.9721 18.8202ZM65.8064 14.4197L65.4343 13.491L65.8064 14.4197ZM81.9364 19.3006L81.0922 19.8375L81.0967 19.8444L81.9364 19.3006ZM80.722 35.9018L79.861 35.3923L79.8558 35.4012L80.722 35.9018ZM77.0293 40.7612L76.3292 40.0466L76.3234 40.0522L76.3177 40.058L77.0293 40.7612ZM71.8702 45.3759L72.4963 46.1563L72.5051 46.1491L71.8702 45.3759ZM67.9909 48.6805L67.3124 47.9453L67.3047 47.9524L67.2972 47.9597L67.9909 48.6805ZM65.1053 51.7957L64.3332 51.1595L63.2766 52.4419L64.9043 52.7757L65.1053 51.7957ZM77.7179 54.3826L78.6979 54.5836L78.8989 53.6036L77.9189 53.4026L77.7179 54.3826ZM75.927 63.1144L75.726 64.0944L76.706 64.2954L76.907 63.3154L75.927 63.1144ZM51.8876 58.1838L50.9076 57.9828L50.7066 58.9628L51.6866 59.1638L51.8876 58.1838ZM53.3208 56.1749C53.735 54.1556 54.4211 52.374 55.37 50.8189L53.662 49.7768C52.5803 51.5496 51.8163 53.5521 51.3608 55.7729L53.3208 56.1749ZM55.3607 50.8338C56.3751 49.2353 57.4858 47.8493 58.6902 46.6702L57.2905 45.2405C55.965 46.5381 54.7594 48.0471 53.6713 49.7618L55.3607 50.8338ZM58.6902 46.6702C59.9266 45.4598 61.5242 44.0532 63.4892 42.4485L62.2237 40.8988C60.2306 42.5264 58.5841 43.9742 57.2905 45.2405L58.6902 46.6702ZM63.4944 42.4442C65.5364 40.7535 67.1868 39.2874 68.4375 38.0489L67.0296 36.6272C65.837 37.8083 64.2359 39.2326 62.2184 40.9031L63.4944 42.4442ZM68.4249 38.0611C69.7523 36.792 70.9418 35.2889 71.9969 33.5595L70.289 32.5174C69.3135 34.116 68.2301 35.4793 67.0422 36.615L68.4249 38.0611ZM71.9911 33.5689C73.1181 31.7671 73.9063 29.7475 74.3631 27.5205L72.4031 27.1185C71.9902 29.1316 71.285 30.9247 70.2948 32.508L71.9911 33.5689ZM74.3631 27.5205C74.6354 26.1928 74.6863 25.0008 74.4019 24.0198L72.4802 24.5769C72.6344 25.1087 72.6467 25.9308 72.4031 27.1185L74.3631 27.5205ZM74.4075 24.0398C74.2541 23.4664 73.9567 22.9647 73.5039 22.576C73.0588 22.1938 72.5135 21.9635 71.9228 21.8424L71.5208 23.8024C71.8643 23.8728 72.0727 23.9843 72.2007 24.0941C72.321 24.1974 72.4161 24.3379 72.4746 24.5568L74.4075 24.0398ZM71.9228 21.8424C71.3857 21.7322 70.844 21.748 70.3249 21.9293C69.8071 22.11 69.3717 22.4342 69.0131 22.8501C68.3185 23.6556 67.8687 24.8538 67.5728 26.2963L69.5328 26.6983C69.8045 25.3739 70.1666 24.5762 70.5283 24.1567C70.6979 23.9601 70.8516 23.8646 70.9843 23.8183C71.1155 23.7725 71.2852 23.754 71.5208 23.8024L71.9228 21.8424ZM67.5728 26.2963L66.4121 31.9558L68.3721 32.3578L69.5328 26.6983L67.5728 26.2963ZM67.5931 31.1768L57.8372 29.1758L57.4352 31.1358L67.1911 33.1368L67.5931 31.1768ZM58.623 30.3197L59.1012 27.4409L57.1274 27.1131L56.6493 29.9919L58.623 30.3197ZM59.0943 27.478C59.8049 24.0135 60.7304 21.3031 61.8454 19.3083L60.0989 18.3321C58.8479 20.5702 57.8682 23.4976 57.1343 27.076L59.0943 27.478ZM61.8454 19.3083C62.9289 17.3698 64.3734 16.0715 66.1785 15.3483L65.4343 13.491C63.1597 14.4024 61.3813 16.0378 60.0989 18.3321L61.8454 19.3083ZM66.1785 15.3483C67.9699 14.6306 70.3532 14.5199 73.4084 15.1466L73.8104 13.1866C70.5414 12.5161 67.7227 12.5742 65.4343 13.491L66.1785 15.3483ZM73.4084 15.1466C77.1001 15.9037 79.6043 17.4979 81.0922 19.8375L82.7805 18.7638C80.9274 15.8499 77.8804 14.0213 73.8104 13.1866L73.4084 15.1466ZM81.0967 19.8444C82.5909 22.1517 83.0288 25.1524 82.2461 28.9688L84.2061 29.3708C85.0595 25.21 84.6376 21.6313 82.7761 18.7568L81.0967 19.8444ZM82.2461 28.9688C81.7417 31.4281 80.9425 33.5648 79.861 35.3923L81.5829 36.4113C82.7937 34.3653 83.6639 32.014 84.2061 29.3708L82.2461 28.9688ZM79.8558 35.4012C78.7914 37.243 77.6141 38.7877 76.3292 40.0466L77.7294 41.4758C79.1624 40.0718 80.4469 38.377 81.5881 36.4024L79.8558 35.4012ZM76.3177 40.058C75.0272 41.3638 73.3358 42.8781 71.2354 44.6028L72.5051 46.1491C74.6373 44.3983 76.3852 42.8361 77.7408 41.4644L76.3177 40.058ZM71.2442 44.5956C69.7081 45.8281 68.3964 46.945 67.3124 47.9453L68.6694 49.4157C69.71 48.4553 70.9846 47.3691 72.4963 46.1562L71.2442 44.5956ZM67.2972 47.9597C66.2434 48.9738 65.2553 50.0405 64.3332 51.1595L65.8773 52.4319C66.75 51.3728 67.6857 50.3626 68.6846 49.4013L67.2972 47.9597ZM64.9043 52.7757L77.5169 55.3626L77.9189 53.4026L65.3063 50.8157L64.9043 52.7757ZM76.7379 54.1816L74.947 62.9134L76.907 63.3154L78.6979 54.5836L76.7379 54.1816ZM76.128 62.1344L52.0886 57.2038L51.6866 59.1638L75.726 64.0944L76.128 62.1344ZM52.8676 58.3848L53.3208 56.1749L51.3608 55.7729L50.9076 57.9828L52.8676 58.3848ZM83.3417 40.1462L82.3617 39.9452L82.1607 40.9252L83.1407 41.1262L83.3417 40.1462ZM84.5467 34.2711L84.7477 33.2911L83.7677 33.0901L83.5667 34.0701L84.5467 34.2711ZM98.0756 37.0459L99.0556 37.2469L99.2566 36.2669L98.2766 36.0659L98.0756 37.0459ZM96.8706 42.921L96.6696 43.901L97.6496 44.102L97.8506 43.122L96.8706 42.921ZM81.2744 50.2255L80.2944 50.0245L80.0934 51.0045L81.0734 51.2055L81.2744 50.2255ZM82.5236 44.1348L82.7246 43.1548L81.7446 42.9538L81.5436 43.9338L82.5236 44.1348ZM96.0525 46.9096L97.0325 47.1106L97.2335 46.1306L96.2535 45.9296L96.0525 46.9096ZM94.8033 53.0003L94.6023 53.9803L95.5823 54.1813L95.7833 53.2013L94.8033 53.0003ZM84.3217 40.3472L85.5267 34.4721L83.5667 34.0701L82.3617 39.9452L84.3217 40.3472ZM84.3457 35.2511L97.8746 38.0259L98.2766 36.0659L84.7477 33.2911L84.3457 35.2511ZM97.0956 36.8449L95.8906 42.72L97.8506 43.122L99.0556 37.2469L97.0956 36.8449ZM97.0716 41.941L83.5427 39.1662L83.1407 41.1262L96.6696 43.901L97.0716 41.941ZM82.2544 50.4265L83.5036 44.3358L81.5436 43.9338L80.2944 50.0245L82.2544 50.4265ZM82.3226 45.1148L95.8515 47.8896L96.2535 45.9296L82.7246 43.1548L82.3226 45.1148ZM95.0725 46.7086L93.8233 52.7993L95.7833 53.2013L97.0325 47.1106L95.0725 46.7086ZM95.0043 52.0203L81.4754 49.2455L81.0734 51.2055L94.6023 53.9803L95.0043 52.0203ZM107.322 32.3707L108.302 32.5717L108.87 29.8036L106.687 31.5979L107.322 32.3707ZM104.359 33.6727L104.165 32.6911L104.154 32.6935L104.359 33.6727ZM101.089 33.7322L100.109 33.5312L99.9078 34.5112L100.888 34.7122L101.089 33.7322ZM102.603 26.3479L102.648 25.3485L101.795 25.3104L101.623 26.1469L102.603 26.3479ZM107.68 25.4231L107.323 24.4884L107.313 24.4922L107.68 25.4231ZM111.882 22.1849L112.083 21.2049L111.433 21.0716L111.058 21.6185L111.882 22.1849ZM119.321 23.7105L120.301 23.9115L120.502 22.9315L119.522 22.7305L119.321 23.7105ZM109.813 70.0645L109.612 71.0445L110.592 71.2455L110.793 70.2655L109.813 70.0645ZM100.003 68.0525L99.0234 67.8515L98.8224 68.8315L99.8024 69.0325L100.003 68.0525ZM106.687 31.5979C106.076 32.0996 105.252 32.4768 104.165 32.6912L104.552 34.6541C105.885 34.3912 107.036 33.9004 107.957 33.1435L106.687 31.5979ZM104.154 32.6935C103.091 32.9161 102.141 32.9268 101.29 32.7522L100.888 34.7122C102.049 34.9502 103.278 34.9212 104.564 34.6518L104.154 32.6935ZM102.069 33.9332L103.583 26.5489L101.623 26.1469L100.109 33.5312L102.069 33.9332ZM102.559 27.3473C104.351 27.4271 106.184 27.0869 108.046 26.3541L107.313 24.4922C105.673 25.1378 104.121 25.4141 102.648 25.3485L102.559 27.3473ZM108.036 26.3578C110 25.6088 111.57 24.4073 112.707 22.7513L111.058 21.6185C110.166 22.9165 108.934 23.8738 107.323 24.4884L108.036 26.3578ZM111.681 23.1649L119.12 24.6905L119.522 22.7305L112.083 21.2049L111.681 23.1649ZM118.341 23.5095L108.833 69.8635L110.793 70.2655L120.301 23.9115L118.341 23.5095ZM110.014 69.0845L100.204 67.0725L99.8024 69.0325L109.612 71.0445L110.014 69.0845ZM100.983 68.2535L108.302 32.5717L106.342 32.1697L99.0234 67.8515L100.983 68.2535ZM116.331 68.4245L115.483 68.9544L115.487 68.9613L116.331 68.4245ZM124.515 27.9773L125.113 28.7792L125.113 28.7792L124.515 27.9773ZM142.894 31.7471L142.029 32.2488L142.029 32.2488L142.894 31.7471ZM134.495 72.15L133.931 71.3242L133.931 71.3242L134.495 72.15ZM128.317 64.4798L129.002 65.2092L129.012 65.2L129.021 65.1907L128.317 64.4798ZM134.25 36.3772L133.265 36.5545L133.271 36.585L133.278 36.615L134.25 36.3772ZM130.585 35.6254L131.41 36.191L131.415 36.1835L131.42 36.176L130.585 35.6254ZM124.976 63.7944L124.035 64.1339L124.046 64.165L124.059 64.1953L124.976 63.7944ZM124.913 72.5896C121.182 71.8244 118.662 70.2252 117.175 67.8876L115.487 68.9613C117.341 71.8773 120.408 73.7081 124.511 74.5496L124.913 72.5896ZM117.18 67.8945C115.693 65.5139 115.27 62.4174 116.077 58.4868L114.117 58.0848C113.242 62.3471 113.643 66.0097 115.483 68.9544L117.18 67.8945ZM116.077 58.4868L120.366 37.5736L118.406 37.1716L114.117 58.0848L116.077 58.4868ZM120.366 37.5736C121.237 33.3292 122.859 30.4605 125.113 28.7792L123.916 27.1755C121.131 29.2535 119.334 32.6483 118.406 37.1716L120.366 37.5736ZM125.113 28.7792C127.337 27.1203 130.309 26.5923 134.184 27.3871L134.586 25.4271C130.34 24.5562 126.732 25.0751 123.916 27.1755L125.113 28.7792ZM134.184 27.3871C138.098 28.1899 140.639 29.8504 142.029 32.2488L143.76 31.2454C141.997 28.2041 138.865 26.3047 134.586 25.4271L134.184 27.3871ZM142.029 32.2488C143.439 34.6815 143.801 37.9572 142.93 42.2016L144.89 42.6036C145.818 38.0804 145.503 34.2523 143.76 31.2454L142.029 32.2488ZM142.93 42.2016L138.641 63.1148L140.601 63.5168L144.89 42.6036L142.93 42.2016ZM138.641 63.1148C137.827 67.0852 136.219 69.7593 133.931 71.3242L135.06 72.9758C137.911 71.0265 139.72 67.8112 140.601 63.5168L138.641 63.1148ZM133.931 71.3242C131.646 72.8865 128.683 73.3627 124.913 72.5896L124.511 74.5496C128.647 75.3978 132.206 74.9277 135.06 72.9758L133.931 71.3242ZM126.258 66.0334C127.293 66.2457 128.235 65.9293 129.002 65.2092L127.633 63.7504C127.287 64.0751 126.99 64.1412 126.66 64.0734L126.258 66.0334ZM129.021 65.1907C129.741 64.4783 130.197 63.5835 130.409 62.5497L128.449 62.1477C128.307 62.8386 128.022 63.3646 127.614 63.769L129.021 65.1907ZM130.409 62.5497L135.096 39.6961L133.136 39.2941L128.449 62.1477L130.409 62.5497ZM135.096 39.6961C135.379 38.3156 135.457 37.103 135.222 36.1393L133.278 36.615C133.409 37.1495 133.398 38.0155 133.136 39.2941L135.096 39.6961ZM135.234 36.1998C135.129 35.6142 134.861 35.0924 134.412 34.6877C133.975 34.2937 133.427 34.0639 132.839 33.9433L132.437 35.9033C132.784 35.9744 132.971 36.0826 133.072 36.1733C133.16 36.2532 133.231 36.3625 133.265 36.5545L135.234 36.1998ZM132.839 33.9433C132.252 33.8227 131.657 33.8182 131.101 34.0085C130.529 34.2039 130.077 34.5781 129.749 35.0748L131.42 36.176C131.527 36.0131 131.635 35.9403 131.748 35.9017C131.876 35.858 132.091 35.8322 132.437 35.9033L132.839 33.9433ZM129.759 35.0599C129.219 35.8489 128.836 36.9815 128.554 38.3544L130.514 38.7564C130.778 37.4702 131.096 36.6495 131.41 36.191L129.759 35.0599ZM128.554 38.3544L123.867 61.208L125.827 61.61L130.514 38.7564L128.554 38.3544ZM123.867 61.208C123.658 62.2253 123.701 63.21 124.035 64.1339L125.917 63.4549C125.725 62.923 125.682 62.3175 125.827 61.61L123.867 61.208ZM124.059 64.1953C124.481 65.1593 125.223 65.8211 126.258 66.0334L126.66 64.0734C126.329 64.0056 126.082 63.8281 125.892 63.3935L124.059 64.1953Z" fill="white"/>
</svg>
