<svg width="102" height="96" viewBox="0 0 102 96" fill="none" xmlns="http://www.w3.org/2000/svg">
<path d="M100.3 0.399902H1.7C1.24913 0.399902 0.816731 0.579008 0.497919 0.89782C0.179107 1.21663 0 1.64904 0 2.0999V66.6999C0 66.9232 0.0439711 67.1442 0.129404 67.3505C0.214837 67.5567 0.340059 67.7441 0.497919 67.902C0.655779 68.0598 0.843185 68.1851 1.04944 68.2705C1.25569 68.3559 1.47675 68.3999 1.7 68.3999H31.823L25.551 93.4879C25.4884 93.7385 25.4837 94.0001 25.5373 94.2527C25.5909 94.5054 25.7014 94.7425 25.8604 94.9461C26.0193 95.1497 26.2226 95.3144 26.4547 95.4277C26.6868 95.541 26.9417 95.5999 27.2 95.5999H37.4C37.7791 95.5998 38.1473 95.473 38.4461 95.2397C38.7449 95.0063 38.9571 94.6797 39.049 94.3119L45.527 68.3999H56.473L62.951 94.3119C63.0429 94.6797 63.2551 95.0063 63.5539 95.2397C63.8526 95.473 64.2209 95.5998 64.6 95.5999H74.8C75.0583 95.5999 75.3132 95.541 75.5453 95.4277C75.7774 95.3144 75.9807 95.1497 76.1396 94.9461C76.2986 94.7425 76.4091 94.5054 76.4627 94.2527C76.5163 94.0001 76.5116 93.7385 76.449 93.4879L70.177 68.3999H79.277L79.785 83.6439C79.7962 84.9982 80.3354 86.2948 81.2878 87.2577C82.2403 88.2206 83.5309 88.7739 84.885 88.7999H85.123C86.4771 88.7739 87.7677 88.2206 88.7202 87.2577C89.6726 86.2948 90.2118 84.9982 90.223 83.6439L90.724 68.3999H100.3C100.523 68.3999 100.744 68.3559 100.951 68.2705C101.157 68.1851 101.344 68.0598 101.502 67.902C101.66 67.7441 101.785 67.5567 101.871 67.3505C101.956 67.1442 102 66.9232 102 66.6999V2.0999C102 1.64904 101.821 1.21663 101.502 0.89782C101.183 0.579008 100.751 0.399902 100.3 0.399902V0.399902ZM98.6 3.7999V44.4279L95.2 41.6659V36.0999C95.2 35.649 95.0209 35.2166 94.7021 34.8978C94.3833 34.579 93.9509 34.3999 93.5 34.3999H91.579C92.8385 32.6852 93.5121 30.6104 93.5 28.4829V19.2539C93.5 14.0769 90.346 10.5999 85.652 10.5999H73.1C72.8768 10.5999 72.6557 10.6439 72.4494 10.7293C72.2432 10.8147 72.0558 10.94 71.8979 11.0978C71.7401 11.2557 71.6148 11.4431 71.5294 11.6493C71.444 11.8556 71.4 12.0767 71.4 12.2999C71.4 12.5232 71.444 12.7442 71.5294 12.9505C71.6148 13.1567 71.7401 13.3441 71.8979 13.502C72.0558 13.6598 72.2432 13.7851 72.4494 13.8705C72.6557 13.9559 72.8768 13.9999 73.1 13.9999C73.5596 13.9628 74.022 14.0195 74.459 14.1666C74.896 14.3138 75.2985 14.5483 75.642 14.8559C76.2093 15.5457 76.5143 16.4139 76.503 17.3069C76.503 17.3382 76.503 17.3692 76.503 17.3999V26.4719L74.175 24.5809C73.8736 24.3358 73.4974 24.2014 73.1089 24.1999C72.7205 24.1985 72.3432 24.3301 72.04 24.5729L42.915 47.8729L21.436 31.3529C21.1748 31.1521 20.861 31.0315 20.5325 31.0057C20.2041 30.98 19.8753 31.0502 19.586 31.2079L3.4 40.0359V3.7999H98.6ZM78.2 44.5999V37.7999H91.8V44.5999H78.2ZM80.411 31.0059C80.536 31.0059 80.662 31.0129 80.79 31.0129C83.639 31.0129 86.99 29.9569 88.307 26.1229C88.7255 24.863 89.3294 23.6726 90.099 22.5909V28.4829C90.099 31.3289 88.149 34.3999 84.999 34.3999C83.9806 34.3649 82.9969 34.0217 82.1777 33.4157C81.3585 32.8097 80.7425 31.9694 80.411 31.0059V31.0059ZM79.146 13.9999H85.652C88.746 13.9999 89.712 16.1829 89.993 17.9069C87.6723 19.7213 85.9624 22.2024 85.093 25.0169C84.8676 25.748 84.4151 26.3882 83.8012 26.8447C83.1873 27.3012 82.444 27.5503 81.679 27.5559C81.0878 27.6167 80.4917 27.6144 79.901 27.5489V17.4359C79.925 16.247 79.6666 15.0695 79.147 13.9999H79.146ZM3.4 43.9089L20.241 34.7229L40.179 50.0599L21.5 64.9999H3.4V43.9089ZM36.073 92.1999H29.373L35.323 68.3999H42.023L36.073 92.1999ZM72.623 92.1999H65.923L59.977 68.3999H66.677L72.623 92.1999ZM26.946 64.9999L73.092 28.0839L76.862 31.1469C77.1811 32.3214 77.7192 33.4251 78.448 34.3999H76.5C76.0491 34.3999 75.6167 34.579 75.2979 34.8978C74.9791 35.2166 74.8 35.649 74.8 36.0999V46.2999C74.8 46.7508 74.9791 47.1832 75.2979 47.502C75.6167 47.8208 76.0491 47.9999 76.5 47.9999H78.6L79.167 64.9999H26.946ZM85.119 85.3999H84.881C84.4105 85.3693 83.9704 85.1572 83.6532 84.8083C83.3361 84.4595 83.1668 84.0011 83.181 83.5299L82 47.9999H88L86.816 83.5299C86.8308 84.0008 86.662 84.459 86.3454 84.8079C86.0288 85.1568 85.5891 85.369 85.119 85.3999V85.3999ZM90.837 64.9999L91.404 47.9999H93.504C93.9549 47.9999 94.3873 47.8208 94.7061 47.502C95.0249 47.1832 95.204 46.7508 95.204 46.2999V46.0469L98.604 48.8089V64.9999H90.837Z" fill="white"/>
<path d="M42.5 30.9999C44.5174 30.9999 46.4894 30.4016 48.1668 29.2808C49.8442 28.1601 51.1515 26.567 51.9236 24.7032C52.6956 22.8394 52.8976 20.7885 52.504 18.8099C52.1104 16.8313 51.139 15.0139 49.7125 13.5874C48.286 12.1609 46.4685 11.1894 44.4899 10.7958C42.5113 10.4023 40.4604 10.6043 38.5966 11.3763C36.7328 12.1483 35.1398 13.4557 34.019 15.133C32.8982 16.8104 32.3 18.7825 32.3 20.7999C32.3 23.5051 33.3746 26.0995 35.2875 28.0123C37.2004 29.9252 39.7948 30.9999 42.5 30.9999V30.9999ZM42.5 13.9999C43.8449 13.9999 45.1596 14.3987 46.2779 15.1459C47.3961 15.8931 48.2677 16.9551 48.7824 18.1976C49.297 19.4402 49.4317 20.8074 49.1693 22.1265C48.9069 23.4455 48.2593 24.6572 47.3083 25.6082C46.3573 26.5592 45.1457 27.2068 43.8266 27.4692C42.5075 27.7316 41.1403 27.5969 39.8977 27.0822C38.6552 26.5676 37.5932 25.696 36.846 24.5777C36.0988 23.4595 35.7 22.1448 35.7 20.7999C35.7 18.9964 36.4164 17.2668 37.6917 15.9915C38.9669 14.7163 40.6965 13.9999 42.5 13.9999Z" fill="white"/>
</svg>
