<svg width="89" height="88" viewBox="0 0 89 88" fill="none" xmlns="http://www.w3.org/2000/svg">
<path d="M83.8551 36.2052C84.0629 35.2195 83.8716 34.1917 83.323 33.3469C82.7743 32.502 81.9132 31.9092 80.9282 31.6982L79.7309 31.4437C78.9458 29.5418 78.7545 27.4469 79.1823 25.4343C79.6101 23.4217 80.6369 21.5857 82.1277 20.1676L83.326 20.4223C88.1138 21.4359 89.7238 14.0012 84.9084 12.9776L42.2142 3.90269C41.9257 3.84137 41.6247 3.89716 41.3773 4.05779C41.13 4.21841 40.9566 4.47072 40.8953 4.75919C40.834 5.04767 40.8898 5.34869 41.0504 5.59603C41.211 5.84337 41.4633 6.01677 41.7518 6.07809L84.446 15.153C86.3739 15.5628 85.8049 18.6725 83.789 18.244L26.316 6.0277C24.2437 5.58723 22.0813 5.988 20.3046 7.14184C18.5278 8.29569 17.2822 10.1081 16.8417 12.1803C16.4012 14.2526 16.802 16.415 17.9559 18.1917C19.1097 19.9685 20.9221 21.2141 22.9944 21.6546L80.4674 33.8709C82.4325 34.2885 81.7693 37.5049 79.7846 37.0831L22.3116 24.8668C20.8786 24.5611 19.5214 23.9713 18.3203 23.1321C17.1192 22.293 16.0985 21.2215 15.3186 19.9811C13.7073 17.4785 13.1517 14.44 13.7731 11.5291C14.387 8.64088 16.1215 6.11414 18.5962 4.50329C21.0708 2.89245 24.0834 2.32906 26.973 2.93675L35.9572 4.84642C36.2457 4.90774 36.5467 4.85195 36.7941 4.69132C37.0414 4.5307 37.2148 4.27839 37.2761 3.98992C37.3375 3.70144 37.2817 3.40042 37.121 3.15308C36.9604 2.90574 36.7081 2.73234 36.4196 2.67102L27.4354 0.761352C24.8455 0.223985 22.1547 0.46425 19.701 1.45194C17.2474 2.43963 15.1405 4.13066 13.6452 6.31243C12.15 8.4942 11.3331 11.0693 11.2973 13.7141C11.2615 16.3588 12.0084 18.9551 13.4441 21.1765C13.9415 21.9561 14.5169 22.683 15.1615 23.346L12.9715 22.8805C11.9846 22.6707 10.9549 22.8616 10.1087 23.4111C9.26263 23.9605 8.66944 24.8236 8.45968 25.8105C8.24992 26.7973 8.44077 27.8271 8.99025 28.6732C9.53973 29.5193 10.4028 30.1125 11.3897 30.3222L12.5869 30.5767C13.3769 32.477 13.5684 34.5731 13.1357 36.5851C12.7127 38.5995 11.6852 40.4369 10.1903 41.8518L8.99306 41.5974C8.00635 41.3876 6.97674 41.5784 6.13073 42.1279C5.28472 42.6773 4.69162 43.5402 4.48188 44.5269C4.27215 45.5137 4.46298 46.5433 5.01239 47.3893C5.56179 48.2353 6.42477 48.8284 7.41148 49.0381L9.54971 49.4926C6.87882 50.5463 4.61799 52.4316 3.10166 54.8697C1.58533 57.3079 0.894042 60.1694 1.13005 63.0308C1.36605 65.8923 2.51682 68.6019 4.41212 70.7586C6.30742 72.9154 8.84659 74.4049 11.654 75.0067L69.127 87.2229C73.9092 88.2394 75.5233 80.8045 70.7088 79.7812L69.5106 79.5265C68.7256 77.6246 68.5344 75.5297 68.9622 73.5172C69.39 71.5046 70.4167 69.6686 71.9074 68.2504L73.1056 68.5051C77.8878 69.5216 79.5019 62.0867 74.6874 61.0634L72.5482 60.6087C74.603 59.7988 76.4251 58.4926 77.852 56.8068C79.2788 55.1209 80.266 53.108 80.7251 50.9476C81.1843 48.7873 81.1013 46.5468 80.4835 44.4264C79.8657 42.306 78.7323 40.3716 77.1847 38.796L79.3239 39.2507C80.3269 39.4325 81.3614 39.2161 82.2075 38.6474C83.0535 38.0788 83.6446 37.2027 83.8551 36.2052V36.2052ZM19.032 12.6449C19.3494 11.1518 20.246 9.84553 21.5253 9.01272C22.8045 8.1799 24.3619 7.88854 25.8557 8.20254L79.5922 19.6246C78.3122 21.1711 77.4257 23.0045 77.0083 24.9681C76.5909 26.9318 76.6551 28.9672 77.1954 30.9007L23.457 19.4782C21.965 19.157 20.6614 18.2573 19.8318 16.9763C19.0023 15.6953 18.7147 14.1376 19.032 12.6449V12.6449ZM15.1264 31.1155L68.8629 42.5375C70.3582 42.8554 71.666 43.7542 72.4986 45.0363C73.3312 46.3184 73.6204 47.8787 73.3025 49.374C72.9847 50.8693 72.0859 52.1771 70.8038 53.0097C69.5217 53.8423 67.9614 54.1315 66.4661 53.8136L61.6076 52.7809L62.5748 48.2306L65.1747 48.7832C65.4632 48.8445 65.7642 48.7887 66.0116 48.6281C66.2589 48.4675 66.4323 48.2152 66.4936 47.9267C66.555 47.6382 66.4992 47.3372 66.3385 47.0899C66.1779 46.8425 65.9256 46.6691 65.6371 46.6078L28.18 38.646C27.8915 38.5847 27.5905 38.6405 27.3431 38.8011C27.0958 38.9618 26.9224 39.2141 26.8611 39.5025C26.7997 39.791 26.8555 40.092 27.0162 40.3394C27.1768 40.5867 27.4291 40.7601 27.7176 40.8214L50.8468 45.7377L49.8796 50.2881L12.7267 42.3909C14.0106 40.847 14.8978 39.0126 15.3111 37.0475C15.7328 35.0842 15.6684 33.0476 15.1235 31.1149L15.1264 31.1155ZM53.0242 46.2005L60.4014 47.7686L56.3856 66.6615L54.1213 63.3034C53.962 63.0672 53.7181 62.9012 53.4399 62.8396C53.1618 62.778 52.8706 62.8255 52.6264 62.9723L48.9933 65.1547L53.0222 46.2001L53.0242 46.2005ZM7.87366 46.8637C7.46352 46.7765 7.10481 46.53 6.87643 46.1783C6.64806 45.8267 6.56874 45.3987 6.65592 44.9885C6.7431 44.5784 6.98964 44.2197 7.3413 43.9913C7.69296 43.7629 8.12094 43.6836 8.53108 43.7708L49.4177 52.4615L48.7607 55.5524L7.87366 46.8637ZM66.9734 78.9913L53.832 76.198C53.5435 76.1367 53.2425 76.1925 52.9952 76.3531C52.7478 76.5137 52.5744 76.766 52.5131 77.0545C52.4518 77.343 52.5076 77.644 52.6682 77.8913C52.8288 78.1387 53.0812 78.3121 53.3696 78.3734L70.2456 81.9605C72.1735 82.3703 71.6046 85.48 69.5886 85.0514L12.1156 72.8352C9.22304 72.2204 6.69321 70.4817 5.08262 68.0016C3.47204 65.5215 2.91263 62.5032 3.52746 59.6106C4.14228 56.7181 5.88099 54.1882 8.36108 52.5777C10.8412 50.9671 13.8595 50.4077 16.752 51.0225L48.2983 57.7278L47.6413 60.8188L16.095 54.1134C14.0331 53.6992 11.8911 54.1149 10.1338 55.2701C8.37641 56.4254 7.14555 58.2271 6.7083 60.2842C6.27105 62.3413 6.66268 64.4878 7.79821 66.258C8.93374 68.0282 10.7215 69.2791 12.7736 69.7393L47.5673 77.135C47.8558 77.1963 48.1568 77.1405 48.4042 76.9799C48.6515 76.8193 48.8249 76.5669 48.8862 76.2785C48.9475 75.99 48.8917 75.689 48.7311 75.4416C48.5705 75.1943 48.3182 75.0209 48.0297 74.9596L13.236 67.5639C11.7407 67.2461 10.4329 66.3473 9.60033 65.0652C8.76773 63.7831 8.47855 62.2228 8.79638 60.7275C9.11422 59.2322 10.013 57.9244 11.2951 57.0918C12.5772 56.2592 14.1375 55.97 15.6328 56.2879L47.1791 62.9932L46.2869 67.1904C46.2462 67.4014 46.2669 67.6196 46.3466 67.8191C46.4264 68.0186 46.5617 68.191 46.7366 68.3157C46.9116 68.4405 47.1186 68.5123 47.3332 68.5227C47.5478 68.5332 47.7609 68.4817 47.947 68.3745L52.8692 65.4183L56.0081 70.0726C56.1318 70.2509 56.3047 70.3894 56.5057 70.4711C56.7068 70.5528 56.9272 70.5743 57.1402 70.5328C57.3532 70.4914 57.5496 70.3889 57.7053 70.2377C57.8611 70.0866 57.9695 69.8934 58.0173 69.6818L58.9084 65.4894L69.3746 67.7141C68.0946 69.2606 67.208 71.094 66.7907 73.0576C66.3733 75.0213 66.4375 77.0567 66.9778 78.9902L66.9734 78.9913ZM74.2252 63.2429C76.1531 63.6527 75.5841 66.7623 73.5682 66.3338L59.3684 63.3156L60.0254 60.2246L74.2242 63.2427L74.2252 63.2429ZM78.5458 50.4915C77.9309 53.379 76.1959 55.9048 73.7214 57.5148C71.2468 59.1248 68.2347 59.6876 65.3457 59.0798L60.4882 58.0473L61.1456 54.9544L66.0041 55.9871C68.0764 56.4275 70.2387 56.0268 72.0155 54.8729C73.7922 53.7191 75.0379 51.9067 75.4783 49.8344C75.9188 47.7622 75.518 45.5998 74.3642 43.823C73.2104 42.0463 71.398 40.8006 69.3257 40.3602L11.8527 28.1439C11.4428 28.0568 11.0843 27.8104 10.8561 27.459C10.6279 27.1075 10.5486 26.6798 10.6357 26.2699C10.7228 25.86 10.9692 25.5016 11.3206 25.2733C11.6721 25.0451 12.0998 24.9658 12.5097 25.053L69.9817 37.269C72.869 37.889 75.3924 39.6291 76.9981 42.1075C78.6038 44.5859 79.1606 47.6001 78.5464 50.4886L78.5458 50.4915Z" fill="white" stroke="white" stroke-width="0.8"/>
</svg>
