<svg width="109" height="118" viewBox="0 0 109 118" fill="none" xmlns="http://www.w3.org/2000/svg">
<path d="M11.357 39.582C11.601 39.6538 11.8569 39.6766 12.1098 39.6492C12.3627 39.6218 12.6077 39.5447 12.8307 39.4223C13.0537 39.2999 13.2504 39.1347 13.4093 38.9361C13.5683 38.7375 13.6864 38.5094 13.757 38.265C17.0538 27.0125 24.4813 17.4215 34.5512 11.4143C44.621 5.4071 56.5891 3.42741 68.057 5.872C68.0525 7.99534 68.7173 10.0661 69.957 11.79C70.172 12.13 70.464 12.59 70.498 12.658C70.498 19.593 69.08 20.722 69.098 20.726C65.963 20.726 60.819 23.526 58.885 27.137C58.3006 28.1498 58.0157 29.3076 58.0634 30.476C58.111 31.6443 58.4892 32.7751 59.154 33.737C60.0721 35.176 60.9107 36.6642 61.666 38.195C63.31 41.378 65.133 44.91 67.998 44.91C68.6847 44.8956 69.3584 44.7202 69.965 44.398C72.22 43.271 73.837 40.064 75.399 36.966C76.0385 35.5619 76.8086 34.221 77.699 32.961C79.662 33.228 80.621 35.003 81.919 37.815C82.874 39.884 83.863 42.021 85.804 42.992C89.072 44.626 99.819 42.915 105.758 40.392C106.187 40.2093 106.536 39.8775 106.74 39.4577C106.944 39.0379 106.99 38.5586 106.868 38.108C104.827 30.6592 101.107 23.7769 95.9932 17.9888C90.8796 12.2008 84.5083 7.66078 77.368 4.717C76.8935 4.52259 76.3612 4.52463 75.8883 4.72267C75.4153 4.92071 75.0404 5.29852 74.846 5.773C74.6516 6.24747 74.6536 6.77973 74.8517 7.2527C75.0497 7.72567 75.4275 8.10059 75.902 8.295C82.2212 10.9026 87.8913 14.865 92.5122 19.9027C97.1332 24.9404 100.592 30.9307 102.646 37.451C96.628 39.572 88.904 40.211 87.529 39.532C86.802 39.168 86.071 37.588 85.429 36.194C84.081 33.274 82.234 29.274 77.519 29.066C75.082 28.919 73.709 31.723 71.943 35.226C70.906 37.28 69.343 40.384 68.095 40.997C67.377 40.829 65.952 38.069 65.101 36.421C64.2806 34.7627 63.3689 33.1513 62.37 31.594C62.0918 31.2149 61.9352 30.7603 61.9211 30.2903C61.907 29.8203 62.036 29.3571 62.291 28.962C63.62 26.483 67.606 24.593 69.091 24.593C72.591 24.593 74.361 20.578 74.361 12.657C74.2728 11.5914 73.8787 10.5739 73.226 9.727C72.6773 9.04266 72.2882 8.2446 72.0868 7.39091C71.8855 6.53722 71.877 5.64938 72.062 4.792C72.1689 4.30144 72.081 3.78852 71.8168 3.36159C71.5525 2.93466 71.1327 2.62714 70.646 2.504C58.0204 -0.671585 44.6557 1.16623 33.3559 7.63181C22.0561 14.0974 13.6997 24.6882 10.04 37.182C9.96835 37.4261 9.94562 37.6818 9.97309 37.9347C10.0006 38.1876 10.0777 38.4325 10.2 38.6555C10.3224 38.8785 10.4876 39.0751 10.6861 39.2341C10.8847 39.3931 11.1126 39.5113 11.357 39.582V39.582Z" fill="white"/>
<path d="M81.524 52.27C80.965 52.429 80.201 52.649 79.998 52.665C77.325 52.665 75.631 54.734 74.398 56.245C73.926 56.821 73.073 57.856 72.53 57.872C71.6837 57.442 70.7482 57.217 69.799 57.215C68.7687 57.1567 67.7483 57.442 66.8977 58.0262C66.0471 58.6104 65.4144 59.4605 65.099 60.443C64.788 61.758 65.246 63.559 67.46 64.667C70.601 66.237 73.848 67.86 75.292 69.305C76.6065 70.4115 78.2957 70.9714 80.011 70.869C83.057 70.869 87.111 69.39 88.497 65.216C89.1942 63.6117 90.2691 62.1999 91.63 61.101C93.104 59.687 94.498 58.355 94.517 56.442C94.5017 55.8342 94.3621 55.2359 94.1067 54.6842C93.8513 54.1324 93.4855 53.6389 93.032 53.234C92.3008 52.5392 91.4365 51.9997 90.4913 51.6477C89.5461 51.2957 88.5395 51.1387 87.532 51.186C85.4891 51.2704 83.4675 51.6351 81.524 52.27V52.27ZM90.652 56.387C90.1897 57.1093 89.6182 57.7556 88.958 58.303C87.1277 59.8235 85.7086 61.7793 84.831 63.991C83.876 66.853 80.65 66.998 80.013 66.998C79.3252 67.0435 78.6384 66.8949 78.031 66.569C76.14 64.678 72.765 62.989 69.191 61.204L69.17 61.194C69.7094 61.0238 70.294 61.0723 70.798 61.329C71.3857 61.6326 72.0365 61.7943 72.698 61.801C74.839 61.801 76.191 60.15 77.382 58.693C78.254 57.631 79.154 56.531 79.993 56.531C80.8754 56.4619 81.7452 56.2794 82.581 55.988C84.1804 55.4572 85.8433 55.1417 87.526 55.05C88.025 55.009 88.5272 55.0688 89.0025 55.226C89.4779 55.3832 89.9168 55.6345 90.293 55.965C90.4243 56.0953 90.5444 56.2365 90.652 56.387V56.387Z" fill="white"/>
<path d="M108.127 44.305C108.096 44.0503 108.014 43.8042 107.887 43.5813C107.76 43.3583 107.59 43.1629 107.387 43.0063C107.184 42.8498 106.951 42.7353 106.703 42.6695C106.455 42.6037 106.196 42.5879 105.942 42.6231C105.688 42.6582 105.443 42.7436 105.222 42.8743C105.002 43.005 104.809 43.1783 104.656 43.3842C104.502 43.59 104.392 43.8244 104.33 44.0734C104.268 44.3225 104.257 44.5814 104.296 44.835C104.59 46.9651 104.738 49.1127 104.739 51.263C104.725 63.4721 99.9069 75.1852 91.3257 83.8699C82.7445 92.5546 71.09 97.513 58.8819 97.673C52.0049 93.281 45.5589 87.901 48.4309 81.202C53.5869 69.167 48.7889 64.682 46.7389 62.764L46.3539 62.398C45.8014 61.88 45.1867 61.4325 44.5239 61.066C43.1079 60.217 42.7239 59.989 43.4869 57.709C43.8692 56.549 44.5378 55.5041 45.4309 54.671C47.2199 52.78 48.5869 50.898 48.5869 45.429C48.6393 43.956 48.2438 42.5018 47.4527 41.2582C46.6617 40.0146 45.5122 39.04 44.1559 38.463C40.9629 37.051 36.6989 37.55 34.4439 39.596C33.77 40.1677 33.2851 40.9302 33.0531 41.7829C32.821 42.6356 32.8527 43.5386 33.1439 44.373C34.5229 48.502 31.3719 54.473 25.4859 58.885C23.9269 60.053 23.4629 59.517 23.1859 59.198C21.4589 57.208 21.5929 51.547 23.0099 50.132C23.4578 49.7374 23.7712 49.2127 23.9064 48.6313C24.0416 48.0499 23.9918 47.4407 23.7639 46.889C22.1979 43.336 12.2049 43.611 10.2229 43.704C9.76619 43.7257 9.33181 43.9082 8.99671 44.2193C8.6616 44.5305 8.44738 44.9501 8.39194 45.404C8.14968 47.3492 8.03278 49.3079 8.04194 51.268C8.01945 62.5053 11.7705 73.4248 18.6939 82.276C25.6173 91.1272 35.312 97.3976 46.2239 100.082C46.4704 100.143 46.7265 100.154 46.9775 100.116C47.2285 100.078 47.4695 99.9909 47.6868 99.8596C47.9041 99.7283 48.0934 99.5555 48.2439 99.3511C48.3944 99.1466 48.5031 98.9145 48.5639 98.668C48.6247 98.4215 48.6364 98.1655 48.5982 97.9145C48.5601 97.6635 48.4729 97.4224 48.3416 97.2052C48.2103 96.9879 48.0375 96.7986 47.833 96.6481C47.6285 96.4976 47.3964 96.3888 47.1499 96.328C37.078 93.8489 28.13 88.0601 21.7402 79.8895C15.3503 71.7189 11.8886 61.6395 11.9099 51.267C11.9099 49.925 11.9559 48.739 12.0589 47.531C14.5732 47.4735 17.0842 47.7451 19.5279 48.339C17.3099 51.803 17.5529 58.612 20.2649 61.739C22.2089 63.979 25.0279 64.071 27.8089 61.985C35.2389 56.413 38.7739 49.02 36.8149 43.156C36.7529 42.965 36.6909 42.785 37.0469 42.462C38.0639 41.538 40.6539 41.147 42.5919 42.006C43.2662 42.2755 43.8364 42.7538 44.2191 43.3709C44.6019 43.9879 44.777 44.7112 44.7189 45.435C44.7189 49.8 43.8389 50.735 42.6189 52.02C41.3371 53.2622 40.3762 54.7972 39.8189 56.493C38.0809 61.717 40.8689 63.393 42.5359 64.393C42.9241 64.6016 43.2879 64.8525 43.6209 65.141C43.7619 65.282 43.9209 65.433 44.0989 65.597C45.7989 67.187 48.9649 70.148 44.8779 79.684C40.2439 90.497 52.1919 98.035 57.2939 101.255C57.6034 101.45 57.9613 101.554 58.3269 101.555C71.6578 101.54 84.4384 96.2372 93.8647 86.8108C103.291 77.3844 108.594 64.6039 108.609 51.273C108.608 48.942 108.447 46.6139 108.127 44.305V44.305Z" fill="white"/>
<path d="M90.64 94.7171C82.5849 100.706 73.0238 104.339 63.0239 105.21C53.024 106.08 42.979 104.154 34.0101 99.6472C25.0412 95.1401 17.5015 88.2289 12.2326 79.6853C6.96368 71.1417 4.17296 61.3018 4.17196 51.2641C4.17196 51.0101 4.12193 50.7586 4.02474 50.524C3.92755 50.2893 3.78509 50.0761 3.6055 49.8965C3.42591 49.7169 3.21271 49.5745 2.97807 49.4773C2.74342 49.3801 2.49193 49.3301 2.23796 49.3301C1.98398 49.3301 1.73249 49.3801 1.49785 49.4773C1.2632 49.5745 1.05 49.7169 0.870411 49.8965C0.690822 50.0761 0.548366 50.2893 0.451174 50.524C0.353981 50.7586 0.303955 51.0101 0.303955 51.2641C0.323072 66.3092 6.17998 80.7598 16.6412 91.5727C27.1025 102.386 41.3517 108.717 56.388 109.233V115.083C56.388 115.596 56.5917 116.088 56.9544 116.451C57.3171 116.813 57.809 117.017 58.322 117.017C58.8349 117.017 59.3268 116.813 59.6895 116.451C60.0522 116.088 60.256 115.596 60.256 115.083V109.204C72.0657 108.862 83.4827 104.886 92.951 97.8191C93.3468 97.5072 93.6053 97.053 93.6713 96.5534C93.7374 96.0538 93.6057 95.5481 93.3045 95.1441C93.0033 94.74 92.5563 94.4695 92.0586 94.3901C91.5609 94.3107 91.0519 94.4288 90.64 94.7191V94.7171Z" fill="white"/>
<path d="M59.804 79.339C57.39 79.339 54.559 82.116 53.527 84.609C53.1111 85.4078 52.9514 86.3153 53.0695 87.2082C53.1876 88.101 53.5777 88.9357 54.187 89.599C55.4735 90.7674 57.1491 91.4147 58.887 91.4147C60.6249 91.4147 62.3004 90.7674 63.587 89.599C64.871 88.315 65.187 86.427 64.469 84.287C63.9309 82.7515 63.0598 81.3541 61.918 80.195C61.6393 79.9202 61.3091 79.7032 60.9463 79.5563C60.5835 79.4094 60.1953 79.3355 59.804 79.339V79.339ZM60.856 86.862C60.2849 87.2731 59.6 87.496 58.8963 87.4998C58.1927 87.5036 57.5054 87.288 56.93 86.883C56.9339 86.3712 57.1049 85.8747 57.417 85.469C57.9424 84.5927 58.6692 83.8543 59.537 83.315C60.0872 83.9642 60.5164 84.707 60.804 85.508C61.018 86.148 61.033 86.682 60.856 86.862V86.862Z" fill="white"/>
</svg>
