<svg width="92" height="110" viewBox="0 0 92 110" fill="none" xmlns="http://www.w3.org/2000/svg">
<path d="M23.3306 57.8359L21.6498 58.224C21.418 58.2774 21.2003 58.3796 21.0112 58.5238C20.822 58.6679 20.6658 58.8508 20.5529 59.0601C20.44 59.2695 20.373 59.5005 20.3565 59.7377C20.3399 59.975 20.3741 60.213 20.4568 60.436L36.6002 103.955C37.3116 105.859 38.69 107.44 40.4794 108.403C42.2687 109.367 44.3471 109.648 46.3283 109.195L83.7704 100.551C85.7507 100.089 87.496 98.9245 88.6816 97.2727C89.8672 95.6208 90.4123 93.5945 90.2155 91.5707L85.6476 45.3794C85.6241 45.1428 85.5504 44.914 85.4315 44.7081C85.3125 44.5023 85.1511 44.3241 84.9579 44.1856C84.7647 44.047 84.5442 43.9513 84.3111 43.9046C84.078 43.858 83.8376 43.8616 83.6059 43.9151L82.4757 44.1761L85.6383 25.268L89.0103 21.3141C90.014 20.1432 90.6731 18.7166 90.9141 17.1932C91.1551 15.6699 90.9686 14.1096 90.3754 12.6859L85.9019 1.88853C85.7933 1.62626 85.6198 1.39593 85.3977 1.21921C85.1755 1.04249 84.9121 0.925189 84.6321 0.878347C84.3522 0.831505 84.0649 0.856663 83.7974 0.951452C83.5298 1.04624 83.2908 1.20754 83.1028 1.42018L75.3581 10.1727C74.3332 11.326 73.6485 12.7413 73.3803 14.2608C73.1121 15.7803 73.271 17.3444 73.8392 18.7789L75.7392 23.6124L71.8896 46.6221L68.869 47.3195L65.8853 34.3954L64.8886 22.7255C64.8538 22.3153 64.6689 21.9322 64.3693 21.6498L55.5886 13.3739C55.3882 13.185 55.1442 13.0485 54.8784 12.9765C54.6125 12.9045 54.333 12.8992 54.0647 12.9612C53.7963 13.0231 53.5474 13.1504 53.34 13.3316C53.1327 13.5129 52.9732 13.7425 52.8759 14.0002L48.6128 25.2875C48.4673 25.6727 48.469 26.098 48.6176 26.482L52.8394 37.4073L55.8239 50.3343L52.627 51.0723L50.745 42.9207C50.6936 42.6924 50.5947 42.4775 50.4547 42.2899L40.5418 29.1234C40.3472 28.8647 40.0818 28.668 39.7777 28.5571C39.4735 28.4462 39.1438 28.426 38.8284 28.4988C38.513 28.5716 38.2255 28.7344 38.0007 28.9673C37.776 29.2003 37.6236 29.4934 37.5622 29.8113L35.5211 40.3526L16.9414 14.3045C16.6836 13.9433 16.293 13.6993 15.8554 13.6262C15.4178 13.553 14.969 13.6567 14.6078 13.9144L0.984724 23.6279C0.623558 23.8856 0.379565 24.2763 0.306415 24.7139C0.233264 25.1515 0.33695 25.6003 0.594664 25.9615L23.3306 57.8359ZM38.6107 49.8674L39.1983 50.2346C39.4962 50.421 39.8451 50.5088 40.1957 50.4857C40.5463 50.4627 40.8807 50.3298 41.1515 50.106L41.9486 49.4468L42.8453 53.3306L39.584 54.0835L38.6107 49.8674ZM82.5016 47.6092L83.4932 57.6834L27.7768 70.5465L24.2518 61.0573L82.5016 47.6092ZM86.8784 91.906C86.9959 93.1197 86.6686 94.3349 85.9574 95.3254C85.2461 96.3159 84.1993 97.0143 83.0116 97.2908L45.5734 105.934C44.3848 106.206 43.138 106.037 42.0647 105.458C40.9914 104.88 40.1648 103.931 39.7384 102.789L28.9504 73.7096L83.8289 61.0399L86.8784 91.906ZM80.4757 35.8157L77.1791 35.2682L78.8362 25.3667L82.1361 25.9195L80.4757 35.8157ZM77.857 12.3945L83.8273 5.64755L87.2758 13.9701C87.6322 14.8244 87.7445 15.7609 87.6001 16.6753C87.4556 17.5896 87.0602 18.446 86.4578 19.1488L83.3999 22.7336L78.6682 21.9407L76.9452 17.558C76.6042 16.6972 76.5089 15.7588 76.6699 14.8471C76.8309 13.9354 77.2419 13.0864 77.857 12.3945V12.3945ZM76.6224 38.565L79.9233 39.1176L78.9398 44.9975L75.4097 45.8125L76.6224 38.565ZM62.9748 36.6633L63.7275 39.9235L57.1993 41.4307L56.4466 38.1704L62.9748 36.6633ZM54.0569 20.3513L55.4484 26.3787C55.5482 26.8111 55.8157 27.1861 56.192 27.4212C56.5683 27.6563 57.0226 27.7323 57.4549 27.6325C57.8872 27.5327 58.2622 27.2652 58.4973 26.889C58.7325 26.5127 58.8085 26.0584 58.7087 25.6261L57.3171 19.5986L61.611 23.6475L62.4373 33.3523L55.4812 34.9582L51.9657 25.8743L54.0569 20.3513ZM57.9519 44.6909L64.4802 43.1837L65.6095 48.0751L59.0812 49.5823L57.9519 44.6909ZM46.1016 52.5788L45.2052 48.696L46.2104 48.938C46.5519 49.0205 46.9107 48.9933 47.2359 48.8604C47.5611 48.7275 47.8362 48.4955 48.0222 48.1975L48.3895 47.6098L49.3628 51.8259L46.1016 52.5788ZM45.8229 45.4016L43.358 44.8068C43.1049 44.7455 42.841 44.7441 42.5873 44.8027C42.3336 44.8612 42.097 44.9782 41.8964 45.1442L39.9416 46.7594L37.9256 45.4996L38.5452 42.3023L45.1212 40.7841L47.0798 43.3862L45.8229 45.4016ZM40.1317 34.1443L42.9294 37.8561L39.2482 38.7059L40.1317 34.1443ZM15.1879 17.6096L34.6438 44.883L34.43 45.9885C34.3863 46.2184 34.3916 46.455 34.4455 46.6828L36.3275 54.8343L30.1529 56.2599L31.6967 55.1583C31.8756 55.0308 32.0276 54.8692 32.1441 54.6829C32.2606 54.4966 32.3392 54.2892 32.3755 54.0724C32.4118 53.8557 32.4051 53.634 32.3557 53.4199C32.3063 53.2058 32.2153 53.0035 32.0877 52.8246C31.9601 52.6456 31.7986 52.4936 31.6123 52.3771C31.426 52.2607 31.2185 52.182 31.0018 52.1457C30.7851 52.1094 30.5634 52.1161 30.3492 52.1655C30.1351 52.2149 29.9328 52.306 29.7539 52.4335L25.6665 55.3467L23.724 52.6228L25.0856 51.6527C25.2645 51.5251 25.4166 51.3635 25.5331 51.1772C25.6495 50.9909 25.7282 50.7835 25.7645 50.5668C25.8008 50.35 25.7941 50.1283 25.7447 49.9142C25.6953 49.7001 25.6042 49.4978 25.4767 49.3189C25.3491 49.14 25.1875 48.9879 25.0012 48.8714C24.8149 48.755 24.6075 48.6763 24.3908 48.64C24.1741 48.6037 23.9523 48.6104 23.7382 48.6598C23.5241 48.7092 23.3218 48.8003 23.1429 48.9278L21.7815 49.899L19.8334 47.1733L23.9204 44.2583C24.0993 44.1307 24.2513 43.9691 24.3678 43.7828C24.4843 43.5965 24.5629 43.3891 24.5992 43.1724C24.6356 42.9556 24.6288 42.7339 24.5794 42.5198C24.5301 42.3057 24.439 42.1034 24.3114 41.9245C24.1839 41.7456 24.0223 41.5935 23.836 41.477C23.6497 41.3606 23.4422 41.2819 23.2255 41.2456C23.0088 41.2093 22.7871 41.216 22.573 41.2654C22.3588 41.3148 22.1566 41.4059 21.9776 41.5334L17.8904 44.4476L15.9467 41.723L17.3081 40.7518C17.4871 40.6243 17.6391 40.4627 17.7556 40.2764C17.872 40.0901 17.9507 39.8826 17.987 39.6659C18.0233 39.4492 18.0166 39.2275 17.9672 39.0134C17.9178 38.7992 17.8267 38.597 17.6992 38.418C17.5716 38.2391 17.4101 38.0871 17.2237 37.9706C17.0374 37.8541 16.83 37.7755 16.6133 37.7392C16.3966 37.7029 16.1748 37.7096 15.9607 37.759C15.7466 37.8084 15.5443 37.8994 15.3654 38.027L14.0032 38.9994L12.0633 36.278L16.1503 33.3629C16.3291 33.2352 16.4811 33.0736 16.5974 32.8872C16.7138 32.7008 16.7923 32.4933 16.8284 32.2766C16.8646 32.0599 16.8577 31.8381 16.8082 31.6241C16.7587 31.41 16.6675 31.2078 16.5398 31.029C16.4121 30.8501 16.2505 30.6982 16.0641 30.5819C15.8777 30.4655 15.6702 30.387 15.4535 30.3509C15.2367 30.3147 15.015 30.3216 14.801 30.3711C14.5869 30.4206 14.3847 30.5118 14.2058 30.6395L10.1208 33.5541L8.17828 30.8303L9.54047 29.858C9.71938 29.7304 9.87142 29.5688 9.9879 29.3825C10.1044 29.1962 10.183 28.9888 10.2193 28.7721C10.2556 28.5553 10.2489 28.3336 10.1995 28.1195C10.1501 27.9054 10.0591 27.7031 9.9315 27.5242C9.80394 27.3453 9.64239 27.1932 9.45607 27.0767C9.26975 26.9603 9.06231 26.8816 8.8456 26.8453C8.62889 26.809 8.40715 26.8157 8.19304 26.8651C7.97893 26.9145 7.77664 27.0056 7.59772 27.1331L6.23434 28.1047L4.29183 25.3809L15.1879 17.6096Z" fill="white"/>
</svg>
