<svg width="124" height="120" viewBox="0 0 124 120" fill="none" xmlns="http://www.w3.org/2000/svg">
<path d="M69.1801 52.956C70.1019 54.5504 70.5302 56.3823 70.4109 58.2201C70.2916 60.0579 69.63 61.8191 68.5098 63.2809C67.3896 64.7427 65.8611 65.8395 64.1176 66.4326C62.374 67.0258 60.4937 67.0886 58.7145 66.6132C56.9352 66.1377 55.337 65.1454 54.1217 63.7616C52.9064 62.3779 52.1288 60.6648 51.887 58.8391C51.6453 57.0133 51.9503 55.1569 52.7636 53.5046C53.5769 51.8522 54.8619 50.4781 56.4561 49.556C57.5148 48.9436 58.6837 48.5457 59.8962 48.3851C61.1087 48.2245 62.3409 48.3043 63.5225 48.6201C64.7041 48.9358 65.8119 49.4812 66.7827 50.2252C67.7534 50.9692 68.5681 51.8971 69.1801 52.956V52.956Z" fill="white"/>
<path d="M49.2951 43.254C39.7351 54.167 3.07912 86.803 19.9491 103.99C32.0091 116.29 58.2251 86.214 65.1491 79.019C75.4198 68.2927 84.7711 56.7223 93.1041 44.43C98.5801 36.379 106.994 25.202 105.653 14.916C104.653 7.27797 94.3851 9.99797 89.8681 11.607C73.9371 17.285 60.2461 30.866 49.2951 43.254C47.9461 44.775 50.3611 46.789 51.6951 45.275C60.3902 35.223 70.4796 26.4675 81.6561 19.275C86.1866 16.2672 91.2351 14.1247 96.5461 12.956C107.237 10.874 100.585 25.245 98.7461 28.963C89.9461 46.727 76.2461 62.669 62.7461 76.994C57.0561 83.039 33.3351 109.951 22.6931 102.336C11.7801 94.526 27.4471 73.601 32.3301 67.236C38.2871 59.494 45.2721 52.605 51.6951 45.272C53.0461 43.744 50.6281 41.729 49.2951 43.254Z" fill="white"/>
<path d="M68.4691 40.8161C54.2621 37.8931 7.77909 22.1541 1.16109 45.3101C-3.56591 61.8741 35.5321 69.8031 45.2111 72.2751C59.6103 75.9044 74.2889 78.3179 89.0921 79.4901C98.8011 80.2771 112.676 82.0651 120.952 75.8181C127.1 71.1751 119.661 63.5901 116.034 60.4611C103.222 49.4141 84.6481 44.2141 68.4691 40.8131C66.4901 40.4001 65.9241 43.4841 67.9001 43.9131C80.9364 46.502 93.534 50.9473 105.308 57.1131C110.159 59.5671 114.513 62.8979 118.151 66.9371C125.251 75.1981 109.469 76.5131 105.323 76.7501C85.5341 77.8851 64.9031 73.8421 45.7791 69.1881C37.7171 67.2281 2.5971 59.9031 3.9681 46.8881C5.3681 33.5411 31.2891 36.8271 39.2331 37.9311C48.9121 39.2801 58.3461 41.9511 67.8991 43.9191C69.8941 44.3201 70.4561 41.2291 68.4691 40.8161Z" fill="white"/>
<path d="M79.987 55.677C75.066 42.032 64.2591 -5.84302 41.0541 0.591979C24.4541 5.19198 38.07 42.692 41.016 52.238C45.4252 66.4163 51.0199 80.1982 57.7411 93.438C62.1311 102.131 67.8291 114.905 77.4881 118.707C84.6491 121.535 87.2431 111.237 88.0231 106.507C90.7701 89.816 85.516 71.257 79.987 55.679C79.299 53.768 76.372 54.903 77.052 56.81C81.6327 69.2853 84.4107 82.3502 85.302 95.61C85.731 101.028 85.1571 106.479 83.6091 111.689C80.2541 122.052 70.904 109.274 68.542 105.854C57.262 89.568 49.9491 69.854 43.9421 51.105C41.4051 43.205 29.3491 9.42398 41.1681 3.79998C53.2851 -1.96602 63.999 21.866 67.201 29.222C71.101 38.186 73.7351 47.632 77.0481 56.807C77.7321 58.722 80.67 57.587 79.987 55.677Z" fill="white"/>
<path d="M99.9781 76.9671C100.425 77.7424 100.632 78.6328 100.573 79.5257C100.514 80.4187 100.191 81.2741 99.6464 81.9838C99.1014 82.6936 98.3581 83.2258 97.5107 83.5133C96.6632 83.8008 95.7496 83.8306 94.8852 83.5989C94.0208 83.3673 93.2445 82.8846 92.6543 82.2119C92.0642 81.5392 91.6868 80.7066 91.5697 79.8194C91.4526 78.9322 91.6011 78.0302 91.9965 77.2274C92.3919 76.4246 93.0164 75.7571 93.7911 75.3091C94.3061 75.0113 94.8747 74.8179 95.4645 74.7401C96.0543 74.6622 96.6537 74.7014 97.2283 74.8554C97.8029 75.0094 98.3416 75.2752 98.8134 75.6375C99.2852 75.9999 99.681 76.4517 99.9781 76.9671V76.9671Z" fill="white"/>
<path d="M36.1191 101.186C36.5667 101.961 36.7744 102.851 36.7161 103.744C36.6577 104.637 36.3358 105.493 35.7911 106.203C35.2465 106.913 34.5034 107.446 33.6561 107.734C32.8087 108.022 31.895 108.052 31.0305 107.82C30.166 107.589 29.3895 107.106 28.7993 106.434C28.2091 105.761 27.8316 104.928 27.7145 104.041C27.5975 103.154 27.7462 102.252 28.1418 101.449C28.5374 100.646 29.1621 99.9788 29.9371 99.5311C30.4516 99.2337 31.0197 99.0405 31.6089 98.9627C32.1981 98.885 32.7969 98.924 33.371 99.0777C33.9451 99.2314 34.4832 99.4967 34.9548 99.8585C35.4263 100.22 35.8219 100.671 36.1191 101.186V101.186Z" fill="white"/>
<path d="M39.3141 11.452C39.7614 12.2265 39.9691 13.1162 39.911 14.0088C39.8528 14.9013 39.5314 15.7566 38.9873 16.4665C38.4433 17.1764 37.7009 17.7091 36.8542 17.9973C36.0075 18.2855 35.0943 18.3162 34.2301 18.0856C33.3659 17.855 32.5895 17.3734 31.9989 16.7017C31.4084 16.0299 31.0302 15.1982 30.9121 14.3116C30.7941 13.425 30.9415 12.5233 31.3357 11.7205C31.73 10.9176 32.3534 10.2496 33.1271 9.80096C33.6417 9.50273 34.2099 9.30886 34.7995 9.23043C35.389 9.15201 35.9883 9.19057 36.5629 9.3439C37.1375 9.49724 37.6763 9.76235 38.1483 10.1241C38.6204 10.4858 39.0166 10.937 39.3141 11.452V11.452Z" fill="white"/>
</svg>
