<svg width="119" height="120" viewBox="0 0 119 120" fill="none" xmlns="http://www.w3.org/2000/svg">
<path d="M31.599 78.4751C30.531 78.4751 29.487 78.7918 28.599 79.3852C27.7109 79.9785 27.0188 80.8219 26.6101 81.8086C26.2014 82.7953 26.0944 83.8811 26.3028 84.9286C26.5112 85.9761 27.0255 86.9383 27.7807 87.6935C28.5359 88.4487 29.4981 88.963 30.5456 89.1714C31.593 89.3797 32.6788 89.2728 33.6655 88.864C34.6523 88.4553 35.4956 87.7632 36.089 86.8752C36.6823 85.9872 36.999 84.9431 36.999 83.8751C36.9967 82.4437 36.427 81.0715 35.4148 80.0594C34.4026 79.0472 33.0305 78.4775 31.599 78.4751V78.4751ZM31.599 85.8091C31.2169 85.8091 30.8434 85.6958 30.5257 85.4835C30.208 85.2712 29.9603 84.9695 29.8141 84.6165C29.6679 84.2634 29.6296 83.875 29.7042 83.5002C29.7787 83.1254 29.9627 82.7812 30.2329 82.511C30.5031 82.2408 30.8474 82.0568 31.2221 81.9822C31.5969 81.9077 31.9854 81.9459 32.3384 82.0922C32.6914 82.2384 32.9931 82.486 33.2054 82.8037C33.4177 83.1215 33.531 83.495 33.531 83.8771C33.5305 84.3893 33.3268 84.8804 32.9646 85.2426C32.6024 85.6049 32.1113 85.8086 31.599 85.8091Z" fill="white"/>
<path d="M40.047 16.1052C40.047 14.4344 39.5516 12.801 38.6233 11.4118C37.695 10.0225 36.3756 8.93971 34.8319 8.3003C33.2883 7.66089 31.5897 7.49359 29.9509 7.81956C28.3122 8.14552 26.8069 8.95012 25.6254 10.1316C24.4439 11.3131 23.6393 12.8184 23.3134 14.4571C22.9874 16.0959 23.1547 17.7945 23.7941 19.3381C24.4335 20.8818 25.5163 22.2012 26.9056 23.1295C28.2948 24.0578 29.9282 24.5532 31.599 24.5532C33.8388 24.5506 35.986 23.6597 37.5698 22.0759C39.1535 20.4922 40.0444 18.345 40.047 16.1052V16.1052ZM26.621 16.1052C26.621 15.1207 26.913 14.1582 27.46 13.3396C28.007 12.521 28.7844 11.8829 29.694 11.5062C30.6036 11.1294 31.6046 11.0308 32.5702 11.2229C33.5358 11.415 34.4228 11.8891 35.119 12.5853C35.8152 13.2814 36.2893 14.1684 36.4814 15.1341C36.6735 16.0997 36.5749 17.1006 36.1981 18.0102C35.8213 18.9198 35.1833 19.6973 34.3647 20.2443C33.546 20.7913 32.5836 21.0832 31.599 21.0832C30.2792 21.0819 29.0138 20.557 28.0805 19.6237C27.1472 18.6905 26.6224 17.4251 26.621 16.1052V16.1052Z" fill="white"/>
<path d="M66.818 32.186C65.75 32.186 64.706 32.5027 63.8179 33.0961C62.9299 33.6895 62.2378 34.5328 61.8291 35.5195C61.4204 36.5063 61.3134 37.592 61.5218 38.6395C61.7302 39.687 62.2444 40.6492 62.9996 41.4044C63.7548 42.1596 64.717 42.6739 65.7645 42.8823C66.812 43.0906 67.8978 42.9837 68.8845 42.575C69.8712 42.1663 70.7146 41.4741 71.308 40.5861C71.9013 39.6981 72.218 38.6541 72.218 37.586C72.2156 36.1546 71.6459 34.7825 70.6338 33.7703C69.6216 32.7581 68.2495 32.1884 66.818 32.186V32.186ZM66.818 39.52C66.4359 39.5202 66.0622 39.4071 65.7444 39.1949C65.4265 38.9828 65.1788 38.6811 65.0324 38.3281C64.886 37.9751 64.8476 37.5866 64.922 37.2117C64.9965 36.8369 65.1804 36.4926 65.4505 36.2223C65.7207 35.952 66.0649 35.7679 66.4397 35.6932C66.8145 35.6186 67.203 35.6568 67.5561 35.803C67.9092 35.9492 68.211 36.1968 68.4233 36.5146C68.6357 36.8323 68.749 37.2059 68.749 37.588C68.7485 38.1001 68.5449 38.5911 68.1829 38.9532C67.8209 39.3154 67.3301 39.5192 66.818 39.52Z" fill="white"/>
<path d="M117.724 68.6591L106.551 57.4881V49.6681C107.565 49.5091 108.49 48.9935 109.158 48.2139C109.826 47.4343 110.194 46.4419 110.196 45.4151C110.196 44.9549 110.013 44.5134 109.688 44.188C109.362 43.8625 108.921 43.6796 108.461 43.6796C108 43.6796 107.559 43.8625 107.233 44.188C106.908 44.5134 106.725 44.9549 106.725 45.4151C106.725 45.6376 106.636 45.8508 106.479 46.0081C106.322 46.1654 106.108 46.2539 105.886 46.2541H95.103C94.8806 46.2539 94.6674 46.1654 94.5101 46.0081C94.3528 45.8508 94.2643 45.6376 94.264 45.4151V35.2901L98.443 33.3551C99.0854 33.0574 99.785 32.9032 100.493 32.9032C101.201 32.9032 101.901 33.0574 102.543 33.3551L104.635 34.3241C105.257 34.6137 105.784 35.0747 106.153 35.653C106.523 36.2313 106.72 36.9029 106.721 37.5891C106.721 38.0494 106.904 38.4909 107.229 38.8163C107.555 39.1418 107.996 39.3246 108.457 39.3246C108.917 39.3246 109.358 39.1418 109.684 38.8163C110.009 38.4909 110.192 38.0494 110.192 37.5891C110.189 36.2409 109.802 34.9213 109.076 33.7853C108.35 32.6493 107.315 31.7439 106.092 31.1751L104 30.2061C102.9 29.696 101.702 29.4318 100.49 29.4318C99.2777 29.4318 98.0799 29.696 96.98 30.2061L92.227 32.4061L76.781 30.8241C75.444 28.853 73.5526 27.3226 71.3458 26.4265C69.1391 25.5303 66.7161 25.3086 64.3834 25.7894C62.0507 26.2702 59.9129 27.4319 58.2403 29.1277C56.5678 30.8234 55.4357 32.977 54.987 35.3161L41.294 27.9791C44.2152 25.5963 46.1567 22.2212 46.748 18.4981L55.512 24.6081C55.8899 24.8577 56.3503 24.9497 56.795 24.8644C57.2398 24.7791 57.6335 24.5234 57.8922 24.1518C58.151 23.7801 58.2541 23.3221 58.1797 22.8754C58.1053 22.4287 57.8593 22.0289 57.494 21.7611L46.829 14.3241C46.5291 11.7481 45.5807 9.2902 44.0726 7.18032C42.5645 5.07044 40.546 3.3775 38.2057 2.25983C35.8655 1.14216 33.28 0.636274 30.6911 0.789479C28.1021 0.942684 25.5944 1.74998 23.4023 3.13586C21.2102 4.52174 19.4054 6.44093 18.1566 8.71396C16.9079 10.987 16.256 13.5396 16.262 16.133C16.268 18.7265 16.9316 21.276 18.1908 23.5433C19.45 25.8105 21.2636 27.7214 23.462 29.0971L20.299 74.6531C17.7 77.4761 16.2584 81.1739 16.261 85.0111V96.8771C14.4148 96.8048 12.6005 97.3741 11.1267 98.4884C9.65293 99.6027 8.61061 101.193 8.17705 102.989C5.51605 102.923 2.97705 103.931 2.32105 106.811L0.864048 113.239C0.710659 113.957 0.718465 114.699 0.886903 115.414C1.05534 116.128 1.38021 116.796 1.83807 117.369C2.29593 117.943 2.87537 118.407 3.53457 118.73C4.19378 119.052 4.91631 119.224 5.65005 119.233H44.537C44.9973 119.233 45.4388 119.05 45.7642 118.725C46.0897 118.399 46.2725 117.958 46.2725 117.498C46.2725 117.037 46.0897 116.596 45.7642 116.27C45.4388 115.945 44.9973 115.762 44.537 115.762H5.65005C5.43529 115.759 5.22382 115.709 5.03091 115.615C4.838 115.52 4.66846 115.384 4.53452 115.216C4.40058 115.048 4.30559 114.853 4.25639 114.644C4.2072 114.435 4.20503 114.217 4.25005 114.007L5.70905 107.58C5.77977 107.262 5.95717 106.977 6.21182 106.774C6.46647 106.57 6.78305 106.46 7.10905 106.461H56.094C56.42 106.46 56.7365 106.571 56.9911 106.774C57.2457 106.978 57.4232 107.262 57.494 107.58L58.952 114.007C58.9971 114.217 58.9949 114.435 58.9457 114.644C58.8965 114.853 58.8015 115.048 58.6676 115.216C58.5336 115.384 58.3641 115.52 58.1712 115.615C57.9783 115.709 57.7668 115.759 57.552 115.762H52.952C52.4918 115.762 52.0503 115.945 51.7249 116.27C51.3994 116.596 51.2165 117.037 51.2165 117.498C51.2165 117.958 51.3994 118.399 51.7249 118.725C52.0503 119.05 52.4918 119.233 52.952 119.233H57.552C58.2858 119.224 59.0085 119.052 59.6678 118.73C60.3271 118.408 60.9066 117.943 61.3645 117.37C61.8224 116.796 62.1472 116.128 62.3156 115.414C62.484 114.699 62.4916 113.957 62.338 113.239L60.88 106.812C60.227 103.932 57.685 102.924 55.024 102.99C54.5908 101.194 53.5486 99.6033 52.0747 98.4889C50.6008 97.3746 48.7863 96.8054 46.94 96.8781V85.0111C46.9404 81.1728 45.496 77.475 42.894 74.6531L39.88 31.1591L54.88 39.1961C55.2046 41.6134 56.2556 43.8751 57.8938 45.682C59.532 47.4888 61.6803 48.7557 64.0543 49.3148C66.4283 49.8739 68.9161 49.699 71.1885 48.8132C73.4609 47.9274 75.4108 46.3724 76.78 44.3541L90.794 42.9191V45.4191C90.7966 46.4451 91.165 47.4365 91.8329 48.2153C92.5008 48.9941 93.4245 49.5092 94.438 49.6681V57.4881L83.266 68.6591C82.4434 69.5013 81.9829 70.6319 81.9829 71.8091C81.9829 72.9864 82.4434 74.117 83.266 74.9591C85.7775 77.2696 88.6308 79.1781 91.725 80.6171C95.579 82.6331 99.374 77.4551 96.281 74.3881L93.674 71.8031L99.084 66.3941C99.459 66.0198 99.9672 65.8096 100.497 65.8096C101.027 65.8096 101.535 66.0198 101.91 66.3941L107.369 71.8531L104.602 74.8331C101.641 78.0231 105.654 83.0731 109.437 80.8641C112.304 79.3715 114.965 77.5123 117.353 75.3331C117.833 74.9305 118.225 74.4338 118.506 73.8737C118.786 73.3136 118.949 72.7019 118.983 72.0765C119.018 71.451 118.924 70.8251 118.708 70.2373C118.491 69.6496 118.156 69.1125 117.724 68.6591ZM19.732 16.1051C19.7313 13.7577 20.4267 11.4627 21.7304 9.51058C23.0341 7.55843 24.8875 6.03679 27.0561 5.13813C29.2248 4.23948 31.6112 4.0042 33.9136 4.46204C36.2159 4.91989 38.3308 6.05029 39.9906 7.71026C41.6505 9.37023 42.7807 11.4852 43.2383 13.7876C43.696 16.09 43.4605 18.4764 42.5617 20.645C41.6628 22.8135 40.141 24.6668 38.1888 25.9703C36.2365 27.2739 33.9415 27.9691 31.594 27.9681C28.4493 27.9634 25.4348 26.712 23.2113 24.4882C20.9877 22.2645 19.7365 19.2499 19.732 16.1051ZM31.594 31.4421C33.2141 31.4423 34.8239 31.1848 36.363 30.6791L39.21 71.7061C36.8928 70.3741 34.2668 69.6731 31.594 69.6731C28.9213 69.6731 26.2953 70.3741 23.978 71.7061L26.826 30.6791C28.3649 31.1843 29.9744 31.4415 31.594 31.4411V31.4421ZM51.3811 102.989H11.812C12.1516 102.205 12.7127 101.538 13.4266 101.068C14.1404 100.599 14.9758 100.349 15.83 100.348H47.368C48.2223 100.349 49.0577 100.599 49.7715 101.068C50.4854 101.538 51.0465 102.205 51.386 102.989H51.3811ZM43.461 96.8771H19.732V85.0111C19.7177 83.4436 20.014 81.8888 20.6039 80.4365C21.1938 78.9842 22.0656 77.6631 23.1689 76.5496C24.2722 75.4361 25.5852 74.5522 27.0321 73.949C28.479 73.3458 30.031 73.0352 31.5985 73.0352C33.1661 73.0352 34.7181 73.3458 36.165 73.949C37.6119 74.5522 38.9249 75.4361 40.0282 76.5496C41.1315 77.6631 42.0033 78.9842 42.5932 80.4365C43.1831 81.8888 43.4794 83.4436 43.465 85.0111V96.8771H43.461ZM66.818 46.1681C65.1217 46.1683 63.4634 45.6655 62.0529 44.7233C60.6423 43.781 59.5428 42.4417 58.8934 40.8746C58.244 39.3075 58.0739 37.583 58.4046 35.9192C58.7353 34.2554 59.5519 32.727 60.7511 31.5273C61.9504 30.3277 63.4785 29.5105 65.1422 29.1793C66.8058 28.848 68.5304 29.0175 70.0977 29.6664C71.665 30.3152 73.0048 31.4142 73.9475 32.8245C74.8903 34.2347 75.3936 35.8928 75.394 37.5891C75.3919 39.8633 74.4878 42.0437 72.88 43.652C71.2723 45.2603 69.0922 46.1652 66.818 46.1681ZM78.458 40.6951C79.0014 38.6611 79.0014 36.5202 78.458 34.4861L90.794 35.7481V39.4301L78.458 40.6951ZM103.08 49.7301V56.4681H97.909V49.7291L103.08 49.7301ZM115.27 72.5081C112.992 74.6249 110.44 76.4275 107.684 77.8681C107.2 78.1511 106.865 77.4951 107.144 77.1951L111.044 72.9901C111.35 72.661 111.516 72.2262 111.507 71.7771C111.499 71.328 111.317 70.8996 110.999 70.5821L104.358 63.9411C103.332 62.9174 101.941 62.3425 100.492 62.3425C99.0419 62.3425 97.6514 62.9174 96.625 63.9411L89.982 70.5821C89.6595 70.9106 89.4792 71.3528 89.4802 71.8132C89.4811 72.2735 89.6632 72.715 89.987 73.0421L93.832 76.8541C94.127 77.1461 93.809 77.7951 93.332 77.5431C90.55 76.2668 87.9821 74.5681 85.719 72.5071C85.5362 72.3212 85.4337 72.0709 85.4337 71.8101C85.4337 71.5494 85.5362 71.2991 85.719 71.1131L96.894 59.9421H104.094L115.267 71.1131C115.45 71.2991 115.552 71.5494 115.552 71.8101C115.552 72.0709 115.45 72.3212 115.267 72.5071L115.27 72.5081Z" fill="white"/>
</svg>
