<svg width="121" height="138" viewBox="0 0 121 138" fill="none" xmlns="http://www.w3.org/2000/svg">
<path fill-rule="evenodd" clip-rule="evenodd" d="M28.238 59.2842C28.5304 59.2858 28.8203 59.2298 29.091 59.1193C29.3617 59.0088 29.6081 58.8461 29.8159 58.6404C30.0237 58.4347 30.189 58.1901 30.3022 57.9205C30.4155 57.651 30.4745 57.3617 30.476 57.0693C30.509 50.944 32.7225 45.0306 36.7195 40.389C40.7166 35.7475 46.2361 32.6811 52.2887 31.7394C58.3413 30.7978 64.5315 32.0424 69.7497 35.2503C74.968 38.4582 78.8733 43.4197 80.7657 49.2455C84.1597 59.6913 81.5085 67.452 79.3785 73.6881C77.8284 78.2239 76.4911 82.1427 77.7327 85.9639C77.8151 86.2175 77.8929 86.4676 77.9661 86.7144L69.117 89.5897L67.5362 84.7244C67.3537 84.1627 66.9555 83.6965 66.4293 83.4283C65.903 83.1602 65.2918 83.1121 64.7301 83.2946C64.1684 83.4771 63.7023 83.8753 63.4341 84.4015C63.166 84.9278 63.1179 85.5389 63.3004 86.1006L64.8813 90.966L56.0322 93.8412C55.9462 93.5958 55.862 93.3477 55.7798 93.0968C54.5379 89.2747 51.1532 86.8923 47.2328 84.1329C43.2643 81.3387 38.7658 78.1721 35.2768 72.7282C35.1227 72.4744 34.9193 72.254 34.6788 72.08C34.4382 71.906 34.1652 71.7818 33.876 71.7148C33.5867 71.6479 33.2869 71.6394 32.9944 71.69C32.7018 71.7405 32.4222 71.8491 32.1722 72.0093C31.9222 72.1695 31.7068 72.378 31.5386 72.6227C31.3703 72.8674 31.2527 73.1432 31.1927 73.434C31.1327 73.7248 31.1314 74.0247 31.1889 74.316C31.2465 74.6073 31.3617 74.8841 31.5279 75.1302C35.4878 81.3085 40.5795 84.8932 44.6707 87.7737C48.0775 90.169 50.7627 92.0617 51.5472 94.4763C51.8766 95.49 52.2411 96.4661 52.6316 97.3833L58.4519 115.296C58.4704 115.353 58.4884 115.409 58.5152 115.462C58.5195 115.475 58.5241 115.489 58.5285 115.503C58.5612 115.578 58.598 115.651 58.6387 115.722V115.722C60.4969 118.935 63.3731 121.437 66.8124 122.832C70.2833 124.24 74.1399 124.377 77.7022 123.22C81.2645 122.063 84.3038 119.685 86.2842 116.505C88.2464 113.355 89.1024 109.641 88.717 105.949C88.7078 105.868 88.6946 105.788 88.6774 105.708C88.673 105.694 88.6684 105.68 88.6641 105.667C88.6458 105.611 88.6365 105.553 88.6179 105.496L82.7954 87.5761C82.5723 86.6046 82.2947 85.6013 81.965 84.5866C81.1817 82.1758 82.2444 79.0653 83.5885 75.1222C85.8071 68.6186 88.8493 59.7215 84.9967 47.8644C82.7762 41.0331 78.1955 35.2157 72.0757 31.4547C65.9558 27.6937 58.6966 26.2349 51.5989 27.3397C44.5012 28.4444 38.0288 32.0406 33.3416 37.4837C28.6543 42.9269 26.0585 49.8613 26.0194 57.0444C26.0164 57.6348 26.2481 58.2022 26.6634 58.6219C27.0788 59.0416 27.6438 59.2791 28.2343 59.2823L28.238 59.2842ZM76.3248 118.976C74.2056 119.636 71.9432 119.685 69.7977 119.116C67.6521 118.547 65.7107 117.385 64.1966 115.762L84.2541 109.245C83.9829 111.448 83.0952 113.53 81.6931 115.251C80.2911 116.973 78.4316 118.263 76.3286 118.975L76.3248 118.976ZM83.6957 104.743L61.9948 111.794L60.448 107.034L82.1489 99.9824L83.6957 104.743ZM80.7723 95.7457L59.0714 102.797L57.5242 98.0351L79.2251 90.9841L80.7723 95.7457Z" fill="white"/>
<path fill-rule="evenodd" clip-rule="evenodd" d="M45.6797 24.6604C45.9578 24.57 46.2154 24.4257 46.4378 24.2358C46.6602 24.0459 46.843 23.814 46.9757 23.5535C47.1085 23.2929 47.1886 23.0087 47.2116 22.7172C47.2345 22.4257 47.1998 22.1325 47.1095 21.8543L45.2762 16.2121C45.0936 15.6504 44.6955 15.1842 44.1693 14.916C43.643 14.6479 43.0318 14.5998 42.4701 14.7823C41.9084 14.9648 41.4423 15.363 41.1741 15.8892C40.906 16.4155 40.8579 17.0266 41.0404 17.5883L42.8737 23.2306C42.9641 23.5087 43.1083 23.7663 43.2982 23.9887C43.4882 24.2111 43.72 24.3939 43.9806 24.5266C44.5068 24.7948 45.118 24.8429 45.6797 24.6604V24.6604Z" fill="white"/>
<path fill-rule="evenodd" clip-rule="evenodd" d="M16.6365 72.4207L22.2788 70.5874C22.8405 70.4048 23.3067 70.0067 23.5748 69.4805C23.843 68.9542 23.891 68.343 23.7085 67.7813C23.526 67.2196 23.1279 66.7534 22.6016 66.4853C22.0754 66.2172 21.4642 66.1691 20.9025 66.3516L15.2602 68.1849C14.6985 68.3674 14.2324 68.7656 13.9642 69.2918C13.6961 69.818 13.648 70.4292 13.8305 70.9909C14.013 71.5526 14.4112 72.0188 14.9374 72.2869C15.4636 72.5551 16.0748 72.6032 16.6365 72.4207V72.4207Z" fill="white"/>
<path fill-rule="evenodd" clip-rule="evenodd" d="M67.3403 58.3349C67.1578 57.7732 66.7596 57.307 66.2334 57.0389C65.7071 56.7708 65.0959 56.7226 64.5342 56.9051L49.3782 61.8297C48.8165 62.0122 48.3503 62.4104 48.0821 62.9366C47.814 63.4628 47.7659 64.074 47.9484 64.6357C48.1309 65.1974 48.5291 65.6636 49.0553 65.9317C49.5816 66.1998 50.1928 66.2479 50.7545 66.0654L56.2151 64.2912L57.7969 69.1593C57.9794 69.721 58.3775 70.1872 58.9038 70.4553C59.43 70.7235 60.0412 70.7716 60.6029 70.5891C61.1646 70.4066 61.6308 70.0084 61.8989 69.4822C62.167 68.9559 62.2151 68.3447 62.0326 67.783L60.4518 62.9177L65.9086 61.1447C66.4703 60.9622 66.9365 60.564 67.2046 60.0378C67.4727 59.5116 67.5209 58.9004 67.3383 58.3387L67.3403 58.3349Z" fill="white"/>
<path fill-rule="evenodd" clip-rule="evenodd" d="M22.7692 42.6438C23.294 42.9001 23.8985 42.9399 24.4524 42.7547C25.0064 42.5696 25.4653 42.1742 25.7305 41.6538C25.9957 41.1334 26.0458 40.5296 25.87 39.9726C25.6942 39.4157 25.3067 38.95 24.7909 38.6761L19.4989 35.9797C19.2383 35.8469 18.9542 35.7667 18.6626 35.7437C18.3711 35.7207 18.0779 35.7553 17.7997 35.8457C17.5216 35.936 17.264 36.0802 17.0416 36.2701C16.8192 36.46 16.6363 36.6918 16.5035 36.9524C16.3707 37.2129 16.2905 37.4971 16.2675 37.7886C16.2446 38.0802 16.2792 38.3734 16.3695 38.6515C16.4599 38.9297 16.6041 39.1873 16.794 39.4097C16.9839 39.6321 17.2157 39.8149 17.4762 39.9477L22.7692 42.6438Z" fill="white"/>
<path fill-rule="evenodd" clip-rule="evenodd" d="M36.7162 99.0198C36.9944 98.9298 37.252 98.7857 37.4743 98.5959C37.6966 98.406 37.8792 98.1741 38.0116 97.9134L40.708 92.6214C40.8467 92.3603 40.932 92.0743 40.9589 91.7799C40.9859 91.4855 40.9539 91.1887 40.865 90.9068C40.776 90.6249 40.6318 90.3635 40.4408 90.1379C40.2497 89.9123 40.0157 89.727 39.7523 89.5928C39.4889 89.4586 39.2014 89.3782 38.9066 89.3562C38.6118 89.3343 38.3156 89.3712 38.0352 89.465C37.7549 89.5587 37.496 89.7073 37.2737 89.9022C37.0513 90.097 36.87 90.3341 36.7403 90.5998L34.0439 95.8918C33.8445 96.2841 33.7659 96.7268 33.8179 97.1638C33.8699 97.6008 34.0503 98.0126 34.3362 98.3472C34.6221 98.6818 35.0007 98.9242 35.4242 99.0437C35.8478 99.1633 36.2973 99.1546 36.7159 99.0189L36.7162 99.0198Z" fill="white"/>
<path fill-rule="evenodd" clip-rule="evenodd" d="M73.4887 26.8494C73.7668 26.7594 74.0245 26.6153 74.2468 26.4254C74.4691 26.2356 74.6517 26.0036 74.7841 25.743L77.4805 20.451C77.6133 20.1905 77.6935 19.9063 77.7165 19.6148C77.7395 19.3232 77.7048 19.03 77.6145 18.7519C77.5242 18.4737 77.3799 18.2161 77.1901 17.9937C77.0002 17.7713 76.7683 17.5885 76.5078 17.4557C76.2473 17.3229 75.9631 17.2427 75.6715 17.2197C75.38 17.1967 75.0868 17.2314 74.8087 17.3217C74.5305 17.412 74.2729 17.5562 74.0505 17.7461C73.8281 17.936 73.6453 18.1678 73.5125 18.4284L70.8161 23.7204C70.6167 24.1127 70.5381 24.5552 70.59 24.9921C70.642 25.4291 70.8222 25.8408 71.108 26.1754C71.3938 26.51 71.7723 26.7524 72.1957 26.8721C72.6191 26.9918 73.0685 26.9833 73.4871 26.8478L73.4887 26.8494Z" fill="white"/>
<path fill-rule="evenodd" clip-rule="evenodd" d="M88.6807 73.7285C88.5479 73.989 88.4677 74.2731 88.4447 74.5646C88.4217 74.8561 88.4564 75.1493 88.5468 75.4274C88.6371 75.7055 88.7814 75.9631 88.9713 76.1854C89.1613 76.4078 89.3932 76.5905 89.6538 76.7231L94.9458 79.4196C95.4706 79.6758 96.0751 79.7157 96.629 79.5305C97.1829 79.3453 97.6419 78.9499 97.9071 78.4295C98.1722 77.9091 98.2223 77.3054 98.0466 76.7484C97.8708 76.1914 97.4833 75.7257 96.9674 75.4518L91.6754 72.7554C91.4149 72.6226 91.1308 72.5424 90.8393 72.5194C90.5478 72.4964 90.2546 72.5311 89.9765 72.6214C89.6984 72.7118 89.4408 72.8561 89.2185 73.046C88.9961 73.236 88.8134 73.4679 88.6807 73.7285V73.7285Z" fill="white"/>
<path fill-rule="evenodd" clip-rule="evenodd" d="M91.6058 48.0618L97.2481 46.2285C97.8097 46.046 98.2759 45.6478 98.5441 45.1216C98.8122 44.5953 98.8603 43.9841 98.6778 43.4224C98.4953 42.8608 98.0971 42.3946 97.5709 42.1264C97.0447 41.8583 96.4335 41.8102 95.8718 41.9927L90.2295 43.826C89.6678 44.0085 89.2016 44.4067 88.9335 44.9329C88.6653 45.4591 88.6172 46.0703 88.7997 46.632C88.9822 47.1937 89.3804 47.6599 89.9067 47.928C90.4329 48.1962 91.0441 48.2443 91.6058 48.0618Z" fill="white"/>
<path fill-rule="evenodd" clip-rule="evenodd" d="M61.9779 74.8209C61.559 74.957 61.1899 75.2142 60.9172 75.5601C60.6446 75.906 60.4806 76.325 60.446 76.764C60.4115 77.2031 60.5079 77.6426 60.7231 78.0269C60.9383 78.4111 61.2626 78.723 61.6551 78.9229C62.0475 79.1229 62.4904 79.202 62.9278 79.1502C63.3652 79.0984 63.7774 78.9181 64.1123 78.6321C64.4472 78.3461 64.6897 77.9671 64.8093 77.5432C64.9289 77.1193 64.92 76.6695 64.7839 76.2506C64.6005 75.6896 64.2022 75.2241 63.6763 74.9561C63.1503 74.6881 62.5396 74.6395 61.9779 74.8209Z" fill="white"/>
<path fill-rule="evenodd" clip-rule="evenodd" d="M31.7445 65.1703C31.6084 64.7514 31.3511 64.3823 31.0052 64.1097C30.6594 63.837 30.2404 63.673 29.8013 63.6384C29.3622 63.6039 28.9228 63.7003 28.5385 63.9155C28.1542 64.1307 27.8424 64.455 27.6425 64.8475C27.4425 65.2399 27.3634 65.6828 27.4152 66.1202C27.4669 66.5576 27.6472 66.9698 27.9333 67.3047C28.2193 67.6396 28.5982 67.8822 29.0221 68.0017C29.446 68.1213 29.8959 68.1124 30.3148 67.9763C30.8758 67.7929 31.3413 67.3946 31.6093 66.8687C31.8773 66.3427 31.9259 65.732 31.7445 65.1703V65.1703Z" fill="white"/>
</svg>
