<svg width="85" height="85" viewBox="0 0 85 85" fill="none" xmlns="http://www.w3.org/2000/svg">
<path d="M83.656 7.49696C83.4435 7.36306 83.1989 7.28878 82.9478 7.28192C82.6968 7.27506 82.4485 7.33587 82.229 7.45796C78.5519 9.38852 74.4251 10.2997 70.277 10.097C70.1141 7.61604 69.0144 5.28975 67.2005 3.58934C65.3866 1.88892 62.9942 0.941489 60.508 0.938965L10.103 0.938965C7.50483 0.94214 5.01401 1.97566 3.17684 3.81283C1.33967 5.64999 0.306154 8.14082 0.302979 10.739V75.145C0.306154 77.7431 1.33967 80.2339 3.17684 82.0711C5.01401 83.9083 7.50483 84.9418 10.103 84.945H60.503C62.9697 84.9291 65.3396 83.9837 67.1399 82.2973C68.9401 80.6109 70.0382 78.3077 70.2149 75.8473C70.3917 73.3869 69.634 70.9504 68.0933 69.024C66.5526 67.0977 64.3421 65.8232 61.903 65.455V33.562C64.824 31.054 68.548 29.868 72.421 28.635L73.421 28.316C83.169 25.188 84.265 9.43896 84.31 8.76796C84.3252 8.5169 84.2725 8.26637 84.1574 8.04271C84.0423 7.81905 83.8691 7.63053 83.656 7.49696V7.49696ZM60.508 3.73896C62.2326 3.74442 63.8942 4.38769 65.1729 5.5449C66.4516 6.70212 67.257 8.29148 67.434 10.007C66.391 9.95196 65.334 9.88096 64.278 9.80696C60.3536 9.39213 56.3948 9.42568 52.478 9.90697C52.4442 9.90839 52.4107 9.91341 52.378 9.92196C47.4362 10.6962 42.887 13.0769 39.434 16.696C39.088 17.045 38.759 17.396 38.434 17.739H16.964C17.8967 16.8273 18.6379 15.7385 19.1439 14.5364C19.6499 13.3343 19.9106 12.0432 19.9106 10.739C19.9106 9.43471 19.6499 8.14361 19.1439 6.94152C18.6379 5.73943 17.8967 4.65058 16.964 3.73896H60.508ZM3.10298 75.145V10.739C3.10298 9.3545 3.51352 8.00112 4.28269 6.84997C5.05186 5.69883 6.14511 4.80162 7.42419 4.27181C8.70328 3.74199 10.1107 3.60337 11.4686 3.87347C12.8265 4.14356 14.0738 4.81025 15.0527 5.78922C16.0317 6.76819 16.6984 8.01547 16.9685 9.37333C17.2386 10.7312 17.0999 12.1387 16.5701 13.4177C16.0403 14.6968 15.1431 15.7901 13.992 16.5593C12.8408 17.3284 11.4874 17.739 10.103 17.739C9.73168 17.739 9.37558 17.8865 9.11303 18.149C8.85048 18.4116 8.70298 18.7677 8.70298 19.139C8.70298 19.5103 8.85048 19.8664 9.11303 20.1289C9.37558 20.3915 9.73168 20.539 10.103 20.539H36.135C28.913 30.355 31.403 39.259 32.903 42.775C30.3408 47.1895 28.4571 51.9642 27.315 56.939H12.903C12.5317 56.939 12.1756 57.0865 11.913 57.349C11.6505 57.6116 11.503 57.9677 11.503 58.339C11.503 58.7103 11.6505 59.0664 11.913 59.3289C12.1756 59.5915 12.5317 59.739 12.903 59.739H28.469C28.7663 59.7391 29.056 59.6445 29.296 59.469L35.686 54.791C35.8624 54.662 36.0062 54.4936 36.1059 54.2991C36.2056 54.1046 36.2584 53.8895 36.26 53.671C36.3404 51.4637 36.5743 49.2647 36.96 47.09C38.7633 47.9408 40.7361 48.3716 42.73 48.35C43.7866 48.3485 44.8404 48.242 45.876 48.032C49.9994 47.1577 53.6692 44.8257 56.212 41.464C56.239 41.437 56.253 41.402 56.278 41.374C57.1176 40.2946 57.8564 39.1404 58.485 37.926C58.685 37.538 58.895 37.171 59.115 36.819V65.339H10.103C9.73168 65.339 9.37558 65.4865 9.11303 65.749C8.85048 66.0116 8.70298 66.3677 8.70298 66.739C8.70298 67.1103 8.85048 67.4664 9.11303 67.7289C9.37558 67.9915 9.73168 68.139 10.103 68.139C11.4874 68.139 12.8408 68.5495 13.992 69.3187C15.1431 70.0878 16.0403 71.1811 16.5701 72.4602C17.0999 73.7393 17.2386 75.1467 16.9685 76.5046C16.6984 77.8625 16.0317 79.1097 15.0527 80.0887C14.0738 81.0677 12.8265 81.7344 11.4686 82.0045C10.1107 82.2746 8.70328 82.1359 7.42419 81.6061C6.14511 81.0763 5.05186 80.1791 4.28269 79.028C3.51352 77.8768 3.10298 76.5234 3.10298 75.139V75.145ZM34.277 46.105C33.8613 48.3628 33.5971 50.6459 33.486 52.939L30.725 54.959C31.6245 51.9013 32.8139 48.9365 34.277 46.105V46.105ZM67.509 75.145C67.5066 77.0008 66.7683 78.7798 65.4561 80.0921C64.1439 81.4043 62.3648 82.1426 60.509 82.145H16.964C17.8967 81.2333 18.6379 80.1445 19.1439 78.9424C19.6499 77.7403 19.9106 76.4492 19.9106 75.145C19.9106 73.8407 19.6499 72.5496 19.1439 71.3475C18.6379 70.1454 17.8967 69.0566 16.964 68.145H60.508C62.3639 68.1471 64.1433 68.8852 65.4557 70.1975C66.7682 71.5098 67.5066 73.289 67.509 75.145V75.145ZM72.568 25.645L71.577 25.963C68.7213 26.7743 65.9539 27.869 63.316 29.231C62.127 29.1855 60.99 28.7321 60.096 27.947C59.9658 27.817 59.8112 27.7139 59.6412 27.6436C59.4711 27.5733 59.2889 27.5372 59.1049 27.5373C58.9209 27.5375 58.7387 27.5739 58.5688 27.6444C58.3989 27.7149 58.2445 27.8183 58.1145 27.9485C57.9845 28.0787 57.8814 28.2332 57.8111 28.4033C57.7408 28.5733 57.7047 28.7555 57.7048 28.9395C57.705 29.1235 57.7414 29.3057 57.8119 29.4756C57.8825 29.6456 57.9858 29.8 58.116 29.93C58.7281 30.5275 59.4487 31.0027 60.239 31.33C58.4741 32.7993 57.0267 34.6124 55.985 36.659C55.5501 37.5042 55.0548 38.317 54.503 39.091C51.9585 39.1005 49.4426 38.5545 47.131 37.491C46.9664 37.4088 46.7873 37.3598 46.6038 37.3468C46.4203 37.3338 46.2361 37.3571 46.0616 37.4153C45.8871 37.4735 45.7258 37.5656 45.5869 37.6861C45.448 37.8067 45.3342 37.9534 45.252 38.118C45.1698 38.2825 45.1208 38.4616 45.1078 38.6451C45.0948 38.8286 45.1181 39.0128 45.1763 39.1873C45.2345 39.3618 45.3266 39.5231 45.4471 39.662C45.5677 39.8009 45.7144 39.9148 45.879 39.997C47.8569 40.9431 49.9862 41.5328 52.169 41.739C50.2472 43.5264 47.8756 44.7576 45.308 45.301C42.6747 45.9115 39.9089 45.5336 37.536 44.239C38.0304 42.08 38.7223 39.9712 39.603 37.939C50.403 24.601 58.251 21.505 71.709 19.639C71.8911 19.6137 72.0665 19.5528 72.2251 19.4597C72.3837 19.3667 72.5224 19.2433 72.6334 19.0966C72.7443 18.9499 72.8252 18.7829 72.8716 18.6049C72.9179 18.4269 72.9288 18.2416 72.9035 18.0595C72.8782 17.8773 72.8173 17.7019 72.7242 17.5433C72.6312 17.3847 72.5078 17.246 72.3611 17.1351C72.2144 17.0242 72.0474 16.9432 71.8694 16.8969C71.6915 16.8505 71.5061 16.8397 71.324 16.865C57.361 18.803 48.711 22.204 37.338 36.294C37.324 36.309 37.313 36.325 37.3 36.342C36.386 37.476 35.564 38.614 34.8 39.747C34.0011 36.9146 33.8572 33.9376 34.3794 31.0414C34.9016 28.1452 36.0761 25.4059 37.814 23.031C37.8767 23.723 37.99 24.4095 38.153 25.085C38.1982 25.2633 38.2781 25.431 38.3882 25.5784C38.4982 25.7259 38.6362 25.8502 38.7943 25.9443C39.1136 26.1344 39.4953 26.1898 39.8555 26.0985C40.0338 26.0532 40.2015 25.9733 40.3489 25.8633C40.4964 25.7532 40.6207 25.6152 40.7148 25.4571C40.8089 25.299 40.871 25.1239 40.8974 24.9419C40.9239 24.7598 40.9142 24.5743 40.869 24.396C40.4874 22.7806 40.4195 21.107 40.669 19.466C40.915 19.201 41.169 18.937 41.428 18.666C43.8125 16.1819 46.7889 14.3441 50.078 13.325C49.5652 14.7401 49.303 16.2338 49.303 17.739C49.303 18.1103 49.4505 18.4664 49.713 18.7289C49.9756 18.9915 50.3317 19.139 50.703 19.139C51.0743 19.139 51.4304 18.9915 51.6929 18.7289C51.9555 18.4664 52.103 18.1103 52.103 17.739C52.0832 15.9212 52.5741 14.1344 53.52 12.582C55.8537 12.3016 58.2081 12.2347 60.554 12.382C60.0408 12.9705 59.6006 13.6188 59.243 14.313C59.1614 14.4777 59.113 14.6569 59.1006 14.8404C59.0883 15.0238 59.1122 15.2079 59.1709 15.3821C59.2297 15.5563 59.3222 15.7172 59.4432 15.8556C59.5642 15.9941 59.7112 16.1073 59.876 16.189C60.0706 16.2862 60.2854 16.3362 60.503 16.335C60.7647 16.336 61.0215 16.2637 61.2443 16.1262C61.467 15.9887 61.6467 15.7915 61.763 15.557C62.3841 14.3824 63.2782 13.3742 64.37 12.617C69.91 12.998 75.607 13.346 81.212 11.046C80.534 15.295 78.468 23.756 72.562 25.646L72.568 25.645Z" fill="white"/>
<path d="M12.904 52.7429H24.104C24.4753 52.7429 24.8314 52.5954 25.0939 52.3328C25.3565 52.0703 25.504 51.7142 25.504 51.3429C25.504 50.9716 25.3565 50.6155 25.0939 50.3529C24.8314 50.0904 24.4753 49.9429 24.104 49.9429H12.904C12.5327 49.9429 12.1766 50.0904 11.914 50.3529C11.6515 50.6155 11.504 50.9716 11.504 51.3429C11.504 51.7142 11.6515 52.0703 11.914 52.3328C12.1766 52.5954 12.5327 52.7429 12.904 52.7429V52.7429Z" fill="white"/>
<path d="M12.904 45.7429H26.904C27.2753 45.7429 27.6314 45.5954 27.8939 45.3328C28.1565 45.0703 28.304 44.7142 28.304 44.3429C28.304 43.9716 28.1565 43.6155 27.8939 43.3529C27.6314 43.0904 27.2753 42.9429 26.904 42.9429H12.904C12.5327 42.9429 12.1766 43.0904 11.914 43.3529C11.6515 43.6155 11.504 43.9716 11.504 44.3429C11.504 44.7142 11.6515 45.0703 11.914 45.3328C12.1766 45.5954 12.5327 45.7429 12.904 45.7429Z" fill="white"/>
<path d="M12.904 38.7419H26.904C27.2753 38.7419 27.6314 38.5944 27.8939 38.3318C28.1565 38.0693 28.304 37.7132 28.304 37.3419C28.304 36.9706 28.1565 36.6145 27.8939 36.3519C27.6314 36.0894 27.2753 35.9419 26.904 35.9419H12.904C12.5327 35.9419 12.1766 36.0894 11.914 36.3519C11.6515 36.6145 11.504 36.9706 11.504 37.3419C11.504 37.7132 11.6515 38.0693 11.914 38.3318C12.1766 38.5944 12.5327 38.7419 12.904 38.7419V38.7419Z" fill="white"/>
<path d="M12.904 31.7409H26.904C27.2753 31.7409 27.6314 31.5934 27.8939 31.3309C28.1565 31.0683 28.304 30.7122 28.304 30.3409C28.304 29.9696 28.1565 29.6135 27.8939 29.351C27.6314 29.0884 27.2753 28.9409 26.904 28.9409H12.904C12.5327 28.9409 12.1766 29.0884 11.914 29.351C11.6515 29.6135 11.504 29.9696 11.504 30.3409C11.504 30.7122 11.6515 31.0683 11.914 31.3309C12.1766 31.5934 12.5327 31.7409 12.904 31.7409Z" fill="white"/>
</svg>
