<svg width="131" height="130" viewBox="0 0 131 130" fill="none" xmlns="http://www.w3.org/2000/svg">
<path d="M81.2073 10.5333L69.0422 8.39373C67.0738 8.04754 65.0485 8.49748 63.4119 9.64455C61.7752 10.7916 60.6612 12.5419 60.315 14.5103L50.9959 67.4958C50.9613 67.6732 50.9624 67.8557 50.9992 68.0327C51.0359 68.2097 51.1075 68.3775 51.2099 68.5265C51.3123 68.6755 51.4433 68.8025 51.5953 68.9003C51.7473 68.998 51.9173 69.0645 52.0953 69.0958C52.2733 69.1271 52.4558 69.1226 52.632 69.0826C52.8083 69.0426 52.9748 68.9679 53.1219 68.8628C53.2689 68.7577 53.3935 68.6243 53.4884 68.4705C53.5833 68.3167 53.6467 68.1455 53.6747 67.9669L60.2628 30.5128L65.6955 31.4683L52.7806 104.887C52.3171 105.027 51.8945 105.277 51.5487 105.616L49.7826 107.349C49.7508 107.382 49.7115 107.406 49.6681 107.42C49.6248 107.433 49.5787 107.436 49.5341 107.427C49.4886 107.42 49.4456 107.402 49.4088 107.374C49.3721 107.346 49.3429 107.31 49.3237 107.268L47.4512 103.352L52.5759 74.2182C52.6311 73.8661 52.546 73.5064 52.3387 73.2165C52.1315 72.9266 51.8188 72.7296 51.4678 72.6678C51.1168 72.6061 50.7556 72.6846 50.4619 72.8864C50.1682 73.0882 49.9654 73.3972 49.8972 73.747L44.6975 103.311C44.6604 103.523 44.6744 103.742 44.7385 103.948V103.948L49.2366 118.484L49.81 122.601C49.9714 123.776 50.5017 124.87 51.3244 125.724C52.1472 126.578 53.2199 127.149 54.388 127.355C55.5562 127.56 56.7594 127.39 57.8244 126.868C58.8893 126.345 59.761 125.499 60.3138 124.449L62.2575 120.775L71.4462 108.646C71.5766 108.474 71.6643 108.274 71.702 108.062L79.8017 62.009C79.8363 61.8316 79.8352 61.6491 79.7985 61.4722C79.7617 61.2952 79.6901 61.1273 79.5877 60.9784C79.4854 60.8294 79.3543 60.7023 79.2023 60.6046C79.0503 60.5068 78.8803 60.4404 78.7023 60.409C78.5243 60.3777 78.3418 60.3822 78.1656 60.4222C77.9893 60.4622 77.8228 60.537 77.6758 60.6421C77.5287 60.7472 77.4041 60.8805 77.3092 61.0344C77.2143 61.1882 77.151 61.3594 77.123 61.5379L69.1017 107.161L66.0024 110.204C65.97 110.236 65.93 110.261 65.8858 110.275C65.8417 110.288 65.7949 110.291 65.7495 110.282C65.7045 110.275 65.6619 110.256 65.6257 110.229C65.5894 110.201 65.5607 110.165 65.5419 110.123L64.4744 107.893C64.2647 107.456 63.9528 107.077 63.5652 106.787L76.4821 33.3661L81.9148 34.3216L78.2246 55.2908C78.1936 55.4668 78.1976 55.6471 78.2364 55.8216C78.2751 55.996 78.3479 56.1611 78.4504 56.3074C78.553 56.4537 78.6833 56.5784 78.8341 56.6743C78.9848 56.7703 79.153 56.8356 79.3289 56.8665C79.5049 56.8975 79.6853 56.8935 79.8597 56.8547C80.0341 56.816 80.1992 56.7433 80.3455 56.6407C80.4919 56.5382 80.6166 56.4078 80.7125 56.2571C80.8084 56.1063 80.8737 55.9382 80.9047 55.7622L87.3237 19.2656C87.6677 17.2974 87.2169 15.2732 86.0702 13.6371C84.9235 12.0009 83.1745 10.8865 81.2072 10.5383L81.2073 10.5333ZM51.6901 109.29L53.4546 107.558C53.4873 107.525 53.5277 107.501 53.572 107.488C53.6163 107.474 53.6632 107.472 53.7086 107.481C53.7533 107.488 53.7954 107.507 53.8313 107.534C53.8672 107.562 53.8957 107.597 53.9143 107.639L54.9812 109.868C55.1873 110.301 55.4938 110.677 55.875 110.967C56.2562 111.257 56.7012 111.452 57.1728 111.535C57.6444 111.618 58.129 111.587 58.5863 111.444C59.0435 111.302 59.4602 111.053 59.8015 110.717L61.566 108.985C61.5981 108.952 61.6379 108.927 61.6818 108.914C61.7257 108.9 61.7723 108.898 61.8173 108.907C61.8624 108.914 61.9052 108.932 61.9417 108.96C61.9782 108.987 62.0073 109.023 62.0265 109.065L63.0929 111.294C63.2673 111.658 63.5133 111.983 63.8162 112.251C64.119 112.518 64.4726 112.721 64.8557 112.849L60.5306 118.558L51.6223 116.992L49.5049 110.149C49.9083 110.16 50.3098 110.09 50.6855 109.942C51.0611 109.795 51.403 109.573 51.6909 109.29L51.6901 109.29ZM57.9116 123.177C57.6264 123.716 57.1776 124.151 56.6297 124.419C56.0819 124.687 55.4632 124.775 54.8625 124.669C54.2618 124.563 53.7101 124.27 53.2865 123.831C52.863 123.392 52.5895 122.831 52.5054 122.226L52.1737 119.85L59.0342 121.057L57.9116 123.177ZM60.89 106.312C60.4274 106.454 60.0058 106.706 59.661 107.045L57.8923 108.774C57.8599 108.806 57.8202 108.83 57.7766 108.843C57.733 108.857 57.6867 108.86 57.6417 108.852C57.5967 108.844 57.5543 108.825 57.5181 108.797C57.4818 108.77 57.4528 108.733 57.4334 108.692L56.3659 106.462C56.1564 106.025 55.8448 105.646 55.4576 105.355L68.3717 31.9375L73.8044 32.893L60.89 106.312ZM60.7339 27.834L61.4038 24.0256L83.0543 27.8342L82.387 31.6409L60.7339 27.834ZM84.6451 18.7894L83.5257 25.1541L61.8749 21.3468L62.9937 14.9814C63.2164 13.7241 63.9286 12.6065 64.9742 11.8737C66.0198 11.1409 67.3133 10.8528 68.5711 11.0725L80.7362 13.2121C81.9934 13.4347 83.1111 14.1469 83.8439 15.1925C84.5767 16.2381 84.8648 17.5317 84.6451 18.7894V18.7894Z" fill="white" stroke="white" stroke-width="0.500059"/>
</svg>
