<svg width="97" height="120" viewBox="0 0 97 120" fill="none" xmlns="http://www.w3.org/2000/svg">
<path d="M33.4974 32.2201C32.0745 32.4455 30.7504 33.0878 29.6925 34.0657C28.6346 35.0436 27.8905 36.3132 27.5542 37.7141C27.2178 39.1149 27.3045 40.584 27.8031 41.9356C28.3017 43.2872 29.19 44.4606 30.3555 45.3073C31.521 46.1541 32.9114 46.6363 34.3509 46.6929C35.7905 46.7494 37.2144 46.3778 38.4428 45.6251C39.6711 44.8724 40.6487 43.7723 41.2518 42.464C41.855 41.1557 42.0566 39.6979 41.8312 38.275C41.6816 37.3302 41.3473 36.4242 40.8475 35.6086C40.3477 34.793 39.6922 34.0838 38.9183 33.5216C38.1445 32.9593 37.2674 32.555 36.3373 32.3317C35.4072 32.1084 34.4422 32.0705 33.4974 32.2201V32.2201ZM35.2068 43.0126C34.2551 43.1634 33.2825 42.9299 32.503 42.3635C31.7235 41.7972 31.2009 40.9443 31.0502 39.9927C30.8995 39.041 31.1329 38.0684 31.6993 37.2889C32.2656 36.5094 33.1185 35.9868 34.0701 35.8361L34.0673 35.8183C35.0213 35.6672 35.9963 35.9013 36.7778 36.469C37.5592 37.0368 38.0831 37.8917 38.2342 38.8457C38.3853 39.7997 38.1512 40.7747 37.5835 41.5562C37.0157 42.3376 36.1608 42.8615 35.2068 43.0126V43.0126Z" fill="white"/>
<path d="M54.074 28.9611C52.651 29.1865 51.3269 29.8287 50.269 30.8066C49.2111 31.7845 48.467 33.0542 48.1307 34.455C47.7944 35.8559 47.881 37.325 48.3796 38.6766C48.8783 40.0282 49.7665 41.2015 50.932 42.0483C52.0975 42.8951 53.4879 43.3773 54.9275 43.4338C56.367 43.4904 57.791 43.1188 59.0193 42.3661C60.2477 41.6133 61.2252 40.5133 61.8283 39.205C62.4315 37.8966 62.6331 36.4389 62.4077 35.016C62.2581 34.0712 61.9238 33.1652 61.424 32.3496C60.9242 31.534 60.2687 30.8248 59.4949 30.2626C58.721 29.7003 57.844 29.296 56.9138 29.0727C55.9837 28.8494 55.0187 28.8115 54.074 28.9611V28.9611ZM55.7833 39.7536C54.8316 39.9043 53.8591 39.6708 53.0796 39.1045C52.3 38.5381 51.7774 37.6853 51.6267 36.7336C51.476 35.782 51.7095 34.8094 52.2758 34.0299C52.8422 33.2504 53.695 32.7278 54.6467 32.577L54.6438 32.5593C55.5979 32.4082 56.5728 32.6422 57.3543 33.21C58.1357 33.7777 58.6596 34.6327 58.8107 35.5867C58.9618 36.5407 58.7278 37.5157 58.16 38.2971C57.5923 39.0786 56.7373 39.6025 55.7833 39.7536V39.7536Z" fill="white"/>
<path d="M77.3191 33.7678C76.6111 31.7461 75.2812 30.0005 73.5201 28.7811C71.759 27.5617 69.657 26.9312 67.5155 26.9799C65.6353 22.7793 61.6233 19.5795 54.752 20.6678L44.32 22.3201L43.6932 18.3624C44.9899 17.7166 46.0125 16.6279 46.5761 15.2934C47.1396 13.9589 47.2068 12.4667 46.7655 11.0869C46.3241 9.70714 45.4034 8.53096 44.17 7.77123C42.9366 7.01149 41.4719 6.71841 40.0411 6.94503C38.6103 7.17164 37.3079 7.90298 36.3696 9.00668C35.4314 10.1104 34.9192 11.5135 34.9258 12.9621C34.9324 14.4107 35.4574 15.8091 36.4058 16.9042C37.3541 17.9993 38.6632 18.7186 40.096 18.9321L40.7084 22.7989L30.2943 24.4484C25.4378 25.2176 20.6827 28.2569 20.0704 34.4013C17.7583 35.0993 15.7711 36.5995 14.4664 38.6318C13.1616 40.6642 12.6249 43.0955 12.9528 45.4883C13.2806 47.8811 14.4515 50.0784 16.2548 51.6849C18.0582 53.2915 20.3756 54.2018 22.7902 54.2522L22.7867 54.3449C24.5766 62.1561 30.8992 64.1232 36.4214 63.2486L60.8835 59.3742C69.103 58.0723 71.5404 52.1552 71.0994 46.6929C73.638 45.8034 75.7192 43.9421 76.8856 41.5182C78.0519 39.0944 78.2079 36.3066 77.3191 33.7678ZM22.1628 50.7573C20.7682 50.5831 19.4681 49.9604 18.4582 48.983C17.4483 48.0057 16.7834 46.7266 16.5635 45.3385C16.3437 43.9505 16.5808 42.5285 17.2393 41.287C17.8977 40.0454 18.9418 39.0514 20.2142 38.4547L22.1628 50.7573ZM38.6137 13.4151C38.5388 12.942 38.6058 12.4573 38.8064 12.0222C39.0069 11.5872 39.3319 11.2214 39.7404 10.9711C40.1488 10.7208 40.6223 10.5973 41.101 10.6161C41.5796 10.6349 42.042 10.7952 42.4295 11.0768C42.817 11.3583 43.1124 11.7485 43.2782 12.1979C43.444 12.6473 43.4728 13.1358 43.361 13.6016C43.2491 14.0674 43.0017 14.4896 42.6499 14.8147C42.2982 15.1399 41.8579 15.3535 41.3848 15.4284C41.0705 15.4782 40.7496 15.4655 40.4402 15.3912C40.1309 15.3169 39.8392 15.1824 39.5819 14.9954C39.3245 14.8083 39.1065 14.5724 38.9404 14.3011C38.7742 14.0298 38.6632 13.7284 38.6135 13.4141L38.6137 13.4151ZM67.3507 45.9603C67.8464 49.0903 67.5809 54.5157 60.2967 55.6694L35.8524 59.541C32.7224 60.0367 27.297 59.7711 26.1433 52.4869L23.8124 37.8848C22.6557 30.5818 27.7374 28.6714 30.8664 28.1758L55.3285 24.3014C62.6314 23.1447 64.5419 28.2264 65.0375 31.3554L67.3507 45.9603ZM70.4912 42.9743L68.5425 30.6707C69.9399 30.8407 71.2438 31.4613 72.2569 32.4386C73.27 33.4159 73.9371 34.6967 74.1573 36.087C74.3775 37.4773 74.1388 38.9015 73.4773 40.144C72.8158 41.3866 71.7675 42.3798 70.4911 42.9733L70.4912 42.9743Z" fill="white"/>
<path d="M57.1279 48.2428L36.5514 51.5018C36.0743 51.5773 35.6469 51.8393 35.363 52.23C35.0791 52.6207 34.9621 53.1082 35.0376 53.5852C35.1132 54.0622 35.3751 54.4897 35.7659 54.7736C36.1566 55.0574 36.6441 55.1745 37.1211 55.0989L57.6976 51.8399C58.1746 51.7644 58.6021 51.5024 58.886 51.1117C59.1698 50.721 59.2869 50.2335 59.2113 49.7565C59.1358 49.2795 58.8738 48.852 58.4831 48.5681C58.0924 48.2842 57.6049 48.1672 57.1279 48.2428Z" fill="white"/>
<path d="M89.2047 58.3361C88.9191 56.6299 88.0175 55.0878 86.6707 54.002C85.324 52.9162 83.6258 52.3622 81.8978 52.4449C80.1699 52.5276 78.5323 53.2414 77.2955 54.4509C76.0587 55.6603 75.3085 57.2815 75.1871 59.0072L70.5331 60.7031L27.6526 67.4947L22.7024 67.3199C22.2459 66.1501 21.4858 65.123 20.5005 64.3444C19.5152 63.5659 18.3402 63.0639 17.0965 62.8904C15.8527 62.7168 14.5852 62.8778 13.4244 63.3568C12.2636 63.8358 11.2514 64.6156 10.492 65.6158C9.73262 66.6159 9.25352 67.8004 9.10401 69.0473C8.9545 70.2941 9.13999 71.5583 9.64137 72.7097C10.1427 73.861 10.9419 74.858 11.9566 75.5978C12.9713 76.3377 14.1648 76.7939 15.4143 76.9192L17.5418 90.3518C16.1242 90.981 14.9529 92.0591 14.2088 93.4199C13.4646 94.7807 13.1889 96.3486 13.424 97.8816L13.9282 101.065C14.0038 101.542 14.2657 101.969 14.6564 102.253C15.0472 102.537 15.5347 102.654 16.0117 102.579C16.4887 102.503 16.9161 102.241 17.2 101.85C17.4839 101.46 17.6009 100.972 17.5254 100.495L17.0182 97.2932C16.9395 96.8455 16.9506 96.3866 17.0511 95.9432C17.1515 95.4999 17.3392 95.081 17.6033 94.711C17.8673 94.3409 18.2024 94.0272 18.5889 93.7881C18.9755 93.5489 19.4058 93.3891 19.8548 93.318C20.3038 93.2469 20.7624 93.2659 21.204 93.3739C21.6455 93.4819 22.0611 93.6767 22.4266 93.947C22.7921 94.2173 23.1 94.5577 23.3325 94.9483C23.5651 95.3389 23.7175 95.7719 23.7809 96.2221L24.2881 99.4241C24.3636 99.9012 24.6256 100.329 25.0163 100.612C25.407 100.896 25.8945 101.013 26.3715 100.938C26.8485 100.862 27.276 100.6 27.5599 100.21C27.8438 99.8189 27.9608 99.3314 27.8853 98.8544L27.3781 95.6523C27.128 94.1216 26.3813 92.7157 25.253 91.6515C24.1248 90.5872 22.6777 89.9238 21.135 89.7634L19.0075 76.3309C20.0841 75.8498 21.0229 75.1063 21.7377 74.1685C22.4525 73.2306 22.9206 72.1284 23.0991 70.9627L26.1965 71.0796L29.7122 93.2769C30.2312 96.5304 31.4272 99.6388 33.2228 102.401L33.2484 102.563C35.749 106.373 39.2961 109.38 43.4637 111.223C47.6313 113.067 52.2424 113.668 56.7434 112.955C61.2444 112.242 65.4439 110.245 68.8379 107.204C72.2319 104.163 74.6761 100.207 75.8771 95.8114L75.9357 95.5996C76.8061 92.4308 77.0031 89.1148 76.514 85.8653L72.9985 63.6689L75.9082 62.6006C76.4381 63.6541 77.2239 64.5577 78.1935 65.2288C79.1632 65.8998 80.2857 66.3169 81.4584 66.4417L83.5859 79.8742C82.1682 80.5034 80.997 81.5816 80.2528 82.9424C79.5087 84.3032 79.2329 85.871 79.4681 87.4041L79.9753 90.6062C80.0508 91.0832 80.3128 91.5106 80.7035 91.7945C81.0942 92.0784 81.5817 92.1955 82.0587 92.1199C82.5357 92.0444 82.9632 91.7824 83.2471 91.3917C83.5309 91.0009 83.648 90.5135 83.5724 90.0364L83.0653 86.8344C82.94 85.9452 83.169 85.0424 83.703 84.3204C84.237 83.5985 85.0332 83.1152 85.9201 82.9748C86.807 82.8343 87.7137 83.0478 88.4446 83.5694C89.1756 84.091 89.6723 84.8789 89.828 85.7632L90.3351 88.9653C90.4107 89.4424 90.6726 89.8698 91.0633 90.1537C91.4541 90.4376 91.9416 90.5546 92.4186 90.4791C92.8956 90.4035 93.323 90.1415 93.6069 89.7508C93.8908 89.3601 94.0078 88.8726 93.9323 88.3956L93.4251 85.1935C93.175 83.6628 92.4283 82.2569 91.3 81.1927C90.1718 80.1284 88.7247 79.465 87.182 79.3046L85.0545 65.8721C86.4793 65.2479 87.6584 64.1711 88.4087 62.8085C89.1591 61.4459 89.4389 59.8739 89.2047 58.3361V58.3361ZM16.6781 73.2898C16.0092 73.3958 15.324 73.301 14.709 73.0175C14.094 72.734 13.5769 72.2744 13.223 71.697C12.8692 71.1196 12.6945 70.4503 12.7211 69.7736C12.7477 69.0969 12.9743 68.4433 13.3724 67.8954C13.7704 67.3476 14.322 66.93 14.9574 66.6956C15.5927 66.4612 16.2833 66.4205 16.9418 66.5786C17.6003 66.7367 18.1971 67.0865 18.6568 67.5838C19.1165 68.0811 19.4184 68.7035 19.5243 69.3724C19.6664 70.2693 19.4463 71.1859 18.9125 71.9206C18.3788 72.6553 17.575 73.1478 16.6781 73.2898V73.2898ZM56.2629 109.372C52.9288 109.9 49.5153 109.577 46.3395 108.432C43.1637 107.288 40.3286 105.36 38.0974 102.827L71.5168 97.5337C70.1776 100.632 68.0772 103.342 65.4106 105.411C62.744 107.481 59.5977 108.843 56.2639 109.371L56.2629 109.372ZM72.9146 86.4526C73.2854 88.8518 73.217 91.2984 72.7126 93.6731L35.7326 99.5301C34.5191 97.4275 33.6979 95.1218 33.3092 92.7254L29.8423 70.8363L69.4487 64.5633L72.9146 86.4526ZM82.7788 62.8185L82.7601 62.8215L82.7159 62.7728C82.2017 62.3938 81.858 61.8271 81.7599 61.1959C81.6617 60.5647 81.8169 59.9204 82.1918 59.4031C82.5666 58.8859 83.1306 58.5378 83.761 58.4346C84.3913 58.3314 85.0369 58.4815 85.5571 58.8522C86.0773 59.2229 86.4299 59.7841 86.5381 60.4136C86.6463 61.0432 86.5014 61.6899 86.1348 62.2131C85.7683 62.7362 85.2099 63.0932 84.5812 63.2064C83.9526 63.3197 83.3047 63.1799 82.7787 62.8175L82.7788 62.8185Z" fill="white"/>
<path d="M58.0376 79.3839C57.661 79.1389 57.2071 79.0417 56.7632 79.1109L51.3675 79.9655L56.9081 72.1182C57.138 71.7246 57.212 71.259 57.1153 70.8136C57.0187 70.3681 56.7585 69.9751 56.3862 69.7121C56.0138 69.4492 55.5564 69.3354 55.1043 69.3934C54.6521 69.4513 54.2382 69.6767 53.9441 70.025L45.9189 81.4005C45.709 81.6935 45.5907 82.0422 45.5791 82.4024C45.5675 82.7626 45.663 83.1181 45.8536 83.424C46.0442 83.7299 46.3212 83.9723 46.6497 84.1207C46.9781 84.269 47.3432 84.3166 47.6987 84.2573L53.2386 83.3799L47.6258 92.0496C47.3627 92.4535 47.2705 92.9451 47.3693 93.4168C47.4682 93.8885 47.7499 94.3018 48.1529 94.5661V94.5661C48.5568 94.8292 49.0484 94.9214 49.5201 94.8226C49.9918 94.7237 50.4051 94.442 50.6694 94.039L58.5752 81.9089C58.7063 81.708 58.7964 81.4832 58.8403 81.2473C58.8842 81.0115 58.8811 80.7693 58.8312 80.5347C58.7812 80.3001 58.6854 80.0776 58.5492 79.8801C58.413 79.6826 58.2392 79.514 58.0376 79.3839Z" fill="white"/>
</svg>
