<svg width="124" height="118" viewBox="0 0 124 118" fill="none" xmlns="http://www.w3.org/2000/svg">
<path d="M61.3371 12.8944C58.6063 14.1079 56.0722 15.7224 53.8184 17.6846C53.6726 17.8056 53.5524 17.9546 53.465 18.1227C53.3776 18.2909 53.3247 18.4748 53.3094 18.6637C53.2941 18.8526 53.3167 19.0426 53.376 19.2226C53.4353 19.4026 53.5299 19.5689 53.6544 19.7118C53.779 19.8547 53.9308 19.9712 54.101 20.0545C54.2712 20.1379 54.4564 20.1863 54.6456 20.197C54.8348 20.2077 55.0242 20.1804 55.2027 20.1168C55.3812 20.0532 55.5452 19.9545 55.685 19.8266C57.367 18.3636 59.2231 17.1137 61.2112 16.1052L71.6643 39.5833L64.1559 42.9263C60.9649 36.5248 55.5703 31.4904 48.9639 28.7487C49.6499 27.2814 50.4662 25.8786 51.403 24.5573C51.6207 24.2495 51.7073 23.8679 51.6437 23.4963C51.5801 23.1248 51.3715 22.7937 51.0638 22.5759C50.756 22.3582 50.3744 22.2716 50.0028 22.3352C49.6313 22.3988 49.3002 22.6074 49.0824 22.9151C47.7696 24.769 46.672 26.7663 45.811 28.8684C45.7887 28.9106 45.7686 28.954 45.7506 28.9982C43.2823 35.0648 42.8661 41.7723 44.5655 48.0975C38.6064 49.135 33.1 51.9496 28.769 56.1721C24.4379 60.3946 21.4844 65.8277 20.2959 71.7585C19.1075 77.6894 19.7396 83.841 22.1094 89.4062C24.4792 94.9715 28.4759 99.6904 33.5752 102.944C38.6745 106.197 44.6382 107.833 50.6837 107.637C56.7293 107.441 62.5745 105.422 67.4522 101.845C72.3299 98.2679 76.0125 93.2999 78.0166 87.5928C80.0207 81.8857 80.2529 75.706 78.6826 69.8647C82.8674 69.132 86.8488 67.5189 90.3634 65.1321C93.878 62.7453 96.8456 59.6392 99.0697 56.0194C101.294 52.3997 102.724 48.3488 103.265 44.135C103.806 39.9211 103.446 35.6404 102.208 31.5762C100.971 27.5119 98.8844 23.7569 96.0869 20.5595C93.2893 17.3622 89.8446 14.7955 85.9807 13.0293C82.1167 11.2632 77.9217 10.3378 73.6734 10.3146C69.425 10.2913 65.2201 11.1706 61.3371 12.8944V12.8944ZM99.1858 49.2238C97.1802 48.3801 95.2829 47.2991 93.5346 46.0039C93.3845 45.8929 93.2141 45.8126 93.033 45.7674C92.8519 45.7223 92.6636 45.7133 92.479 45.7409C92.2944 45.7685 92.1171 45.8322 91.9571 45.9283C91.7971 46.0244 91.6576 46.1512 91.5466 46.3012C91.4356 46.4513 91.3552 46.6217 91.3101 46.8028C91.265 46.9839 91.2559 47.1722 91.2835 47.3568C91.3111 47.5414 91.3748 47.7187 91.471 47.8787C91.5671 48.0387 91.6939 48.1782 91.8439 48.2892C93.7843 49.7248 95.8906 50.9217 98.1171 51.8538C95.5624 57.3193 91.2536 61.7738 85.8761 64.5088L75.4197 41.0233L82.9318 37.6787C83.9741 39.7624 85.2559 41.7173 86.7512 43.5038C86.9963 43.7829 87.3409 43.955 87.7113 43.9832C88.0816 44.0113 88.4483 43.8934 88.7328 43.6545C89.0172 43.4157 89.1969 43.075 89.2332 42.7053C89.2696 42.3357 89.1597 41.9665 88.9273 41.6768C87.6015 40.0947 86.4607 38.3664 85.527 36.5254L98.9032 30.57C98.9068 30.5782 98.9101 30.5855 98.9137 30.5938C101.208 36.5763 101.305 43.1787 99.1879 49.2261L99.1858 49.2238ZM97.7473 27.9715L84.3675 33.9285C82.0442 27.9474 81.9377 21.3322 84.0673 15.2794C89.9801 17.7514 94.8239 22.2413 97.7366 27.95C97.7399 27.9573 97.7432 27.9646 97.7468 27.9728L97.7473 27.9715ZM63.8058 14.9456C69.4348 12.7799 75.6262 12.5578 81.3959 14.3145C79.0151 21.0575 79.1478 28.4333 81.7698 35.0862L74.2605 38.4296L63.8049 14.946L63.8058 14.9456ZM69.4899 61.7096C69.498 61.632 69.5264 61.5578 69.5723 61.4946C69.6181 61.4314 69.6797 61.3813 69.7509 61.3493L71.0025 60.7921C73.834 64.3776 75.7211 68.616 76.491 73.1195L75.2403 73.6763C75.1689 73.7078 75.0905 73.7201 75.0128 73.7118C74.9352 73.7036 74.8611 73.6751 74.7979 73.6292L68.9111 69.3539C68.8479 69.308 68.798 69.2462 68.7662 69.1749C68.7345 69.1035 68.722 69.0251 68.7301 68.9474L69.4899 61.7096ZM45.6045 52.1448L45.7474 50.784C50.2702 50.1217 54.887 50.6122 59.1698 52.2099L59.0285 53.5546C59.0204 53.6323 58.9919 53.7064 58.9461 53.7696C58.9003 53.8329 58.8387 53.883 58.7675 53.9149L52.116 56.8764C52.0446 56.9079 51.9661 56.9202 51.8885 56.9119C51.8108 56.9036 51.7367 56.8751 51.6736 56.8293L45.7876 52.5536C45.7238 52.5077 45.6732 52.4457 45.641 52.3739C45.6088 52.302 45.5963 52.223 45.6045 52.1448V52.1448ZM64.0383 51.2968C62.1038 50.2431 60.0583 49.4074 57.9395 48.8049L62.7128 46.6797C63.2904 48.1768 63.7341 49.7222 64.0387 51.2977L64.0383 51.2968ZM53.1089 47.8436C51.2178 47.6251 49.3102 47.5877 47.412 47.7321C45.8941 42.3608 46.0623 36.653 47.8938 31.3804C53.8198 33.8475 58.667 38.3541 61.5585 44.0849L53.1089 47.8436ZM33.4915 57.5345C33.5546 57.5805 33.6046 57.6423 33.6363 57.7136C33.6681 57.785 33.6806 57.8634 33.6725 57.9411L32.9115 65.1761C32.9033 65.2538 32.8749 65.3279 32.8291 65.3911C32.7833 65.4544 32.7217 65.5045 32.6504 65.5364L26.0008 68.4971C25.9293 68.5286 25.8509 68.5409 25.7732 68.5326C25.6956 68.5243 25.6215 68.4958 25.5583 68.4499L24.4645 67.6551C26.1417 63.4041 28.8653 59.6455 32.3825 56.7279L33.4915 57.5345ZM24.8921 88.7072C23.9682 86.6277 23.3069 84.4412 22.9235 82.1982L24.175 81.641C24.2464 81.6094 24.3249 81.5972 24.4025 81.6055C24.4802 81.6137 24.5543 81.6422 24.6174 81.6881L30.5034 85.9637C30.5664 86.0098 30.6163 86.0716 30.648 86.1429C30.6798 86.2142 30.6923 86.2926 30.6844 86.3703L29.9224 93.6057C29.9143 93.6834 29.8858 93.7575 29.84 93.8208C29.7942 93.884 29.7326 93.9341 29.6614 93.966L28.4108 94.5229C26.9999 92.7375 25.8174 90.7829 24.8909 88.7045L24.8921 88.7072ZM53.8099 103.173L53.6683 104.536C49.1465 105.198 44.5309 104.707 40.2495 103.109L40.3908 101.764C40.399 101.687 40.4274 101.612 40.4732 101.549C40.519 101.486 40.5806 101.436 40.6518 101.404L47.2997 98.4441C47.3711 98.4125 47.4495 98.4002 47.5272 98.4085C47.6048 98.4168 47.6789 98.4453 47.7421 98.4912L53.6289 102.766C53.6921 102.812 53.742 102.874 53.7738 102.945C53.8055 103.017 53.818 103.095 53.8099 103.173V103.173ZM56.5861 103.938L56.6352 103.471C56.6941 102.897 56.6017 102.318 56.3672 101.791C56.1327 101.265 55.7643 100.809 55.2987 100.469L49.4119 96.1934C48.9449 95.8548 48.3973 95.6446 47.8237 95.5836C47.2502 95.5227 46.6706 95.6131 46.1429 95.8459L39.4951 98.8058C38.9689 99.0415 38.5137 99.411 38.1748 99.8775C37.8358 100.344 37.625 100.891 37.5634 101.464L37.5166 101.92C34.8763 100.597 32.4692 98.8529 30.3901 96.7558L30.8186 96.5651C31.3436 96.3289 31.7977 95.9594 32.1358 95.4934C32.4738 95.0274 32.6841 94.481 32.7457 93.9086L33.5076 86.6731C33.5665 86.0996 33.4741 85.5207 33.2396 84.994C33.0051 84.4673 32.6367 84.0112 32.1711 83.6712L26.2822 79.3914C25.8149 79.0537 25.2673 78.8442 24.6939 78.784C24.1205 78.7238 23.5413 78.8148 23.014 79.0481L22.5901 79.2368C22.4229 76.2885 22.7374 73.3326 23.5212 70.4855L23.8921 70.7582C24.3594 71.0959 24.907 71.3054 25.4805 71.3656C26.0539 71.4259 26.6331 71.3348 27.1604 71.1016L33.8082 68.1417C34.3353 67.9056 34.7912 67.5352 35.1303 67.0677C35.4694 66.6002 35.6798 66.0518 35.7406 65.4774L36.5017 58.2424C36.5605 57.6689 36.4681 57.0899 36.2336 56.5633C35.9991 56.0366 35.6307 55.5805 35.1651 55.2405L34.7849 54.9643C37.2546 53.3408 39.9724 52.1308 42.8314 51.3817L42.7823 51.8491C42.7234 52.4226 42.8158 53.0016 43.0503 53.5283C43.2848 54.0549 43.6532 54.511 44.1188 54.851L50.0047 59.1266C50.472 59.4644 51.0196 59.6738 51.593 59.7341C52.1665 59.7943 52.7457 59.7033 53.2729 59.47L59.9208 56.5102C60.447 56.2744 60.9022 55.9049 61.2411 55.4385C61.58 54.972 61.7908 54.4249 61.8525 53.8517L61.8981 53.3935C64.5384 54.7161 66.9454 56.4603 69.0245 58.5574L68.5961 58.7481C68.0679 58.9835 67.6111 59.3538 67.2714 59.8217C66.9317 60.2896 66.7212 60.8386 66.6609 61.4137L65.899 68.6491C65.8401 69.2226 65.9325 69.8016 66.167 70.3283C66.4015 70.855 66.7699 71.311 67.2355 71.651L73.1214 75.9267C73.5887 76.2644 74.1364 76.4739 74.7098 76.5341C75.2832 76.5944 75.8624 76.5033 76.3897 76.27L76.8181 76.0793C76.9853 79.0276 76.6708 81.9834 75.8871 84.8306L75.5161 84.5579C75.0491 84.2223 74.5024 84.0146 73.9304 83.9553C73.3583 83.8961 72.7807 83.9874 72.2548 84.2202L65.6069 87.18C65.0808 87.4158 64.6255 87.7853 64.2866 88.2517C63.9477 88.7182 63.7369 89.2653 63.6752 89.8385L62.9142 97.0736C62.8553 97.6471 62.9478 98.226 63.1823 98.7527C63.4168 99.2794 63.7851 99.7355 64.2507 100.075L64.631 100.352C62.1615 101.975 59.4441 103.185 56.5854 103.934L56.5861 103.938ZM67.0307 98.5871L65.9238 97.7827C65.8607 97.7368 65.8108 97.675 65.779 97.6037C65.7473 97.5323 65.7348 97.4539 65.7428 97.3762V97.3762L66.5039 90.1412C66.5121 90.0634 66.5406 89.9891 66.5865 89.9257C66.6325 89.8624 66.6943 89.8123 66.7658 89.7805L73.4137 86.8206C73.4851 86.7891 73.5635 86.7768 73.6412 86.7851C73.7188 86.7934 73.7929 86.8219 73.8561 86.8678L74.9512 87.6555C73.274 91.9084 70.5496 95.6686 67.0307 98.5871V98.5871ZM67.1978 53.2768C66.9174 50.6201 66.282 48.013 65.3086 45.5251L72.8179 42.1817L83.271 65.6598C81.5037 66.3423 79.6698 66.8378 77.7993 67.1382C75.725 61.5649 72.0334 56.7382 67.1978 53.2768V53.2768Z" fill="white"/>
<path d="M58.8645 82.2788L59.6264 75.0433C59.6853 74.4698 59.5928 73.8909 59.3583 73.3642C59.1238 72.8375 58.7555 72.3814 58.2899 72.0414V72.0414L52.403 67.7662C51.9357 67.4284 51.3881 67.219 50.8147 67.1587C50.2413 67.0985 49.6621 67.1895 49.1348 67.4228L42.4869 70.3826C41.9608 70.6184 41.5056 70.9879 41.1666 71.4543C40.8277 71.9208 40.6169 72.4679 40.5553 73.0411L39.7933 80.2766C39.7345 80.8501 39.8269 81.429 40.0614 81.9557C40.2959 82.4824 40.6643 82.9385 41.1299 83.2785L47.0167 87.5537C47.484 87.8915 48.0316 88.1009 48.605 88.1612C49.1784 88.2214 49.7576 88.1304 50.2849 87.8971L56.9328 84.9373C57.4589 84.7015 57.9141 84.332 58.2531 83.8656C58.592 83.3991 58.8028 82.852 58.8645 82.2788V82.2788ZM55.7764 82.3401L49.1286 85.2999C49.0571 85.3315 48.9787 85.3437 48.901 85.3354C48.8234 85.3272 48.7493 85.2987 48.6861 85.2528L42.7993 80.9775C42.7363 80.9315 42.6864 80.8697 42.6546 80.7984C42.6229 80.7271 42.6103 80.6487 42.6183 80.571L43.3803 73.3356C43.3884 73.2579 43.4168 73.1838 43.4626 73.1205C43.5084 73.0573 43.57 73.0072 43.6413 72.9753L50.2891 70.0154C50.3605 69.9839 50.439 69.9716 50.5166 69.9799C50.5943 69.9882 50.6684 70.0167 50.7316 70.0626L56.6175 74.3382C56.6805 74.3842 56.7304 74.446 56.7621 74.5173C56.7939 74.5886 56.8064 74.6671 56.7985 74.7447L56.0365 81.9802C56.0287 82.0584 56.0004 82.1332 55.9543 82.1969C55.9083 82.2606 55.8463 82.3111 55.7745 82.3431L55.7764 82.3401Z" fill="white"/>
</svg>
