<svg width="117" height="117" viewBox="0 0 117 117" fill="none" xmlns="http://www.w3.org/2000/svg">
<path d="M89.6581 57.5717C90.8452 57.2557 91.9582 56.7083 92.933 55.9609C93.9079 55.2135 94.7255 54.2809 95.3389 53.2166C95.5231 52.8974 95.573 52.5181 95.4776 52.1621C95.3821 51.8061 95.1492 51.5027 94.83 51.3184C94.5108 51.1342 94.1314 51.0843 93.7755 51.1798C93.4195 51.2752 93.116 51.5082 92.9318 51.8274C92.0586 53.3367 90.6223 54.438 88.938 54.8896C87.2538 55.3411 85.4591 55.1061 83.948 54.2361C83.6288 54.0519 83.2495 54.002 82.8935 54.0974C82.5375 54.1928 82.234 54.4258 82.0498 54.745C81.8656 55.0642 81.8157 55.4435 81.9111 55.7995C82.0066 56.1555 82.2395 56.459 82.5587 56.6432C83.6226 57.2581 84.7974 57.6566 86.0158 57.816C87.2342 57.9753 88.472 57.8923 89.6581 57.5717V57.5717Z" fill="white" stroke="white" stroke-width="1.00012"/>
<path d="M79.2903 66.1801C75.3381 67.2444 71.9695 69.833 69.9235 73.3779C67.8776 76.9229 67.3214 81.1346 68.377 85.0892L68.3869 85.1259C68.5159 85.5946 68.7987 86.0063 69.19 86.2948C69.5814 86.5833 70.0583 86.7317 70.5442 86.7163C71.0301 86.7009 71.4967 86.5225 71.8689 86.2098C72.2412 85.8971 72.4974 85.4682 72.5964 84.9923C73.0629 82.6831 74.1646 80.5498 75.7775 78.8327C77.3904 77.1155 79.4505 75.8825 81.726 75.2724C84.0015 74.6623 86.4022 74.6993 88.6578 75.3793C90.9134 76.0592 92.9345 77.3552 94.4937 79.1213C94.7586 79.4222 95.1024 79.6429 95.4862 79.7587C95.87 79.8744 96.2785 79.8805 96.6656 79.7763C96.8282 79.7326 96.9852 79.6703 97.1336 79.5908C97.5646 79.3623 97.9055 78.9944 98.1004 78.5472C98.2953 78.1 98.3328 77.5999 98.2068 77.1286L98.198 77.0957C97.1337 73.1436 94.5451 69.775 91.0001 67.729C87.4552 65.6831 83.2434 65.1269 79.2889 66.1825L79.2903 66.1801ZM81.008 72.5866C78.6777 73.2025 76.5254 74.359 74.7255 75.9621C72.9257 77.5653 71.529 79.57 70.6487 81.8138C70.4829 78.9082 71.3233 76.0342 73.0283 73.6756C74.7334 71.3171 77.1989 69.6179 80.01 68.8642C82.821 68.1105 85.8059 68.3483 88.4621 69.5376C91.1184 70.7268 93.2838 72.7949 94.5939 75.3937C92.7092 73.8912 90.4969 72.8541 88.1365 72.3663C85.776 71.8786 83.3338 71.9541 81.008 72.5866V72.5866Z" fill="white" stroke="white" stroke-width="1.00012"/>
<path d="M19.828 46.4342C20.7012 44.9249 22.1375 43.8236 23.8218 43.372C25.506 42.9205 27.3006 43.1555 28.8118 44.0255C29.131 44.2098 29.5103 44.2597 29.8663 44.1642C30.2223 44.0688 30.5258 43.8358 30.71 43.5166C30.8942 43.1974 30.9441 42.8181 30.8487 42.4621C30.7532 42.1061 30.5203 41.8027 30.2011 41.6184C28.0516 40.3811 25.4991 40.0468 23.1035 40.6891C20.7079 41.3314 18.665 42.8978 17.4228 45.0445C17.3316 45.2025 17.2724 45.377 17.2486 45.5579C17.2248 45.7389 17.2369 45.9227 17.2842 46.099C17.3314 46.2752 17.4129 46.4405 17.5241 46.5852C17.6352 46.73 17.7737 46.8514 17.9318 46.9427C18.0898 47.0339 18.2643 47.0931 18.4452 47.1169C18.6261 47.1407 18.81 47.1286 18.9863 47.0813C19.1625 47.0341 19.3277 46.9526 19.4725 46.8414C19.6173 46.7303 19.7387 46.5918 19.8299 46.4337L19.828 46.4342Z" fill="white" stroke="white" stroke-width="1.00012"/>
<path d="M53.853 35.2821C51.7034 34.045 49.151 33.7109 46.7555 34.3532C44.36 34.9955 42.317 36.5616 41.0747 38.7081C40.9835 38.8662 40.9243 39.0407 40.9005 39.2216C40.8767 39.4025 40.8888 39.5864 40.936 39.7626C40.9833 39.9389 41.0648 40.1041 41.1759 40.2489C41.287 40.3937 41.4256 40.5151 41.5836 40.6063C41.7417 40.6975 41.9162 40.7567 42.0971 40.7805C42.278 40.8043 42.4619 40.7922 42.6381 40.745C42.8144 40.6977 42.9796 40.6162 43.1244 40.5051C43.2691 40.394 43.3906 40.2554 43.4818 40.0974C43.9135 39.3493 44.4884 38.6937 45.1735 38.1678C45.8586 37.6419 46.6406 37.2561 47.4749 37.0324C48.3091 36.8087 49.1792 36.7516 50.0355 36.8642C50.8918 36.9768 51.7176 37.257 52.4656 37.6887C52.7848 37.8729 53.1641 37.9228 53.5201 37.8274C53.8761 37.7319 54.1796 37.499 54.3638 37.1798C54.548 36.8606 54.5979 36.4812 54.5025 36.1253C54.407 35.7693 54.1741 35.4658 53.8549 35.2816L53.853 35.2821Z" fill="white" stroke="white" stroke-width="1.00012"/>
<path d="M44.11 71.7679C48.7378 70.5217 52.6821 67.4903 55.0773 63.3392C57.4725 59.188 58.1229 54.2561 56.8859 49.6259L56.8794 49.6017L55.5376 49.9615L56.8732 49.5785C56.7361 49.0774 56.4343 48.6371 56.0163 48.3285C55.5984 48.0199 55.0887 47.8611 54.5694 47.8775C54.0502 47.894 53.5516 48.0849 53.1541 48.4194C52.7566 48.7539 52.4833 49.2125 52.3783 49.7213C51.8146 52.5115 50.4835 55.089 48.5347 57.1638C46.5858 59.2386 44.0967 60.7284 41.3473 61.4656C38.5978 62.2027 35.6973 62.158 32.9719 61.3364C30.2465 60.5148 27.8044 58.949 25.9205 56.8151C25.5749 56.4269 25.1086 56.1664 24.5968 56.0758C24.0849 55.9852 23.5575 56.0696 23.0996 56.3155C22.6417 56.5614 22.28 56.9544 22.0728 57.4311C21.8657 57.9078 21.8252 58.4404 21.9579 58.943L21.9685 58.9826C23.2146 63.6097 26.2453 67.5535 30.3956 69.9489C34.5459 72.3442 39.4769 72.9954 44.1067 71.7595L44.11 71.7679ZM42.0699 64.1587C44.9879 63.3873 47.6646 61.8929 49.8525 59.8136C52.0404 57.7343 53.669 55.1372 54.5879 52.2622C55.0868 55.9486 54.2252 59.6905 52.1643 62.7875C50.1034 65.8845 46.9845 68.1243 43.3914 69.0877C39.7983 70.0511 35.9772 69.672 32.6434 68.0214C29.3096 66.3708 26.6916 63.5618 25.2794 60.1202C27.5133 62.1501 30.2228 63.5843 33.1574 64.2903C36.0921 64.9963 39.1574 64.9514 42.0701 64.1597L42.0699 64.1587Z" fill="white" stroke="white" stroke-width="1.00012"/>
<path d="M9.11102 30.619C9.15454 30.3125 9.26553 30.0194 9.436 29.761C9.60647 29.5026 9.83216 29.2852 10.0968 29.1246C22.7659 21.3934 37.3924 17.4718 52.2299 17.828C52.5394 17.8348 52.8435 17.9101 53.1204 18.0486C53.3972 18.1871 53.64 18.3853 53.831 18.6288C55.0226 20.1448 56.1201 21.7323 57.1174 23.3826C57.308 23.6979 57.616 23.9247 57.9738 24.013C58.3316 24.1012 58.7097 24.0438 59.0251 23.8532C59.3405 23.6626 59.5673 23.3546 59.6555 22.9968C59.7438 22.6391 59.6863 22.2609 59.4957 21.9455C58.4396 20.1994 57.2775 18.5195 56.0161 16.9154C55.5729 16.3475 55.009 15.8853 54.3652 15.5621C53.7214 15.2388 53.0139 15.0626 52.2937 15.0463C36.9239 14.6772 21.7726 18.7396 8.64889 26.7481C8.03432 27.1215 7.51022 27.6266 7.11433 28.2269C6.71845 28.8272 6.46064 29.5078 6.35947 30.2198C5.31892 37.4078 5.87221 44.7367 7.98014 51.687C10.0881 58.6374 13.699 65.0389 18.557 70.438C18.6791 70.5737 18.8267 70.6841 18.9914 70.7628C19.1561 70.8415 19.3347 70.887 19.517 70.8967C19.6993 70.9064 19.8818 70.88 20.0539 70.8192C20.226 70.7584 20.3845 70.6643 20.5202 70.5422C20.656 70.4202 20.7663 70.2726 20.845 70.1078C20.9237 69.9431 20.9692 69.7645 20.9789 69.5822C20.9886 69.3999 20.9623 69.2175 20.9014 69.0454C20.8406 68.8732 20.7465 68.7148 20.6244 68.579C16.0396 63.4828 12.6317 57.4406 10.642 50.8807C8.65237 44.3207 8.12969 37.4034 9.11102 30.619V30.619Z" fill="white" stroke="white" stroke-width="1.00012"/>
<path d="M96.9921 32.9478C96.5482 32.3819 95.9843 31.9215 95.341 31.5998C94.6978 31.2781 93.9911 31.1031 93.272 31.0874C88.4905 30.9765 83.7086 31.2922 78.9832 32.0306C78.8028 32.0586 78.6298 32.1218 78.4738 32.2167C78.3179 32.3115 78.1822 32.4361 78.0744 32.5834C77.9667 32.7307 77.889 32.8978 77.8458 33.0752C77.8026 33.2525 77.7948 33.4366 77.8227 33.6169C77.8507 33.7973 77.9139 33.9704 78.0087 34.1263C78.1036 34.2822 78.2282 34.4179 78.3755 34.5257C78.5228 34.6335 78.6899 34.7111 78.8672 34.7543C79.0446 34.7975 79.2287 34.8054 79.409 34.7774C83.9707 34.0647 88.5868 33.7602 93.2026 33.8676C93.5121 33.8743 93.8162 33.9497 94.0931 34.0882C94.3699 34.2266 94.6127 34.4248 94.8037 34.6684C101.006 42.5531 104.514 52.2207 104.811 62.2484C105.107 72.2761 102.177 82.1341 96.4508 90.3715C94.3012 93.4787 91.1179 95.7214 87.4685 96.6999C83.8191 97.6784 79.9408 97.3289 76.5251 95.7139C68.1803 91.8065 61.181 85.5131 56.4118 77.629C56.8919 77.0863 57.3407 76.5165 57.7559 75.9226C60.2646 72.3108 62.2826 68.3818 63.7569 64.2388C65.3694 64.2085 66.9467 63.7621 68.3358 62.9428C69.725 62.1235 70.8788 60.9592 71.6855 59.5627C71.8697 59.2435 71.9196 58.8642 71.8242 58.5082C71.7287 58.1522 71.4958 57.8487 71.1766 57.6645C70.8574 57.4803 70.4781 57.4304 70.1221 57.5258C69.7661 57.6213 69.4626 57.8542 69.2784 58.1734C68.7936 59.01 68.1307 59.7298 67.3367 60.2816C66.5427 60.8334 65.637 61.2037 64.6839 61.3664C66.8608 53.8427 67.2215 45.9098 65.7363 38.2196C68.2554 37.3361 70.8182 36.5826 73.4146 35.9621C73.5921 35.9198 73.7595 35.8429 73.9073 35.7358C74.0551 35.6287 74.1804 35.4936 74.276 35.3381C74.3715 35.1827 74.4355 35.0099 74.4643 34.8297C74.4931 34.6495 74.4861 34.4653 74.4438 34.2878C74.4014 34.1103 74.3245 33.9429 74.2175 33.7951C74.1104 33.6473 73.9753 33.522 73.8198 33.4265C73.6643 33.3309 73.4915 33.2669 73.3113 33.2381C73.1311 33.2093 72.947 33.2163 72.7695 33.2586C70.1991 33.8712 67.6364 34.6204 65.1312 35.4878C64.4252 32.6726 63.4726 29.925 62.2847 27.2768C62.2099 27.1104 62.1031 26.9603 61.9704 26.8351C61.8376 26.7099 61.6815 26.6121 61.511 26.5473C61.3404 26.4824 61.1587 26.4518 60.9764 26.4572C60.794 26.4625 60.6144 26.5038 60.448 26.5785C60.2815 26.6533 60.1314 26.7601 60.0063 26.8928C59.8811 27.0256 59.7833 27.1817 59.7184 27.3522C59.6536 27.5228 59.623 27.7044 59.6283 27.8868C59.6337 28.0692 59.6749 28.2487 59.7497 28.4152C63.0577 35.7886 64.4024 43.8922 63.6531 51.9389C62.9038 59.9855 60.0859 67.7016 55.4733 74.3374C54.9424 75.1007 54.3466 75.8168 53.6926 76.4777L53.6537 76.5182C51.3315 78.85 48.3443 80.4058 45.1023 80.9719C41.8604 81.538 38.5228 81.0866 35.5476 79.6798C31.6551 77.8512 28.033 75.4953 24.7833 72.6784C24.6464 72.5529 24.4857 72.4561 24.3108 72.3937C24.1359 72.3313 23.9502 72.3046 23.7648 72.3153C23.5794 72.3259 23.3979 72.3736 23.2313 72.4555C23.0646 72.5375 22.9161 72.652 22.7944 72.7924C22.6728 72.9327 22.5805 73.0961 22.5231 73.2727C22.4657 73.4493 22.4443 73.6357 22.4602 73.8207C22.476 74.0058 22.5288 74.1858 22.6154 74.3501C22.7021 74.5143 22.8207 74.6596 22.9645 74.7772C26.4069 77.761 30.2438 80.2565 34.3671 82.1935C37.5994 83.7223 41.202 84.2928 44.7485 83.8374C48.295 83.3821 51.6366 81.9199 54.3777 79.624C59.4221 87.7224 66.7051 94.1855 75.3456 98.2315C79.3552 100.127 83.9077 100.538 88.1916 99.389C92.4754 98.2404 96.2121 95.6077 98.7354 91.9604C104.801 83.2342 107.905 72.7913 107.591 62.1687C107.277 51.5461 103.561 41.3049 96.9902 32.9525L96.9921 32.9478Z" fill="white" stroke="white" stroke-width="1.00012"/>
</svg>
