<svg width="111" height="122" viewBox="0 0 111 122" fill="none" xmlns="http://www.w3.org/2000/svg">
<path d="M87.8233 85.226L66.8457 79.6016L69.4023 70.0662C69.8095 68.5475 69.5968 66.9293 68.8111 65.5674C68.0254 64.2055 66.7309 63.2114 65.2124 62.8037L46.1465 57.6918C44.6292 57.2867 43.0132 57.4999 41.653 58.2848C40.2928 59.0697 39.2995 60.3621 38.8911 61.8784L38.3787 63.7892L17.4021 58.165C15.8848 57.7593 14.2685 57.9721 12.908 58.7567C11.5474 59.5413 10.5537 60.8337 10.145 62.3501L0.941409 96.6769C0.805813 97.1826 0.876669 97.7215 1.1384 98.175C1.40013 98.6285 1.83129 98.9595 2.33703 99.0951L82.4329 120.57C82.9387 120.706 83.4775 120.635 83.931 120.373C84.3845 120.111 84.7155 119.68 84.8511 119.174L92.0093 92.4761C92.4129 90.9597 92.1989 89.3452 91.4143 87.9862C90.6297 86.6273 89.3384 85.6347 87.8233 85.226V85.226ZM54.8522 109.087L31.9676 102.952L33.2461 98.1834C33.3817 97.6777 33.3108 97.1388 33.0491 96.6853C32.7873 96.2318 32.3562 95.9008 31.8505 95.7652C31.3447 95.6296 30.8058 95.7005 30.3523 95.9623C29.8988 96.224 29.5679 96.6552 29.4323 97.1609L28.1539 101.929L5.26838 95.7931L13.9607 63.3732C14.0967 62.8677 14.4278 62.4369 14.8811 62.1752C15.3345 61.9136 15.8731 61.8425 16.3788 61.9775L37.3565 67.602L34.033 79.9977C33.8974 80.5034 33.9683 81.0423 34.23 81.4958C34.4917 81.9493 34.9229 82.2803 35.4286 82.4159C35.9343 82.5515 36.4732 82.4806 36.9267 82.2189C37.3802 81.9571 37.7112 81.526 37.8468 81.0202L42.7043 62.9029C42.8404 62.3975 43.1714 61.9666 43.6247 61.705C44.0781 61.4433 44.6167 61.3722 45.1224 61.5073L64.1894 66.6194C64.6948 66.7555 65.1256 67.0865 65.3873 67.5399C65.6489 67.9932 65.72 68.5319 65.585 69.0376L54.8522 109.087ZM81.5505 116.246L58.666 110.11L65.8242 83.4115L86.8019 89.036C87.3073 89.172 87.7381 89.5031 87.9998 89.9564C88.2614 90.4098 88.3325 90.9484 88.1975 91.4541L81.5505 116.246Z" fill="white"/>
<path d="M79.4817 97.2952C79.7994 96.1287 79.7512 94.8927 79.3434 93.7545C78.9357 92.6163 78.1882 91.6308 77.202 90.9314C76.2158 90.2319 75.0386 89.8523 73.8296 89.8439C72.6206 89.8354 71.4382 90.1986 70.4423 90.8842C70.0271 91.187 69.7463 91.6397 69.6596 92.1462C69.5729 92.6527 69.6872 93.1731 69.978 93.5967C70.2689 94.0204 70.7134 94.3139 71.2173 94.415C71.7211 94.516 72.2445 94.4167 72.6762 94.138C72.896 93.99 73.1435 93.8879 73.4038 93.838C73.664 93.7881 73.9317 93.7914 74.1906 93.8477C74.4496 93.9039 74.6945 94.012 74.9106 94.1654C75.1267 94.3188 75.3095 94.5143 75.4481 94.7402C75.5866 94.9661 75.678 95.2177 75.7167 95.4799C75.7555 95.742 75.7408 96.0093 75.6735 96.2657C75.6063 96.522 75.4878 96.762 75.3254 96.9714C75.1629 97.1807 74.9597 97.355 74.7281 97.4838C74.4742 97.6277 74.2554 97.8262 74.0873 98.0648C73.9193 98.3035 73.8063 98.5764 73.7565 98.864C73.7066 99.1516 73.7211 99.4466 73.7989 99.7279C73.8768 100.009 74.016 100.27 74.2066 100.491C74.6196 100.969 74.8689 101.567 74.9182 102.197C74.9675 102.828 74.8142 103.457 74.4806 103.994C74.1471 104.531 73.6508 104.947 73.0641 105.182C72.4774 105.417 71.8309 105.459 71.2189 105.301C70.5963 105.135 70.0465 104.768 69.6561 104.255C69.4986 104.049 69.302 103.876 69.0777 103.746C68.8534 103.616 68.6056 103.532 68.3486 103.498C68.0916 103.463 67.8304 103.48 67.5798 103.547C67.3293 103.614 67.0943 103.729 66.8884 103.886C66.6824 104.044 66.5095 104.241 66.3795 104.465C66.2495 104.689 66.165 104.937 66.1308 105.194C66.0965 105.451 66.1132 105.712 66.1799 105.963C66.2466 106.213 66.3621 106.448 66.5196 106.654C67.437 107.861 68.7308 108.727 70.1961 109.115C71.4579 109.448 72.788 109.417 74.0329 109.026C75.2778 108.635 76.3866 107.899 77.2312 106.905C78.0758 105.91 78.6217 104.697 78.806 103.405C78.9902 102.113 78.8053 100.795 78.2724 99.6041C78.8421 98.934 79.2552 98.1452 79.4817 97.2952Z" fill="white"/>
<path d="M24.6145 84.6285L20.0193 83.3964C20.5431 83.1227 21.1804 82.8504 21.922 82.5408C24.5544 81.4428 27.8294 80.0761 28.9335 76.1433C29.3441 74.7814 29.2837 73.3208 28.7621 71.9974C28.2406 70.674 27.2882 69.5649 26.0588 68.8493C24.9001 68.1971 23.5511 67.967 22.2417 68.1983C20.9324 68.4295 19.7438 69.1078 18.8787 70.1175C18.702 70.3073 18.5644 70.53 18.4739 70.7729C18.3833 71.0159 18.3414 71.2743 18.3507 71.5334C18.36 71.7925 18.4202 72.0472 18.5279 72.2831C18.6356 72.5189 18.7888 72.7312 18.9785 72.9079C19.1683 73.0845 19.391 73.2221 19.634 73.3127C19.8769 73.4033 20.1353 73.4451 20.3944 73.4359C20.6535 73.4266 20.9083 73.3663 21.1441 73.2586C21.3799 73.1509 21.5923 72.9978 21.7689 72.808C22.029 72.4467 22.4137 72.1946 22.8488 72.1003C23.2838 72.006 23.7384 72.0763 24.1247 72.2975C24.585 72.5768 24.9359 73.0051 25.119 73.5114C25.3022 74.0177 25.3066 74.5714 25.1316 75.0805C24.5837 77.0314 22.9792 77.8251 20.4015 78.9005C18.0455 79.883 15.3657 80.9952 14.566 83.9782C14.4304 84.484 14.5012 85.0228 14.763 85.4763C15.0247 85.9298 15.4558 86.2608 15.9616 86.3964L23.593 88.4425C24.0987 88.5781 24.6376 88.5072 25.0911 88.2455C25.5446 87.9837 25.8755 87.5526 26.0111 87.0469C26.1467 86.5411 26.0759 86.0022 25.8141 85.5487C25.5524 85.0952 25.1212 84.7643 24.6155 84.6287L24.6145 84.6285Z" fill="white"/>
<path d="M51.6582 83.7056L51.4505 83.6499L55.0306 70.2969C55.1205 69.9622 55.1206 69.6097 55.031 69.2749C54.9414 68.9401 54.7653 68.6347 54.5202 68.3896C54.2752 68.1445 53.97 67.9681 53.6352 67.8784C53.3005 67.7886 52.948 67.7885 52.6132 67.8782L50.1712 68.5322C49.7332 68.649 49.3487 68.9128 49.0823 69.2796C48.8159 69.6463 48.6838 70.0935 48.7082 70.5461C48.7326 70.9988 48.912 71.4292 49.2162 71.7652C49.5205 72.1012 49.9311 72.3222 50.3791 72.3912L47.6348 82.6269L47.4271 82.5712C46.9214 82.4356 46.3825 82.5065 45.929 82.7682C45.4755 83.0299 45.1445 83.4611 45.0089 83.9668C44.8733 84.4726 44.9442 85.0115 45.2059 85.4649C45.4677 85.9184 45.8988 86.2494 46.4046 86.385L50.6337 87.5189C51.1394 87.6545 51.6783 87.5836 52.1318 87.3219C52.5853 87.0602 52.9163 86.629 53.0519 86.1232C53.1875 85.6175 53.1166 85.0786 52.8549 84.6251C52.5931 84.1717 52.162 83.8407 51.6562 83.7051L51.6582 83.7056Z" fill="white"/>
<path d="M48.2017 36.8032L45.291 43.8362C44.8096 44.8273 44.6643 45.9482 44.877 47.0293C45.1349 48.3612 45.9113 49.5362 47.0354 50.2958C48.1595 51.0554 49.5392 51.3375 50.8712 51.0801L58.4492 49.6141L64.4562 54.7452C65.1588 55.3439 66.0102 55.7414 66.9203 55.8955C67.8304 56.0496 68.7653 55.9546 69.6258 55.6205C70.4862 55.2864 71.2403 54.7257 71.808 53.9979C72.3757 53.2701 72.7359 52.4022 72.8504 51.4862L73.7996 43.8175L80.3275 39.8148C81.156 39.3596 81.8421 38.6837 82.3098 37.8622C82.7774 37.0406 83.0083 36.1055 82.9767 35.1607C82.9452 34.2159 82.6525 33.2984 82.131 32.5099C81.6096 31.7213 80.8799 31.0927 80.0229 30.6938L73.0302 27.4242L71.1845 19.7485C70.9682 18.8526 70.5134 18.0319 69.8684 17.3735C69.2235 16.7151 68.4123 16.2435 67.521 16.0088C66.6297 15.7741 65.6915 15.785 64.8059 16.0403C63.9203 16.2956 63.1203 16.7858 62.4908 17.459L57.2168 23.0953L49.47 22.4876C48.541 22.3899 47.603 22.5488 46.758 22.9469C45.913 23.345 45.1933 23.9672 44.6772 24.7457C44.161 25.5243 43.8681 26.4294 43.8304 27.3627C43.7927 28.2961 44.0115 29.2219 44.4631 30.0396L48.2017 36.8032ZM48.3735 26.5538C48.583 26.4375 48.8236 26.3894 49.0617 26.4163L49.1293 26.423L57.8513 27.1048C58.1471 27.1281 58.4443 27.0843 58.7208 26.9769C58.9974 26.8694 59.2462 26.701 59.4487 26.4842L65.3694 20.1464C65.5122 19.9941 65.6934 19.8832 65.894 19.8254C66.0946 19.7676 66.3071 19.7652 66.5089 19.8182C66.7108 19.8713 66.8946 19.9779 67.0408 20.1269C67.1871 20.2758 67.2904 20.4615 67.3398 20.6643L69.408 29.2632C69.4775 29.5514 69.611 29.8203 69.7986 30.0498C69.9862 30.2794 70.2231 30.4637 70.4917 30.5892L78.355 34.2651C78.5518 34.3563 78.7193 34.5004 78.8387 34.6814C78.9581 34.8624 79.0248 35.073 79.0312 35.2898C79.0376 35.5065 78.9835 35.7208 78.8749 35.9085C78.7664 36.0962 78.6077 36.25 78.4166 36.3525C78.3812 36.3713 78.3462 36.3913 78.3115 36.4124L70.9268 40.9422C70.674 41.0972 70.4593 41.3071 70.2987 41.5564C70.1381 41.8057 70.0357 42.088 69.9992 42.3823L68.9333 50.992C68.9059 51.1999 68.8233 51.3965 68.6939 51.5615C68.5646 51.7264 68.3933 51.8536 68.1979 51.9297C68.0026 52.0058 67.7904 52.028 67.5836 51.994C67.3767 51.9601 67.1828 51.8712 67.0221 51.7366L60.2895 45.9906C60.0639 45.798 59.7979 45.6588 59.5111 45.5831C59.2243 45.5075 58.9241 45.4974 58.6329 45.5537L50.1213 47.2001C49.8175 47.2586 49.5028 47.1942 49.2464 47.021C48.99 46.8479 48.8128 46.58 48.7537 46.2763C48.704 46.0242 48.7399 45.7627 48.8555 45.5333C48.8766 45.4906 48.8966 45.447 48.9155 45.4023L52.2141 37.4326C52.3275 37.1586 52.3778 36.8625 52.3611 36.5664C52.3444 36.2703 52.2612 35.9817 52.1177 35.7221L47.9181 28.1288C47.7696 27.8592 47.7342 27.5417 47.8197 27.246C47.9052 26.9503 48.1046 26.7006 48.3741 26.5519L48.3735 26.5538Z" fill="white"/>
<path d="M37.7666 7.74962L44.1292 14.115C44.3121 14.3 44.5298 14.447 44.7697 14.5476C45.0097 14.6482 45.2671 14.7004 45.5273 14.7011C45.7874 14.7019 46.0452 14.6512 46.2857 14.552C46.5262 14.4528 46.7448 14.3071 46.9288 14.1231C47.1128 13.9392 47.2586 13.7207 47.3579 13.4802C47.4571 13.2397 47.5079 12.982 47.5072 12.7218C47.5066 12.4617 47.4545 12.2042 47.354 11.9642C47.2535 11.7242 47.1065 11.5065 46.9216 11.3235L40.559 4.95813C40.1882 4.59117 39.6871 4.38594 39.1654 4.38729C38.6437 4.38863 38.1437 4.59644 37.7747 4.96529C37.4057 5.33415 37.1978 5.83406 37.1962 6.35579C37.1947 6.87751 37.3998 7.37862 37.7666 7.74962V7.74962Z" fill="white"/>
<path d="M26.1336 29.1363C26.2264 29.161 26.3209 29.1791 26.4163 29.1904L35.3504 30.2396C35.6114 30.278 35.8774 30.2637 36.1328 30.1976C36.3882 30.1314 36.6278 30.0147 36.8373 29.8544C37.0468 29.6941 37.2221 29.4934 37.3528 29.2642C37.4834 29.035 37.5668 28.7819 37.598 28.5199C37.6292 28.258 37.6076 27.9924 37.5344 27.7389C37.4613 27.4854 37.338 27.2492 37.172 27.0441C37.006 26.8391 36.8006 26.6694 36.5679 26.5451C36.3352 26.4208 36.0799 26.3444 35.8172 26.3204L26.8831 25.2711C26.3872 25.2115 25.8872 25.3422 25.4838 25.6366C25.0804 25.931 24.8036 26.3674 24.7091 26.8578C24.6147 27.3482 24.7096 27.8562 24.9748 28.2794C25.2399 28.7027 25.6556 29.0096 26.1381 29.1386L26.1336 29.1363Z" fill="white"/>
<path d="M36.125 44.2541L28.3304 48.7527C27.8768 49.0145 27.5458 49.4457 27.4102 49.9515C27.2746 50.4573 27.3455 50.9962 27.6072 51.4498C27.869 51.9033 28.3002 52.2343 28.806 52.3699C29.3118 52.5055 29.8508 52.4347 30.3043 52.1729L38.099 47.6743C38.3235 47.5447 38.5204 47.3721 38.6783 47.1664C38.8362 46.9607 38.952 46.7259 39.0191 46.4755C39.0863 46.2251 39.1034 45.9638 39.0696 45.7068C39.0358 45.4497 38.9517 45.2018 38.8221 44.9772C38.6925 44.7526 38.5199 44.5558 38.3142 44.3979C38.1085 44.24 37.8738 44.1242 37.6233 44.0571C37.3729 43.9899 37.1117 43.9727 36.8546 44.0065C36.5975 44.0404 36.3496 44.1245 36.125 44.2541Z" fill="white"/>
<path d="M87.7404 26.0813C88.0746 26.1707 88.4265 26.1704 88.7605 26.0804L97.4541 23.7518C97.9435 23.6025 98.3557 23.269 98.604 22.8217C98.8523 22.3744 98.9173 21.8481 98.7852 21.3538C98.6531 20.8596 98.3343 20.4359 97.896 20.172C97.4576 19.9082 96.934 19.8248 96.4354 19.9395L87.7418 22.2681C87.3223 22.3807 86.9517 22.6285 86.6873 22.9731C86.4229 23.3177 86.2795 23.7398 86.2793 24.1742C86.2791 24.6085 86.4222 25.0308 86.6864 25.3756C86.9505 25.7203 87.321 25.9684 87.7404 26.0813Z" fill="white"/>
<path d="M87.259 41.8452C87.1565 42.0833 87.1019 42.3393 87.0982 42.5986C87.0946 42.8578 87.1421 43.1152 87.238 43.3561C87.3339 43.597 87.4763 43.8167 87.6571 44.0025C87.8379 44.1884 88.0535 44.3368 88.2916 44.4393L96.5524 48.0002C97.0333 48.2073 97.5768 48.2149 98.0633 48.0212C98.5498 47.8276 98.9394 47.4486 99.1465 46.9676C99.3536 46.4867 99.3611 45.9432 99.1675 45.4567C98.9738 44.9702 98.5949 44.5805 98.1139 44.3735L89.8532 40.8125C89.3722 40.6057 88.8288 40.5983 88.3424 40.7919C87.856 40.9856 87.4663 41.3644 87.259 41.8452V41.8452Z" fill="white"/>
<path d="M77.9181 55.4595C77.6935 55.589 77.4966 55.7616 77.3387 55.9673C77.1808 56.173 77.065 56.4077 76.9978 56.6582C76.9307 56.9087 76.9135 57.1699 76.9473 57.427C76.9812 57.684 77.0653 57.932 77.1949 58.1565L81.6936 65.9512C81.9553 66.4048 82.3866 66.7357 82.8924 66.8713C83.3982 67.007 83.9371 66.9361 84.3907 66.6743C84.8442 66.4126 85.1752 65.9813 85.3108 65.4755C85.4464 64.9698 85.3755 64.4308 85.1138 63.9773L80.6151 56.1826C80.4855 55.958 80.313 55.7611 80.1073 55.6032C79.9016 55.4453 79.6668 55.3295 79.4164 55.2623C79.1659 55.1952 78.9047 55.178 78.6476 55.2119C78.3905 55.2457 78.1426 55.3298 77.9181 55.4595V55.4595Z" fill="white"/>
<path d="M34.1499 87.1841C33.7729 87.083 33.3743 87.0959 33.0046 87.2213C32.6349 87.3467 32.3107 87.5789 32.073 87.8886C31.8353 88.1982 31.6947 88.5714 31.669 88.9609C31.6433 89.3505 31.7338 89.7389 31.9288 90.077C32.1239 90.4152 32.4148 90.6879 32.7648 90.8607C33.1149 91.0336 33.5083 91.0987 33.8954 91.048C34.2824 90.9972 34.6457 90.8328 34.9394 90.5756C35.2331 90.3184 35.4438 89.9799 35.5451 89.6029V89.6029C35.6124 89.3525 35.6297 89.0912 35.596 88.8341C35.5623 88.577 35.4782 88.329 35.3487 88.1044C35.2191 87.8798 35.0466 87.6829 34.8409 87.525C34.6352 87.3671 34.4004 87.2512 34.1499 87.1841V87.1841Z" fill="white"/>
</svg>
