<svg width="15" height="14" viewBox="0 0 15 14" fill="none" xmlns="http://www.w3.org/2000/svg">
<path d="M1.21001 5.7561C1.26952 5.74657 1.32974 5.74222 1.39001 5.7431H11.673L11.449 5.6431C11.2299 5.53937 11.0306 5.39826 10.86 5.2261L7.97601 2.3371C7.79198 2.1615 7.6759 1.92652 7.64827 1.67366C7.62064 1.42079 7.68324 1.1663 7.82501 0.955099C7.91284 0.835154 8.0253 0.73537 8.15485 0.662441C8.2844 0.589511 8.42804 0.54512 8.57615 0.532242C8.72426 0.519363 8.87341 0.538295 9.0136 0.587768C9.15379 0.637242 9.28179 0.716114 9.38901 0.819097L14.604 6.0341C14.7996 6.2297 14.9095 6.49498 14.9095 6.7716C14.9095 7.04821 14.7996 7.3135 14.604 7.5091L9.38901 12.7251C9.28421 12.8301 9.15823 12.9115 9.01948 12.9639C8.88073 13.0163 8.7324 13.0385 8.58438 13.029C8.43636 13.0196 8.29206 12.9786 8.16112 12.909C8.03017 12.8393 7.91558 12.7425 7.82501 12.6251C7.68324 12.4139 7.62064 12.1594 7.64827 11.9065C7.6759 11.6537 7.79198 11.4187 7.97601 11.2431L10.854 8.3541C11.0069 8.20084 11.1826 8.0723 11.375 7.9731L11.688 7.8321H1.44801C1.19021 7.84169 0.93751 7.7586 0.735709 7.59789C0.533908 7.43719 0.396363 7.2095 0.348007 6.9561C0.325574 6.82068 0.330093 6.68216 0.361303 6.54849C0.392514 6.41482 0.449803 6.28863 0.529885 6.17714C0.609967 6.06566 0.711268 5.97108 0.827978 5.89883C0.944688 5.82658 1.07451 5.77807 1.21001 5.7561Z" fill="#A41B22"/>
</svg>
