<svg width="30" height="34" viewBox="0 0 30 34" fill="none" xmlns="http://www.w3.org/2000/svg">
<path d="M22.7857 21.25C20.9344 21.25 19.2772 22.0801 18.1379 23.3949L11.956 19.4305C12.5774 17.8766 12.5839 16.1234 11.956 14.5695L18.1379 10.6051C19.2772 11.9199 20.9344 12.75 22.7857 12.75C26.2165 12.75 29 9.89453 29 6.375C29 2.85547 26.2165 0 22.7857 0C19.3549 0 16.5714 2.85547 16.5714 6.375C16.5714 7.23828 16.7397 8.05508 17.0375 8.80547L10.8556 12.7699C9.72276 11.4551 8.06562 10.625 6.21428 10.625C2.78348 10.625 0 13.4805 0 17C0 20.5195 2.78348 23.375 6.21428 23.375C8.06562 23.375 9.72276 22.5449 10.862 21.2301L17.044 25.1945C16.7397 25.9449 16.5779 26.7617 16.5779 27.625C16.5779 31.1445 19.3614 34 22.7922 34C26.223 34 29.0065 31.1445 29.0065 27.625C29 24.1055 26.2165 21.25 22.7857 21.25ZM22.7857 2.125C25.0707 2.125 26.9286 4.03086 26.9286 6.375C26.9286 8.71914 25.0707 10.625 22.7857 10.625C20.5007 10.625 18.6428 8.71914 18.6428 6.375C18.6428 4.03086 20.5007 2.125 22.7857 2.125ZM6.21428 21.25C3.92924 21.25 2.07143 19.3441 2.07143 17C2.07143 14.6559 3.92924 12.75 6.21428 12.75C8.49933 12.75 10.3571 14.6559 10.3571 17C10.3571 19.3441 8.49933 21.25 6.21428 21.25ZM22.7857 31.875C20.5007 31.875 18.6428 29.9691 18.6428 27.625C18.6428 25.2809 20.5007 23.375 22.7857 23.375C25.0707 23.375 26.9286 25.2809 26.9286 27.625C26.9286 29.9691 25.0707 31.875 22.7857 31.875Z" fill="#3BA0E6"/>
</svg>
