<svg width="68" height="64" viewBox="0 0 68 64" fill="none" xmlns="http://www.w3.org/2000/svg">
<path d="M66.8667 0H1.13333C0.832755 0 0.544487 0.119404 0.331946 0.331945C0.119405 0.544486 0 0.832755 0 1.13333V44.2C0 44.3488 0.029314 44.4962 0.0862694 44.6337C0.143225 44.7712 0.226706 44.8961 0.331946 45.0014C0.437186 45.1066 0.562123 45.1901 0.699626 45.2471C0.837128 45.304 0.984502 45.3333 1.13333 45.3333H21.2153L17.034 62.0587C16.9923 62.2257 16.9892 62.4001 17.0249 62.5685C17.0606 62.737 17.1343 62.8951 17.2402 63.0308C17.3462 63.1665 17.4817 63.2763 17.6365 63.3518C17.7912 63.4274 17.9611 63.4666 18.1333 63.4667H24.9333C25.1861 63.4666 25.4316 63.3821 25.6308 63.2265C25.8299 63.0709 25.9714 62.8532 26.0327 62.608L30.3513 45.3333H37.6487L41.9673 62.608C42.0286 62.8532 42.1701 63.0709 42.3692 63.2265C42.5684 63.3821 42.8139 63.4666 43.0667 63.4667H49.8667C50.0389 63.4666 50.2088 63.4274 50.3635 63.3518C50.5183 63.2763 50.6538 63.1665 50.7598 63.0308C50.8657 62.8951 50.9394 62.737 50.9751 62.5685C51.0108 62.4001 51.0077 62.2257 50.966 62.0587L46.7847 45.3333H52.8513L53.19 55.496C53.1975 56.3989 53.5569 57.2632 54.1919 57.9052C54.8269 58.5471 55.6872 58.916 56.59 58.9333H56.7487C57.6514 58.916 58.5118 58.5471 59.1468 57.9052C59.7817 57.2632 60.1412 56.3989 60.1487 55.496L60.4827 45.3333H66.8667C67.0155 45.3333 67.1629 45.304 67.3004 45.2471C67.4379 45.1901 67.5628 45.1066 67.6681 45.0014C67.7733 44.8961 67.8568 44.7712 67.9137 44.6337C67.9707 44.4962 68 44.3488 68 44.2V1.13333C68 0.832755 67.8806 0.544486 67.6681 0.331945C67.4555 0.119404 67.1673 0 66.8667 0ZM65.7333 2.26667V29.352L63.4667 27.5107V23.8C63.4667 23.4994 63.3473 23.2112 63.1347 22.9986C62.9222 22.7861 62.6339 22.6667 62.3333 22.6667H61.0527C61.8923 21.5235 62.3414 20.1403 62.3333 18.722V12.5693C62.3333 9.118 60.2307 6.8 57.1013 6.8H48.7333C48.5845 6.8 48.4371 6.82931 48.2996 6.88627C48.1621 6.94322 48.0372 7.02671 47.9319 7.13194C47.8267 7.23718 47.7432 7.36212 47.6863 7.49963C47.6293 7.63713 47.6 7.7845 47.6 7.93333C47.6 8.08217 47.6293 8.22954 47.6863 8.36704C47.7432 8.50454 47.8267 8.62948 47.9319 8.73472C48.0372 8.83996 48.1621 8.92344 48.2996 8.9804C48.4371 9.03735 48.5845 9.06666 48.7333 9.06666C49.0397 9.0419 49.348 9.07972 49.6393 9.17782C49.9307 9.27593 50.199 9.43227 50.428 9.63733C50.8062 10.0972 51.0095 10.676 51.002 11.2713C51.002 11.2922 51.002 11.3129 51.002 11.3333V17.3813L49.45 16.1207C49.2491 15.9573 48.9982 15.8677 48.7393 15.8667C48.4803 15.8657 48.2288 15.9535 48.0267 16.1153L28.61 31.6487L14.2907 20.6353C14.1166 20.5014 13.9073 20.421 13.6884 20.4039C13.4694 20.3867 13.2502 20.4335 13.0573 20.5387L2.26667 26.424V2.26667H65.7333ZM52.1333 29.4667V24.9333H61.2V29.4667H52.1333ZM53.6073 20.404C53.6907 20.404 53.7747 20.4087 53.86 20.4087C55.7593 20.4087 57.9933 19.7047 58.8713 17.1487C59.1503 16.3088 59.553 15.5152 60.066 14.794V18.722C60.066 20.6193 58.766 22.6667 56.666 22.6667C55.9871 22.6433 55.3313 22.4145 54.7851 22.0105C54.239 21.6065 53.8283 21.0464 53.6073 20.404ZM52.764 9.06666H57.1013C59.164 9.06666 59.808 10.522 59.9953 11.6713C58.4482 12.8809 57.3083 14.535 56.7287 16.4113C56.5784 16.8987 56.2767 17.3255 55.8675 17.6299C55.4582 17.9342 54.9627 18.1003 54.4527 18.104C54.0585 18.1445 53.6612 18.143 53.2673 18.0993V11.3573C53.2833 10.5648 53.1111 9.77971 52.7647 9.06666H52.764ZM2.26667 29.006L13.494 22.882L26.786 33.1067L14.3333 43.0667H2.26667V29.006ZM24.0487 61.2H19.582L23.5487 45.3333H28.0153L24.0487 61.2ZM48.4153 61.2H43.9487L39.9847 45.3333H44.4513L48.4153 61.2ZM17.964 43.0667L48.728 18.456L51.2413 20.498C51.4541 21.281 51.8128 22.0168 52.2987 22.6667H51C50.6994 22.6667 50.4112 22.7861 50.1986 22.9986C49.9861 23.2112 49.8667 23.4994 49.8667 23.8V30.6C49.8667 30.9006 49.9861 31.1888 50.1986 31.4014C50.4112 31.6139 50.6994 31.7333 51 31.7333H52.4L52.778 43.0667H17.964ZM56.746 56.6667H56.5873C56.2737 56.6462 55.9802 56.5048 55.7688 56.2723C55.5574 56.0397 55.4445 55.7342 55.454 55.42L54.6667 31.7333H58.6667L57.8773 55.42C57.8872 55.7339 57.7747 56.0394 57.5636 56.272C57.3526 56.5046 57.0594 56.6461 56.746 56.6667ZM60.558 43.0667L60.936 31.7333H62.336C62.6366 31.7333 62.9249 31.6139 63.1374 31.4014C63.3499 31.1888 63.4693 30.9006 63.4693 30.6V30.4313L65.736 32.2727V43.0667H60.558Z" fill="#2280C1"/>
<path d="M28.3332 20.4001C29.6781 20.4001 30.9928 20.0012 32.1111 19.254C33.2293 18.5069 34.1009 17.4448 34.6156 16.2023C35.1303 14.9598 35.2649 13.5925 35.0025 12.2734C34.7402 10.9544 34.0925 9.74272 33.1415 8.79173C32.1905 7.84073 30.9789 7.19309 29.6598 6.93071C28.3407 6.66833 26.9735 6.80299 25.731 7.31767C24.4884 7.83235 23.4264 8.70392 22.6792 9.82217C21.932 10.9404 21.5332 12.2551 21.5332 13.6C21.5332 15.4035 22.2496 17.1331 23.5249 18.4084C24.8001 19.6836 26.5297 20.4001 28.3332 20.4001ZM28.3332 9.06672C29.2298 9.06672 30.1063 9.33259 30.8518 9.83072C31.5973 10.3289 32.1783 11.0369 32.5215 11.8652C32.8646 12.6936 32.9543 13.6051 32.7794 14.4845C32.6045 15.3638 32.1728 16.1716 31.5388 16.8056C30.9048 17.4396 30.097 17.8714 29.2176 18.0463C28.3382 18.2212 27.4267 18.1314 26.5984 17.7883C25.77 17.4452 25.062 16.8641 24.5639 16.1186C24.0657 15.3731 23.7999 14.4967 23.7999 13.6C23.7999 12.3977 24.2775 11.2447 25.1277 10.3945C25.9778 9.54433 27.1309 9.06672 28.3332 9.06672Z" fill="#2280C1"/>
</svg>
