<svg width="47" height="54" viewBox="0 0 47 54" fill="none" xmlns="http://www.w3.org/2000/svg">
<path d="M15.7156 38.918L14.8868 43.8012C14.698 44.9191 15.1491 46.0266 16.0618 46.691C16.5759 47.0602 17.1844 47.2605 17.7824 47.2605C18.244 47.2605 18.7161 47.1445 19.1462 46.9125L23.5 44.6133L27.8538 46.9125C28.8504 47.4398 30.0359 47.3555 30.9487 46.691C31.8614 46.0266 32.3125 44.9191 32.1237 43.8012L31.2949 38.918L34.8094 35.4691C35.6172 34.6781 35.9004 33.518 35.5542 32.4422C35.208 31.3664 34.2953 30.5965 33.1833 30.4383L28.3154 29.7211L26.1438 25.2809C25.6297 24.2578 24.6225 23.625 23.5 23.625C22.3775 23.625 21.3703 24.2578 20.8772 25.2703L18.7056 29.7105L13.8377 30.4277C12.7257 30.5859 11.8129 31.3559 11.4667 32.4316C11.1205 33.5074 11.4038 34.6676 12.2116 35.4586L15.7156 38.918ZM20.9192 32.7902L23.5 27.5273L26.0808 32.7902L31.8509 33.634L27.6754 37.7367L28.6616 43.5164L23.5 40.7953L18.3384 43.527L19.3246 37.7473L15.1491 33.6445L20.9192 32.7902ZM41.9643 6.75H36.9286V0.84375C36.9286 0.379687 36.5509 0 36.0893 0H34.4107C33.9491 0 33.5714 0.379687 33.5714 0.84375V6.75H13.4286V0.84375C13.4286 0.379687 13.0509 0 12.5893 0H10.9107C10.4491 0 10.0714 0.379687 10.0714 0.84375V6.75H5.03571C2.25558 6.75 0 9.01758 0 11.8125V48.9375C0 51.7324 2.25558 54 5.03571 54H41.9643C44.7444 54 47 51.7324 47 48.9375V11.8125C47 9.01758 44.7444 6.75 41.9643 6.75ZM43.6429 48.9375C43.6429 49.8656 42.8875 50.625 41.9643 50.625H5.03571C4.1125 50.625 3.35714 49.8656 3.35714 48.9375V20.25H43.6429V48.9375ZM43.6429 16.875H3.35714V11.8125C3.35714 10.8844 4.1125 10.125 5.03571 10.125H41.9643C42.8875 10.125 43.6429 10.8844 43.6429 11.8125V16.875Z" fill="#3BA0E6"/>
</svg>
