<svg width="41" height="55" viewBox="0 0 41 55" fill="none" xmlns="http://www.w3.org/2000/svg">
<path d="M20.5 10.3125C14.8481 10.3125 10.25 14.9386 10.25 20.625C10.25 26.3114 14.8481 30.9375 20.5 30.9375C26.1519 30.9375 30.75 26.3114 30.75 20.625C30.75 14.9386 26.1519 10.3125 20.5 10.3125ZM20.5 27.5C16.7321 27.5 13.6667 24.4159 13.6667 20.625C13.6667 16.8341 16.7321 13.75 20.5 13.75C24.2679 13.75 27.3333 16.8341 27.3333 20.625C27.3333 24.4159 24.2679 27.5 20.5 27.5ZM20.5 0C9.17813 0 0 9.23409 0 20.625C0 28.9408 2.87961 31.2631 18.3932 53.8903C19.4112 55.3697 21.5887 55.37 22.6069 53.8903C38.1204 31.2631 41 28.9408 41 20.625C41 9.23409 31.8219 0 20.5 0ZM20.5 50.9106C5.62736 29.2712 3.41667 27.5531 3.41667 20.625C3.41667 16.034 5.19365 11.7179 8.42027 8.47161C11.6469 5.22532 15.9368 3.4375 20.5 3.4375C25.0632 3.4375 29.3531 5.22532 32.5797 8.47161C35.8063 11.7179 37.5833 16.034 37.5833 20.625C37.5833 27.5526 35.374 29.2692 20.5 50.9106Z" fill="#3BA0E6"/>
</svg>
