<svg width="50" height="50" viewBox="0 0 50 50" fill="none" xmlns="http://www.w3.org/2000/svg">
<path d="M25 0.78125C11.6211 0.78125 0.78125 11.6211 0.78125 25C0.78125 38.3789 11.6211 49.2188 25 49.2188C38.3789 49.2188 49.2188 38.3789 49.2188 25C49.2188 11.6211 38.3789 0.78125 25 0.78125ZM25 44.5312C14.209 44.5312 5.46875 35.791 5.46875 25C5.46875 14.209 14.209 5.46875 25 5.46875C35.791 5.46875 44.5312 14.209 44.5312 25C44.5312 35.791 35.791 44.5312 25 44.5312ZM31.0352 34.3359L22.7441 28.3105C22.4414 28.0859 22.2656 27.7344 22.2656 27.3633V11.3281C22.2656 10.6836 22.793 10.1562 23.4375 10.1562H26.5625C27.207 10.1562 27.7344 10.6836 27.7344 11.3281V25.166L34.2578 29.9121C34.7852 30.293 34.8926 31.0254 34.5117 31.5527L32.6758 34.082C32.2949 34.5996 31.5625 34.7168 31.0352 34.3359Z" fill="#3BA0E6"/>
</svg>
