<svg width="23" height="31" viewBox="0 0 23 31" fill="none" xmlns="http://www.w3.org/2000/svg">
<g clip-path="url(#clip0)">
<path d="M22.1555 5.93359L17.1302 0.853711C16.5911 0.308789 15.8604 0 15.0997 0H2.875C1.28776 0.00605469 0 1.30781 0 2.9123V28.0998C0 29.7043 1.28776 31.0061 2.875 31.0061H20.125C21.7122 31.0061 23 29.7043 23 28.0998V7.99219C23 7.22324 22.6945 6.47852 22.1555 5.93359ZM19.8914 7.75605H15.3333V3.14844L19.8914 7.75605ZM2.875 28.0998V2.9123H12.4583V9.20918C12.4583 10.0145 13.0992 10.6623 13.8958 10.6623H20.125V28.0998H2.875Z" fill="#3BA0E6"/>
</g>
<defs>
<clipPath id="clip0">
<rect width="23" height="31" fill="white"/>
</clipPath>
</defs>
</svg>
