<svg width="15" height="12" viewBox="0 0 15 12" fill="none" xmlns="http://www.w3.org/2000/svg">
<path d="M14.7703 6.28398L9.84872 11.2183C9.7757 11.2926 9.68874 11.3517 9.59278 11.3922C9.49682 11.4326 9.39379 11.4537 9.28964 11.4543C9.18549 11.4548 9.08226 11.4346 8.98592 11.3951C8.88958 11.3555 8.80202 11.2973 8.72829 11.2237C8.65455 11.1501 8.59609 11.0627 8.55629 10.9665C8.51649 10.8702 8.49612 10.7671 8.49637 10.6629C8.49662 10.5587 8.51747 10.4557 8.55773 10.3596C8.59799 10.2636 8.65688 10.1764 8.73096 10.1032L12.3085 6.51592H0.789437C0.685763 6.51592 0.583106 6.4955 0.487323 6.45582C0.391541 6.41615 0.304523 6.35799 0.231214 6.28468C0.157906 6.21138 0.0997513 6.12434 0.060077 6.02855C0.0204027 5.93277 0 5.83011 0 5.72644C0 5.62277 0.0204027 5.52011 0.060077 5.42433C0.0997513 5.32854 0.157906 5.24153 0.231214 5.16822C0.304523 5.09491 0.391541 5.03676 0.487323 4.99708C0.583106 4.95741 0.685763 4.93698 0.789437 4.93698H12.3085L8.73096 1.35102C8.65688 1.27782 8.59799 1.19068 8.55773 1.09462C8.51747 0.998569 8.49662 0.89549 8.49637 0.791339C8.49612 0.687187 8.51649 0.584012 8.55629 0.487765C8.59609 0.391517 8.65455 0.304102 8.72829 0.230544C8.80202 0.156987 8.88958 0.0987486 8.98592 0.0591809C9.08226 0.0196132 9.18549 -0.000491391 9.28964 9.12036e-06C9.39379 0.000509631 9.49682 0.0216106 9.59278 0.0621024C9.68874 0.102594 9.7757 0.161672 9.84872 0.235935L14.7703 5.17025C14.9174 5.31824 15 5.51843 15 5.72712C15 5.9358 14.9174 6.136 14.7703 6.28398Z" fill="#3BA0E6"/>
</svg>
