<svg xmlns="http://www.w3.org/2000/svg" width="14.576" height="12.501" viewBox="0 0 14.576 12.501"><defs><style>.a{fill:#a41b22;}</style></defs><path class="a" d="M.876,37.069a1.042,1.042,0,0,1,.18-.013H11.339l-.224-.1a2.086,2.086,0,0,1-.589-.417L7.642,33.65a1.079,1.079,0,0,1-.151-1.382,1.043,1.043,0,0,1,1.564-.136l5.215,5.215a1.043,1.043,0,0,1,0,1.475h0L9.055,44.038a1.043,1.043,0,0,1-1.564-.1,1.079,1.079,0,0,1,.151-1.382l2.878-2.889a2.086,2.086,0,0,1,.521-.381l.313-.141H1.114a1.079,1.079,0,0,1-1.1-.876A1.043,1.043,0,0,1,.876,37.069Z" transform="translate(0 -31.842)"/></svg>