<svg xmlns="http://www.w3.org/2000/svg" width="102" height="95.2" viewBox="0 0 102 95.2">
  <g id="art" transform="translate(-16 -32)">
    <path id="Caminho_65" data-name="Caminho 65" d="M116.3,32H17.7A1.7,1.7,0,0,0,16,33.7V98.3a1.7,1.7,0,0,0,1.7,1.7H47.823l-6.272,25.088A1.7,1.7,0,0,0,43.2,127.2H53.4a1.7,1.7,0,0,0,1.649-1.288L61.527,100H72.473l6.478,25.912A1.7,1.7,0,0,0,80.6,127.2H90.8a1.7,1.7,0,0,0,1.649-2.112L86.177,100h9.1l.508,15.244a5.2,5.2,0,0,0,5.1,5.156h.238a5.2,5.2,0,0,0,5.1-5.156L106.724,100H116.3a1.7,1.7,0,0,0,1.7-1.7V33.7A1.7,1.7,0,0,0,116.3,32Zm-1.7,3.4V76.028l-3.4-2.762V67.7a1.7,1.7,0,0,0-1.7-1.7h-1.921a9.9,9.9,0,0,0,1.921-5.917V50.854c0-5.177-3.154-8.654-7.848-8.654H89.1a1.7,1.7,0,1,0,0,3.4,3.4,3.4,0,0,1,2.542.856,3.783,3.783,0,0,1,.861,2.451q0,.047,0,.093v9.072l-2.328-1.891a1.7,1.7,0,0,0-2.135-.008l-29.125,23.3L37.436,62.953a1.7,1.7,0,0,0-1.85-.145L19.4,71.636V35.4ZM94.2,76.2V69.4h13.6v6.8Zm2.211-13.594c.125,0,.251.007.379.007,2.849,0,6.2-1.056,7.517-4.89a13.355,13.355,0,0,1,1.792-3.532v5.892c0,2.846-1.95,5.917-5.1,5.917A5.035,5.035,0,0,1,96.411,62.606ZM95.146,45.6h6.506c3.094,0,4.06,2.183,4.341,3.907a14.432,14.432,0,0,0-4.9,7.11,3.6,3.6,0,0,1-3.414,2.539,8.367,8.367,0,0,1-1.778-.007V49.036a7.516,7.516,0,0,0-.754-3.436ZM19.4,75.509l16.841-9.186L56.179,81.66,37.5,96.6H19.4ZM52.073,123.8h-6.7l5.95-23.8h6.7Zm36.55,0h-6.7L75.977,100h6.7ZM42.946,96.6,89.092,59.684l3.77,3.063A9.665,9.665,0,0,0,94.448,66H92.5a1.7,1.7,0,0,0-1.7,1.7V77.9a1.7,1.7,0,0,0,1.7,1.7h2.1l.567,17ZM101.119,117h-.238a1.819,1.819,0,0,1-1.7-1.87L98,79.6h6l-1.184,35.53A1.817,1.817,0,0,1,101.119,117Zm5.718-20.4.567-17h2.1a1.7,1.7,0,0,0,1.7-1.7v-.253l3.4,2.762V96.6Z" fill="#fff"/>
    <path id="Caminho_66" data-name="Caminho 66" d="M178.2,100.4A10.2,10.2,0,1,0,168,90.2a10.2,10.2,0,0,0,10.2,10.2Zm0-17a6.8,6.8,0,1,1-6.8,6.8A6.8,6.8,0,0,1,178.2,83.4Z" transform="translate(-119.7 -37.8)" fill="#fff"/>
  </g>
</svg>
