<svg aria-hidden="true" style="position: absolute; width: 0; height: 0; overflow: hidden;" version="1.1" xmlns="http://www.w3.org/2000/svg" xmlns:xlink="http://www.w3.org/1999/xlink">
<defs>
<symbol id="icon-bg-intro" viewBox="0 0 27 32">
<path fill="#2280c1" style="fill: var(--color1, #2280c1)" d="M26.532 31.836v-31.836h-26.489c-0.019 0.11-0.035 0.22-0.043 0.347v0.363c0.007 0.13 0.022 0.279 0.046 0.455 0.303 1.728 1.279 2.060 2.33 2.418 0.368 0.125 0.746 0.254 1.107 0.446 2.347 1.065 2.17 3.111 1.972 5.396-0.078 0.902-0.159 1.841-0.090 2.772 0.164 2.016 0.818 3.713 2.455 4.243 0.196 0.054 0.382 0.1 0.559 0.145 1.227 0.308 2.040 0.513 3.041 2.181 0.051 0.080 0.1 0.16 0.145 0.241 0.701 1.242 0.808 2.687 0.914 4.11 0.165 2.212 0.326 4.37 2.705 5.629 0.674 0.374 1.433 0.382 2.193 0.389 0.532 0.005 1.065 0.010 1.571 0.141 1.32 0.163 2.543 0.889 3.744 1.602 0.089 0.053 0.178 0.106 0.267 0.158 0.378 0.261 1.028 0.664 1.028 0.646 0.418 0.176 0.838 0.285 1.249 0.318h0.544c0.257-0.022 0.509-0.076 0.752-0.164z"></path>
</symbol>
</defs>
</svg>
