<svg width="820" height="989" viewBox="0 0 820 989" fill="none" xmlns="http://www.w3.org/2000/svg">
<path d="M820 983.939V0H1.3197C0.737427 3.40993 0.244995 6.80708 0 10.7145V21.9475C0.220825 25.9668 0.674561 30.5682 1.43701 36.0028C10.7997 89.4175 40.9647 99.6789 73.4476 110.729C84.829 114.6 96.4948 118.569 107.65 124.524C180.174 157.433 174.701 220.679 168.59 291.301C166.177 319.179 163.666 348.206 165.813 376.971C170.87 439.265 191.103 491.724 241.679 508.115C247.74 509.769 253.479 511.211 258.952 512.586C296.867 522.112 322.011 528.429 352.948 579.999C354.529 582.458 356.024 584.939 357.434 587.444C379.087 625.838 382.414 670.495 385.689 714.463C390.782 782.823 395.75 849.519 469.277 888.426C490.101 899.998 513.556 900.224 537.061 900.45C553.513 900.609 569.989 900.767 585.606 904.817C626.401 909.858 664.209 932.294 701.329 954.322C704.081 955.955 706.829 957.586 709.575 959.208C721.259 967.284 741.346 979.73 741.342 979.164C754.268 984.61 767.251 987.957 779.949 989H796.769C804.724 988.321 812.497 986.652 820 983.939Z" fill="#2280C1"/>
</svg>
