<svg xmlns="http://www.w3.org/2000/svg" width="90.977" height="90.977" viewBox="0 0 90.977 90.977">
  <path id="books" d="M75.905,22.939a3.806,3.806,0,0,0-3.8-3.8H70.881a10.194,10.194,0,0,1,0-11.528h1.225C77,7.607,77.029,0,72.106,0H28.458a1.112,1.112,0,0,0,0,2.224H72.106c1.971,0,2.061,3.16,0,3.16H13.349a7.988,7.988,0,0,0,0,15.976H72.106c2.009,0,2.029,3.284,0,3.284H13.349a10.962,10.962,0,0,1-7.856-3.325,11.268,11.268,0,0,1-3.269-7.946A11.149,11.149,0,0,1,13.349,2.224h9.185a1.112,1.112,0,0,0,0-2.224H13.349A13.414,13.414,0,0,0,3.908,22.878a13.634,13.634,0,0,0,2.131,1.765H3.8a3.8,3.8,0,0,0,0,7.608H5.024A10.113,10.113,0,0,1,6.81,38.014a10.114,10.114,0,0,1-1.786,5.764H3.8a3.8,3.8,0,0,0,0,7.607H5.986a13.372,13.372,0,0,0,7.363,24.519H72.106c4.889,0,4.922-7.608,0-7.608H70.881a10.195,10.195,0,0,1,0-11.528h1.225c4.889,0,4.922-7.608,0-7.608H69.919a13.373,13.373,0,0,0,0-22.3h2.187A3.917,3.917,0,0,0,75.905,22.939ZM7.6,13.371a5.764,5.764,0,0,1,5.751-5.764H68.288a12.436,12.436,0,0,0,0,11.528H13.349A5.764,5.764,0,0,1,7.6,13.371Zm.02,18.879H62.557a5.764,5.764,0,0,1,0,11.528H57.59V39.126h2.658a1.112,1.112,0,0,0,0-2.224H21.954a1.112,1.112,0,0,0,0,2.224H45.6v4.652H7.617a12.323,12.323,0,0,0,1.417-5.764,12.325,12.325,0,0,0-1.417-5.764Zm40.206,6.876h7.542V58.441l-2.913-2.814a1.112,1.112,0,0,0-1.531-.013l-3.1,2.89V39.126ZM3.8,49.162A1.58,1.58,0,0,1,3.8,46H45.6v3.16ZM68.288,68.3H54.853a1.112,1.112,0,0,0,0,2.224H72.106c1.971,0,2.061,3.16,0,3.16H13.349a11.148,11.148,0,0,1,0-22.3H45.6v3.16H13.349a7.988,7.988,0,0,0,0,15.975H48.92a1.112,1.112,0,0,0,0-2.224H13.349a5.764,5.764,0,0,1,0-11.528H45.6v4.291a1.121,1.121,0,0,0,1.87.813l4.2-3.915,4.038,3.9a1.118,1.118,0,0,0,1.884-.8V56.77h10.7a12.436,12.436,0,0,0,0,11.528Zm3.819-16.912c1.971,0,2.061,3.16,0,3.16H57.59v-3.16H72.106Zm1.575-13.371A11.149,11.149,0,0,1,62.556,49.162H57.59V46h4.967a7.988,7.988,0,0,0,0-15.976H3.8a1.58,1.58,0,0,1,0-3.16H62.556A11.149,11.149,0,0,1,73.682,38.014Z" transform="translate(16.256 0.474) rotate(12)" fill="#fff" stroke="#fff" stroke-width="0.8"/>
</svg>
