<svg xmlns="http://www.w3.org/2000/svg" width="81.777" height="61.299" viewBox="0 0 81.777 61.299"><defs><style>.a{fill:none;stroke:#fff;stroke-linecap:round;stroke-linejoin:round;stroke-width:4px;}</style></defs><g transform="translate(-869.374 4.47)"><path class="a" d="M876.816-1.617,925.64,23.075A15.561,15.561,0,0,1,932.5,43.988h0a15.562,15.562,0,0,1-20.909,6.863l-27.2-13.76" transform="translate(14.921 2.253)"/><path class="a" d="M926.177,43.853l-48.444-24.5a11.511,11.511,0,0,1-5.081-15.467h0a11.514,11.514,0,0,1,15.467-5.077l48.448,24.5" transform="translate(0 0)"/><path class="a" d="M875.791.41l48.639,24.6a7.244,7.244,0,0,1,3.2,9.729h0a7.245,7.245,0,0,1-9.733,3.2L876.032,16.761" transform="translate(12.091 7.849)"/></g></svg>