<svg xmlns="http://www.w3.org/2000/svg" width="279.396" height="212.724" viewBox="0 0 279.396 212.724"><defs><style>.a{fill:#2280C1;stroke:#fff;stroke-miterlimit:10;}</style></defs><g transform="translate(-509.179 -677.738)"><g transform="translate(509.679 678.238)"><circle class="a" cx="5.852" cy="5.852" r="5.852" transform="translate(133.345)"/><path class="a" d="M551.355,684.091a5.853,5.853,0,1,1-5.853-5.853A5.85,5.85,0,0,1,551.355,684.091Z" transform="translate(-339.632 -678.237)"/><path class="a" d="M561.345,684.091a5.853,5.853,0,1,1-5.853-5.853A5.851,5.851,0,0,1,561.345,684.091Z" transform="translate(-282.95 -678.237)"/></g><g transform="translate(509.679 744.91)"><path class="a" d="M531.375,694.081a5.853,5.853,0,1,1-5.853-5.853A5.85,5.85,0,0,1,531.375,694.081Z" transform="translate(-452.996 -688.227)"/><circle class="a" cx="5.852" cy="5.852" r="5.852" transform="translate(133.345)"/><path class="a" d="M551.355,694.081a5.853,5.853,0,1,1-5.853-5.853A5.851,5.851,0,0,1,551.355,694.081Z" transform="translate(-339.632 -688.227)"/><path class="a" d="M561.345,694.081a5.853,5.853,0,1,1-5.853-5.853A5.851,5.851,0,0,1,561.345,694.081Z" transform="translate(-282.95 -688.227)"/></g><g transform="translate(509.679 811.583)"><path class="a" d="M521.385,704.071a5.853,5.853,0,1,1-5.853-5.853A5.851,5.851,0,0,1,521.385,704.071Z" transform="translate(-509.679 -698.217)"/><path class="a" d="M531.375,704.071a5.853,5.853,0,1,1-5.853-5.853A5.85,5.85,0,0,1,531.375,704.071Z" transform="translate(-452.996 -698.217)"/><circle class="a" cx="5.852" cy="5.852" r="5.852" transform="translate(133.345)"/><path class="a" d="M551.355,704.071a5.853,5.853,0,1,1-5.853-5.853A5.85,5.85,0,0,1,551.355,704.071Z" transform="translate(-339.632 -698.217)"/><path class="a" d="M561.345,704.071a5.853,5.853,0,1,1-5.853-5.853A5.851,5.851,0,0,1,561.345,704.071Z" transform="translate(-282.95 -698.217)"/></g><g transform="translate(509.679 878.256)"><path class="a" d="M521.385,714.061a5.853,5.853,0,1,1-5.853-5.853A5.856,5.856,0,0,1,521.385,714.061Z" transform="translate(-509.679 -708.208)"/><path class="a" d="M531.375,714.061a5.853,5.853,0,1,1-5.853-5.853A5.856,5.856,0,0,1,531.375,714.061Z" transform="translate(-452.996 -708.208)"/><path class="a" d="M541.365,714.061a5.853,5.853,0,1,1-5.853-5.853A5.856,5.856,0,0,1,541.365,714.061Z" transform="translate(-396.314 -708.208)"/><path class="a" d="M551.355,714.061a5.853,5.853,0,1,1-5.853-5.853A5.856,5.856,0,0,1,551.355,714.061Z" transform="translate(-339.632 -708.208)"/><path class="a" d="M561.345,714.061a5.853,5.853,0,1,1-5.853-5.853A5.856,5.856,0,0,1,561.345,714.061Z" transform="translate(-282.95 -708.208)"/></g></g></svg>