<svg aria-hidden="true" style="position: absolute; width: 0; height: 0; overflow: hidden;" version="1.1" xmlns="http://www.w3.org/2000/svg" xmlns:xlink="http://www.w3.org/1999/xlink">
<defs>
<symbol id="icon-detalhes-bg" viewBox="0 0 23 32">
<path fill="#fff" d="M8.223 8.631l-0.064 0.015c0 0-0 0-0 0-0.034 0.008-0.056 0.042-0.048 0.077 0.001 0.003 0.001 0.006 0.002 0.008l-0-0 0.617 1.662c0.056 0.149 0.214 0.236 0.372 0.2h0l1.43-0.33c0.158-0.037 0.261-0.184 0.246-0.341l-0-0.002-0.175-1.764c-0-0.002-0.001-0.005-0.001-0.008-0.008-0.034-0.042-0.056-0.077-0.048 0 0-0 0-0 0l-0.043 0.010 0.121-0.722 0.129-0.151c0.064-0.075 0.092-0.177 0.068-0.279-0.004-0.018-0.010-0.036-0.017-0.053l0.001 0.002-0.171-0.412c-0.012-0.029-0.043-0.045-0.073-0.038-0.014 0.003-0.025 0.010-0.034 0.020l0-0-0.296 0.334c-0.066 0.075-0.096 0.179-0.072 0.283 0.004 0.016 0.009 0.032 0.015 0.047l-0.001-0.002 0.073 0.185-0.147 0.879-0.115 0.027-0.114-0.494-0.038-0.446c-0-0.003-0.001-0.006-0.001-0.009-0.003-0.013-0.010-0.024-0.019-0.032l0 0-0.335-0.316c-0.015-0.014-0.037-0.021-0.058-0.016s-0.038 0.020-0.045 0.039l-0 0-0.163 0.431c-0.004 0.011-0.005 0.024-0.002 0.037 0.001 0.003 0.002 0.006 0.003 0.009l-0-0 0.161 0.417 0.114 0.494-0.122 0.028-0.072-0.311c-0-0-0-0-0-0-0.002-0.009-0.006-0.017-0.011-0.024l0 0-0.379-0.503c-0.015-0.020-0.040-0.030-0.065-0.024s-0.043 0.026-0.048 0.050l-0 0-0.078 0.403-0.71-0.995c-0.015-0.021-0.041-0.031-0.066-0.025-0.009 0.002-0.016 0.006-0.023 0.011l0-0-0.52 0.371c-0.021 0.015-0.031 0.041-0.025 0.066 0.002 0.009 0.006 0.016 0.011 0.023l-0-0zM8.806 8.327l0.022 0.014c0.014 0.009 0.031 0.012 0.048 0.008 0.010-0.002 0.019-0.007 0.027-0.013l-0 0 0.030-0.025 0.034 0.148-0.125 0.029zM10.483 8.24l0.038 0.385-2.128 0.491-0.135-0.363zM10.65 9.932c0.009 0.095-0.053 0.184-0.148 0.206h-0l-1.43 0.33c-0.095 0.022-0.189-0.031-0.223-0.119l-0-0.001-0.412-1.111 2.096-0.484zM10.406 7.79l-0.126-0.021 0.063-0.378 0.126 0.021zM10.306 6.895l0.228-0.258 0.132 0.318c0.004 0.009 0.007 0.020 0.010 0.031 0.014 0.061-0.003 0.122-0.041 0.167l-0 0-0.117 0.137-0.181-0.030-0.066-0.167c-0.003-0.008-0.006-0.018-0.009-0.027-0.014-0.062 0.004-0.125 0.043-0.169l0-0zM10.259 7.895l0.126 0.021-0.038 0.225-0.135 0.031zM9.737 7.822l0.029 0.125-0.249 0.058-0.029-0.125zM9.397 7.199l0.053 0.23c0.008 0.034 0.042 0.056 0.077 0.048s0.056-0.042 0.048-0.077l-0.053-0.23 0.164 0.155 0.032 0.371-0.266 0.061-0.134-0.347zM9.545 8.129l0.249-0.058 0.043 0.187-0.249 0.058zM9.093 8.43l-0.034-0.148 0.038 0.009c0.009 0.002 0.019 0.002 0.029 0 0.017-0.004 0.031-0.015 0.040-0.028v0l0.014-0.022 0.037 0.161zM9.082 8.156l-0.094-0.023c-0.009-0.002-0.019-0.002-0.029-0s-0.019 0.007-0.027 0.013l0-0-0.075 0.062-0.077-0.048 0.024-0.122 0.251-0.058 0.075 0.099zM8.865 7.726l0.107 0.142-0.141 0.032zM7.912 7.094l0.743 1.042-0.008 0.042c-0.002 0.008-0.002 0.017 0.001 0.026 0 0 0 0 0 0v-0l0.072 0.311-0.236 0.054 0.059-0.042c0.021-0.015 0.031-0.041 0.025-0.066-0.008-0.034-0.042-0.056-0.077-0.048-0.009 0.002-0.016 0.006-0.023 0.010l0-0-0.156 0.111-0.074-0.104 0.052-0.037c0.021-0.015 0.031-0.041 0.025-0.066-0.008-0.034-0.042-0.056-0.077-0.048-0.009 0.002-0.016 0.006-0.023 0.010l0-0-0.052 0.037-0.074-0.104 0.156-0.111c0.021-0.015 0.031-0.041 0.025-0.066-0.008-0.034-0.042-0.056-0.077-0.048-0.009 0.002-0.016 0.006-0.023 0.010l0-0-0.156 0.111-0.074-0.104 0.052-0.037c0.021-0.015 0.031-0.041 0.025-0.066-0.008-0.034-0.042-0.056-0.077-0.048-0.009 0.002-0.016 0.006-0.023 0.010l0-0-0.052 0.037-0.074-0.104 0.156-0.111c0.021-0.015 0.031-0.041 0.025-0.066-0.008-0.034-0.042-0.056-0.077-0.048-0.009 0.002-0.016 0.006-0.023 0.011l0-0-0.156 0.111-0.074-0.104 0.052-0.037c0.021-0.015 0.031-0.041 0.025-0.066-0.008-0.034-0.042-0.056-0.077-0.048-0.009 0.002-0.016 0.006-0.023 0.010l0-0-0.052 0.037-0.074-0.104z"></path>
<path fill="#fff" style="fill: var(--color1, #fff)" d="M13.927 20.536c-0.008-0.005-0.018-0.008-0.028-0.008-0.010 0-0.018 0.003-0.026 0.007l0-0c-0.12 0.064-0.262 0.102-0.413 0.102-0.015 0-0.030-0-0.046-0.001l0.002 0c-0.013-0.196-0.175-0.35-0.373-0.35h-1.925c-0.207 0-0.374 0.168-0.374 0.374v2.46c0 0.207 0.168 0.374 0.374 0.374h1.925c0.206-0.001 0.372-0.168 0.372-0.374 0-0.187-0.137-0.342-0.316-0.37l-0.002-0v-1.218c0.112-0.096 0.254-0.141 0.402-0.188l0.038-0.012c0.372-0.119 0.414-0.721 0.416-0.747 0-0.001 0-0.002 0-0.003 0-0.019-0.010-0.036-0.025-0.045l-0-0zM13.043 20.393c0.137 0 0.25 0.105 0.264 0.238l0 0.001c-0.040-0.002-0.080-0.005-0.121-0.008-0.063-0.007-0.135-0.011-0.209-0.011-0.085 0-0.169 0.005-0.252 0.016l0.010-0.001c-0.001 0-0.003 0-0.004 0.001l0-0c-0.196 0.032-0.366 0.125-0.494 0.258l-0 0c-0.013 0.013-0.026 0.027-0.038 0.040h-0.82c0.069-0.068 0.113-0.163 0.113-0.267s-0.043-0.199-0.113-0.267l-0-0zM10.85 23.12v-2.46c0-0.148 0.12-0.267 0.267-0.267s0.267 0.12 0.267 0.267c0 0.148-0.12 0.267-0.267 0.267v0c-0.030 0-0.053 0.024-0.053 0.053s0.024 0.053 0.053 0.053h0.994c-0.276 0.375-0.181 0.715-0.123 0.849-0.092 0.156-0.166 0.336-0.211 0.528l-0.003 0.013h-0.551c-0.030 0-0.053 0.024-0.053 0.053s0.024 0.053 0.053 0.053h0.595c0 0 0 0 0 0 0.012 0 0.023-0.004 0.032-0.010l-0 0 0.244-0.179c0.013-0.010 0.022-0.025 0.022-0.043v-0c0.003-0.091 0.013-0.178 0.028-0.263l-0.002 0.011c0.063 0.030 0.137 0.048 0.215 0.048 0.002 0 0.004 0 0.006-0h-0c0.043-0 0.084-0.004 0.124-0.013l-0.004 0.001c0.162-0.035 0.299-0.125 0.394-0.249l0.001-0.002c0.001-0.001 0.002-0.002 0.003-0.003 0.030-0.038 0.058-0.081 0.082-0.127l0.002-0.005c0.008-0.015 0.016-0.029 0.024-0.042v1.089h-1.872c-0.030 0-0.053 0.024-0.053 0.053s0.024 0.053 0.053 0.053v0c0.148 0 0.267 0.12 0.267 0.267s-0.12 0.267-0.267 0.267c-0.148 0-0.267-0.12-0.267-0.267v0zM12.041 22.011c-0.015 0.075-0.025 0.165-0.030 0.256l-0 0.005-0.105 0.077c0.039-0.13 0.085-0.242 0.141-0.349l-0.005 0.011zM13.31 23.12c-0 0.148-0.12 0.267-0.267 0.267h-1.663c0.069-0.068 0.113-0.163 0.113-0.267s-0.043-0.199-0.113-0.267l-0-0h1.663c0.148 0 0.267 0.12 0.267 0.267v0zM13.503 21.229l-0.038 0.012c-0.121 0.035-0.226 0.077-0.325 0.129l0.009-0.004c-0.047-0.002-0.090-0.020-0.123-0.049l0 0c-0.010-0.010-0.023-0.016-0.038-0.016-0.030 0-0.054 0.024-0.054 0.054 0 0.015 0.006 0.028 0.016 0.038v0c0.023 0.022 0.050 0.040 0.079 0.053l0.002 0.001c-0.067 0.056-0.121 0.123-0.161 0.2l-0.002 0.004c-0.019 0.036-0.037 0.066-0.058 0.095l0.002-0.002c-0.001 0-0.002 0-0.002 0-0.101 0-0.197-0.023-0.283-0.063l0.004 0.002c-0.007-0.004-0.015-0.006-0.024-0.006-0.030 0-0.053 0.024-0.053 0.053 0 0.021 0.012 0.039 0.029 0.048l0 0c0.070 0.034 0.151 0.058 0.237 0.066l0.003 0c-0.071 0.066-0.16 0.114-0.258 0.135l-0.004 0.001c-0.029 0.007-0.061 0.011-0.095 0.011-0.074 0-0.143-0.019-0.204-0.053l0.002 0.001c0.021-0.093 0.049-0.173 0.082-0.249l-0.003 0.009c0.413-0.509 0.712-0.628 1.226-0.699 0.026-0.004 0.046-0.026 0.046-0.053 0-0.030-0.024-0.053-0.053-0.053-0.003 0-0.005 0-0.008 0.001l0-0c-0.533 0.074-0.864 0.204-1.298 0.742-0.001 0.001-0.001 0.001-0.001 0.002-0.035 0.043-0.066 0.087-0.095 0.13-0.018-0.060-0.028-0.13-0.028-0.201 0-0.165 0.054-0.317 0.144-0.439l-0.001 0.002c0.003 0.029 0.007 0.056 0.014 0.082l-0.001-0.004c0.006 0.023 0.027 0.040 0.052 0.040 0.030 0 0.054-0.024 0.054-0.054 0-0.005-0.001-0.009-0.002-0.014l0 0c-0.008-0.034-0.013-0.073-0.013-0.114 0-0.026 0.002-0.052 0.006-0.077l-0 0.003c0.009-0.010 0.019-0.020 0.029-0.031 0.089-0.092 0.2-0.163 0.325-0.203l0.005-0.002c-0.019 0.050-0.030 0.108-0.030 0.169 0 0 0 0 0 0v0c0 0.030 0.024 0.053 0.053 0.053s0.053-0.024 0.053-0.053v0c0-0.001-0-0.003-0-0.004 0-0.071 0.020-0.138 0.055-0.195l-0.001 0.002c0.053-0.007 0.114-0.011 0.176-0.011 0.033 0 0.065 0.001 0.097 0.003l-0.004-0c-0.019 0.021-0.035 0.046-0.049 0.072l-0.001 0.002c-0.004 0.007-0.006 0.015-0.006 0.024 0 0.021 0.012 0.039 0.029 0.048l0 0c0.007 0.004 0.015 0.006 0.024 0.006 0 0 0 0 0 0h-0c0 0 0 0 0 0 0.021 0 0.039-0.012 0.048-0.029l0-0c0.024-0.046 0.058-0.083 0.099-0.112l0.001-0.001c0.212 0.015 0.429 0.028 0.643-0.060-0.026 0.162-0.105 0.486-0.33 0.558z"></path>
<path fill="#fff" style="fill: var(--color1, #fff)" d="M11.224 22.265h0.428c0.030 0 0.053-0.024 0.053-0.053s-0.024-0.053-0.053-0.053h-0.428c-0.030 0-0.053 0.024-0.053 0.053s0.024 0.053 0.053 0.053v0z"></path>
<path fill="#fff" style="fill: var(--color1, #fff)" d="M11.224 21.997h0.535c0.030 0 0.053-0.024 0.053-0.053s-0.024-0.053-0.053-0.053h-0.535c-0.030 0-0.053 0.024-0.053 0.053s0.024 0.053 0.053 0.053v0z"></path>
<path fill="#fff" style="fill: var(--color1, #fff)" d="M11.224 21.73h0.535c0.030 0 0.053-0.024 0.053-0.053s-0.024-0.053-0.053-0.053h-0.535c-0.030 0-0.053 0.024-0.053 0.053s0.024 0.053 0.053 0.053v0z"></path>
<path fill="#fff" style="fill: var(--color1, #fff)" d="M11.224 21.462h0.535c0.030 0 0.053-0.024 0.053-0.053s-0.024-0.053-0.053-0.053h-0.535c-0.030 0-0.053 0.024-0.053 0.053s0.024 0.053 0.053 0.053v0z"></path>
<path fill="#fff" style="fill: var(--color1, #fff)" d="M4.256 11.052c-0.152 0.024-0.255 0.167-0.231 0.318s0.167 0.255 0.318 0.231c0.152-0.024 0.255-0.167 0.231-0.318v0c-0.024-0.152-0.167-0.255-0.318-0.231v0zM4.322 11.464c-0.076 0.012-0.147-0.040-0.159-0.115s0.040-0.147 0.115-0.159v0l-0-0.001c0.076-0.012 0.147 0.040 0.159 0.116s-0.040 0.147-0.116 0.159v0z"></path>
<path fill="#fff" style="fill: var(--color1, #fff)" d="M5.042 10.928c-0.152 0.024-0.255 0.167-0.231 0.318s0.167 0.255 0.318 0.231c0.152-0.024 0.255-0.167 0.231-0.318v0c-0.024-0.152-0.167-0.255-0.318-0.231v0zM5.108 11.34c-0.076 0.012-0.147-0.040-0.159-0.115s0.040-0.147 0.115-0.159v0l-0-0.001c0.076-0.012 0.147 0.040 0.159 0.116s-0.040 0.147-0.116 0.159v0z"></path>
<path fill="#fff" style="fill: var(--color1, #fff)" d="M5.93 11.111c-0.056-0.158-0.206-0.262-0.372-0.259l-0.002 0c-0.072-0.16-0.225-0.283-0.488-0.241l-0.399 0.063-0.024-0.151c0.089-0.045 0.142-0.142 0.126-0.244-0.020-0.126-0.139-0.213-0.265-0.193s-0.213 0.139-0.193 0.265c0.016 0.102 0.096 0.178 0.193 0.193l0.002 0 0.023 0.148-0.398 0.063c-0.186 0.029-0.367 0.145-0.391 0.38-0.184 0.056-0.301 0.239-0.271 0.432 0.030 0.187 0.189 0.322 0.372 0.327h0.002l-0 0.004c0.068 0.298 0.31 0.374 0.521 0.34l0.934-0.148c0.314-0.050 0.407-0.276 0.39-0.484 0.175-0.062 0.284-0.239 0.255-0.426-0.004-0.024-0.010-0.047-0.018-0.070l0.001 0.002zM3.823 11.76c-0.108-0.014-0.196-0.096-0.214-0.207s0.041-0.216 0.138-0.262l0.002-0.001zM4.452 10.334c-0.008-0.050 0.026-0.098 0.077-0.106s0.098 0.026 0.106 0.077c0.008 0.050-0.026 0.098-0.077 0.106v0c-0.050 0.008-0.098-0.026-0.106-0.077 0 0 0-0 0-0v0zM5.55 11.577c0.019 0.12 0.009 0.327-0.269 0.371l-0.934 0.148c-0.12 0.019-0.327 0.009-0.371-0.269l-0.089-0.558c-0.044-0.279 0.15-0.352 0.269-0.371l0.934-0.148c0.279-0.044 0.352 0.15 0.371 0.269zM5.67 11.463l-0.074-0.47c0.108 0.014 0.197 0.096 0.214 0.207s-0.042 0.217-0.138 0.262l-0.002 0.001z"></path>
<path fill="#fff" style="fill: var(--color1, #fff)" d="M5.159 11.664l-0.786 0.124c-0.038 0.006-0.064 0.042-0.058 0.080s0.042 0.064 0.080 0.058l0.786-0.124c0.038-0.006 0.064-0.042 0.058-0.080s-0.042-0.064-0.080-0.058v0z"></path>
<path fill="#fff" style="fill: var(--color1, #fff)" d="M6.384 12.050v0c-0.024-0.146-0.162-0.245-0.308-0.222-0.126 0.020-0.218 0.124-0.227 0.246l-0 0.002-0.178 0.065-1.638 0.259-0.189-0.007c-0.046-0.117-0.167-0.189-0.294-0.168-0.147 0.023-0.248 0.162-0.224 0.309 0.019 0.123 0.119 0.214 0.238 0.226l0.002 0 0.081 0.513c-0.11 0.049-0.176 0.165-0.157 0.288v0l0.019 0.122c0.006 0.038 0.042 0.064 0.080 0.058s0.064-0.042 0.058-0.080v0l-0.019-0.122c-0-0.001-0-0.001-0-0.002-0.011-0.071 0.037-0.138 0.109-0.15s0.138 0.037 0.15 0.109c0 0.001 0 0.002 0 0.002l-0-0 0.019 0.122c0.006 0.038 0.042 0.064 0.080 0.058s0.064-0.042 0.058-0.080v0l-0.019-0.122c-0.020-0.122-0.119-0.212-0.237-0.225l-0.002-0-0.081-0.513c0.084-0.038 0.142-0.115 0.156-0.203l0-0.002 0.118 0.004 0.134 0.848c0.021 0.131 0.069 0.25 0.137 0.354l-0.003-0.005 0.001 0.006c0.193 0.29 0.537 0.454 0.897 0.397s0.637-0.319 0.729-0.649l0.001-0.006 0.002-0.008c0.032-0.113 0.042-0.241 0.022-0.371l-0-0-0.134-0.848 0.111-0.041c0.042 0.082 0.12 0.136 0.21 0.147l0.002 0 0.081 0.513c-0.109 0.049-0.176 0.165-0.157 0.288v0l0.019 0.122c0.006 0.038 0.042 0.064 0.080 0.058s0.064-0.042 0.058-0.080v0l-0.019-0.122c-0.010-0.071 0.038-0.136 0.109-0.147s0.137 0.036 0.149 0.106l0 0 0.019 0.122c0.006 0.038 0.042 0.064 0.080 0.058s0.064-0.042 0.058-0.080v0l-0.019-0.122c-0.020-0.122-0.119-0.212-0.237-0.225l-0.002-0-0.081-0.513c0.11-0.049 0.177-0.165 0.159-0.288v-0zM3.614 12.621c-0.071 0.011-0.138-0.037-0.15-0.109s0.037-0.138 0.109-0.15c0.071-0.011 0.138 0.037 0.15 0.109v0c0.011 0.071-0.037 0.138-0.109 0.15v0zM5.126 13.999c-0.267 0.042-0.524-0.059-0.692-0.247l-0.002-0.003 1.277-0.202c-0.103 0.234-0.315 0.41-0.583 0.452v0zM5.762 13.124c0.015 0.096 0.011 0.191-0.009 0.281l0.001-0.005-1.413 0.224c-0.044-0.074-0.077-0.164-0.093-0.26l-0-0-0.132-0.836 1.513-0.24zM6.139 12.221l-0.001 0-0.002-0.002c-0.019-0.014-0.033-0.035-0.036-0.060-0.008-0.050 0.026-0.098 0.077-0.106s0.098 0.026 0.106 0.077c0.008 0.050-0.026 0.098-0.077 0.106-0.024 0.004-0.048-0.002-0.067-0.015l0 0z"></path>
<path fill="#fff" style="fill: var(--color1, #fff)" d="M5.194 12.854c-0.014-0.009-0.031-0.013-0.049-0.010v0l-0.206 0.033 0.212-0.3c0.008-0.013 0.011-0.029 0.009-0.046-0.006-0.038-0.042-0.064-0.080-0.058-0.017 0.003-0.032 0.012-0.042 0.024l0-0-0.307 0.435c-0.010 0.014-0.015 0.033-0.012 0.051 0.006 0.038 0.042 0.064 0.080 0.058 0-0 0-0 0.001-0h-0l0.212-0.034-0.214 0.331c-0.009 0.014-0.013 0.031-0.010 0.049 0.003 0.020 0.015 0.037 0.030 0.047l0 0c0.014 0.009 0.031 0.013 0.049 0.010 0.020-0.003 0.037-0.015 0.047-0.030l0-0 0.302-0.463c0.009-0.014 0.013-0.031 0.010-0.049-0.003-0.020-0.015-0.037-0.031-0.048l-0-0z"></path>
<path fill="#fff" style="fill: var(--color1, #fff)" d="M2.952 5.195c-0 0-0 0-0.001 0-0.11 0.049-0.208 0.113-0.293 0.188l0.007-0.005c-0.018 0.015-0.025 0.041-0.015 0.064 0.012 0.027 0.044 0.040 0.072 0.027 0.006-0.003 0.011-0.006 0.015-0.010l-0 0c0.058-0.052 0.13-0.101 0.209-0.141l0.002-0.001 0.399 0.897-0.287 0.128c-0.127-0.255-0.337-0.441-0.581-0.542l0.001 0c0.025-0.053 0.055-0.106 0.090-0.156l0.003-0.004c0.011-0.015 0.013-0.035 0.005-0.053-0.012-0.027-0.044-0.040-0.072-0.028-0.009 0.004-0.017 0.011-0.022 0.018l0-0c-0.052 0.075-0.093 0.149-0.125 0.228l0-0.001c-0.001 0.002-0.002 0.003-0.002 0.005v-0c-0.091 0.225-0.112 0.478-0.047 0.723l0.002 0.006c-0.086 0.014-0.179 0.042-0.27 0.082-0.578 0.257-0.838 0.935-0.581 1.513s0.935 0.838 1.513 0.581c0.521-0.232 0.783-0.804 0.642-1.338l-0.002-0.006c0.085-0.014 0.178-0.042 0.268-0.082 0.578-0.257 0.838-0.935 0.581-1.513s-0.934-0.838-1.512-0.581l-0 0zM4.397 6.583c-0.074-0.031-0.145-0.071-0.211-0.119l-0.005-0.004c-0.015-0.011-0.036-0.014-0.054-0.006-0.027 0.012-0.040 0.044-0.028 0.072 0.004 0.009 0.010 0.016 0.018 0.022l-0-0c0.078 0.057 0.157 0.102 0.24 0.136l-0.001-0c-0.093 0.201-0.253 0.374-0.465 0.482l-0.002 0.001-0.399-0.897 0.287-0.128c0.043 0.085 0.093 0.161 0.151 0.229l-0.005-0.007c0.016 0.017 0.041 0.024 0.063 0.014 0.027-0.012 0.040-0.044 0.028-0.072-0.002-0.005-0.005-0.009-0.008-0.012l0 0c-0.047-0.054-0.091-0.121-0.129-0.194l-0.001-0.002 0.511-0.228c0 0 0 0.001 0 0.001 0.091 0.238 0.089 0.489 0.010 0.712l0-0.001zM4.342 5.771l-0.511 0.228c-0.092-0.238-0.090-0.489-0.011-0.713l-0 0.001c0.218 0.091 0.406 0.257 0.521 0.482l0.001 0.002c0 0 0 0.001 0 0.001zM3.046 5.274c0.225-0.086 0.46-0.089 0.674-0.024l-0.002-0c-0.088 0.248-0.090 0.529 0.013 0.791l0.001 0.002-0.287 0.128-0.399-0.897zM3.263 7.060c0.001-0.006 0.004-0.011 0.010-0.014v0l0.048-0.021c0.050 0.062 0.097 0.139 0.134 0.222s0.063 0.17 0.077 0.256l-0.001-0.007-0.048 0.021c-0.006 0.003-0.012 0.002-0.017-0.002l-0-0-0.225-0.163c-0.002-0.002-0.004-0.004-0.006-0.007s-0.002-0.006-0.001-0.009v0zM2.351 6.695l0.005-0.052c0.18-0.025 0.354-0.005 0.513 0.055l-0-0-0.005 0.051c-0.001 0.006-0.004 0.011-0.010 0.014v0l-0.254 0.113c-0.006 0.003-0.012 0.002-0.017-0.002l-0-0-0.225-0.163c-0.002-0.002-0.004-0.004-0.006-0.007s-0.002-0.006-0.001-0.009v0zM3.055 6.662c-0.075-0.041-0.152-0.072-0.231-0.095l-0.002-0.001 0.182-0.081c0.024 0.062 0.041 0.123 0.052 0.183l-0.002-0.007zM2.637 6.53c-0.065-0.008-0.137-0.010-0.209-0.005l-0.008 0.001c-0.060-0.214-0.049-0.43 0.019-0.625l-0 0.001c0.218 0.091 0.407 0.257 0.521 0.483l0.001 0.002zM1.888 6.9c0.002 0.002 0.004 0.004 0.006 0.007s0.002 0.006 0.001 0.009v-0l-0.029 0.276c-0.001 0.006-0.004 0.011-0.010 0.014v0l-0.254 0.113c-0.006 0.003-0.012 0.002-0.017-0.002l-0-0-0.042-0.030c0.062-0.158 0.163-0.301 0.296-0.413l0.006-0.005zM1.559 8.091c-0.037-0.084-0.063-0.17-0.077-0.256l0.001 0.007 0.048-0.021c0.006-0.003 0.012-0.002 0.017 0.002l0 0 0.225 0.163c0.002 0.002 0.004 0.004 0.006 0.007s0.002 0.006 0.001 0.009v-0l-0.029 0.276c-0.001 0.006-0.004 0.011-0.010 0.014v0l-0.048 0.021c-0.050-0.062-0.097-0.139-0.134-0.222v-0zM2.664 8.644l-0.005 0.052c-0.18 0.025-0.354 0.005-0.513-0.055l0 0 0.005-0.051c0.001-0.006 0.004-0.011 0.010-0.014v0l0.254-0.113c0.006-0.003 0.012-0.002 0.017 0.002l0 0 0.225 0.163c0.002 0.002 0.004 0.004 0.006 0.007s0.002 0.006 0.001 0.009v-0zM2.77 8.673l0.002-0.018c0.002-0.021-0.001-0.043-0.010-0.064s-0.024-0.038-0.041-0.051l0.001 0-0.225-0.163c-0.036-0.025-0.083-0.032-0.125-0.013h-0l-0.254 0.113c-0.042 0.019-0.069 0.058-0.074 0.101l-0 0.001-0.002 0.017c-0.097-0.048-0.188-0.113-0.267-0.192l-0.005-0.005 0.016-0.007c0.042-0.019 0.069-0.058 0.074-0.101l0-0.001 0.029-0.276c0.002-0.021-0.001-0.043-0.010-0.064s-0.024-0.038-0.041-0.051l0.001 0-0.225-0.163c-0.036-0.025-0.083-0.032-0.125-0.013v0l-0.016 0.007c-0.006-0.119 0.007-0.23 0.036-0.336l-0.001 0.002 0.014 0.010c0.036 0.025 0.083 0.032 0.125 0.013v0l0.254-0.113c0.042-0.019 0.069-0.058 0.074-0.101l0-0.001 0.029-0.276c0.002-0.021-0.001-0.043-0.010-0.064s-0.024-0.038-0.041-0.051l0.001 0-0.015-0.011c0.043-0.029 0.094-0.057 0.148-0.081s0.11-0.043 0.165-0.058l-0.006 0.002-0.002 0.018c-0.002 0.021 0.001 0.043 0.010 0.064s0.024 0.038 0.041 0.051l-0.001-0 0.225 0.163c0.036 0.025 0.083 0.032 0.125 0.013v0l0.254-0.113c0.042-0.019 0.069-0.058 0.074-0.101l0-0.001 0.002-0.018c0.097 0.048 0.188 0.113 0.267 0.192l0.005 0.005-0.016 0.007c-0.042 0.019-0.069 0.058-0.074 0.101l-0 0.001-0.029 0.276c-0.002 0.021 0.001 0.043 0.010 0.064s0.024 0.038 0.041 0.051l-0.001-0 0.225 0.163c0.036 0.025 0.083 0.032 0.125 0.013v0l0.016-0.007c0.006 0.119-0.007 0.23-0.036 0.336l0.001-0.002-0.014-0.010c-0.036-0.025-0.082-0.032-0.125-0.013v0l-0.254 0.113c-0.042 0.019-0.069 0.058-0.074 0.101l-0 0.001-0.029 0.276c-0.002 0.021 0.001 0.043 0.010 0.064s0.024 0.038 0.041 0.051l-0.001-0 0.015 0.011c-0.043 0.029-0.094 0.057-0.148 0.081s-0.11 0.043-0.165 0.058l0.006-0.002zM3.169 8.469l-0.042-0.031c-0.002-0.002-0.004-0.004-0.006-0.007s-0.002-0.006-0.001-0.009v0l0.029-0.276c0.001-0.006 0.004-0.011 0.010-0.014l0.254-0.113c0.006-0.003 0.012-0.002 0.017 0.002l0 0 0.042 0.030c-0.062 0.158-0.163 0.301-0.297 0.413l-0.006 0.005zM3.175 6.738c-0.009-0.093-0.033-0.195-0.071-0.294l-0.001-0.002 0.287-0.128 0.399 0.897c-0.073 0.028-0.144 0.047-0.216 0.058l0.007-0.001c-0.007-0.020-0.017-0.043-0.027-0.066-0.087-0.194-0.221-0.353-0.383-0.467l0.005 0.004z"></path>
<path fill="#fff" style="fill: var(--color1, #fff)" d="M2.857 7.846l0.029-0.276c0.002-0.021-0.001-0.043-0.010-0.064s-0.024-0.038-0.041-0.051l0.001 0-0.225-0.163c-0.036-0.025-0.083-0.032-0.125-0.013v0l-0.254 0.113c-0.042 0.019-0.069 0.058-0.074 0.101l-0 0.001-0.029 0.276c-0.002 0.021 0.001 0.043 0.010 0.064s0.024 0.038 0.041 0.051l-0.001-0 0.225 0.163c0.036 0.025 0.083 0.032 0.125 0.013v0l0.254-0.113c0.042-0.019 0.069-0.058 0.074-0.101l0-0.001zM2.739 7.848l-0.254 0.113c-0.006 0.003-0.012 0.002-0.017-0.002l-0-0-0.225-0.163c-0.002-0.002-0.004-0.004-0.006-0.007s-0.002-0.006-0.001-0.009v0l0.029-0.276c0.001-0.006 0.004-0.011 0.010-0.014v0l0.254-0.113c0.006-0.003 0.012-0.002 0.017 0.002l0 0 0.225 0.163c0.002 0.002 0.004 0.004 0.006 0.007s0.002 0.006 0.001 0.009v-0l-0.029 0.276c-0.001 0.006-0.004 0.011-0.010 0.014v0z"></path>
<path fill="#fff" style="fill: var(--color1, #fff)" d="M11.006 15.473c0.030 0.051 0.048 0.112 0.048 0.178 0 0.196-0.159 0.356-0.356 0.356s-0.356-0.159-0.356-0.356c0-0.131 0.071-0.245 0.176-0.307l0.002-0.001c0.051-0.030 0.113-0.048 0.178-0.048 0.131 0 0.245 0.071 0.307 0.176l0.001 0.002z"></path>
<path fill="#fff" style="fill: var(--color1, #fff)" d="M10.246 15.103c-0.365 0.417-1.765 1.664-1.121 2.32 0.461 0.47 1.462-0.679 1.727-0.954 0.38-0.396 0.731-0.828 1.046-1.287l0.022-0.035c0.209-0.308 0.531-0.735 0.479-1.127-0.038-0.292-0.43-0.188-0.603-0.126-0.609 0.217-1.132 0.736-1.55 1.209-0.052 0.058 0.041 0.135 0.092 0.077 0.331-0.381 0.707-0.709 1.124-0.981l0.021-0.013c0.163-0.109 0.353-0.193 0.558-0.239l0.011-0.002c0.408-0.080 0.154 0.469 0.084 0.611-0.336 0.679-0.86 1.288-1.375 1.835-0.217 0.231-1.123 1.259-1.53 0.968-0.417-0.298 0.182-1.098 0.368-1.341 0.228-0.296 0.494-0.559 0.74-0.839 0.052-0.058-0.041-0.135-0.092-0.077z"></path>
<path fill="#fff" style="fill: var(--color1, #fff)" d="M10.978 15.009c-0.543-0.112-2.318-0.713-2.571 0.172-0.181 0.633 1.313 0.936 1.683 1.030 0.483 0.128 1.054 0.225 1.64 0.273l0.036 0.002c0.371 0.030 0.901 0.098 1.217-0.14 0.235-0.177-0.049-0.467-0.188-0.587-0.489-0.422-1.199-0.621-1.817-0.751-0.076-0.016-0.097 0.102-0.022 0.118 0.538 0.109 1.017 0.283 1.458 0.518l-0.029-0.014c0.191 0.098 0.354 0.224 0.489 0.374l0.001 0.001c0.271 0.316-0.332 0.366-0.49 0.375-0.756 0.043-1.544-0.111-2.275-0.289-0.308-0.075-1.65-0.355-1.597-0.852 0.053-0.51 1.044-0.384 1.347-0.342 0.37 0.052 0.73 0.154 1.095 0.229 0.076 0.015 0.098-0.103 0.022-0.119z"></path>
<path fill="#fff" style="fill: var(--color1, #fff)" d="M11.418 15.577c-0.188-0.521-0.601-2.35-1.487-2.104-0.634 0.176-0.114 1.608-0.001 1.973 0.192 0.612 0.409 1.133 0.665 1.63l-0.027-0.056c0.168 0.332 0.385 0.82 0.754 0.965 0.274 0.108 0.373-0.285 0.402-0.466 0.105-0.638-0.096-1.347-0.307-1.942-0.026-0.073-0.138-0.030-0.112 0.043 0.165 0.436 0.278 0.94 0.314 1.465l0.001 0.017c0.003 0.040 0.005 0.086 0.005 0.133 0 0.171-0.026 0.337-0.073 0.493l0.003-0.012c-0.128 0.396-0.485-0.092-0.576-0.223-0.431-0.622-0.71-1.375-0.94-2.091-0.097-0.302-0.557-1.592-0.106-1.807 0.463-0.22 0.872 0.69 0.994 0.971 0.149 0.342 0.25 0.703 0.376 1.054 0.026 0.073 0.138 0.030 0.112-0.043z"></path>
<path fill="#fff" style="fill: var(--color1, #fff)" d="M12.182 16.39c0.015 0.025 0.023 0.055 0.023 0.086 0 0.096-0.077 0.173-0.173 0.173s-0.173-0.077-0.173-0.173c0-0.064 0.034-0.119 0.086-0.149l0.001-0c0.025-0.015 0.055-0.023 0.087-0.023 0.064 0 0.119 0.034 0.149 0.086l0 0.001z"></path>
<path fill="#fff" style="fill: var(--color1, #fff)" d="M9.743 17.316c0.015 0.025 0.023 0.055 0.023 0.086 0 0.095-0.077 0.173-0.173 0.173s-0.173-0.077-0.173-0.173c0-0.064 0.034-0.119 0.086-0.149l0.001-0c0.025-0.015 0.055-0.023 0.086-0.023 0.064 0 0.119 0.034 0.149 0.086l0 0.001z"></path>
<path fill="#fff" style="fill: var(--color1, #fff)" d="M9.865 13.888c0.015 0.025 0.023 0.055 0.023 0.086 0 0.095-0.077 0.173-0.173 0.173s-0.173-0.077-0.173-0.173c0-0.063 0.034-0.119 0.085-0.149l0.001-0c0.025-0.015 0.055-0.023 0.087-0.023 0.064 0 0.119 0.034 0.149 0.086l0 0.001z"></path>
<path fill="#fff" style="fill: var(--color1, #fff)" d="M13.72 9.412c0.008 0 0.018-0.001 0.027-0.004 0.036-0.012 0.058-0.044 0.059-0.080l-0-0.001c0.005-0.418 0.268-0.797 0.68-0.931 0.517-0.168 1.073 0.115 1.241 0.632 0 0 0 0 0 0v0c0.13 0.399 0.028 0.695-0.053 0.934-0.059 0.173-0.11 0.323-0.063 0.469q0.005 0.015 0.009 0.029l-0.338 0.11-0.060-0.186c-0.015-0.045-0.063-0.069-0.107-0.055s-0.069 0.063-0.055 0.107v0l0.060 0.186-0.338 0.11q-0.005-0.014-0.010-0.028c-0.047-0.146-0.177-0.237-0.326-0.342-0.152-0.107-0.323-0.228-0.457-0.436-0.020-0.033-0.061-0.049-0.099-0.037-0.045 0.015-0.069 0.063-0.055 0.107 0.003 0.008 0.006 0.015 0.011 0.022l-0-0.001c0.151 0.236 0.346 0.373 0.502 0.483 0.13 0.091 0.233 0.164 0.263 0.256 0.013 0.039 0.027 0.076 0.041 0.111l0.222 0.684c0.001 0.002 0.001 0.004 0.002 0.006 0 0.001 0 0.001 0.001 0.002 0.001 0.003 0.003 0.006 0.004 0.009l-0-0.001c0.074 0.127 0.184 0.219 0.311 0.271l0.001 0c0.127 0.052 0.274 0.061 0.416 0.015s0.255-0.14 0.328-0.257l-0.001 0.001c0.073-0.118 0.107-0.257 0.094-0.399l-0.001-0.004c-0-0.003-0.001-0.006-0.001-0.009l-0-0c-0-0.001-0-0.001-0-0.002-0.001-0.002-0.001-0.004-0.002-0.007l-0.222-0.685c-0.009-0.037-0.019-0.075-0.032-0.114-0.030-0.092 0.011-0.211 0.062-0.362 0.085-0.248 0.201-0.588 0.054-1.041-0.197-0.606-0.849-0.938-1.455-0.741-0.483 0.157-0.792 0.602-0.798 1.083l0 0.008c-0 0.008 0.001 0.018 0.004 0.027 0.012 0.036 0.044 0.058 0.080 0.059l0.001-0zM15.557 11.692c-0.169 0.053-0.347 0-0.461-0.121l-0.002-0.002 0.766-0.249c-0.022 0.168-0.135 0.315-0.302 0.372l-0 0zM15.838 11.149l-0.829 0.269-0.059-0.182 0.829-0.269zM15.727 10.805l-0.829 0.269-0.059-0.182 0.829-0.269z"></path>
<path fill="#fff" style="fill: var(--color1, #fff)" d="M14.386 8.089c0.045-0.015 0.069-0.063 0.055-0.107v0l-0.070-0.216c-0.015-0.045-0.063-0.069-0.107-0.055s-0.069 0.063-0.055 0.107v0l0.070 0.216c0.015 0.045 0.063 0.069 0.107 0.055v0z"></path>
<path fill="#fff" style="fill: var(--color1, #fff)" d="M13.277 9.914l0.216-0.070c0.045-0.015 0.069-0.063 0.055-0.107s-0.063-0.069-0.107-0.055v0l-0.216 0.070c-0.045 0.015-0.069 0.063-0.055 0.107s0.063 0.069 0.107 0.055v0z"></path>
<path fill="#fff" style="fill: var(--color1, #fff)" d="M15.214 9.376c-0.015-0.045-0.063-0.069-0.107-0.055v0l-0.579 0.188c-0.045 0.015-0.069 0.063-0.055 0.107s0.063 0.069 0.107 0.055v0l0.209-0.068 0.060 0.186c0.015 0.045 0.063 0.069 0.107 0.055s0.069-0.063 0.055-0.107v0l-0.060-0.186 0.208-0.068c0.045-0.015 0.069-0.063 0.055-0.107v0z"></path>
<path fill="#fff" style="fill: var(--color1, #fff)" d="M13.511 8.776c0.019 0.009 0.042 0.012 0.064 0.004 0.045-0.015 0.069-0.063 0.055-0.107-0.007-0.022-0.022-0.039-0.041-0.049h0l-0.202-0.103c-0.019-0.010-0.043-0.012-0.065-0.005-0.045 0.015-0.069 0.063-0.055 0.107 0.007 0.022 0.023 0.040 0.042 0.050v0z"></path>
<path fill="#fff" style="fill: var(--color1, #fff)" d="M14.044 10.93c0 0 0-0 0-0 0.022-0.007 0.040-0.023 0.049-0.042v0l0.103-0.202c0.010-0.020 0.013-0.043 0.006-0.066-0.015-0.045-0.063-0.069-0.107-0.055-0.023 0.007-0.040 0.024-0.050 0.044v0l-0.103 0.202c-0.010 0.019-0.012 0.043-0.005 0.065 0.014 0.045 0.062 0.069 0.107 0.055v0z"></path>
<path fill="#fff" style="fill: var(--color1, #fff)" d="M15.449 8.173c0 0 0-0 0-0 0.022-0.007 0.040-0.023 0.049-0.042v0l0.103-0.202c0.010-0.019 0.012-0.043 0.005-0.065-0.015-0.045-0.063-0.069-0.107-0.055-0.022 0.007-0.040 0.023-0.050 0.042l-0.103 0.202c-0.010 0.019-0.012 0.043-0.005 0.065 0.014 0.045 0.062 0.069 0.107 0.055v0z"></path>
<path fill="#fff" style="fill: var(--color1, #fff)" d="M16.029 9.964c-0.010 0.019-0.012 0.043-0.005 0.065s0.023 0.040 0.042 0.050l0.202 0.103c0.019 0.009 0.042 0.012 0.064 0.004 0.045-0.015 0.069-0.063 0.055-0.107-0.007-0.022-0.022-0.039-0.041-0.049h0l-0.202-0.103c-0.019-0.010-0.043-0.012-0.065-0.005s-0.040 0.023-0.049 0.042v0z"></path>
<path fill="#fff" style="fill: var(--color1, #fff)" d="M16.141 8.983l0.216-0.070c0.045-0.015 0.069-0.063 0.055-0.107s-0.063-0.069-0.107-0.055v0l-0.216 0.070c-0.045 0.015-0.069 0.063-0.055 0.107s0.063 0.069 0.107 0.055v0z"></path>
<path fill="#fff" style="fill: var(--color1, #fff)" d="M15.009 10.006c-0.045 0.015-0.069 0.063-0.055 0.107s0.063 0.069 0.107 0.055c0.045-0.015 0.069-0.063 0.055-0.107v0c-0.015-0.045-0.063-0.069-0.107-0.055v0z"></path>
<path fill="#fff" style="fill: var(--color1, #fff)" d="M13.854 9.637c-0.015-0.045-0.063-0.069-0.107-0.055s-0.069 0.063-0.055 0.107c0.015 0.045 0.063 0.069 0.107 0.055v0c0.045-0.015 0.069-0.063 0.055-0.107v0z"></path>
<path fill="#fff" style="fill: var(--color1, #fff)" d="M19.945 9.536l-0.465-0.082c-0.073-0.013-0.15 0.002-0.215 0.048s-0.106 0.113-0.118 0.186l-0.356 2.024c-0.003 0.013 0 0.028 0.008 0.040 0.016 0.024 0.049 0.029 0.072 0.013 0.012-0.008 0.019-0.021 0.021-0.034v-0l0.252-1.431 0.208 0.037-0.493 2.805c-0.011 0.003-0.022 0.008-0.033 0.016-0.005 0.004-0.010 0.008-0.015 0.012l0-0-0.067 0.066c-0 0-0.001 0.001-0.002 0.001-0.002 0.002-0.005 0.002-0.008 0.002v0c-0.003-0-0.005-0.002-0.007-0.004-0-0.001-0.001-0.001-0.001-0.002l0 0-0.072-0.15 0.196-1.113c0.002-0.013-0.001-0.026-0.009-0.038-0.016-0.024-0.049-0.029-0.072-0.013-0.011 0.008-0.019 0.020-0.021 0.033v-0l-0.199 1.129c-0.001 0.008-0.001 0.016 0.001 0.024l0 0 0.172 0.555 0.022 0.157c0.004 0.032 0.016 0.064 0.037 0.094 0.068 0.097 0.201 0.12 0.298 0.052 0.029-0.021 0.052-0.047 0.067-0.077l-0.001 0.001 0.074-0.14 0.351-0.463c0.005-0.007 0.008-0.014 0.010-0.022v0l0.309-1.759c0.003-0.013-0-0.028-0.008-0.040-0.016-0.024-0.049-0.029-0.072-0.013-0.012 0.008-0.019 0.021-0.021 0.034v0l-0.306 1.743-0.118 0.116c-0 0-0.001 0.001-0.002 0.001-0.002 0.002-0.005 0.002-0.008 0.002v0c-0.003-0-0.005-0.002-0.007-0.004-0-0.001-0.001-0.001-0.001-0.002l0 0-0.041-0.085c-0.002-0.005-0.006-0.011-0.009-0.016-0.007-0.011-0.016-0.019-0.026-0.027l0.001 0.001 0.493-2.805 0.208 0.037-0.141 0.801c-0.002 0.013 0 0.027 0.009 0.039 0.016 0.024 0.049 0.029 0.072 0.013 0.012-0.008 0.019-0.020 0.021-0.034l0.245-1.394c0.013-0.073-0.002-0.15-0.048-0.215s-0.113-0.106-0.186-0.118v0zM18.818 13.309l0.067-0.066c0-0 0.001-0.001 0.001-0.001 0.003-0.002 0.006-0.002 0.008-0.002v0c0.003 0 0.005 0.002 0.007 0.004 0 0.001 0.001 0.001 0.001 0.002l-0-0 0.041 0.085c0.002 0.005 0.006 0.011 0.010 0.016 0.036 0.052 0.108 0.065 0.16 0.028 0.006-0.004 0.011-0.008 0.015-0.013l-0 0 0.067-0.066c0-0 0.001-0.001 0.002-0.001 0.002-0.002 0.005-0.002 0.008-0.002v0c0.003 0 0.005 0.002 0.007 0.004 0 0.001 0.001 0.001 0.001 0.002l-0-0 0.041 0.085c0.002 0.005 0.006 0.011 0.010 0.016 0.015 0.021 0.035 0.036 0.058 0.043l-0-0-0.165 0.218-0.34-0.060-0.081-0.261c0.024 0.001 0.048-0.006 0.069-0.021 0.005-0.004 0.010-0.008 0.015-0.013l-0 0zM19.055 13.839c-0.008 0.015-0.019 0.028-0.034 0.039-0.050 0.035-0.119 0.023-0.153-0.027-0.011-0.015-0.017-0.032-0.019-0.049l0 0.001-0.013-0.091 0.262 0.046zM19.169 13.195c-0.011 0.003-0.022 0.008-0.032 0.016-0.006 0.004-0.011 0.008-0.015 0.013l0-0-0.068 0.066c-0 0-0.001 0.001-0.001 0.001-0.005 0.003-0.012 0.002-0.015-0.003-0-0.001-0.001-0.001-0.001-0.002l0 0-0.041-0.085c-0.002-0.005-0.006-0.011-0.009-0.016-0.007-0.010-0.016-0.019-0.026-0.027l0.001 0.001 0.493-2.805 0.208 0.037zM19.163 10.197l0.026-0.145 0.827 0.146-0.026 0.145zM20.077 9.851l-0.043 0.243-0.827-0.145 0.043-0.243c0.008-0.046 0.034-0.090 0.076-0.119s0.091-0.039 0.137-0.031v0l0.465 0.082c0.046 0.008 0.090 0.034 0.119 0.076s0.039 0.091 0.031 0.137v0z"></path>
<path fill="#fff" style="fill: var(--color1, #fff)" d="M9.312 2.953c0.017-0.078-0.033-0.155-0.112-0.172v0l-0.046-0.010c-0.029-0.069-0.038-0.149-0.021-0.23s0.058-0.15 0.114-0.202l-0.001 0.001 0.046 0.010c0.183 0.039 0.244-0.245 0.060-0.284l-1.631-0.347c-0.023-0.005-0.045 0.010-0.050 0.033s0.010 0.046 0.033 0.050v0l1.631 0.347c0.074 0.016 0.052 0.134-0.025 0.118l-2.195-0.467c-0.165-0.035-0.327 0.070-0.362 0.235s0.070 0.327 0.235 0.362l2.195 0.467c0.075 0.016 0.050 0.139-0.026 0.123l-2.195-0.467c-0.115-0.025-0.209-0.094-0.267-0.187l-0-0c-0.059-0.092-0.084-0.207-0.059-0.322 0-0 0-0 0-0v0c0 0 0 0 0 0 0.049-0.23 0.274-0.377 0.504-0.328h0l0.343 0.073c0.023 0.005 0.045-0.010 0.050-0.033s-0.010-0.046-0.033-0.050v0l-0.343-0.073c-0.276-0.057-0.547 0.119-0.605 0.395-0.029 0.138-0 0.275 0.071 0.385v-0c0.019 0.029 0.040 0.056 0.064 0.081l0.002 0.002-0.084-0.018c-0.079-0.017-0.156 0.033-0.172 0.112s0.033 0.156 0.112 0.172v0l0.046 0.010c0.029 0.069 0.038 0.148 0.021 0.229-0 0-0 0.001-0 0.001v-0c-0 0-0 0.001-0 0.001-0.017 0.080-0.058 0.149-0.113 0.201l0.001-0.001-0.046-0.010c-0.079-0.017-0.156 0.033-0.172 0.112s0.033 0.156 0.112 0.172l0.082 0.017c-0.155 0.062-0.275 0.196-0.312 0.369-0.059 0.276 0.117 0.547 0.393 0.606h0l2.195 0.467c0.183 0.039 0.244-0.245 0.060-0.284l-0.046-0.010c-0.029-0.069-0.038-0.149-0.021-0.23s0.058-0.15 0.114-0.202l-0.001 0.001 0.046 0.010c0.183 0.039 0.244-0.245 0.060-0.284l-0.082-0.017c0.155-0.062 0.276-0.196 0.312-0.369s-0.019-0.345-0.134-0.463l-0.002-0.002 0.082 0.017c0.079 0.014 0.156-0.037 0.173-0.116 0-0 0-0 0-0v0zM6.836 2.053c0 0 0 0 0 0 0.025-0.119 0.142-0.195 0.261-0.17h0l2.053 0.436c-0.047 0.055-0.082 0.125-0.099 0.204s-0.013 0.157 0.008 0.229l-0.001-0.003-2.053-0.436c-0.119-0.026-0.194-0.142-0.169-0.261 0 0 0 0 0 0v0zM6.687 2.759l2.053 0.436c0.119 0.025 0.195 0.142 0.17 0.261s-0.142 0.195-0.261 0.17l-0.186-0.039 0.037-0.174 0.099 0.021c0.023 0.005 0.046-0.010 0.050-0.033s-0.010-0.046-0.033-0.050l-1.431-0.304c-0.023-0.005-0.045 0.010-0.050 0.033s0.010 0.046 0.033 0.050v0l0.884 0.188-0.037 0.174-1.419-0.302c0.047-0.055 0.082-0.125 0.098-0.203 0-0 0-0.001 0-0.001v0c0-0 0-0.001 0-0.001 0.017-0.078 0.013-0.156-0.008-0.228l0.001 0.003zM8.135 3.335l0.282 0.060-0.153 0.722-0.086-0.128c-0.006-0.009-0.015-0.015-0.026-0.018s-0.022-0-0.031 0.005l0-0-0.139 0.083 0.154-0.724zM6.41 3.36c-0.033-0.007-0.053-0.039-0.047-0.072s0.039-0.053 0.072-0.047l1.562 0.332-0.025 0.118zM8.668 4.588l-0.502-0.107c-0.023-0.005-0.046 0.010-0.050 0.033s0.010 0.045 0.033 0.050v0l0.645 0.137c0.074 0.016 0.052 0.134-0.025 0.118l-2.195-0.467c-0.23-0.049-0.377-0.275-0.328-0.505s0.275-0.377 0.505-0.328v0l1.205 0.256-0.025 0.118-1.205-0.256c-0.164-0.033-0.324 0.072-0.359 0.236s0.069 0.325 0.231 0.361l0 0 1.329 0.282c0.023 0.005 0.045-0.010 0.050-0.033s-0.010-0.045-0.033-0.050v0l-1.329-0.282c-0.119-0.025-0.195-0.142-0.17-0.261s0.142-0.195 0.261-0.17l1.205 0.256-0.034 0.16c-0.004 0.023 0.010 0.045 0.033 0.050 0.011 0.002 0.021 0 0.030-0.005l-0 0 0.188-0.113 0.12 0.178c0.006 0.009 0.015 0.015 0.026 0.017 0.023 0.005 0.045-0.010 0.051-0.032v-0l0.034-0.16 0.4 0.085c-0.047 0.055-0.082 0.125-0.099 0.204s-0.013 0.157 0.008 0.229l-0.001-0.003zM8.945 3.986c0.074 0.016 0.052 0.134-0.025 0.118l-0.542-0.115 0.025-0.118 0.542 0.115zM9.11 3.499c-0.049 0.23-0.274 0.376-0.504 0.328h-0l-0.186-0.039 0.025-0.118 0.186 0.039c0.165 0.035 0.327-0.070 0.362-0.235s-0.070-0.327-0.235-0.362l-2.195-0.467c-0.033-0.007-0.053-0.039-0.046-0.072s0.039-0.053 0.072-0.046v0l2.195 0.467c0.23 0.049 0.376 0.275 0.327 0.505 0 0 0 0 0 0v0z"></path>
<path fill="#fff" style="fill: var(--color1, #fff)" d="M18.079 3.999c0.006 0.002 0.013 0.003 0.021 0.003 0.033 0 0.062-0.022 0.071-0.053l0-0.001c0.223-0.744 0.901-1.276 1.704-1.276 0.131 0 0.259 0.014 0.382 0.041l-0.012-0.002c0 0 0 0.001 0 0.001 0 0.085 0.027 0.163 0.073 0.226l-0.001-0.001c0.008 0.013 0.019 0.031 0.021 0.033 0 0.265-0.054 0.308-0.053 0.308-0.12 0-0.316 0.107-0.39 0.245-0.020 0.034-0.032 0.075-0.032 0.118 0 0.050 0.016 0.097 0.042 0.135l-0-0.001c0.030 0.047 0.062 0.103 0.091 0.16l0.005 0.010c0.063 0.122 0.132 0.256 0.242 0.256 0.028-0.001 0.053-0.008 0.076-0.020l-0.001 0c0.086-0.043 0.148-0.166 0.208-0.284 0.027-0.059 0.056-0.109 0.090-0.156l-0.002 0.003c0.075 0.010 0.112 0.078 0.161 0.185 0.036 0.079 0.074 0.161 0.148 0.198 0.125 0.062 0.535-0.003 0.762-0.099 0.027-0.012 0.045-0.038 0.045-0.068 0-0.007-0.001-0.014-0.003-0.020l0 0.001c-0.163-0.582-0.577-1.045-1.114-1.271l-0.013-0.005c-0.008-0.003-0.018-0.006-0.028-0.006-0.041 0-0.074 0.033-0.074 0.074 0 0.031 0.019 0.057 0.045 0.068l0 0c0.488 0.205 0.858 0.606 1.018 1.101l0.004 0.013c-0.23 0.081-0.525 0.105-0.577 0.079-0.028-0.014-0.056-0.074-0.080-0.127-0.052-0.112-0.122-0.264-0.302-0.272-0.093-0.006-0.146 0.102-0.213 0.235-0.040 0.078-0.099 0.197-0.147 0.22-0.027-0.006-0.082-0.112-0.114-0.175-0.036-0.073-0.071-0.134-0.109-0.192l0.005 0.007c-0.011-0.014-0.017-0.033-0.017-0.052 0-0.018 0.005-0.034 0.014-0.048l-0 0c0.051-0.095 0.203-0.167 0.26-0.167 0.134 0 0.201-0.153 0.201-0.456-0.004-0.043-0.019-0.081-0.044-0.112l0 0c-0.031-0.038-0.050-0.087-0.050-0.141 0-0.017 0.002-0.033 0.005-0.049l-0 0.002c0.001-0.005 0.002-0.010 0.002-0.016 0-0.034-0.023-0.063-0.055-0.072l-0-0c-0.141-0.037-0.303-0.058-0.469-0.058-0.87 0-1.604 0.577-1.842 1.369l-0.003 0.014c-0.002 0.006-0.003 0.013-0.003 0.021 0 0.033 0.022 0.062 0.053 0.071l0.001 0z"></path>
<path fill="#fff" style="fill: var(--color1, #fff)" d="M20.76 4.484c-0.021 0.006-0.051 0.014-0.058 0.015-0.102 0-0.167 0.079-0.214 0.137-0.018 0.022-0.051 0.062-0.071 0.062-0.030-0.016-0.066-0.025-0.104-0.025h-0c-0.003-0-0.006-0-0.010-0-0.079 0-0.146 0.051-0.169 0.122l-0 0.001c-0.012 0.050 0.006 0.119 0.090 0.161 0.12 0.060 0.244 0.122 0.299 0.177 0.044 0.037 0.102 0.060 0.165 0.060 0.005 0 0.011-0 0.016-0l-0.001 0c0.116 0 0.271-0.056 0.324-0.216 0.028-0.063 0.068-0.116 0.119-0.157l0.001-0.001c0.056-0.054 0.11-0.105 0.11-0.178-0.001-0.049-0.023-0.092-0.057-0.122l-0-0c-0.051-0.049-0.12-0.079-0.197-0.079-0.005 0-0.009 0-0.014 0l0.001-0c-0.083 0.004-0.162 0.018-0.236 0.043l0.006-0.002zM21.108 4.641c-0.018 0.028-0.040 0.052-0.064 0.073l-0 0c-0.069 0.057-0.123 0.13-0.156 0.214l-0.001 0.004c-0.036 0.109-0.16 0.115-0.184 0.115-0.003 0-0.006 0-0.009 0-0.024 0-0.047-0.006-0.067-0.017l0.001 0c-0.072-0.072-0.201-0.137-0.338-0.205l-0.001-0c0.007-0.002 0.016-0.004 0.025-0.004 0.014 0 0.027 0.003 0.038 0.009l-0-0c0.021 0.011 0.046 0.018 0.073 0.018h0c0.082 0 0.133-0.063 0.179-0.119 0.033-0.041 0.068-0.083 0.1-0.083 0.036-0.003 0.070-0.010 0.102-0.022l-0.003 0.001c0.056-0.019 0.12-0.032 0.187-0.036l0.002-0c0.003-0 0.008-0 0.012-0 0.036 0 0.069 0.013 0.094 0.036l-0-0c0.005 0.005 0.009 0.010 0.013 0.016l0 0z"></path>
<path fill="#fff" style="fill: var(--color1, #fff)" d="M21.776 4.179c-0.005-0.037-0.036-0.065-0.073-0.065-0.041 0-0.074 0.033-0.074 0.074 0 0.004 0 0.008 0.001 0.012l-0-0c0.011 0.074 0.017 0.159 0.017 0.245v0c-0.001 0.971-0.782 1.76-1.75 1.773h-0.001c-0.263-0.168-0.509-0.373-0.399-0.629 0.197-0.46 0.014-0.631-0.065-0.704l-0.015-0.014c-0.020-0.019-0.043-0.036-0.068-0.050l-0.002-0.001c-0.054-0.032-0.069-0.041-0.040-0.128 0.015-0.046 0.041-0.085 0.074-0.116l0-0c0.068-0.072 0.121-0.144 0.121-0.353 0-0.003 0-0.006 0-0.010 0-0.114-0.069-0.213-0.168-0.256l-0.002-0.001c-0.122-0.054-0.285-0.035-0.371 0.043-0.036 0.031-0.059 0.076-0.059 0.127 0 0.020 0.003 0.039 0.010 0.056l-0-0.001c0.053 0.158-0.068 0.386-0.293 0.554-0.060 0.045-0.077 0.024-0.088 0.012-0.066-0.076-0.061-0.292-0.007-0.346 0.023-0.020 0.037-0.049 0.037-0.082 0-0.015-0.003-0.029-0.009-0.043l0 0.001c-0.060-0.136-0.442-0.125-0.517-0.122-0.036 0.002-0.065 0.029-0.070 0.065l-0 0c-0.009 0.065-0.013 0.14-0.013 0.216 0 0.003 0 0.006 0 0.009v-0c0 0.001 0 0.003 0 0.004 0 0.896 0.615 1.648 1.445 1.858l0.013 0.003c0.005 0.001 0.011 0.002 0.018 0.002 0.041 0 0.074-0.033 0.074-0.074 0-0.035-0.024-0.064-0.056-0.072l-0-0c-0.779-0.196-1.346-0.891-1.346-1.718 0-0.001 0-0.003 0-0.004v0c0-0.051 0.002-0.097 0.006-0.143 0.008-0 0.016-0 0.025-0 0.092 0 0.182 0.011 0.268 0.033l-0.008-0.002c-0.085 0.132-0.075 0.392 0.028 0.512 0.074 0.086 0.182 0.089 0.288 0.009 0.284-0.213 0.419-0.495 0.344-0.719-0.002-0.007-0.005-0.014 0.009-0.027 0.039-0.035 0.138-0.050 0.212-0.017 0.048 0.020 0.082 0.066 0.082 0.121 0 0.004-0 0.007-0 0.011l0-0c0 0.167-0.034 0.202-0.080 0.252-0.048 0.046-0.084 0.104-0.106 0.168l-0.001 0.003c-0.066 0.2 0.040 0.264 0.104 0.302 0.016 0.009 0.029 0.018 0.042 0.029l-0-0c0.005 0.005 0.011 0.011 0.018 0.017 0.065 0.061 0.186 0.174 0.030 0.538-0.177 0.413 0.279 0.701 0.474 0.824 0.011 0.007 0.025 0.011 0.039 0.011v0c1.060-0.001 1.919-0.86 1.921-1.921v-0c-0-0.094-0.007-0.186-0.020-0.277l0.001 0.010z"></path>
<path fill="#fff" style="fill: var(--color1, #fff)" d="M21.108 6.105c-0.34 0.255-0.769 0.409-1.234 0.409-1.142 0-2.069-0.926-2.069-2.068v0c0-0.041-0.033-0.074-0.074-0.074s-0.074 0.033-0.074 0.074v0c0.002 1.197 0.951 2.172 2.139 2.214l0.004 0v0.223c0 0.041 0.033 0.074 0.074 0.074s0.074-0.033 0.074-0.074v0-0.225c0.472-0.014 0.904-0.175 1.255-0.439l-0.006 0.004c0.017-0.014 0.028-0.035 0.028-0.058 0-0.041-0.033-0.074-0.074-0.074-0.016 0-0.031 0.005-0.043 0.014l0-0z"></path>
<path fill="#fff" style="fill: var(--color1, #fff)" d="M19.93 5.518c-0.092 0-0.2 0.106-0.24 0.201-0.012 0.022-0.019 0.049-0.019 0.077 0 0.044 0.017 0.084 0.044 0.113l-0-0c0.047 0.043 0.11 0.069 0.18 0.069s0.132-0.026 0.18-0.070l-0 0c0.049-0.049 0.061-0.121 0.034-0.203-0.022-0.061-0.055-0.113-0.098-0.156l0 0c-0.020-0.020-0.049-0.033-0.080-0.033-0 0-0.001 0-0.001 0h0zM19.97 5.805c-0.021 0.015-0.047 0.024-0.076 0.024s-0.054-0.009-0.075-0.024l0 0c0-0.020 0.007-0.039 0.019-0.054l-0 0c0.020-0.034 0.048-0.061 0.080-0.082l0.001-0.001c0.020 0.024 0.037 0.052 0.048 0.082l0.001 0.002c0.008 0.024 0.009 0.045 0.002 0.052z"></path>
<path fill="#fff" style="fill: var(--color1, #fff)" d="M14.927 3.833l-0.801-0.215 0.098-0.364c0.032-0.121-0.039-0.245-0.16-0.277l-0.728-0.195c-0.121-0.032-0.245 0.039-0.277 0.16v0l-0.020 0.073-0.801-0.215c-0.121-0.032-0.245 0.039-0.277 0.16v0l-0.352 1.311c-0.011 0.040 0.013 0.082 0.053 0.092v0l3.060 0.82c0.040 0.011 0.082-0.013 0.092-0.053v0l0.273-1.020c0.032-0.121-0.039-0.244-0.16-0.277h-0zM13.667 4.744l-0.874-0.234 0.049-0.182c0.011-0.040-0.013-0.082-0.053-0.092s-0.082 0.013-0.092 0.053l-0.049 0.182-0.874-0.234 0.332-1.238c0.011-0.040 0.052-0.064 0.092-0.053l0.801 0.215-0.127 0.474c-0.011 0.040 0.013 0.082 0.053 0.092s0.082-0.013 0.092-0.053v0l0.186-0.692c0.011-0.040 0.052-0.064 0.092-0.053l0.728 0.195c0.040 0.011 0.064 0.052 0.053 0.092v0zM14.687 5.018l-0.874-0.234 0.273-1.020 0.801 0.215c0.040 0.011 0.064 0.052 0.053 0.092v0z"></path>
<path fill="#fff" style="fill: var(--color1, #fff)" d="M14.608 4.294c0-0 0-0.001 0-0.001 0.032-0.12-0.039-0.244-0.159-0.276-0.066-0.018-0.133-0.004-0.186 0.032l-0 0c-0.013 0.010-0.024 0.024-0.028 0.041-0.011 0.040 0.013 0.082 0.053 0.092 0.021 0.006 0.043 0.002 0.060-0.009l0-0c0.017-0.012 0.040-0.016 0.061-0.010 0.040 0.011 0.064 0.052 0.053 0.092-0.005 0.020-0.019 0.037-0.036 0.046h-0c-0.017 0.010-0.030 0.026-0.036 0.046-0.007 0.025-0 0.050 0.016 0.069l0 0c0.024 0.028 0.034 0.066 0.024 0.103-0.016 0.060-0.078 0.096-0.138 0.080h-0c-0-0-0-0-0-0-0.025-0.007-0.045-0.021-0.060-0.040l0 0c-0.010-0.013-0.024-0.023-0.040-0.027-0.040-0.011-0.082 0.013-0.092 0.053-0.006 0.023-0.001 0.047 0.013 0.065l0 0c0.033 0.044 0.082 0.078 0.14 0.094 0 0 0.001 0 0.001 0h-0c0.141 0.037 0.285-0.046 0.323-0.187 0.016-0.061 0.010-0.123-0.014-0.177l0 0.001c0.021-0.024 0.037-0.054 0.046-0.088 0-0 0-0 0-0v0z"></path>
<path fill="#fff" style="fill: var(--color1, #fff)" d="M12.512 3.81l-0.176-0.047c0.020-0.010 0.044-0.021 0.073-0.033 0.101-0.042 0.226-0.094 0.268-0.244 0.001-0.002 0.001-0.005 0.002-0.007 0.029-0.107-0.019-0.217-0.11-0.271l-0.002-0.001c-0.015-0.008-0.032-0.016-0.051-0.021-0.084-0.022-0.169 0.007-0.223 0.068l-0.001 0.001c-0.008 0.008-0.014 0.019-0.018 0.032-0.011 0.040 0.013 0.082 0.053 0.092 0.028 0.007 0.056-0.002 0.074-0.021l0-0c0.017-0.023 0.045-0.034 0.074-0.026 0.006 0.002 0.012 0.004 0.017 0.007l-0-0c0.034 0.021 0.051 0.061 0.040 0.1-0.001 0.002-0.001 0.004-0.002 0.006l0-0c-0.021 0.075-0.082 0.105-0.181 0.146-0.090 0.038-0.192 0.080-0.223 0.194-0.011 0.040 0.013 0.082 0.053 0.092v0l0.292 0.078c0.040 0.011 0.082-0.013 0.092-0.053s-0.013-0.082-0.053-0.092v0z"></path>
<path fill="#fff" style="fill: var(--color1, #fff)" d="M13.545 3.775l-0.008-0.002 0.137-0.51c0 0 0 0 0-0 0.011-0.040-0.013-0.082-0.053-0.092-0.013-0.004-0.027-0.003-0.039 0l0-0-0.093 0.025c-0.025 0.007-0.046 0.026-0.053 0.053-0.011 0.040 0.013 0.082 0.053 0.092 0.003 0.001 0.006 0.001 0.008 0.002l-0-0-0.105 0.391-0.008-0.002c-0.040-0.011-0.082 0.013-0.092 0.053s0.013 0.082 0.053 0.092l0.162 0.043c0.040 0.011 0.082-0.013 0.092-0.053s-0.013-0.082-0.053-0.092v0z"></path>
<path fill="#fff" style="fill: var(--color1, #fff)" d="M13.413 1.983l-0.111 0.269c-0.005 0.010-0.009 0.022-0.013 0.034-0.008 0.030-0.009 0.060-0.003 0.089l-0-0.001c0.014 0.072 0.067 0.132 0.141 0.152 0.030 0.008 0.060 0.009 0.089 0.003l-0.001 0 0.289-0.056 0.229 0.196c0.021 0.018 0.047 0.032 0.076 0.040 0.104 0.028 0.211-0.034 0.239-0.138 0.002-0.009 0.004-0.018 0.005-0.027l-0 0.001 0.036-0.293 0.249-0.153c0.045-0.025 0.080-0.067 0.095-0.121 0.025-0.093-0.021-0.188-0.105-0.227l-0.001-0-0.267-0.125-0.070-0.293c-0.017-0.068-0.068-0.124-0.139-0.143s-0.145 0.004-0.192 0.054l-0.001 0.001-0.201 0.215-0.296-0.023c-0.095-0.010-0.184 0.050-0.209 0.144-0.014 0.051-0.006 0.102 0.018 0.145l-0-0zM13.42 1.591c0.008-0.004 0.017-0.006 0.026-0.005l0 0 0.003 0 0.333 0.026c0.023 0.002 0.045-0.007 0.061-0.023l0-0 0.226-0.242c0.011-0.012 0.027-0.017 0.044-0.012s0.028 0.017 0.031 0.032l0 0 0.079 0.328c0.005 0.022 0.020 0.041 0.041 0.050l0 0 0.3 0.14c0.019 0.009 0.030 0.031 0.024 0.052-0.003 0.012-0.011 0.022-0.022 0.028h-0q-0.002 0.001-0.004 0.002l-0.282 0.173c-0.016 0.010-0.028 0.025-0.033 0.045-0.001 0.004-0.002 0.007-0.002 0.011l0-0-0.041 0.329c-0 0.002-0.001 0.004-0.001 0.006-0.006 0.024-0.031 0.038-0.055 0.032-0.007-0.002-0.012-0.005-0.017-0.009l0 0-0.257-0.22c-0.008-0.007-0.018-0.012-0.029-0.015s-0.023-0.003-0.034-0.001l0-0-0.325 0.063c-0.006 0.001-0.013 0.001-0.020-0.001-0.017-0.005-0.029-0.018-0.032-0.034l-0-0c-0.001-0.006-0.001-0.013 0.001-0.020 0.001-0.003 0.002-0.006 0.003-0.009l-0 0q0.001-0.002 0.002-0.005l0.126-0.304c0.001-0.003 0.002-0.006 0.003-0.009 0.005-0.020 0.002-0.040-0.007-0.056v0l-0.16-0.29c-0.005-0.010-0.007-0.021-0.004-0.033s0.011-0.022 0.021-0.027h0z"></path>
<path fill="#fff" style="fill: var(--color1, #fff)" d="M13.014 0.873l0.243 0.243c0.009 0.009 0.021 0.016 0.034 0.020 0.040 0.011 0.082-0.013 0.092-0.053 0.007-0.027-0.001-0.054-0.020-0.073l-0-0-0.243-0.243c-0.009-0.009-0.020-0.016-0.034-0.019-0.040-0.011-0.082 0.013-0.092 0.053-0.007 0.027 0.001 0.054 0.019 0.072l0 0z"></path>
<path fill="#fff" style="fill: var(--color1, #fff)" d="M12.57 1.69c0.004 0.001 0.008 0.002 0.011 0.002l-0-0 0.341 0.040c0.038 0.005 0.074-0.018 0.084-0.055 0.011-0.040-0.013-0.082-0.053-0.092-0.004-0.001-0.009-0.002-0.013-0.002l0 0-0.341-0.040c-0.037-0.004-0.072 0.019-0.082 0.055-0.011 0.040 0.013 0.082 0.053 0.092 0 0 0 0 0 0v0z"></path>
<path fill="#fff" style="fill: var(--color1, #fff)" d="M12.952 2.268l-0.298 0.172c-0.017 0.010-0.030 0.026-0.035 0.046-0.011 0.040 0.013 0.082 0.053 0.092 0.020 0.005 0.041 0.002 0.057-0.008v0l0.298-0.172c0.017-0.010 0.030-0.026 0.035-0.046 0.011-0.040-0.013-0.082-0.053-0.092-0.020-0.005-0.041-0.002-0.057 0.008v0z"></path>
<path fill="#fff" style="fill: var(--color1, #fff)" d="M14.923 1.573c0.013 0.004 0.027 0.003 0.039-0l-0 0 0.332-0.089c0.024-0.008 0.044-0.027 0.051-0.053 0.011-0.040-0.013-0.082-0.053-0.092-0.012-0.003-0.025-0.003-0.037-0.001l0-0-0.332 0.089c-0.025 0.007-0.046 0.026-0.053 0.053-0.011 0.040 0.013 0.082 0.053 0.092v0z"></path>
<path fill="#fff" style="fill: var(--color1, #fff)" d="M14.905 2.176c-0.001 0.003-0.003 0.007-0.004 0.010-0.010 0.037 0.009 0.074 0.043 0.089l0 0 0.316 0.136c0.003 0.001 0.007 0.003 0.010 0.004 0.040 0.011 0.082-0.013 0.092-0.053 0.010-0.037-0.009-0.074-0.043-0.089l-0-0-0.316-0.136c-0.003-0.001-0.007-0.003-0.010-0.004-0.037-0.010-0.074 0.009-0.089 0.043l-0 0z"></path>
<path fill="#fff" style="fill: var(--color1, #fff)" d="M14.548 2.696c-0.017 0.010-0.030 0.026-0.035 0.046s-0.002 0.041 0.008 0.057l0.172 0.298c0.010 0.017 0.026 0.030 0.046 0.035 0.040 0.011 0.082-0.013 0.092-0.053 0.005-0.020 0.002-0.041-0.008-0.057l-0.172-0.298c-0.010-0.017-0.026-0.030-0.046-0.035s-0.041-0.002-0.057 0.008v0z"></path>
<path fill="#fff" style="fill: var(--color1, #fff)" d="M12.876 3.907c-0.040-0.011-0.082 0.013-0.092 0.053s0.013 0.082 0.053 0.092c0.040 0.011 0.082-0.013 0.092-0.053v0c0 0 0-0 0-0 0.011-0.040-0.013-0.082-0.053-0.092v0z"></path>
<path fill="#fff" style="fill: var(--color1, #fff)" d="M16.981 23.63c-0.114 0-0.206 0.092-0.206 0.206s0.092 0.206 0.206 0.206c0.114 0 0.206-0.092 0.206-0.206v0c-0-0.114-0.092-0.206-0.206-0.206h-0zM16.981 23.91c-0.041 0-0.074-0.033-0.074-0.074s0.033-0.074 0.074-0.074c0.041 0 0.074 0.033 0.074 0.074v0c-0 0.041-0.033 0.074-0.074 0.074v0z"></path>
<path fill="#fff" style="fill: var(--color1, #fff)" d="M17.303 21.247c0-0.178-0.144-0.323-0.323-0.323s-0.323 0.144-0.323 0.323c0 0.178 0.144 0.323 0.323 0.323v0c0.178-0 0.323-0.145 0.323-0.323v-0zM16.791 21.247c0-0.105 0.085-0.19 0.19-0.19s0.19 0.085 0.19 0.19c0 0.105-0.085 0.19-0.19 0.19v0c-0.105-0-0.19-0.085-0.19-0.19v0z"></path>
<path fill="#fff" style="fill: var(--color1, #fff)" d="M18.326 21.861c-0.114 0-0.206 0.092-0.206 0.206s0.092 0.206 0.206 0.206c0.114 0 0.206-0.092 0.206-0.206v0c-0-0.114-0.092-0.206-0.206-0.206h-0zM18.326 22.141c0 0-0 0-0 0-0.041 0-0.074-0.033-0.074-0.074s0.033-0.074 0.074-0.074c0.041 0 0.074 0.033 0.074 0.074v0c-0 0.041-0.033 0.074-0.074 0.074v0z"></path>
<path fill="#fff" style="fill: var(--color1, #fff)" d="M20.271 23.255l-0.427-0.427v-0.299c0.079-0.013 0.139-0.081 0.139-0.162v-0c0-0.037-0.030-0.066-0.066-0.066s-0.066 0.030-0.066 0.066v0c-0 0.018-0.014 0.032-0.032 0.032h-0.412c-0.018-0-0.032-0.014-0.032-0.032v0-0.387l0.16-0.074c0.023-0.011 0.050-0.017 0.078-0.017s0.055 0.006 0.079 0.018l-0.001-0 0.080 0.037c0.047 0.022 0.080 0.070 0.080 0.125v0c0 0.037 0.030 0.066 0.066 0.066s0.066-0.030 0.066-0.066v0c-0-0.108-0.064-0.201-0.155-0.244l-0.002-0.001-0.080-0.037c-0.039-0.019-0.085-0.030-0.134-0.030s-0.095 0.011-0.136 0.030l0.002-0.001-0.182 0.084-0.59-0.060c-0.084-0.122-0.223-0.202-0.381-0.202-0.223 0-0.41 0.159-0.451 0.37l-0 0.003-0.523-0.28c0.109-0.089 0.184-0.215 0.208-0.359l0-0.003 0.335 0.233c0.010 0.007 0.023 0.011 0.037 0.011 0.037 0 0.066-0.030 0.066-0.066 0-0.022-0.011-0.041-0.027-0.053l-0-0-0.407-0.284c-0.035-0.293-0.282-0.518-0.582-0.518-0.324 0-0.586 0.262-0.586 0.586 0 0.208 0.109 0.391 0.273 0.495l0.002 0.001-0.121 1.74c-0.096 0.104-0.154 0.243-0.154 0.395 0 0 0 0 0 0v-0 0.453c-0.004-0-0.008-0-0.012-0-0.143 0-0.263 0.099-0.296 0.232l-0 0.002c-0.102-0.003-0.199 0.036-0.224 0.146l-0.056 0.246c-0.003 0.012-0.004 0.026-0.004 0.040 0 0.104 0.083 0.188 0.187 0.189h1.486c0.037 0 0.066-0.030 0.066-0.066s-0.030-0.066-0.066-0.066v0h-1.485c-0.030-0-0.055-0.025-0.055-0.055 0-0.004 0-0.008 0.001-0.012l-0 0 0.056-0.245c0.006-0.025 0.027-0.043 0.053-0.043 0 0 0 0 0 0v0h1.871c0 0 0 0 0 0 0.026 0 0.048 0.018 0.053 0.042l0 0 0.056 0.245c0.001 0.003 0.001 0.008 0.001 0.012 0 0.030-0.024 0.055-0.055 0.055h-0.176c-0.037 0-0.066 0.030-0.066 0.066s0.030 0.066 0.066 0.066v0h0.176c0.104-0.001 0.187-0.086 0.187-0.189 0-0.014-0.002-0.028-0.004-0.041l0 0.001-0.056-0.245c-0.025-0.11-0.122-0.149-0.224-0.146-0.033-0.135-0.154-0.234-0.297-0.234-0.004 0-0.008 0-0.013 0l0.001-0v-0.453c0-0 0-0 0-0 0-0.153-0.059-0.292-0.155-0.396l0 0-0.115-1.661 0.573 0.307c0.031 0.226 0.223 0.399 0.456 0.399 0.158 0 0.297-0.079 0.38-0.2l0.001-0.002 0.535-0.055v0.096c0 0.082 0.060 0.15 0.138 0.162l0.001 0v0.299l-0.427 0.427c-0.030 0.031-0.049 0.073-0.049 0.12s0.019 0.089 0.049 0.12l-0-0c0.093 0.085 0.199 0.158 0.315 0.213l0.008 0.003c0.147 0.077 0.292-0.121 0.174-0.238l-0.1-0.099 0.207-0.207c0.014-0.014 0.033-0.022 0.054-0.022s0.040 0.009 0.054 0.022v0l0.209 0.209-0.106 0.114c-0.113 0.122 0.040 0.315 0.185 0.23 0.115-0.061 0.215-0.131 0.303-0.212l-0.001 0.001c0.038-0.032 0.063-0.080 0.063-0.134 0-0.047-0.018-0.089-0.048-0.121l0 0zM16.527 21.247c0-0 0-0 0-0 0-0.25 0.203-0.453 0.453-0.453s0.453 0.203 0.453 0.453c0 0.25-0.203 0.453-0.453 0.453-0 0-0 0-0 0v0c-0.25-0-0.453-0.203-0.453-0.453v-0zM16.981 21.833c0 0 0 0 0 0 0.065 0 0.128-0.011 0.186-0.030l-0.004 0.001 0.109 1.567c-0.084-0.049-0.184-0.078-0.291-0.078s-0.207 0.029-0.294 0.079l0.003-0.002 0.109-1.567c0.054 0.018 0.117 0.029 0.182 0.029 0 0 0 0 0 0v0zM17.736 24.566h-1.512c0.026-0.060 0.085-0.101 0.153-0.101h1.205c0.068 0 0.127 0.041 0.153 0.1l0 0.001zM17.434 24.332h-0.906v-0.453c0-0.001-0-0.003-0-0.004 0-0.25 0.203-0.453 0.453-0.453s0.453 0.203 0.453 0.453c0 0.001 0 0.003-0 0.004v-0 0.453zM18.326 22.395c0 0-0 0-0 0-0.181 0-0.328-0.147-0.328-0.328s0.147-0.328 0.328-0.328c0.181 0 0.328 0.147 0.328 0.328v0c-0 0.181-0.147 0.327-0.328 0.328h-0zM18.771 22.186c0.010-0.036 0.016-0.076 0.016-0.119s-0.006-0.083-0.016-0.122l0.001 0.003 0.471 0.048v0.141zM19.711 22.532v0.257h-0.198v-0.257zM20.177 23.402c-0.084 0.078-0.179 0.146-0.283 0.201l-0.007 0.003c-0.018 0.011-0.031-0.014-0.021-0.026l0.149-0.161c0.011-0.012 0.018-0.028 0.018-0.045s-0.007-0.035-0.019-0.047l-0.254-0.254c-0.038-0.038-0.090-0.061-0.148-0.061s-0.11 0.023-0.148 0.061v0l-0.254 0.254c-0.012 0.012-0.019 0.029-0.019 0.047s0.007 0.035 0.019 0.047v0l0.147 0.146c0.011 0.011-0.001 0.036-0.019 0.026-0.112-0.052-0.207-0.116-0.292-0.193l0.001 0.001c-0.007-0.007-0.011-0.016-0.011-0.027s0.004-0.020 0.011-0.027v0l0.427-0.427h0.275l0.427 0.427c0.007 0.007 0.011 0.016 0.011 0.027s-0.004 0.020-0.011 0.027v0z"></path>
<path fill="#fff" style="fill: var(--color1, #fff)" d="M3.422 1.821c0-0 0-0 0.001-0 0.095-0.026 0.171-0.087 0.216-0.166v0c0.007-0.012 0.009-0.026 0.005-0.040-0.008-0.028-0.037-0.045-0.065-0.038-0.014 0.004-0.025 0.013-0.032 0.025v0c-0.032 0.056-0.086 0.099-0.153 0.117s-0.135 0.007-0.191-0.025v0c-0.012-0.007-0.026-0.009-0.040-0.005-0.028 0.008-0.045 0.037-0.038 0.065 0.004 0.014 0.013 0.025 0.025 0.032v0c0.079 0.046 0.175 0.061 0.271 0.036 0-0 0.001-0 0.001-0h-0z"></path>
<path fill="#fff" style="fill: var(--color1, #fff)" d="M3.026 2.15c-0.314 0.085-0.501 0.408-0.417 0.722v0l0 0.001c0.012 0.044 0.057 0.070 0.101 0.058 0.031-0.008 0.053-0.033 0.059-0.063l0-0.001c0.037-0.176 0.167-0.322 0.349-0.371s0.368 0.013 0.486 0.145l0.002 0.002c0.020 0.023 0.052 0.033 0.083 0.025 0 0 0-0 0-0v0c0.007-0.002 0.013-0.004 0.018-0.007l-0.001 0c0.033-0.018 0.051-0.056 0.041-0.094v0l-0-0.001c-0.085-0.314-0.408-0.501-0.722-0.417h-0zM3.092 2.395c-0.001 0-0.001 0-0.002 0.001-0.186 0.050-0.327 0.184-0.393 0.35l-0.001 0.002c-0.012-0.226 0.133-0.435 0.358-0.495s0.454 0.048 0.556 0.247l0.001 0.003c-0.142-0.112-0.331-0.158-0.517-0.108-0.001 0-0.001 0-0.002 0.001l0-0z"></path>
<path fill="#fff" style="fill: var(--color1, #fff)" d="M0.755 1.396c0.032-0.056 0.086-0.099 0.153-0.117s0.135-0.007 0.191 0.025v0c0.012 0.007 0.026 0.009 0.040 0.005 0.028-0.008 0.045-0.037 0.038-0.065-0.004-0.014-0.013-0.025-0.025-0.032v0c-0.079-0.046-0.176-0.061-0.271-0.036s-0.171 0.087-0.217 0.166v0c-0.007 0.012-0.009 0.026-0.005 0.040 0.008 0.028 0.037 0.045 0.065 0.038 0.014-0.004 0.025-0.013 0.032-0.025v0z"></path>
<path fill="#fff" style="fill: var(--color1, #fff)" d="M2.054 0.97c-0.079-0.046-0.176-0.061-0.271-0.035s-0.171 0.087-0.217 0.166v0c-0.007 0.012-0.009 0.026-0.005 0.040 0.008 0.028 0.037 0.045 0.065 0.038 0.014-0.004 0.025-0.013 0.032-0.025v0c0.032-0.056 0.086-0.099 0.153-0.117s0.135-0.007 0.191 0.025v0c0.012 0.007 0.026 0.009 0.040 0.005 0.028-0.008 0.045-0.037 0.038-0.065-0.004-0.014-0.013-0.025-0.025-0.032v0z"></path>
<path fill="#fff" style="fill: var(--color1, #fff)" d="M1.682 2.364c0.368-0.099 0.586-0.478 0.488-0.846v-0l-0-0.001-0.051 0.014 0.051-0.015c-0.013-0.047-0.061-0.075-0.108-0.062-0.033 0.009-0.057 0.036-0.064 0.067l-0 0.001c-0.044 0.212-0.201 0.39-0.421 0.449s-0.445-0.016-0.587-0.175l-0.002-0.003c-0.022-0.024-0.056-0.035-0.089-0.027-0.047 0.013-0.075 0.061-0.063 0.108v0l0 0.002c0.099 0.368 0.477 0.586 0.846 0.488h0zM1.604 2.073c0.001-0 0.002-0 0.002-0.001 0.233-0.062 0.405-0.238 0.475-0.451l0.001-0.003c0.038 0.289-0.141 0.566-0.428 0.643s-0.58-0.073-0.691-0.34l-0.001-0.003c0.169 0.152 0.406 0.217 0.639 0.155 0.001-0 0.002-0 0.002-0.001l-0 0z"></path>
<path fill="#fff" style="fill: var(--color1, #fff)" d="M0.345 0.792c0.004-0.024 0.017-0.044 0.037-0.057l0.001-0c0.221-0.138 0.487-0.255 0.774-0.332s0.575-0.109 0.857-0.1l-0.022 0c0.024 0.001 0.046 0.012 0.061 0.030l0 0c0.038 0.047 0.080 0.107 0.119 0.17l0.006 0.011c0.012 0.020 0.036 0.030 0.059 0.024 0.028-0.008 0.045-0.037 0.038-0.065-0.001-0.005-0.003-0.010-0.006-0.014l0 0c-0.048-0.079-0.093-0.142-0.141-0.203l0.008 0.011c-0.035-0.044-0.086-0.070-0.141-0.071h-0.001c-0.27-0.009-0.569 0.024-0.866 0.103s-0.572 0.2-0.821 0.355l0.019-0.011c-0.048 0.029-0.079 0.078-0.087 0.131l-0 0.001c-0.037 0.238-0.025 0.5 0.045 0.761 0.081 0.302 0.231 0.568 0.428 0.784l-0.008-0.009c0.013 0.014 0.033 0.021 0.053 0.016 0.028-0.008 0.045-0.037 0.038-0.065-0.002-0.008-0.006-0.016-0.012-0.022l0 0c-0.179-0.196-0.321-0.446-0.397-0.732-0.066-0.246-0.077-0.494-0.041-0.73l-0.001 0.012z"></path>
<path fill="#fff" style="fill: var(--color1, #fff)" d="M3.702 0.881c-0.035-0.043-0.086-0.070-0.141-0.071h-0.001c-0.161-0.006-0.346 0.005-0.532 0.034l-0.014 0.002c-0.002 0-0.004 0.001-0.006 0.001-0.028 0.008-0.045 0.037-0.038 0.065 0.007 0.026 0.033 0.043 0.059 0.039l0-0c0.193-0.030 0.372-0.040 0.549-0.035l-0.022 0c0.024 0.001 0.046 0.012 0.061 0.030l0 0c0.142 0.177 0.256 0.397 0.322 0.643 0.142 0.528 0.031 1.065-0.257 1.482l-0.002 0.003c-0.079 0.114-0.198 0.203-0.343 0.242s-0.293 0.022-0.419-0.038l0.001 0c-0.312-0.147-0.578-0.381-0.762-0.679l-0.006-0.011c0.020-0.023 0.037-0.044 0.052-0.066l-0.001 0.001c0.095-0.138 0.171-0.285 0.227-0.439l0.002-0.007c0.027-0 0.056-0.004 0.086-0.012 0.095-0.026 0.171-0.087 0.217-0.167v0c0.007-0.012 0.009-0.026 0.005-0.040-0.008-0.028-0.037-0.045-0.065-0.038-0.014 0.004-0.025 0.013-0.032 0.025v0c-0.032 0.056-0.086 0.099-0.153 0.117-0.008 0.002-0.016 0.004-0.024 0.005l0.001-0c0.081-0.271 0.099-0.574 0.041-0.878l-0.001-0.006c0.063-0.023 0.138-0.046 0.214-0.066 0.028-0.007 0.055-0.014 0.083-0.021l-0.004 0.001c0-0 0.001-0 0.001-0 0.028-0.008 0.045-0.037 0.038-0.065s-0.036-0.045-0.064-0.038l-0 0c-0.098 0.023-0.196 0.052-0.292 0.085-0.002-0.009-0.005-0.019-0.008-0.030-0.027-0.102-0.063-0.201-0.105-0.294l0.004 0.010c-0.011-0.023-0.037-0.036-0.062-0.030-0.028 0.008-0.045 0.037-0.038 0.065 0.001 0.003 0.002 0.006 0.003 0.008l-0-0c0.036 0.079 0.070 0.172 0.096 0.269 0.142 0.528 0.031 1.065-0.257 1.482l-0.002 0.003c-0.019 0.028-0.041 0.055-0.066 0.079l-0.002 0.002-0.001 0.002c-0.071 0.073-0.165 0.129-0.274 0.158-0.145 0.039-0.293 0.022-0.419-0.038l0.001 0c-0.148-0.070-0.284-0.158-0.406-0.263l-0.005-0.005c-0.013-0.012-0.031-0.017-0.050-0.012-0.028 0.008-0.045 0.037-0.037 0.065 0.003 0.011 0.009 0.021 0.018 0.027l-0-0c0.135 0.116 0.279 0.209 0.432 0.282l0.003 0.001c0.147 0.070 0.32 0.090 0.491 0.044 0.106-0.028 0.199-0.079 0.277-0.145l-0.004 0.003c0.201 0.318 0.477 0.558 0.798 0.709l0.003 0.002c0.147 0.070 0.32 0.090 0.491 0.044s0.311-0.15 0.404-0.285l-0.001 0.001c0.308-0.445 0.424-1.013 0.274-1.573-0.070-0.26-0.191-0.494-0.349-0.692l0.008 0.011z"></path>
<path fill="#fff" style="fill: var(--color1, #fff)" d="M20.56 28.363h-3.766c-0.036 0-0.065 0.029-0.065 0.065v0 2.468c0 0.036 0.029 0.065 0.065 0.065v0h1.151l-0.24 0.958c-0.001 0.005-0.002 0.010-0.002 0.016 0 0.036 0.029 0.065 0.065 0.065h0.39c0.030 0 0.056-0.021 0.063-0.049l0-0 0.247-0.99h0.418l0.247 0.99c0.007 0.028 0.033 0.049 0.063 0.049h0.39c0.036 0 0.065-0.029 0.065-0.065 0-0.006-0.001-0.011-0.002-0.016l0 0-0.24-0.958h0.348l0.019 0.582c0.001 0.108 0.087 0.195 0.195 0.197h0.009c0.107-0.002 0.194-0.089 0.195-0.197v-0l0.019-0.582h0.366c0.036 0 0.065-0.029 0.065-0.065v0-2.468c0-0.036-0.029-0.065-0.065-0.065v0zM20.495 28.493v1.552l-0.13-0.105v-0.213c0-0.036-0.029-0.065-0.065-0.065v0h-0.073c0.046-0.062 0.073-0.14 0.073-0.224 0-0.001 0-0.002 0-0.002v0-0.353c0-0.198-0.12-0.331-0.3-0.331h-0.479c-0.036 0-0.065 0.029-0.065 0.065s0.029 0.065 0.065 0.065v0c0.003-0 0.007-0 0.010-0 0.033 0 0.064 0.013 0.087 0.033l-0-0c0.020 0.025 0.033 0.057 0.033 0.092 0 0.001 0 0.001 0 0.002v-0q0 0.002 0 0.004v0.347l-0.089-0.072c-0.011-0.009-0.025-0.015-0.041-0.015s-0.030 0.005-0.041 0.014l0-0-1.113 0.89-0.82-0.631c-0.011-0.008-0.025-0.013-0.040-0.013-0.011 0-0.022 0.003-0.031 0.008l0-0-0.618 0.337v-1.384zM19.716 30.052v-0.26h0.52v0.26zM19.8 29.533c0.005 0 0.010 0 0.014 0 0.109 0 0.237-0.040 0.287-0.187 0.017-0.051 0.041-0.096 0.070-0.136l-0.001 0.002v0.225c0 0.109-0.075 0.226-0.195 0.226-0.081-0.003-0.149-0.056-0.175-0.128l-0-0.001zM19.752 28.883h0.249c0.118 0 0.155 0.083 0.166 0.149-0.087 0.069-0.152 0.161-0.186 0.268l-0.001 0.004c-0.018 0.056-0.069 0.097-0.13 0.097h-0c-0.010 0.001-0.021 0.002-0.033 0.002s-0.025-0.001-0.037-0.002l0.001 0v-0.386c0-0.002 0-0.004 0-0.006 0-0.046-0.011-0.089-0.030-0.127l0.001 0.002zM16.859 30.025l0.643-0.351 0.762 0.586-0.714 0.571h-0.691zM18.107 31.87h-0.256l0.227-0.909h0.256zM19.503 31.87h-0.256l-0.227-0.909h0.256zM17.758 30.831l1.763-1.41 0.144 0.117c0.013 0.047 0.034 0.089 0.061 0.125l-0.001-0.001h-0.074c-0.036 0-0.065 0.029-0.065 0.065v0.39c0 0.036 0.029 0.065 0.065 0.065v0h0.080l0.022 0.649zM19.98 31.61h-0.009c-0.036-0.002-0.065-0.033-0.065-0.069 0-0.001 0-0.001 0-0.002v0l-0.045-1.357h0.229l-0.045 1.357c0 0.001 0 0.001 0 0.002 0 0.037-0.029 0.067-0.065 0.069h-0zM20.199 30.831l0.022-0.649h0.080c0.036 0 0.065-0.029 0.065-0.065v-0.010l0.13 0.105v0.619z"></path>
<path fill="#fff" style="fill: var(--color1, #fff)" d="M18.352 29.532c0.215 0 0.39-0.174 0.39-0.39s-0.174-0.39-0.39-0.39c-0.215 0-0.39 0.174-0.39 0.39v0c0 0.215 0.174 0.39 0.39 0.39v0zM18.352 28.883c0.143 0 0.26 0.116 0.26 0.26s-0.116 0.26-0.26 0.26c-0.143 0-0.26-0.116-0.26-0.26v0c0-0.143 0.116-0.26 0.26-0.26v0z"></path>
</symbol>
</defs>
</svg>
