<svg xmlns="http://www.w3.org/2000/svg"  viewBox="0 0 590.939 837.707"><g transform="translate(-1250.071 -91.893)"><path d="M55.109,62.276H53.384a1.673,1.673,0,0,0-1.66,1.887l5.94,46.035a8.387,8.387,0,0,0,8.3,7.294h38.427a8.387,8.387,0,0,0,8.3-7.3l5.94-46.035a1.673,1.673,0,0,0-1.66-1.886h-1.16l7.335-17.712,4.175-3.094a8.333,8.333,0,0,0,3.271-8.1l-1.93-11.527a1.673,1.673,0,0,0-2.622-1.086l-9.515,6.786a8.335,8.335,0,0,0-3.416,8.044l.764,5.137-8.927,21.554h-3.1V49.009L103.5,37.414a1.673,1.673,0,0,0-.264-1.165L96.542,26.21a1.673,1.673,0,0,0-2.784,0L87.065,36.249a1.673,1.673,0,0,0-.264,1.165l1.656,11.595V62.276H85.176V53.91h0a1.667,1.667,0,0,0-.141-.68L78.338,38.171a1.673,1.673,0,0,0-3.058,0L70.92,47.983,58.676,18.423a1.673,1.673,0,0,0-2.186-.905l-15.459,6.4a1.673,1.673,0,0,0-.905,2.186ZM71.79,57.949l.49.49a1.673,1.673,0,0,0,1.932.314l.925-.463v3.986H71.79Zm43.274,7.673-1.3,10.039H56.582l-1.3-10.039Zm-5.7,44.146a5.031,5.031,0,0,1-4.979,4.377H65.962a5.031,5.031,0,0,1-4.978-4.377l-3.97-30.761h56.322Zm6.379-56.093L112.654,52.4l3.842-9.275,3.091,1.281Zm2.717-23.41,7.335-5.231,1.488,8.885a5,5,0,0,1-1.962,4.862l-3.786,2.805-4.432-1.837-.693-4.658a5,5,0,0,1,2.05-4.826Zm-7.09,25.222,3.092,1.281-2.281,5.508h-3.623ZM98.5,50.564V53.91H91.8V50.564Zm-5.02-17.9v6.186a1.673,1.673,0,1,0,3.346,0V32.664l3.273,4.911-1.378,9.642H91.582L90.2,37.575ZM91.8,57.256H98.5v5.02H91.8Zm-13.321,5.02V58.291l.925.462a1.673,1.673,0,0,0,1.932-.314l.49-.49v4.327Zm1.343-7.056-2.268-1.134a1.674,1.674,0,0,0-1.5,0l-2.268,1.134-1.681-1.681,1.323-2.976h6.749l1.323,2.976ZM76.809,42.971,78.7,47.217H74.922ZM56.224,21.249,69.046,52.2l-.457,1.029a1.666,1.666,0,0,0-.141.68h0v8.366H62.111l1.752-.726a1.673,1.673,0,1,0-1.28-3.092l-4.638,1.919-1.28-3.091,1.545-.639a1.673,1.673,0,1,0-1.28-3.092l-1.545.64L54.1,51.1l4.638-1.921a1.673,1.673,0,1,0-1.28-3.092l-4.638,1.92-1.281-3.092,1.545-.64a1.673,1.673,0,1,0-1.28-3.092l-1.546.641L48.98,38.736l4.638-1.921a1.673,1.673,0,1,0-1.282-3.091L47.7,35.645l-1.28-3.091,1.546-.641a1.673,1.673,0,1,0-1.28-3.092l-1.547.64-1.28-3.091Z" transform="translate(1397.625 269.553) rotate(-13)" fill=" #3BA0E6"/><g transform="translate(1531.303 622.939)"><g transform="translate(0 0)"><path d="M83.353,6.558a1.4,1.4,0,0,0-1.427-.039A23.268,23.268,0,0,1,69.974,9.158,9.8,9.8,0,0,0,60.205,0H9.8A9.812,9.812,0,0,0,0,9.8V74.206a9.812,9.812,0,0,0,9.8,9.8h50.4a9.8,9.8,0,0,0,1.4-19.49V32.623c2.921-2.508,6.645-3.694,10.518-4.927l1-.319C82.866,24.249,83.962,8.5,84.007,7.829a1.4,1.4,0,0,0-.654-1.271ZM60.205,2.8a6.985,6.985,0,0,1,6.926,6.268c-1.043-.055-2.1-.126-3.156-.2a51.964,51.964,0,0,0-11.8.1.474.474,0,0,0-.1.015,22.76,22.76,0,0,0-12.944,6.774c-.346.349-.675.7-1,1.043H16.661a9.788,9.788,0,0,0,0-14ZM2.8,74.206V9.8a7,7,0,1,1,7,7,1.4,1.4,0,0,0,0,2.8H35.832C28.61,29.416,31.1,38.32,32.6,41.836A50.913,50.913,0,0,0,27.012,56H12.6a1.4,1.4,0,1,0,0,2.8H28.166a1.4,1.4,0,0,0,.827-.27l6.39-4.678a1.4,1.4,0,0,0,.574-1.12,47.621,47.621,0,0,1,.7-6.581,13.186,13.186,0,0,0,5.77,1.26,15.937,15.937,0,0,0,3.146-.318,17.515,17.515,0,0,0,10.336-6.568c.027-.027.041-.062.066-.09a22.343,22.343,0,0,0,2.207-3.448c.2-.388.41-.755.63-1.107v28.52H9.8a1.4,1.4,0,1,0,0,2.8,7,7,0,1,1-7,7Zm31.174-29.04A51.514,51.514,0,0,0,33.183,52l-2.761,2.02A50.08,50.08,0,0,1,33.974,45.166Zm33.232,29.04a7.009,7.009,0,0,1-7,7H16.661a9.788,9.788,0,0,0,0-14H60.205A7.009,7.009,0,0,1,67.206,74.206Zm5.059-49.5-.991.318a44.539,44.539,0,0,0-8.261,3.268,5.18,5.18,0,0,1-3.22-1.284,1.4,1.4,0,1,0-1.98,1.983,6.721,6.721,0,0,0,2.123,1.4,16.923,16.923,0,0,0-4.254,5.329A19.771,19.771,0,0,1,54.2,38.152a17.48,17.48,0,0,1-7.372-1.6,1.4,1.4,0,1,0-1.252,2.506A18.638,18.638,0,0,0,51.866,40.8a14.474,14.474,0,0,1-6.861,3.562A11.027,11.027,0,0,1,37.233,43.3,36.123,36.123,0,0,1,39.3,37C50.1,23.662,57.948,20.566,71.406,18.7a1.4,1.4,0,1,0-.385-2.774c-13.963,1.938-22.613,5.339-33.986,19.429-.014.015-.025.031-.038.048-.914,1.134-1.736,2.272-2.5,3.405a19.392,19.392,0,0,1,3.014-16.716,14.222,14.222,0,0,0,.339,2.054,1.4,1.4,0,1,0,2.716-.689,12.969,12.969,0,0,1-.2-4.93c.246-.265.5-.529.759-.8a20.331,20.331,0,0,1,8.65-5.341A12.957,12.957,0,0,0,49,16.8a1.4,1.4,0,1,0,2.8,0,9.708,9.708,0,0,1,1.417-5.157,38.664,38.664,0,0,1,7.034-.2,9.691,9.691,0,0,0-1.311,1.931,1.4,1.4,0,0,0,.633,1.876,1.385,1.385,0,0,0,.627.146,1.4,1.4,0,0,0,1.26-.778,8.3,8.3,0,0,1,2.607-2.94c5.54.381,11.237.729,16.842-1.571-.678,4.249-2.744,12.71-8.65,14.6Z" transform="translate(0 0)" fill=" #3BA0E6"/><path d="M9.4,37.8H20.6a1.4,1.4,0,1,0,0-2.8H9.4a1.4,1.4,0,1,0,0,2.8Z" transform="translate(3.201 14.004)" fill=" #3BA0E6"/><path d="M9.4,32.8h14a1.4,1.4,0,0,0,0-2.8H9.4a1.4,1.4,0,0,0,0,2.8Z" transform="translate(3.201 12.004)" fill=" #3BA0E6"/><path d="M9.4,27.8h14a1.4,1.4,0,0,0,0-2.8H9.4a1.4,1.4,0,1,0,0,2.8Z" transform="translate(3.201 10.003)" fill=" #3BA0E6"/><path d="M9.4,22.8h14a1.4,1.4,0,0,0,0-2.8H9.4a1.4,1.4,0,0,0,0,2.8Z" transform="translate(3.201 8.002)" fill=" #3BA0E6"/></g></g><g transform="translate(1328 362.285) rotate(-9)"><g transform="translate(22.839 23.942)"><path d="M165.308,105.178a7.284,7.284,0,1,0,7.284,7.284A7.284,7.284,0,0,0,165.308,105.178Zm0,10.927a3.633,3.633,0,1,1,0-7.266v-.018a3.642,3.642,0,0,1,0,7.284Z" transform="translate(-158.024 -105.178)" fill=" #3BA0E6"/></g><g transform="translate(43.672 23.942)"><path d="M256.828,105.178a7.284,7.284,0,1,0,7.284,7.284A7.284,7.284,0,0,0,256.828,105.178Zm0,10.927a3.633,3.633,0,1,1,0-7.266v-.018a3.642,3.642,0,0,1,0,7.284Z" transform="translate(-249.544 -105.178)" fill=" #3BA0E6"/></g><g transform="translate(7.755 0)"><path d="M157.168,32.327a10.143,10.143,0,0,0-8.621-8.238c-1.2-4.443-4.662-8.231-11.619-8.231H126.366V11.851a6.064,6.064,0,1,0-3.642,0v3.915H112.18c-4.917,0-10.089,2.258-11.655,8.231a10.143,10.143,0,0,0-.419,20.032l-.018.091c.546,7.995,6.483,10.927,12.074,10.927h24.767c8.322,0,11.655-5.463,12.074-10.927A10.144,10.144,0,0,0,157.168,32.327Zm-57.135,8.152a6.483,6.483,0,0,1,0-12.456Zm22.09-34.309a2.422,2.422,0,1,1,2.422,2.422A2.422,2.422,0,0,1,122.123,6.169Zm23.292,36.64c0,3.169-1.111,8.486-8.486,8.486H112.18c-3.169,0-8.486-1.111-8.486-8.486l-.018-14.787c0-7.394,5.318-8.486,8.486-8.486h24.767c7.394,0,8.486,5.318,8.486,8.486Zm3.569-2.458V27.895a6.477,6.477,0,0,1,0,12.456Z" transform="translate(-91.76 -0.001)" fill=" #3BA0E6"/></g><g transform="translate(28.302 43.464)"><path d="M204.678,190.938H183.845a1.821,1.821,0,1,0,0,3.642h20.833a1.821,1.821,0,0,0,0-3.642Z" transform="translate(-182.024 -190.938)" fill=" #3BA0E6"/></g><g transform="translate(0 51.363)"><path d="M138.752,232.726h0a7.066,7.066,0,0,0-13.95-1.53l-4.862.947H76.525l-4.862-.947a7.066,7.066,0,1,0-8.7,8.341v13.6a7.066,7.066,0,0,0-5.245,6.793v3.223a1.821,1.821,0,0,0,3.642,0v-3.242a3.424,3.424,0,1,1,6.847,0v3.242a1.821,1.821,0,0,0,3.642,0v-3.242a7.066,7.066,0,0,0-5.245-6.793v-13.6a7.048,7.048,0,0,0,4.881-4.662l3.041.6V257.93a23.548,23.548,0,0,0,2.04,9.561v.164a23.674,23.674,0,0,0,43.16,0l.091-.2a23.528,23.528,0,0,0,2.094-9.524V235.458l3.041-.6a7.048,7.048,0,0,0,4.881,4.662v13.6a7.066,7.066,0,0,0-5.245,6.793v3.242a1.821,1.821,0,0,0,3.642,0v-3.242a3.424,3.424,0,0,1,6.847,0v3.242a1.821,1.821,0,0,0,3.642,0v-3.242a7.066,7.066,0,0,0-5.245-6.793v-13.6A7.066,7.066,0,0,0,138.752,232.726ZM64.779,236.15a3.424,3.424,0,1,1,3.424-3.424A3.424,3.424,0,0,1,64.779,236.15Zm33.453,41.83a20.032,20.032,0,0,1-16.918-9.306h33.836A20.033,20.033,0,0,1,98.233,277.98Zm20.032-20.032a20.029,20.029,0,0,1-1.329,7.1H79.494a20.028,20.028,0,0,1-1.329-7.1V235.786h40.1Zm13.44-21.8h-.019l-.036-.055a2.421,2.421,0,1,1,.055.054Z" transform="translate(-57.693 -225.638)" fill=" #3BA0E6"/></g><g transform="translate(34.174 64.023)"><path d="M220.626,291.594a1.822,1.822,0,0,0-1.216-.469h-5.463l6.7-6.884a1.821,1.821,0,0,0-2.6-2.531l-9.706,9.98a1.821,1.821,0,0,0,1.311,3.1h5.609l-6.9,7.685a1.821,1.821,0,0,0,.127,2.568h0a1.821,1.821,0,0,0,2.568-.127l9.706-10.744A1.821,1.821,0,0,0,220.626,291.594Z" transform="translate(-207.817 -281.253)" fill=" #3BA0E6"/></g></g><g transform="translate(1266.156 255.134) rotate(-24)"><path d="M66.971,0a30.009,30.009,0,0,0-8.817,1.318,1.421,1.421,0,1,0,.834,2.716A27.108,27.108,0,0,1,65.55,2.882v25.7H57.331A29.691,29.691,0,0,0,49.219,9.451a27.075,27.075,0,0,1,3.933-2.837A1.42,1.42,0,0,0,51.7,4.17,29.932,29.932,0,0,0,46.29,8.278a1.432,1.432,0,0,0-.108.094,30.014,30.014,0,0,0-8.851,16.966A30,30,0,1,0,59.645,59.1,30,30,0,1,0,66.971,0Zm19.8,48.583a27.231,27.231,0,0,1-3.853-5.24,1.421,1.421,0,1,0-2.474,1.4,30.073,30.073,0,0,0,4.281,5.808,27.047,27.047,0,0,1-16.33,6.582V31.425h8.223A29.957,29.957,0,0,0,77.738,38.3a1.421,1.421,0,0,0,2.731-.784,27.119,27.119,0,0,1-1.011-6.089H94.1c0,.009,0,.017,0,.026a27.064,27.064,0,0,1-7.328,17.133Zm7.33-20H79.455a26.873,26.873,0,0,1,7.311-17.159A27.067,27.067,0,0,1,94.1,28.559c0,.008,0,.016,0,.025ZM68.392,2.878A27.047,27.047,0,0,1,84.718,9.456a29.691,29.691,0,0,0-8.107,19.128H68.391V2.878ZM54.564,47.911a.446.446,0,0,1,.385-.223h1.37a27.318,27.318,0,0,1,0,13.494H54.95a.446.446,0,0,1-.385-.223l-3.639-6.3a.446.446,0,0,1,0-.445ZM36.634,29.458l.684-1.185A27.148,27.148,0,0,1,49,35.035l-.676,1.171a.446.446,0,0,1-.385.223H40.658a.446.446,0,0,1-.385-.223l-3.638-6.3A.446.446,0,0,1,36.634,29.458Zm17.185,6.723a29.781,29.781,0,0,0-4.558-4.757h5.225A27.136,27.136,0,0,1,53.819,36.182Zm-8.58-7.6a29.885,29.885,0,0,0-5.159-2.419A27.249,27.249,0,0,1,47.171,11.42a26.875,26.875,0,0,1,7.316,17.164Zm-21.863.874a.446.446,0,0,1,0,.445l-3.638,6.3a.446.446,0,0,1-.385.223H12.074a.446.446,0,0,1-.385-.223l-.676-1.171a27.139,27.139,0,0,1,11.678-6.762ZM2.841,54.435a27.4,27.4,0,0,1,.849-6.747h1.37a.446.446,0,0,1,.385.223l3.638,6.3a.447.447,0,0,1,0,.445l-3.639,6.3a.446.446,0,0,1-.385.223H3.69a27.336,27.336,0,0,1-.849-6.747ZM23.375,79.412,22.691,80.6a27.136,27.136,0,0,1-11.678-6.762l.676-1.171a.446.446,0,0,1,.385-.223h7.277a.446.446,0,0,1,.385.223l3.639,6.3A.446.446,0,0,1,23.375,79.412ZM25.6,81.24l.235-.407a3.3,3.3,0,0,0,0-3.286l-3.639-6.3A3.3,3.3,0,0,0,19.351,69.6H12.074a3.3,3.3,0,0,0-2.846,1.643L9,71.64a27.174,27.174,0,0,1-4.41-7.616h.469A3.3,3.3,0,0,0,7.9,62.381l3.639-6.3a3.3,3.3,0,0,0,0-3.286L7.9,46.49a3.3,3.3,0,0,0-2.846-1.643H4.59A27.175,27.175,0,0,1,9,37.231l.228.4a3.3,3.3,0,0,0,2.846,1.643h7.277A3.3,3.3,0,0,0,22.2,37.626l3.638-6.3a3.3,3.3,0,0,0,0-3.286l-.235-.407a27.2,27.2,0,0,1,8.808,0l-.235.407a3.3,3.3,0,0,0,0,3.286l3.638,6.3a3.3,3.3,0,0,0,2.846,1.643h7.277a3.3,3.3,0,0,0,2.846-1.643l.228-.4a27.171,27.171,0,0,1,4.41,7.616h-.469A3.294,3.294,0,0,0,52.1,46.49l-3.639,6.3a3.3,3.3,0,0,0,0,3.286l3.638,6.3a3.3,3.3,0,0,0,2.846,1.643h.469a27.178,27.178,0,0,1-4.41,7.616l-.228-.4A3.3,3.3,0,0,0,47.934,69.6H40.657a3.3,3.3,0,0,0-2.846,1.643l-3.638,6.3a3.3,3.3,0,0,0,0,3.286l.235.407a27.194,27.194,0,0,1-8.807,0ZM37.318,80.6l-.684-1.185a.446.446,0,0,1,0-.445h0l3.638-6.3a.446.446,0,0,1,.386-.223h7.277a.446.446,0,0,1,.385.223L49,73.835A27.135,27.135,0,0,1,37.318,80.6ZM55.9,39.275a29.884,29.884,0,0,0,1.427-7.85h8.22v25.7a27.135,27.135,0,0,1-5.6-.875A29.851,29.851,0,0,0,55.9,39.275Z" fill=" #3BA0E6"/><path d="M119.7,254.313l3.639-6.3a3.3,3.3,0,0,0,0-3.286h0l-3.639-6.3a3.3,3.3,0,0,0-2.846-1.643h-7.277a3.3,3.3,0,0,0-2.846,1.643l-3.639,6.3a3.3,3.3,0,0,0,0,3.286l3.639,6.3a3.3,3.3,0,0,0,2.846,1.643h7.277A3.3,3.3,0,0,0,119.7,254.313Zm-2.846-1.2h-7.277a.446.446,0,0,1-.385-.223l-3.639-6.3a.447.447,0,0,1,0-.445l3.639-6.3a.446.446,0,0,1,.385-.223h7.277a.446.446,0,0,1,.385.223l3.638,6.3a.447.447,0,0,1,0,.445l-3.639,6.3A.446.446,0,0,1,116.851,253.115Z" transform="translate(-83.209 -191.933)" fill=" #3BA0E6"/></g><g transform="translate(696.916 431.116)"><path d="M803.583,30.178a9.312,9.312,0,1,1-12.724-3.4A9.311,9.311,0,0,1,803.583,30.178Z" transform="translate(37.681 35.662)" fill=" #3BA0E6"/><g transform="translate(787.654 22.675)"><path d="M810.449,48.91c-9.56,10.913-46.216,43.549-29.346,60.736,12.06,12.3,38.276-17.776,45.2-24.971a265.082,265.082,0,0,0,27.955-34.589c5.476-8.051,13.89-19.228,12.549-29.514-1-7.638-11.268-4.918-15.785-3.309C835.091,22.941,821.4,36.522,810.449,48.91c-1.349,1.521,1.066,3.535,2.4,2.021a139.262,139.262,0,0,1,29.961-26A44.028,44.028,0,0,1,857.7,18.612c10.691-2.082,4.039,12.289,2.2,16.007C851.1,52.383,837.4,68.325,823.9,82.65c-5.69,6.045-29.411,32.957-40.053,25.342-10.913-7.81,4.754-28.735,9.637-35.1,5.957-7.742,12.942-14.631,19.365-21.964C814.2,49.4,811.782,47.385,810.449,48.91Z" transform="translate(-776.724 -15.447)" fill=" #3BA0E6"/></g><g transform="translate(772.85 45.763)"><path d="M840.553,29.426c-14.207-2.923-60.69-18.662-67.308,4.494-4.727,16.564,34.371,24.493,44.05,26.965A265.2,265.2,0,0,0,861.176,68.1c9.709.787,23.584,2.575,31.86-3.672,6.148-4.643-1.291-12.228-4.918-15.357-12.812-11.047-31.386-16.247-47.565-19.648-1.979-.413-2.545,2.671-.569,3.1a139,139,0,0,1,37.408,13.2,44.044,44.044,0,0,1,12.843,9.824c7.1,8.261-8.682,9.576-12.828,9.813-19.789,1.135-40.42-2.908-59.544-7.562-8.062-1.96-43.182-9.285-41.811-22.3,1.4-13.347,27.321-10.061,35.265-8.957,9.679,1.349,19.113,4.02,28.666,5.988C841.978,32.93,842.54,29.839,840.553,29.426Z" transform="translate(-772.85 -21.489)" fill=" #3BA0E6"/></g><g transform="translate(805.047 12.884)"><path d="M828.3,68.561c-4.921-13.645-15.728-61.52-38.933-55.085-16.6,4.6-2.984,42.1-.038,51.646a264.592,264.592,0,0,0,16.725,41.2c4.39,8.693,10.088,21.467,19.747,25.269,7.161,2.828,9.755-7.47,10.535-12.2,2.747-16.691-2.507-35.25-8.036-50.828-.688-1.911-3.615-.776-2.935,1.131a139.767,139.767,0,0,1,8.25,38.8,44.205,44.205,0,0,1-1.693,16.079c-3.355,10.363-12.705-2.415-15.067-5.835-11.28-16.286-18.593-36-24.6-54.749-2.537-7.9-14.593-41.681-2.774-47.305,12.117-5.766,22.831,18.066,26.033,25.422,3.9,8.964,6.534,18.41,9.847,27.585C826.045,71.606,828.983,70.471,828.3,68.561Z" transform="translate(-781.276 -12.884)" fill=" #3BA0E6"/></g><path d="M805.049,34.7a4.526,4.526,0,1,1-6.187-1.658A4.526,4.526,0,0,1,805.049,34.7Z" transform="translate(67.013 55.151)" fill=" #3BA0E6"/><path d="M788.336,41.035a4.525,4.525,0,1,1-6.182-1.655A4.524,4.524,0,0,1,788.336,41.035Z" transform="translate(19.867 73.035)" fill=" #3BA0E6"/><path d="M789.172,17.55a4.524,4.524,0,1,1-6.187-1.651A4.525,4.525,0,0,1,789.172,17.55Z" transform="translate(22.226 6.786)" fill=" #3BA0E6"/></g><text transform="matrix(0.98, 0.201, -0.201, 0.98, 1648.5, 555.5)" fill="none" stroke=" #3BA0E6" stroke-width="2" font-size="55" font-family="SegoeUI, Segoe UI"><tspan x="0" y="0">5x2=10</tspan></text><text transform="matrix(0.98, 0.201, -0.201, 0.98, 1539.5, 812.5)" fill="none" stroke=" #3BA0E6" stroke-width="2" font-size="55" font-family="SegoeUI, Segoe UI"><tspan x="0" y="0">1 2 3</tspan></text><g transform="matrix(0.951, -0.309, 0.309, 0.951, 1581.046, 307.567)"><path d="M71.353,88.131a2.226,2.226,0,0,0,2.813-1.415,25.777,25.777,0,0,1,50.249,8.1c0,10.984-4.92,17.546-8.873,22.819-2.876,3.835-5.359,7.149-5.359,11.167q0,.4-.01.786h-9.305v-5.116a2.227,2.227,0,0,0-4.454,0v5.116H87.109q-.009-.39-.01-.786c0-4.019-2.483-7.331-5.359-11.167-2.911-3.884-6.211-8.286-7.847-14.542a2.227,2.227,0,1,0-4.308,1.126c1.857,7.1,5.592,12.083,8.593,16.087,2.5,3.331,4.469,5.961,4.469,8.5,0,1.066.045,2.107.133,3.1v18.836c0,.06,0,.118.009.177,0,.014,0,.029,0,.043a2.235,2.235,0,0,0,.037.243v0a16.689,16.689,0,0,0,5.577,9.288,15.9,15.9,0,0,0,20.475,0,16.688,16.688,0,0,0,5.576-9.288v0a2.416,2.416,0,0,0,.037-.242c0-.014,0-.029,0-.043,0-.059.009-.117.009-.177V131.9c.088-.993.134-2.033.134-3.1,0-2.535,1.972-5.165,4.469-8.5,4.12-5.5,9.763-13.022,9.763-25.49a30.231,30.231,0,0,0-58.931-9.495,2.227,2.227,0,0,0,1.415,2.813Zm27.289,71.634A11.791,11.791,0,0,1,88.1,152.96h21.091a11.793,11.793,0,0,1-10.545,6.805Zm11.409-11.259H87.232V143.5h22.819Zm0-9.461H87.232v-5.007h22.819Zm0,0" transform="translate(-54.032 -50.203)" fill=" #3BA0E6" fill-rule="evenodd"/><path d="M192.551,10.387a2.227,2.227,0,0,0,2.227-2.227V2.227a2.227,2.227,0,1,0-4.454,0V8.16A2.227,2.227,0,0,0,192.551,10.387Zm0,0" transform="translate(-147.941)" fill=" #3BA0E6" fill-rule="evenodd"/><path d="M2.227,194.778H8.16a2.227,2.227,0,1,0,0-4.454H2.227a2.227,2.227,0,1,0,0,4.454Zm0,0" transform="translate(0 -147.941)" fill=" #3BA0E6" fill-rule="evenodd"/><path d="M174.93,212.754a2.227,2.227,0,0,0-2.227-2.227H156.766a2.227,2.227,0,1,0,0,4.454h5.742V220.1a2.227,2.227,0,1,0,4.454,0v-5.116H172.7a2.227,2.227,0,0,0,2.227-2.227Zm0,0" transform="translate(-120.125 -163.645)" fill=" #3BA0E6" fill-rule="evenodd"/><path d="M60.593,63.743a2.227,2.227,0,0,0,3.149-3.149l-4.2-4.2a2.227,2.227,0,1,0-3.15,3.149Zm0,0" transform="translate(-43.331 -43.332)" fill=" #3BA0E6" fill-rule="evenodd"/><path d="M51.074,321.61a2.22,2.22,0,0,0,1.574-.652l4.2-4.2a2.227,2.227,0,1,0-3.149-3.149l-4.2,4.2a2.227,2.227,0,0,0,1.575,3.8Zm0,0" transform="translate(-37.969 -243.269)" fill=" #3BA0E6" fill-rule="evenodd"/><path d="M308.289,64.393a2.22,2.22,0,0,0,1.574-.652l4.2-4.2a2.227,2.227,0,0,0-3.149-3.15l-4.2,4.2a2.227,2.227,0,0,0,1.574,3.8Zm0,0" transform="translate(-237.906 -43.33)" fill=" #3BA0E6" fill-rule="evenodd"/><path d="M313.614,313.614a2.226,2.226,0,0,0,0,3.149l4.2,4.2a2.227,2.227,0,0,0,3.149-3.149l-4.2-4.2a2.226,2.226,0,0,0-3.149,0Zm0,0" transform="translate(-243.269 -243.269)" fill=" #3BA0E6" fill-rule="evenodd"/><path d="M356.231,194.778h5.933a2.227,2.227,0,1,0,0-4.454h-5.933a2.227,2.227,0,1,0,0,4.454Zm0,0" transform="translate(-275.172 -147.941)" fill=" #3BA0E6" fill-rule="evenodd"/><path d="M192.551,283.5a2.227,2.227,0,1,0,2.227,2.227A2.231,2.231,0,0,0,192.551,283.5Zm0,0" transform="translate(-147.941 -220.368)" fill=" #3BA0E6" fill-rule="evenodd"/><path d="M69.04,192.551a2.227,2.227,0,1,0-2.227,2.227A2.231,2.231,0,0,0,69.04,192.551Zm0,0" transform="translate(-50.203 -147.941)" fill=" #3BA0E6" fill-rule="evenodd"/></g><g transform="matrix(0.819, -0.574, 0.574, 0.819, 1691.696, 384.599)"><path d="M90.647,10.94,81.914,2.207a7.535,7.535,0,0,0-10.656,0L33.221,40.244a1.36,1.36,0,1,0,1.923,1.923L62.032,15.28l3.9,3.9L13.225,71.884a3,3,0,0,0-1.427-.11l-2.441.406a.274.274,0,0,1-.248-.079.278.278,0,0,1-.081-.251l.714-4.281L30.657,46.655a1.36,1.36,0,0,0-1.923-1.923L7.511,65.955a1.358,1.358,0,0,0-.332.545h0L2.52,80.984l-1.893,3.7a5.6,5.6,0,0,0,7.54,7.541l3.7-1.893,14.484-4.658h0a1.36,1.36,0,0,0,.545-.332l33.06-33.06a1.36,1.36,0,1,0-1.923-1.923L25.284,83.112,21,83.825a.279.279,0,0,1-.252-.081.275.275,0,0,1-.079-.249l.406-2.439a3.008,3.008,0,0,0-.11-1.427L73.675,26.924l3.9,3.9L62.52,45.876A1.36,1.36,0,1,0,64.444,47.8l26.2-26.2a7.543,7.543,0,0,0,0-10.656ZM9.805,74.864l2.439-.406a.281.281,0,0,1,.252.083.273.273,0,0,1,.078.247l-.406,2.438a3.005,3.005,0,0,0,3.46,3.461l2.439-.406a.274.274,0,0,1,.25.081.277.277,0,0,1,.081.249l-.406,2.437a3.009,3.009,0,0,0,.551,2.285l-6.818,2.193L5.33,81.131l2.193-6.818a3,3,0,0,0,2.283.551ZM6.93,89.805a2.884,2.884,0,0,1-3.881-3.881l1.092-2.136,4.925,4.925Zm12.117-12.1A3.011,3.011,0,0,0,17.62,77.6L15.18,78a.285.285,0,0,1-.329-.33l.406-2.439a3.012,3.012,0,0,0-.109-1.427L67.854,21.1l3.9,3.9ZM63.955,13.357l2.734-2.734L82.231,26.166,79.5,28.9Zm24.769,6.316-4.569,4.569L68.612,8.7,73.181,4.13a4.821,4.821,0,0,1,6.81,0l8.733,8.733a4.821,4.821,0,0,1,0,6.81Z" transform="translate(-0.01 0)" fill=" #3BA0E6" stroke=" #3BA0E6" stroke-width="0.5"/></g><path d="M75.905,22.939a3.806,3.806,0,0,0-3.8-3.8H70.881a10.194,10.194,0,0,1,0-11.528h1.225C77,7.607,77.029,0,72.106,0H28.458a1.112,1.112,0,0,0,0,2.224H72.106c1.971,0,2.061,3.16,0,3.16H13.349a7.988,7.988,0,0,0,0,15.976H72.106c2.009,0,2.029,3.284,0,3.284H13.349a10.962,10.962,0,0,1-7.856-3.325,11.268,11.268,0,0,1-3.269-7.946A11.149,11.149,0,0,1,13.349,2.224h9.185a1.112,1.112,0,0,0,0-2.224H13.349A13.414,13.414,0,0,0,3.908,22.878a13.634,13.634,0,0,0,2.131,1.765H3.8a3.8,3.8,0,0,0,0,7.608H5.024A10.113,10.113,0,0,1,6.81,38.014a10.114,10.114,0,0,1-1.786,5.764H3.8a3.8,3.8,0,0,0,0,7.607H5.986a13.372,13.372,0,0,0,7.363,24.519H72.106c4.889,0,4.922-7.608,0-7.608H70.881a10.195,10.195,0,0,1,0-11.528h1.225c4.889,0,4.922-7.608,0-7.608H69.919a13.373,13.373,0,0,0,0-22.3h2.187A3.917,3.917,0,0,0,75.905,22.939ZM7.6,13.371a5.764,5.764,0,0,1,5.751-5.764H68.288a12.436,12.436,0,0,0,0,11.528H13.349A5.764,5.764,0,0,1,7.6,13.371Zm.02,18.879H62.557a5.764,5.764,0,0,1,0,11.528H57.59V39.126h2.658a1.112,1.112,0,0,0,0-2.224H21.954a1.112,1.112,0,0,0,0,2.224H45.6v4.652H7.617a12.323,12.323,0,0,0,1.417-5.764,12.325,12.325,0,0,0-1.417-5.764Zm40.206,6.876h7.542V58.441l-2.913-2.814a1.112,1.112,0,0,0-1.531-.013l-3.1,2.89V39.126ZM3.8,49.162A1.58,1.58,0,0,1,3.8,46H45.6v3.16ZM68.288,68.3H54.853a1.112,1.112,0,0,0,0,2.224H72.106c1.971,0,2.061,3.16,0,3.16H13.349a11.148,11.148,0,0,1,0-22.3H45.6v3.16H13.349a7.988,7.988,0,0,0,0,15.975H48.92a1.112,1.112,0,0,0,0-2.224H13.349a5.764,5.764,0,0,1,0-11.528H45.6v4.291a1.121,1.121,0,0,0,1.87.813l4.2-3.915,4.038,3.9a1.118,1.118,0,0,0,1.884-.8V56.77h10.7a12.436,12.436,0,0,0,0,11.528Zm3.819-16.912c1.971,0,2.061,3.16,0,3.16H57.59v-3.16H72.106Zm1.575-13.371A11.149,11.149,0,0,1,62.556,49.162H57.59V46h4.967a7.988,7.988,0,0,0,0-15.976H3.8a1.58,1.58,0,0,1,0-3.16H62.556A11.149,11.149,0,0,1,73.682,38.014Z" transform="translate(1424.378 130.986) rotate(12)" fill=" #3BA0E6" stroke=" #3BA0E6" stroke-width="0.8"/><g transform="translate(1712.307 157.982)"><g transform="translate(0 0)"><path d="M61.066,38.6a1.931,1.931,0,0,0,2.4-1.317,46.484,46.484,0,0,1,54.3-32.393,10.1,10.1,0,0,0,1.9,5.918c.215.34.507.8.541.868,0,6.935-1.418,8.064-1.4,8.068-3.135,0-8.279,2.8-10.213,6.411a6.178,6.178,0,0,0,.269,6.6,46.746,46.746,0,0,1,2.512,4.458c1.644,3.183,3.467,6.715,6.332,6.715a4.389,4.389,0,0,0,1.967-.512c2.255-1.127,3.872-4.334,5.434-7.432a24.635,24.635,0,0,1,2.3-4.005c1.963.267,2.922,2.042,4.22,4.854.955,2.069,1.944,4.206,3.885,5.177,3.268,1.634,14.015-.077,19.954-2.6a1.934,1.934,0,0,0,1.11-2.284,50.575,50.575,0,0,0-29.5-33.391,1.933,1.933,0,1,0-1.466,3.578,46.725,46.725,0,0,1,26.744,29.156c-6.018,2.121-13.742,2.76-15.117,2.081-.727-.364-1.458-1.944-2.1-3.338-1.348-2.92-3.195-6.92-7.91-7.128-2.437-.147-3.81,2.657-5.576,6.16-1.037,2.054-2.6,5.158-3.848,5.771-.718-.168-2.143-2.928-2.994-4.576a50.036,50.036,0,0,0-2.731-4.827A2.321,2.321,0,0,1,112,27.98c1.329-2.479,5.315-4.369,6.8-4.369,3.5,0,5.27-4.015,5.27-11.936a5.55,5.55,0,0,0-1.135-2.93,5.9,5.9,0,0,1-1.164-4.935,1.935,1.935,0,0,0-1.416-2.288A50.354,50.354,0,0,0,59.749,36.2,1.932,1.932,0,0,0,61.066,38.6Z" transform="translate(-50.016 0)" fill=" #3BA0E6"/><path d="M319.092,222.595c-.559.159-1.323.379-1.526.395-2.673,0-4.367,2.069-5.6,3.58-.472.576-1.325,1.611-1.868,1.627a6.058,6.058,0,0,0-2.731-.657,4.66,4.66,0,0,0-4.7,3.228c-.311,1.315.147,3.116,2.361,4.224,3.141,1.57,6.388,3.193,7.832,4.638a6.707,6.707,0,0,0,4.719,1.564c3.046,0,7.1-1.479,8.486-5.653a10.847,10.847,0,0,1,3.133-4.115c1.474-1.414,2.868-2.746,2.887-4.659a4.45,4.45,0,0,0-1.485-3.208,7.476,7.476,0,0,0-5.5-2.048A22.317,22.317,0,0,0,319.092,222.595Zm9.128,4.117a8.3,8.3,0,0,1-1.694,1.916,14.208,14.208,0,0,0-4.127,5.688c-.955,2.862-4.181,3.007-4.818,3.007a3.678,3.678,0,0,1-1.982-.429c-1.891-1.891-5.266-3.58-8.84-5.365l-.021-.01a2.157,2.157,0,0,1,1.628.135,4.233,4.233,0,0,0,1.9.472c2.141,0,3.493-1.651,4.684-3.108.872-1.062,1.772-2.162,2.611-2.162a10.305,10.305,0,0,0,2.588-.543,18.98,18.98,0,0,1,4.945-.938,3.73,3.73,0,0,1,2.767.915A3.3,3.3,0,0,1,328.22,226.712Z" transform="translate(-237.875 -171.307)" fill=" #3BA0E6"/><path d="M151.284,168.492a1.934,1.934,0,1,0-3.831.53,47.1,47.1,0,0,1,.443,6.428,46.466,46.466,0,0,1-45.857,46.41c-6.877-4.392-13.323-9.772-10.451-16.471,5.156-12.035.358-16.52-1.692-18.438l-.385-.366a9.147,9.147,0,0,0-1.83-1.332c-1.416-.849-1.8-1.077-1.037-3.357a7.262,7.262,0,0,1,1.944-3.038c1.789-1.891,3.156-3.773,3.156-9.242a7.289,7.289,0,0,0-4.431-6.966c-3.193-1.412-7.457-.913-9.712,1.133a4.374,4.374,0,0,0-1.3,4.777c1.379,4.129-1.772,10.1-7.658,14.512-1.559,1.168-2.023.632-2.3.313-1.727-1.99-1.593-7.651-.176-9.066a2.865,2.865,0,0,0,.754-3.243c-1.566-3.553-11.559-3.278-13.541-3.185a1.937,1.937,0,0,0-1.831,1.7,45.717,45.717,0,0,0-.35,5.864,50.166,50.166,0,0,0,38.182,48.814,1.933,1.933,0,1,0,.926-3.754,46.308,46.308,0,0,1-35.24-45.061c0-1.342.046-2.528.149-3.736a28.836,28.836,0,0,1,7.469.808c-2.218,3.464-1.975,10.273.737,13.4,1.944,2.24,4.763,2.332,7.544.246,7.43-5.572,10.965-12.965,9.006-18.829-.062-.191-.124-.371.232-.694,1.017-.924,3.607-1.315,5.545-.456a3.4,3.4,0,0,1,2.127,3.429c0,4.365-.88,5.3-2.1,6.585a11.018,11.018,0,0,0-2.8,4.473c-1.738,5.224,1.05,6.9,2.717,7.9a5.981,5.981,0,0,1,1.085.748c.141.141.3.292.478.456,1.7,1.59,4.866,4.551.779,14.087-4.634,10.813,7.314,18.351,12.416,21.571a1.951,1.951,0,0,0,1.033.3,50.34,50.34,0,0,0,50.282-50.282A50.9,50.9,0,0,0,151.284,168.492Z" transform="translate(-43.464 -125.169)" fill=" #3BA0E6"/><path d="M107.4,258.721a54.155,54.155,0,0,1-86.468-43.453,1.934,1.934,0,1,0-3.868,0,58.077,58.077,0,0,0,56.084,57.969v5.85a1.934,1.934,0,0,0,3.868,0v-5.879a57.446,57.446,0,0,0,32.695-11.385,1.934,1.934,0,0,0-2.311-3.1Z" transform="translate(-17.067 -164.986)" fill=" #3BA0E6"/><path d="M256.571,345.745c-2.414,0-5.245,2.777-6.277,5.27a4.384,4.384,0,0,0,.66,4.99,6.991,6.991,0,0,0,9.4,0c1.284-1.284,1.6-3.172.882-5.312a11.027,11.027,0,0,0-2.551-4.092A2.974,2.974,0,0,0,256.571,345.745Zm1.052,7.523a3.385,3.385,0,0,1-3.926.021,2.349,2.349,0,0,1,.487-1.414,6.429,6.429,0,0,1,2.12-2.154,7.106,7.106,0,0,1,1.267,2.193C257.785,352.554,257.8,353.088,257.623,353.268Z" transform="translate(-197.074 -267.388)" fill=" #3BA0E6"/></g></g><g transform="matrix(0.966, 0.259, -0.259, 0.966, 1579.611, 107.944)"><g transform="translate(0 0)"><path d="M116.943,267.8H95.227v-9.871A5.929,5.929,0,0,0,89.3,252H69.563a5.929,5.929,0,0,0-5.923,5.922V259.9H41.925A5.929,5.929,0,0,0,36,265.821v35.535a1.974,1.974,0,0,0,1.974,1.974h82.915a1.974,1.974,0,0,0,1.974-1.974V273.718A5.929,5.929,0,0,0,116.943,267.8ZM91.279,299.382H67.589v-4.936a1.974,1.974,0,1,0-3.948,0v4.936H39.95V265.821a1.976,1.976,0,0,1,1.974-1.974H63.64v12.832a1.974,1.974,0,1,0,3.948,0V257.924a1.976,1.976,0,0,1,1.974-1.974H89.3a1.976,1.976,0,0,1,1.974,1.974Zm27.638,0H95.227V271.744h21.716a1.976,1.976,0,0,1,1.974,1.974Z" transform="translate(-36.002 -202.253)" fill=" #3BA0E6"/><path d="M376.864,377.926a5.9,5.9,0,0,0-10.39-3.851,1.974,1.974,0,0,0,3,2.564,1.964,1.964,0,1,1,2.848,2.7,1.974,1.974,0,0,0,.275,3.039,2.966,2.966,0,0,1-1.64,5.419,2.9,2.9,0,0,1-1.78-.605,1.974,1.974,0,1,0-2.408,3.129,6.81,6.81,0,0,0,4.188,1.425,6.915,6.915,0,0,0,5.337-11.277A5.915,5.915,0,0,0,376.864,377.926Z" transform="translate(-300.854 -298.563)" fill=" #3BA0E6"/><path d="M95.873,347.782H91.116c.435-.4.98-.828,1.616-1.319,2.258-1.742,5.067-3.91,5.115-7.994a6.326,6.326,0,0,0-4.665-6.3,5.744,5.744,0,0,0-6.606,3.084,1.974,1.974,0,0,0,3.488,1.85A1.8,1.8,0,0,1,92.207,336a2.358,2.358,0,0,1,1.693,2.427c-.024,2.026-1.368,3.208-3.579,4.914C88.3,344.9,86,346.668,86,349.756a1.974,1.974,0,0,0,1.974,1.974h7.9a1.974,1.974,0,1,0,0-3.948Z" transform="translate(-76.132 -266.445)" fill=" #3BA0E6"/><path d="M241.265,307.8h-.215V293.977a1.974,1.974,0,0,0-2.961-1.71l-2.189,1.264a1.974,1.974,0,0,0,1.2,3.673V307.8h-.215a1.974,1.974,0,0,0,0,3.948h4.378a1.974,1.974,0,0,0,0-3.948Z" transform="translate(-195.645 -234.357)" fill=" #3BA0E6"/><path d="M161.043,45.087l-.99,7.546a5.068,5.068,0,0,0,.427,3.191,5.116,5.116,0,0,0,6.838,2.36l6.939-3.378,7.13,3.4a5.115,5.115,0,0,0,7.263-5.321l-1.069-7.652,5.268-5.556a5.115,5.115,0,0,0-2.656-8.73l-7.6-1.347-3.77-6.935h0a5.106,5.106,0,0,0-8.989.04L166.2,29.514l-7.639,1.419a5.109,5.109,0,0,0-2.88,8.59Zm-2.488-9.943a1.151,1.151,0,0,1,.629-.311l.067-.011,8.6-1.6a1.974,1.974,0,0,0,1.382-1.013l4.077-7.654a1.158,1.158,0,0,1,2.037-.01l4.224,7.769a1.974,1.974,0,0,0,1.39,1l8.546,1.514a1.167,1.167,0,0,1,.6,2q-.044.041-.086.085L184.062,43.2a1.974,1.974,0,0,0-.523,1.631l1.2,8.591a1.17,1.17,0,0,1-1.653,1.214l-7.99-3.806a1.974,1.974,0,0,0-1.713.007l-7.794,3.794a1.168,1.168,0,0,1-1.56-.538,1.155,1.155,0,0,1-.094-.744q.014-.07.024-.142l1.122-8.551a1.974,1.974,0,0,0-.536-1.627l-6.022-6.246a1.161,1.161,0,0,1,.032-1.641Z" transform="translate(-130.906 -16.046)" fill=" #3BA0E6"/><path d="M95.488,3.684l7.793,4.5a1.974,1.974,0,1,0,1.974-3.419L97.462.265a1.974,1.974,0,0,0-1.974,3.419Z" transform="translate(-82.952 0)" fill=" #3BA0E6"/><path d="M62.628,117.227a2.025,2.025,0,0,0,.287-.021l8.9-1.3A1.974,1.974,0,1,0,71.251,112l-8.9,1.3a1.974,1.974,0,0,0,.282,3.928Z" transform="translate(-55.789 -89.876)" fill=" #3BA0E6"/><path d="M111.136,197.046l-6.363,6.363a1.974,1.974,0,1,0,2.792,2.792l6.363-6.363a1.974,1.974,0,1,0-2.792-2.792Z" transform="translate(-90.733 -157.682)" fill=" #3BA0E6"/><path d="M360,8.448a1.966,1.966,0,0,0,.985-.265l7.793-4.5A1.974,1.974,0,0,0,366.807.265l-7.793,4.5A1.974,1.974,0,0,0,360,8.448Z" transform="translate(-294.454 0)" fill=" #3BA0E6"/><path d="M386.26,113.672a1.974,1.974,0,0,0,1.669,2.238l8.9,1.3a1.974,1.974,0,0,0,.569-3.907l-8.9-1.3A1.975,1.975,0,0,0,386.26,113.672Z" transform="translate(-317.097 -89.875)" fill=" #3BA0E6"/><path d="M356.156,197.046a1.974,1.974,0,0,0,0,2.792l6.363,6.363a1.974,1.974,0,0,0,2.792-2.792l-6.363-6.363A1.974,1.974,0,0,0,356.156,197.046Z" transform="translate(-292.489 -157.682)" fill=" #3BA0E6"/><path d="M177.976,412a1.974,1.974,0,1,0,1.974,1.975h0A1.974,1.974,0,0,0,177.976,412Z" transform="translate(-148.364 -330.664)" fill=" #3BA0E6"/></g></g><g transform="translate(1663.745 632.768)"><path d="M115.854,335.848a5.4,5.4,0,1,0,5.4,5.4A5.409,5.409,0,0,0,115.854,335.848Zm0,7.334a1.932,1.932,0,1,1,1.932-1.932A1.934,1.934,0,0,1,115.854,343.182Z" transform="translate(-85 -258.141)" fill=" #3BA0E6"/><path d="M114.184,38.221a8.448,8.448,0,1,0-8.448,8.448A8.458,8.458,0,0,0,114.184,38.221Zm-13.426,0a4.978,4.978,0,1,1,4.978,4.978A4.983,4.983,0,0,1,100.758,38.221Z" transform="translate(-74.882 -22.884)" fill=" #3BA0E6"/><path d="M268.069,135.79a5.4,5.4,0,1,0,5.4,5.4A5.409,5.409,0,0,0,268.069,135.79Zm0,7.334A1.932,1.932,0,1,1,270,141.192,1.934,1.934,0,0,1,268.069,143.124Z" transform="translate(-201.996 -104.372)" fill=" #3BA0E6"/><path d="M117.43,67.891,106.257,56.72V48.9a4.313,4.313,0,0,0,3.645-4.253,1.735,1.735,0,1,0-3.471,0,.84.84,0,0,1-.839.839H94.809a.84.84,0,0,1-.839-.839V34.522l4.179-1.935a4.875,4.875,0,0,1,4.1,0l2.092.969a3.609,3.609,0,0,1,2.086,3.265,1.735,1.735,0,1,0,3.471,0,7.091,7.091,0,0,0-4.1-6.414l-2.092-.969a8.342,8.342,0,0,0-7.02,0l-4.753,2.2L76.487,30.056a12.043,12.043,0,0,0-21.794,4.492L41,27.211a15.341,15.341,0,0,0,5.454-9.481l8.764,6.11A1.735,1.735,0,0,0,57.2,20.993L46.535,13.556A15.335,15.335,0,1,0,23.168,28.329L20.005,73.885a15.277,15.277,0,0,0-4.038,10.358V96.109a7.994,7.994,0,0,0-8.084,6.112c-2.661-.066-5.2.942-5.856,3.822L.57,112.471a4.958,4.958,0,0,0,4.786,5.994H44.243a1.735,1.735,0,0,0,0-3.471H5.356a1.451,1.451,0,0,1-1.4-1.755l1.459-6.427a1.429,1.429,0,0,1,1.4-1.119H55.8a1.43,1.43,0,0,1,1.4,1.119l1.458,6.427a1.451,1.451,0,0,1-1.4,1.755h-4.6a1.735,1.735,0,1,0,0,3.471h4.6a4.957,4.957,0,0,0,4.786-5.994l-1.458-6.427c-.653-2.88-3.195-3.888-5.856-3.822a7.992,7.992,0,0,0-8.084-6.112V84.243A15.278,15.278,0,0,0,42.6,73.885L39.586,30.391l15,8.037a12.042,12.042,0,0,0,21.9,5.158L90.5,42.151v2.5A4.312,4.312,0,0,0,94.144,48.9V56.72L82.972,67.891a4.508,4.508,0,0,0,0,6.3,33.127,33.127,0,0,0,8.459,5.658c3.854,2.016,7.649-3.162,4.556-6.229l-2.607-2.585,5.41-5.409a2,2,0,0,1,2.826,0l5.459,5.459-2.767,2.98c-2.961,3.19,1.052,8.24,4.835,6.031a37.275,37.275,0,0,0,7.916-5.531A4.583,4.583,0,0,0,117.43,67.891ZM19.438,15.337A11.867,11.867,0,1,1,31.3,27.2,11.88,11.88,0,0,1,19.438,15.337ZM31.3,30.674a15.275,15.275,0,0,0,4.769-.763l2.847,41.027a15.282,15.282,0,0,0-15.232,0l2.848-41.027a15.276,15.276,0,0,0,4.768.762Zm19.787,71.547H11.518a4.383,4.383,0,0,1,4.018-2.641H47.074a4.383,4.383,0,0,1,4.018,2.641Zm-7.92-6.112H19.438V84.243a11.867,11.867,0,1,1,23.733,0V96.109ZM66.524,45.4A8.577,8.577,0,1,1,75.1,36.821,8.587,8.587,0,0,1,66.524,45.4Zm11.64-5.473a12.03,12.03,0,0,0,0-6.209L90.5,34.98v3.682Zm24.622,9.035V55.7H97.615V48.961Zm12.19,22.778A34.891,34.891,0,0,1,107.39,77.1c-.484.283-.819-.373-.54-.673l3.9-4.205a1.735,1.735,0,0,0-.045-2.408l-6.641-6.641a5.475,5.475,0,0,0-7.733,0l-6.643,6.641a1.752,1.752,0,0,0,.005,2.46l3.845,3.812c.295.292-.023.941-.5.689a29.7,29.7,0,0,1-7.613-5.036.994.994,0,0,1,0-1.394L96.6,59.174h7.2l11.173,11.171a.994.994,0,0,1,0,1.394Z" transform="translate(-0.451 0)" fill=" #3BA0E6"/></g><g transform="matrix(0.966, -0.259, 0.259, 0.966, 1250.921, 107.457)"><path d="M386.873,271.37a9.324,9.324,0,0,0,6.614-2.735,1.389,1.389,0,1,0-1.965-1.965,6.583,6.583,0,0,1-9.3,0,1.389,1.389,0,1,0-1.965,1.965A9.324,9.324,0,0,0,386.873,271.37Z" transform="translate(-309.489 -217.377)" fill=" #3BA0E6" stroke=" #3BA0E6" stroke-width="1"/><path d="M283.773,324.216a15.453,15.453,0,0,0-15.436,15.436v.038a2.166,2.166,0,0,0,4.1.961,12.657,12.657,0,0,1,22.668,0,2.149,2.149,0,0,0,1.928,1.195,2.2,2.2,0,0,0,.5-.058,2.156,2.156,0,0,0,1.674-2.1v-.034a15.453,15.453,0,0,0-15.436-15.436Zm0,6.632a15.337,15.337,0,0,0-12.394,6.229,12.659,12.659,0,0,1,24.788,0A15.336,15.336,0,0,0,283.773,330.848Z" transform="translate(-218.631 -264.594)" fill=" #3BA0E6" stroke=" #3BA0E6" stroke-width="1"/><path d="M58.818,117.5a6.583,6.583,0,0,1,9.3,0,1.389,1.389,0,0,0,1.965-1.965,9.364,9.364,0,0,0-13.228,0,1.389,1.389,0,0,0,1.965,1.965Z" transform="translate(-45.99 -92.345)" fill=" #3BA0E6" stroke=" #3BA0E6" stroke-width="1"/><path d="M202.259,115.54a9.365,9.365,0,0,0-13.228,0,1.389,1.389,0,1,0,1.965,1.965,6.576,6.576,0,0,1,9.3,0,1.389,1.389,0,0,0,1.965-1.965Z" transform="translate(-153.683 -92.345)" fill=" #3BA0E6" stroke=" #3BA0E6" stroke-width="1"/><path d="M80.949,214.376A18.092,18.092,0,0,0,99.021,196.3v-.025l-1.389,0,1.389-.024a2.312,2.312,0,0,0-4.378-1.026,15.293,15.293,0,0,1-27.389,0,2.312,2.312,0,0,0-4.378,1.029v.041a18.092,18.092,0,0,0,18.072,18.072Zm0-7.877a17.959,17.959,0,0,0,15.17-8.248,15.294,15.294,0,0,1-30.34,0A17.96,17.96,0,0,0,80.949,206.5Z" transform="translate(-51.23 -158.467)" fill=" #3BA0E6" stroke=" #3BA0E6" stroke-width="1"/><path d="M6.572,9.458A2.092,2.092,0,0,1,7.911,8.27a77.312,77.312,0,0,1,43.616,0,2.093,2.093,0,0,1,1.339,1.188A47.193,47.193,0,0,1,54.809,14.9a1.389,1.389,0,1,0,2.669-.772,50.015,50.015,0,0,0-2.058-5.759A4.862,4.862,0,0,0,52.309,5.6a80.086,80.086,0,0,0-45.181,0,4.862,4.862,0,0,0-3.11,2.76,49.515,49.515,0,0,0,1.366,42A1.389,1.389,0,1,0,7.862,49.1,46.745,46.745,0,0,1,6.572,9.458Z" transform="translate(0.001 -2.352)" fill=" #3BA0E6" stroke=" #3BA0E6" stroke-width="1"/><path d="M127.273,106.929a4.862,4.862,0,0,0-3.111-2.76,80.449,80.449,0,0,0-14.044-2.789,1.389,1.389,0,1,0-.3,2.763,77.646,77.646,0,0,1,13.557,2.693,2.093,2.093,0,0,1,1.339,1.188,46.841,46.841,0,0,1-12.833,54.223,15.941,15.941,0,0,1-20.627,0,46.6,46.6,0,0,1-14.742-22.674,19.034,19.034,0,0,0,1.74-1.3,49.668,49.668,0,0,0,8.821-9.73,9.358,9.358,0,0,0,8.868-2.463,1.389,1.389,0,0,0-1.965-1.965,6.591,6.591,0,0,1-5.264,1.894,49.5,49.5,0,0,0,7.01-22.082,77.913,77.913,0,0,1,8-.192,1.389,1.389,0,1,0,.077-2.778c-2.641-.074-5.31-.014-7.954.175a49.447,49.447,0,0,0-.623-8.667,1.389,1.389,0,1,0-2.743.443,46.849,46.849,0,0,1-16.021,43.243,16.165,16.165,0,0,1-2.274,1.606l-.048.029a15.936,15.936,0,0,1-18.305-1.635,46.839,46.839,0,0,1-8.583-9.549,1.389,1.389,0,1,0-2.3,1.556,49.615,49.615,0,0,0,9.092,10.115,18.705,18.705,0,0,0,19.991,2.7,49.362,49.362,0,0,0,15.432,23.4,18.712,18.712,0,0,0,24.213,0,49.619,49.619,0,0,0,13.594-57.44Z" transform="translate(-36.43 -74.818)" fill=" #3BA0E6" stroke=" #3BA0E6" stroke-width="1"/></g><g transform="translate(1672 802.4)"><path d="M116.3,32H17.7A1.7,1.7,0,0,0,16,33.7V98.3a1.7,1.7,0,0,0,1.7,1.7H47.823l-6.272,25.088A1.7,1.7,0,0,0,43.2,127.2H53.4a1.7,1.7,0,0,0,1.649-1.288L61.527,100H72.473l6.478,25.912A1.7,1.7,0,0,0,80.6,127.2H90.8a1.7,1.7,0,0,0,1.649-2.112L86.177,100h9.1l.508,15.244a5.2,5.2,0,0,0,5.1,5.156h.238a5.2,5.2,0,0,0,5.1-5.156L106.724,100H116.3a1.7,1.7,0,0,0,1.7-1.7V33.7A1.7,1.7,0,0,0,116.3,32Zm-1.7,3.4V76.028l-3.4-2.762V67.7a1.7,1.7,0,0,0-1.7-1.7h-1.921a9.9,9.9,0,0,0,1.921-5.917V50.854c0-5.177-3.154-8.654-7.848-8.654H89.1a1.7,1.7,0,1,0,0,3.4,3.4,3.4,0,0,1,2.542.856,3.783,3.783,0,0,1,.861,2.451q0,.047,0,.093v9.072l-2.328-1.891a1.7,1.7,0,0,0-2.135-.008l-29.125,23.3L37.436,62.953a1.7,1.7,0,0,0-1.85-.145L19.4,71.636V35.4ZM94.2,76.2V69.4h13.6v6.8Zm2.211-13.594c.125,0,.251.007.379.007,2.849,0,6.2-1.056,7.517-4.89a13.355,13.355,0,0,1,1.792-3.532v5.892c0,2.846-1.95,5.917-5.1,5.917A5.035,5.035,0,0,1,96.411,62.606ZM95.146,45.6h6.506c3.094,0,4.06,2.183,4.341,3.907a14.432,14.432,0,0,0-4.9,7.11,3.6,3.6,0,0,1-3.414,2.539,8.367,8.367,0,0,1-1.778-.007V49.036a7.516,7.516,0,0,0-.754-3.436ZM19.4,75.509l16.841-9.186L56.179,81.66,37.5,96.6H19.4ZM52.073,123.8h-6.7l5.95-23.8h6.7Zm36.55,0h-6.7L75.977,100h6.7ZM42.946,96.6,89.092,59.684l3.77,3.063A9.665,9.665,0,0,0,94.448,66H92.5a1.7,1.7,0,0,0-1.7,1.7V77.9a1.7,1.7,0,0,0,1.7,1.7h2.1l.567,17ZM101.119,117h-.238a1.819,1.819,0,0,1-1.7-1.87L98,79.6h6l-1.184,35.53A1.817,1.817,0,0,1,101.119,117Zm5.718-20.4.567-17h2.1a1.7,1.7,0,0,0,1.7-1.7v-.253l3.4,2.762V96.6Z" fill=" #3BA0E6"/><path d="M178.2,100.4A10.2,10.2,0,1,0,168,90.2a10.2,10.2,0,0,0,10.2,10.2Zm0-17a6.8,6.8,0,1,1-6.8,6.8A6.8,6.8,0,0,1,178.2,83.4Z" transform="translate(-119.7 -37.8)" fill=" #3BA0E6"/></g></g></svg>