<svg id="earth-globe" xmlns="http://www.w3.org/2000/svg" width="108.3" height="116.035" viewBox="0 0 108.3 116.035">
  <g id="Grupo_20" data-name="Grupo 20" transform="translate(0 0)">
    <g id="Grupo_19" data-name="Grupo 19">
      <path id="Caminho_46" data-name="Caminho 46" d="M61.066,38.6a1.931,1.931,0,0,0,2.4-1.317,46.484,46.484,0,0,1,54.3-32.393,10.1,10.1,0,0,0,1.9,5.918c.215.34.507.8.541.868,0,6.935-1.418,8.064-1.4,8.068-3.135,0-8.279,2.8-10.213,6.411a6.178,6.178,0,0,0,.269,6.6,46.746,46.746,0,0,1,2.512,4.458c1.644,3.183,3.467,6.715,6.332,6.715a4.389,4.389,0,0,0,1.967-.512c2.255-1.127,3.872-4.334,5.434-7.432a24.635,24.635,0,0,1,2.3-4.005c1.963.267,2.922,2.042,4.22,4.854.955,2.069,1.944,4.206,3.885,5.177,3.268,1.634,14.015-.077,19.954-2.6a1.934,1.934,0,0,0,1.11-2.284,50.575,50.575,0,0,0-29.5-33.391,1.933,1.933,0,1,0-1.466,3.578,46.725,46.725,0,0,1,26.744,29.156c-6.018,2.121-13.742,2.76-15.117,2.081-.727-.364-1.458-1.944-2.1-3.338-1.348-2.92-3.195-6.92-7.91-7.128-2.437-.147-3.81,2.657-5.576,6.16-1.037,2.054-2.6,5.158-3.848,5.771-.718-.168-2.143-2.928-2.994-4.576a50.036,50.036,0,0,0-2.731-4.827A2.321,2.321,0,0,1,112,27.98c1.329-2.479,5.315-4.369,6.8-4.369,3.5,0,5.27-4.015,5.27-11.936a5.55,5.55,0,0,0-1.135-2.93,5.9,5.9,0,0,1-1.164-4.935,1.935,1.935,0,0,0-1.416-2.288A50.354,50.354,0,0,0,59.749,36.2,1.932,1.932,0,0,0,61.066,38.6Z" transform="translate(-50.016 0)" fill="#fff"/>
      <path id="Caminho_47" data-name="Caminho 47" d="M319.092,222.595c-.559.159-1.323.379-1.526.395-2.673,0-4.367,2.069-5.6,3.58-.472.576-1.325,1.611-1.868,1.627a6.058,6.058,0,0,0-2.731-.657,4.66,4.66,0,0,0-4.7,3.228c-.311,1.315.147,3.116,2.361,4.224,3.141,1.57,6.388,3.193,7.832,4.638a6.707,6.707,0,0,0,4.719,1.564c3.046,0,7.1-1.479,8.486-5.653a10.847,10.847,0,0,1,3.133-4.115c1.474-1.414,2.868-2.746,2.887-4.659a4.45,4.45,0,0,0-1.485-3.208,7.476,7.476,0,0,0-5.5-2.048A22.317,22.317,0,0,0,319.092,222.595Zm9.128,4.117a8.3,8.3,0,0,1-1.694,1.916,14.208,14.208,0,0,0-4.127,5.688c-.955,2.862-4.181,3.007-4.818,3.007a3.678,3.678,0,0,1-1.982-.429c-1.891-1.891-5.266-3.58-8.84-5.365l-.021-.01a2.157,2.157,0,0,1,1.628.135,4.233,4.233,0,0,0,1.9.472c2.141,0,3.493-1.651,4.684-3.108.872-1.062,1.772-2.162,2.611-2.162a10.305,10.305,0,0,0,2.588-.543,18.98,18.98,0,0,1,4.945-.938,3.73,3.73,0,0,1,2.767.915A3.3,3.3,0,0,1,328.22,226.712Z" transform="translate(-237.875 -171.307)" fill="#fff"/>
      <path id="Caminho_48" data-name="Caminho 48" d="M151.284,168.492a1.934,1.934,0,1,0-3.831.53,47.1,47.1,0,0,1,.443,6.428,46.466,46.466,0,0,1-45.857,46.41c-6.877-4.392-13.323-9.772-10.451-16.471,5.156-12.035.358-16.52-1.692-18.438l-.385-.366a9.147,9.147,0,0,0-1.83-1.332c-1.416-.849-1.8-1.077-1.037-3.357a7.262,7.262,0,0,1,1.944-3.038c1.789-1.891,3.156-3.773,3.156-9.242a7.289,7.289,0,0,0-4.431-6.966c-3.193-1.412-7.457-.913-9.712,1.133a4.374,4.374,0,0,0-1.3,4.777c1.379,4.129-1.772,10.1-7.658,14.512-1.559,1.168-2.023.632-2.3.313-1.727-1.99-1.593-7.651-.176-9.066a2.865,2.865,0,0,0,.754-3.243c-1.566-3.553-11.559-3.278-13.541-3.185a1.937,1.937,0,0,0-1.831,1.7,45.717,45.717,0,0,0-.35,5.864,50.166,50.166,0,0,0,38.182,48.814,1.933,1.933,0,1,0,.926-3.754,46.308,46.308,0,0,1-35.24-45.061c0-1.342.046-2.528.149-3.736a28.836,28.836,0,0,1,7.469.808c-2.218,3.464-1.975,10.273.737,13.4,1.944,2.24,4.763,2.332,7.544.246,7.43-5.572,10.965-12.965,9.006-18.829-.062-.191-.124-.371.232-.694,1.017-.924,3.607-1.315,5.545-.456a3.4,3.4,0,0,1,2.127,3.429c0,4.365-.88,5.3-2.1,6.585a11.018,11.018,0,0,0-2.8,4.473c-1.738,5.224,1.05,6.9,2.717,7.9a5.981,5.981,0,0,1,1.085.748c.141.141.3.292.478.456,1.7,1.59,4.866,4.551.779,14.087-4.634,10.813,7.314,18.351,12.416,21.571a1.951,1.951,0,0,0,1.033.3,50.34,50.34,0,0,0,50.282-50.282A50.9,50.9,0,0,0,151.284,168.492Z" transform="translate(-43.464 -125.169)" fill="#fff"/>
      <path id="Caminho_49" data-name="Caminho 49" d="M107.4,258.721a54.155,54.155,0,0,1-86.468-43.453,1.934,1.934,0,1,0-3.868,0,58.077,58.077,0,0,0,56.084,57.969v5.85a1.934,1.934,0,0,0,3.868,0v-5.879a57.446,57.446,0,0,0,32.695-11.385,1.934,1.934,0,0,0-2.311-3.1Z" transform="translate(-17.067 -164.986)" fill="#fff"/>
      <path id="Caminho_50" data-name="Caminho 50" d="M256.571,345.745c-2.414,0-5.245,2.777-6.277,5.27a4.384,4.384,0,0,0,.66,4.99,6.991,6.991,0,0,0,9.4,0c1.284-1.284,1.6-3.172.882-5.312a11.027,11.027,0,0,0-2.551-4.092A2.974,2.974,0,0,0,256.571,345.745Zm1.052,7.523a3.385,3.385,0,0,1-3.926.021,2.349,2.349,0,0,1,.487-1.414,6.429,6.429,0,0,1,2.12-2.154,7.106,7.106,0,0,1,1.267,2.193C257.785,352.554,257.8,353.088,257.623,353.268Z" transform="translate(-197.074 -267.388)" fill="#fff"/>
    </g>
  </g>
</svg>
