<svg xmlns="http://www.w3.org/2000/svg" width="110.901" height="117.943" viewBox="0 0 110.901 117.943">
  <path id="ferramenta-grafica" d="M55.109,62.276H53.384a1.673,1.673,0,0,0-1.66,1.887l5.94,46.035a8.387,8.387,0,0,0,8.3,7.294h38.427a8.387,8.387,0,0,0,8.3-7.3l5.94-46.035a1.673,1.673,0,0,0-1.66-1.886h-1.16l7.335-17.712,4.175-3.094a8.333,8.333,0,0,0,3.271-8.1l-1.93-11.527a1.673,1.673,0,0,0-2.622-1.086l-9.515,6.786a8.335,8.335,0,0,0-3.416,8.044l.764,5.137-8.927,21.554h-3.1V49.009L103.5,37.414a1.673,1.673,0,0,0-.264-1.165L96.542,26.21a1.673,1.673,0,0,0-2.784,0L87.065,36.249a1.673,1.673,0,0,0-.264,1.165l1.656,11.595V62.276H85.176V53.91h0a1.667,1.667,0,0,0-.141-.68L78.338,38.171a1.673,1.673,0,0,0-3.058,0L70.92,47.983,58.676,18.423a1.673,1.673,0,0,0-2.186-.905l-15.459,6.4a1.673,1.673,0,0,0-.905,2.186ZM71.79,57.949l.49.49a1.673,1.673,0,0,0,1.932.314l.925-.463v3.986H71.79Zm43.274,7.673-1.3,10.039H56.582l-1.3-10.039Zm-5.7,44.146a5.031,5.031,0,0,1-4.979,4.377H65.962a5.031,5.031,0,0,1-4.978-4.377l-3.97-30.761h56.322Zm6.379-56.093L112.654,52.4l3.842-9.275,3.091,1.281Zm2.717-23.41,7.335-5.231,1.488,8.885a5,5,0,0,1-1.962,4.862l-3.786,2.805-4.432-1.837-.693-4.658a5,5,0,0,1,2.05-4.826Zm-7.09,25.222,3.092,1.281-2.281,5.508h-3.623ZM98.5,50.564V53.91H91.8V50.564Zm-5.02-17.9v6.186a1.673,1.673,0,1,0,3.346,0V32.664l3.273,4.911-1.378,9.642H91.582L90.2,37.575ZM91.8,57.256H98.5v5.02H91.8Zm-13.321,5.02V58.291l.925.462a1.673,1.673,0,0,0,1.932-.314l.49-.49v4.327Zm1.343-7.056-2.268-1.134a1.674,1.674,0,0,0-1.5,0l-2.268,1.134-1.681-1.681,1.323-2.976h6.749l1.323,2.976ZM76.809,42.971,78.7,47.217H74.922ZM56.224,21.249,69.046,52.2l-.457,1.029a1.666,1.666,0,0,0-.141.68h0v8.366H62.111l1.752-.726a1.673,1.673,0,1,0-1.28-3.092l-4.638,1.919-1.28-3.091,1.545-.639a1.673,1.673,0,1,0-1.28-3.092l-1.545.64L54.1,51.1l4.638-1.921a1.673,1.673,0,1,0-1.28-3.092l-4.638,1.92-1.281-3.092,1.545-.64a1.673,1.673,0,1,0-1.28-3.092l-1.546.641L48.98,38.736l4.638-1.921a1.673,1.673,0,1,0-1.282-3.091L47.7,35.645l-1.28-3.091,1.546-.641a1.673,1.673,0,1,0-1.28-3.092l-1.547.64-1.28-3.091Z" transform="translate(-42.884 12.459) rotate(-13)" fill="#fff"/>
</svg>
