<svg xmlns="http://www.w3.org/2000/svg" width="122.537" height="119.193" viewBox="0 0 122.537 119.193">
  <g id="Grupo_18" data-name="Grupo 18" transform="translate(-772.85 -12.884)">
    <path id="Caminho_23" data-name="Caminho 23" d="M803.583,30.178a9.312,9.312,0,1,1-12.724-3.4A9.311,9.311,0,0,1,803.583,30.178Z" transform="translate(37.681 35.662)" fill="#fff"/>
    <g id="Grupo_15" data-name="Grupo 15" transform="translate(787.654 22.675)">
      <path id="Caminho_24" data-name="Caminho 24" d="M810.449,48.91c-9.56,10.913-46.216,43.549-29.346,60.736,12.06,12.3,38.276-17.776,45.2-24.971a265.082,265.082,0,0,0,27.955-34.589c5.476-8.051,13.89-19.228,12.549-29.514-1-7.638-11.268-4.918-15.785-3.309C835.091,22.941,821.4,36.522,810.449,48.91c-1.349,1.521,1.066,3.535,2.4,2.021a139.262,139.262,0,0,1,29.961-26A44.028,44.028,0,0,1,857.7,18.612c10.691-2.082,4.039,12.289,2.2,16.007C851.1,52.383,837.4,68.325,823.9,82.65c-5.69,6.045-29.411,32.957-40.053,25.342-10.913-7.81,4.754-28.735,9.637-35.1,5.957-7.742,12.942-14.631,19.365-21.964C814.2,49.4,811.782,47.385,810.449,48.91Z" transform="translate(-776.724 -15.447)" fill="#fff"/>
    </g>
    <g id="Grupo_16" data-name="Grupo 16" transform="translate(772.85 45.763)">
      <path id="Caminho_25" data-name="Caminho 25" d="M840.553,29.426c-14.207-2.923-60.69-18.662-67.308,4.494-4.727,16.564,34.371,24.493,44.05,26.965A265.2,265.2,0,0,0,861.176,68.1c9.709.787,23.584,2.575,31.86-3.672,6.148-4.643-1.291-12.228-4.918-15.357-12.812-11.047-31.386-16.247-47.565-19.648-1.979-.413-2.545,2.671-.569,3.1a139,139,0,0,1,37.408,13.2,44.044,44.044,0,0,1,12.843,9.824c7.1,8.261-8.682,9.576-12.828,9.813-19.789,1.135-40.42-2.908-59.544-7.562-8.062-1.96-43.182-9.285-41.811-22.3,1.4-13.347,27.321-10.061,35.265-8.957,9.679,1.349,19.113,4.02,28.666,5.988C841.978,32.93,842.54,29.839,840.553,29.426Z" transform="translate(-772.85 -21.489)" fill="#fff"/>
    </g>
    <g id="Grupo_17" data-name="Grupo 17" transform="translate(805.047 12.884)">
      <path id="Caminho_26" data-name="Caminho 26" d="M828.3,68.561c-4.921-13.645-15.728-61.52-38.933-55.085-16.6,4.6-2.984,42.1-.038,51.646a264.592,264.592,0,0,0,16.725,41.2c4.39,8.693,10.088,21.467,19.747,25.269,7.161,2.828,9.755-7.47,10.535-12.2,2.747-16.691-2.507-35.25-8.036-50.828-.688-1.911-3.615-.776-2.935,1.131a139.767,139.767,0,0,1,8.25,38.8,44.205,44.205,0,0,1-1.693,16.079c-3.355,10.363-12.705-2.415-15.067-5.835-11.28-16.286-18.593-36-24.6-54.749-2.537-7.9-14.593-41.681-2.774-47.305,12.117-5.766,22.831,18.066,26.033,25.422,3.9,8.964,6.534,18.41,9.847,27.585C826.045,71.606,828.983,70.471,828.3,68.561Z" transform="translate(-781.276 -12.884)" fill="#fff"/>
    </g>
    <path id="Caminho_27" data-name="Caminho 27" d="M805.049,34.7a4.526,4.526,0,1,1-6.187-1.658A4.526,4.526,0,0,1,805.049,34.7Z" transform="translate(67.013 55.151)" fill="#fff"/>
    <path id="Caminho_28" data-name="Caminho 28" d="M788.336,41.035a4.525,4.525,0,1,1-6.182-1.655A4.524,4.524,0,0,1,788.336,41.035Z" transform="translate(19.867 73.035)" fill="#fff"/>
    <path id="Caminho_29" data-name="Caminho 29" d="M789.172,17.55a4.524,4.524,0,1,1-6.187-1.651A4.525,4.525,0,0,1,789.172,17.55Z" transform="translate(22.226 6.786)" fill="#fff"/>
  </g>
</svg>
