<svg id="industrial-robot" xmlns="http://www.w3.org/2000/svg" width="118.255" height="118.464" viewBox="0 0 118.255 118.464">
  <path id="Caminho_51" data-name="Caminho 51" d="M115.854,335.848a5.4,5.4,0,1,0,5.4,5.4A5.409,5.409,0,0,0,115.854,335.848Zm0,7.334a1.932,1.932,0,1,1,1.932-1.932A1.934,1.934,0,0,1,115.854,343.182Z" transform="translate(-85 -258.141)" fill="#fff"/>
  <path id="Caminho_52" data-name="Caminho 52" d="M114.184,38.221a8.448,8.448,0,1,0-8.448,8.448A8.458,8.458,0,0,0,114.184,38.221Zm-13.426,0a4.978,4.978,0,1,1,4.978,4.978A4.983,4.983,0,0,1,100.758,38.221Z" transform="translate(-74.882 -22.884)" fill="#fff"/>
  <path id="Caminho_53" data-name="Caminho 53" d="M268.069,135.79a5.4,5.4,0,1,0,5.4,5.4A5.409,5.409,0,0,0,268.069,135.79Zm0,7.334A1.932,1.932,0,1,1,270,141.192,1.934,1.934,0,0,1,268.069,143.124Z" transform="translate(-201.996 -104.372)" fill="#fff"/>
  <path id="Caminho_54" data-name="Caminho 54" d="M117.43,67.891,106.257,56.72V48.9a4.313,4.313,0,0,0,3.645-4.253,1.735,1.735,0,1,0-3.471,0,.84.84,0,0,1-.839.839H94.809a.84.84,0,0,1-.839-.839V34.522l4.179-1.935a4.875,4.875,0,0,1,4.1,0l2.092.969a3.609,3.609,0,0,1,2.086,3.265,1.735,1.735,0,1,0,3.471,0,7.091,7.091,0,0,0-4.1-6.414l-2.092-.969a8.342,8.342,0,0,0-7.02,0l-4.753,2.2L76.487,30.056a12.043,12.043,0,0,0-21.794,4.492L41,27.211a15.341,15.341,0,0,0,5.454-9.481l8.764,6.11A1.735,1.735,0,0,0,57.2,20.993L46.535,13.556A15.335,15.335,0,1,0,23.168,28.329L20.005,73.885a15.277,15.277,0,0,0-4.038,10.358V96.109a7.994,7.994,0,0,0-8.084,6.112c-2.661-.066-5.2.942-5.856,3.822L.57,112.471a4.958,4.958,0,0,0,4.786,5.994H44.243a1.735,1.735,0,0,0,0-3.471H5.356a1.451,1.451,0,0,1-1.4-1.755l1.459-6.427a1.429,1.429,0,0,1,1.4-1.119H55.8a1.43,1.43,0,0,1,1.4,1.119l1.458,6.427a1.451,1.451,0,0,1-1.4,1.755h-4.6a1.735,1.735,0,1,0,0,3.471h4.6a4.957,4.957,0,0,0,4.786-5.994l-1.458-6.427c-.653-2.88-3.195-3.888-5.856-3.822a7.992,7.992,0,0,0-8.084-6.112V84.243A15.278,15.278,0,0,0,42.6,73.885L39.586,30.391l15,8.037a12.042,12.042,0,0,0,21.9,5.158L90.5,42.151v2.5A4.312,4.312,0,0,0,94.144,48.9V56.72L82.972,67.891a4.508,4.508,0,0,0,0,6.3,33.127,33.127,0,0,0,8.459,5.658c3.854,2.016,7.649-3.162,4.556-6.229l-2.607-2.585,5.41-5.409a2,2,0,0,1,2.826,0l5.459,5.459-2.767,2.98c-2.961,3.19,1.052,8.24,4.835,6.031a37.275,37.275,0,0,0,7.916-5.531A4.583,4.583,0,0,0,117.43,67.891ZM19.438,15.337A11.867,11.867,0,1,1,31.3,27.2,11.88,11.88,0,0,1,19.438,15.337ZM31.3,30.674a15.275,15.275,0,0,0,4.769-.763l2.847,41.027a15.282,15.282,0,0,0-15.232,0l2.848-41.027a15.276,15.276,0,0,0,4.768.762Zm19.787,71.547H11.518a4.383,4.383,0,0,1,4.018-2.641H47.074a4.383,4.383,0,0,1,4.018,2.641Zm-7.92-6.112H19.438V84.243a11.867,11.867,0,1,1,23.733,0V96.109ZM66.524,45.4A8.577,8.577,0,1,1,75.1,36.821,8.587,8.587,0,0,1,66.524,45.4Zm11.64-5.473a12.03,12.03,0,0,0,0-6.209L90.5,34.98v3.682Zm24.622,9.035V55.7H97.615V48.961Zm12.19,22.778A34.891,34.891,0,0,1,107.39,77.1c-.484.283-.819-.373-.54-.673l3.9-4.205a1.735,1.735,0,0,0-.045-2.408l-6.641-6.641a5.475,5.475,0,0,0-7.733,0l-6.643,6.641a1.752,1.752,0,0,0,.005,2.46l3.845,3.812c.295.292-.023.941-.5.689a29.7,29.7,0,0,1-7.613-5.036.994.994,0,0,1,0-1.394L96.6,59.174h7.2l11.173,11.171a.994.994,0,0,1,0,1.394Z" transform="translate(-0.451 0)" fill="#fff"/>
</svg>
