<svg xmlns="http://www.w3.org/2000/svg" width="93.31" height="118.125" viewBox="0 0 93.31 118.125">
  <g id="lamp" transform="matrix(0.951, -0.309, 0.309, 0.951, -13.097, 14.473)">
    <path id="Caminho_34" data-name="Caminho 34" d="M71.353,88.131a2.226,2.226,0,0,0,2.813-1.415,25.777,25.777,0,0,1,50.249,8.1c0,10.984-4.92,17.546-8.873,22.819-2.876,3.835-5.359,7.149-5.359,11.167q0,.4-.01.786h-9.305v-5.116a2.227,2.227,0,0,0-4.454,0v5.116H87.109q-.009-.39-.01-.786c0-4.019-2.483-7.331-5.359-11.167-2.911-3.884-6.211-8.286-7.847-14.542a2.227,2.227,0,1,0-4.308,1.126c1.857,7.1,5.592,12.083,8.593,16.087,2.5,3.331,4.469,5.961,4.469,8.5,0,1.066.045,2.107.133,3.1v18.836c0,.06,0,.118.009.177,0,.014,0,.029,0,.043a2.235,2.235,0,0,0,.037.243v0a16.689,16.689,0,0,0,5.577,9.288,15.9,15.9,0,0,0,20.475,0,16.688,16.688,0,0,0,5.576-9.288v0a2.416,2.416,0,0,0,.037-.242c0-.014,0-.029,0-.043,0-.059.009-.117.009-.177V131.9c.088-.993.134-2.033.134-3.1,0-2.535,1.972-5.165,4.469-8.5,4.12-5.5,9.763-13.022,9.763-25.49a30.231,30.231,0,0,0-58.931-9.495,2.227,2.227,0,0,0,1.415,2.813Zm27.289,71.634A11.791,11.791,0,0,1,88.1,152.96h21.091a11.793,11.793,0,0,1-10.545,6.805Zm11.409-11.259H87.232V143.5h22.819Zm0-9.461H87.232v-5.007h22.819Zm0,0" transform="translate(-54.032 -50.203)" fill="#fff" fill-rule="evenodd"/>
    <path id="Caminho_35" data-name="Caminho 35" d="M192.551,10.387a2.227,2.227,0,0,0,2.227-2.227V2.227a2.227,2.227,0,1,0-4.454,0V8.16A2.227,2.227,0,0,0,192.551,10.387Zm0,0" transform="translate(-147.941)" fill="#fff" fill-rule="evenodd"/>
    <path id="Caminho_36" data-name="Caminho 36" d="M2.227,194.778H8.16a2.227,2.227,0,1,0,0-4.454H2.227a2.227,2.227,0,1,0,0,4.454Zm0,0" transform="translate(0 -147.941)" fill="#fff" fill-rule="evenodd"/>
    <path id="Caminho_37" data-name="Caminho 37" d="M174.93,212.754a2.227,2.227,0,0,0-2.227-2.227H156.766a2.227,2.227,0,1,0,0,4.454h5.742V220.1a2.227,2.227,0,1,0,4.454,0v-5.116H172.7a2.227,2.227,0,0,0,2.227-2.227Zm0,0" transform="translate(-120.125 -163.645)" fill="#fff" fill-rule="evenodd"/>
    <path id="Caminho_38" data-name="Caminho 38" d="M60.593,63.743a2.227,2.227,0,0,0,3.149-3.149l-4.2-4.2a2.227,2.227,0,1,0-3.15,3.149Zm0,0" transform="translate(-43.331 -43.332)" fill="#fff" fill-rule="evenodd"/>
    <path id="Caminho_39" data-name="Caminho 39" d="M51.074,321.61a2.22,2.22,0,0,0,1.574-.652l4.2-4.2a2.227,2.227,0,1,0-3.149-3.149l-4.2,4.2a2.227,2.227,0,0,0,1.575,3.8Zm0,0" transform="translate(-37.969 -243.269)" fill="#fff" fill-rule="evenodd"/>
    <path id="Caminho_40" data-name="Caminho 40" d="M308.289,64.393a2.22,2.22,0,0,0,1.574-.652l4.2-4.2a2.227,2.227,0,0,0-3.149-3.15l-4.2,4.2a2.227,2.227,0,0,0,1.574,3.8Zm0,0" transform="translate(-237.906 -43.33)" fill="#fff" fill-rule="evenodd"/>
    <path id="Caminho_41" data-name="Caminho 41" d="M313.614,313.614a2.226,2.226,0,0,0,0,3.149l4.2,4.2a2.227,2.227,0,0,0,3.149-3.149l-4.2-4.2a2.226,2.226,0,0,0-3.149,0Zm0,0" transform="translate(-243.269 -243.269)" fill="#fff" fill-rule="evenodd"/>
    <path id="Caminho_42" data-name="Caminho 42" d="M356.231,194.778h5.933a2.227,2.227,0,1,0,0-4.454h-5.933a2.227,2.227,0,1,0,0,4.454Zm0,0" transform="translate(-275.172 -147.941)" fill="#fff" fill-rule="evenodd"/>
    <path id="Caminho_43" data-name="Caminho 43" d="M192.551,283.5a2.227,2.227,0,1,0,2.227,2.227A2.231,2.231,0,0,0,192.551,283.5Zm0,0" transform="translate(-147.941 -220.368)" fill="#fff" fill-rule="evenodd"/>
    <path id="Caminho_44" data-name="Caminho 44" d="M69.04,192.551a2.227,2.227,0,1,0-2.227,2.227A2.231,2.231,0,0,0,69.04,192.551Zm0,0" transform="translate(-50.203 -147.941)" fill="#fff" fill-rule="evenodd"/>
  </g>
</svg>
