<svg id="Page-1" xmlns="http://www.w3.org/2000/svg" width="84.01" height="84.007" viewBox="0 0 84.01 84.007">
  <g id="_018---Poem" data-name="018---Poem" transform="translate(0 0)">
    <path id="Shape" d="M83.353,6.558a1.4,1.4,0,0,0-1.427-.039A23.268,23.268,0,0,1,69.974,9.158,9.8,9.8,0,0,0,60.205,0H9.8A9.812,9.812,0,0,0,0,9.8V74.206a9.812,9.812,0,0,0,9.8,9.8h50.4a9.8,9.8,0,0,0,1.4-19.49V32.623c2.921-2.508,6.645-3.694,10.518-4.927l1-.319C82.866,24.249,83.962,8.5,84.007,7.829a1.4,1.4,0,0,0-.654-1.271ZM60.205,2.8a6.985,6.985,0,0,1,6.926,6.268c-1.043-.055-2.1-.126-3.156-.2a51.964,51.964,0,0,0-11.8.1.474.474,0,0,0-.1.015,22.76,22.76,0,0,0-12.944,6.774c-.346.349-.675.7-1,1.043H16.661a9.788,9.788,0,0,0,0-14ZM2.8,74.206V9.8a7,7,0,1,1,7,7,1.4,1.4,0,0,0,0,2.8H35.832C28.61,29.416,31.1,38.32,32.6,41.836A50.913,50.913,0,0,0,27.012,56H12.6a1.4,1.4,0,1,0,0,2.8H28.166a1.4,1.4,0,0,0,.827-.27l6.39-4.678a1.4,1.4,0,0,0,.574-1.12,47.621,47.621,0,0,1,.7-6.581,13.186,13.186,0,0,0,5.77,1.26,15.937,15.937,0,0,0,3.146-.318,17.515,17.515,0,0,0,10.336-6.568c.027-.027.041-.062.066-.09a22.343,22.343,0,0,0,2.207-3.448c.2-.388.41-.755.63-1.107v28.52H9.8a1.4,1.4,0,1,0,0,2.8,7,7,0,1,1-7,7Zm31.174-29.04A51.514,51.514,0,0,0,33.183,52l-2.761,2.02A50.08,50.08,0,0,1,33.974,45.166Zm33.232,29.04a7.009,7.009,0,0,1-7,7H16.661a9.788,9.788,0,0,0,0-14H60.205A7.009,7.009,0,0,1,67.206,74.206Zm5.059-49.5-.991.318a44.539,44.539,0,0,0-8.261,3.268,5.18,5.18,0,0,1-3.22-1.284,1.4,1.4,0,1,0-1.98,1.983,6.721,6.721,0,0,0,2.123,1.4,16.923,16.923,0,0,0-4.254,5.329A19.771,19.771,0,0,1,54.2,38.152a17.48,17.48,0,0,1-7.372-1.6,1.4,1.4,0,1,0-1.252,2.506A18.638,18.638,0,0,0,51.866,40.8a14.474,14.474,0,0,1-6.861,3.562A11.027,11.027,0,0,1,37.233,43.3,36.123,36.123,0,0,1,39.3,37C50.1,23.662,57.948,20.566,71.406,18.7a1.4,1.4,0,1,0-.385-2.774c-13.963,1.938-22.613,5.339-33.986,19.429-.014.015-.025.031-.038.048-.914,1.134-1.736,2.272-2.5,3.405a19.392,19.392,0,0,1,3.014-16.716,14.222,14.222,0,0,0,.339,2.054,1.4,1.4,0,1,0,2.716-.689,12.969,12.969,0,0,1-.2-4.93c.246-.265.5-.529.759-.8a20.331,20.331,0,0,1,8.65-5.341A12.957,12.957,0,0,0,49,16.8a1.4,1.4,0,1,0,2.8,0,9.708,9.708,0,0,1,1.417-5.157,38.664,38.664,0,0,1,7.034-.2,9.691,9.691,0,0,0-1.311,1.931,1.4,1.4,0,0,0,.633,1.876,1.385,1.385,0,0,0,.627.146,1.4,1.4,0,0,0,1.26-.778,8.3,8.3,0,0,1,2.607-2.94c5.54.381,11.237.729,16.842-1.571-.678,4.249-2.744,12.71-8.65,14.6Z" transform="translate(0 0)" fill="#fff"/>
    <path id="Shape-2" data-name="Shape" d="M9.4,37.8H20.6a1.4,1.4,0,1,0,0-2.8H9.4a1.4,1.4,0,1,0,0,2.8Z" transform="translate(3.201 14.004)" fill="#fff"/>
    <path id="Shape-3" data-name="Shape" d="M9.4,32.8h14a1.4,1.4,0,0,0,0-2.8H9.4a1.4,1.4,0,0,0,0,2.8Z" transform="translate(3.201 12.004)" fill="#fff"/>
    <path id="Shape-4" data-name="Shape" d="M9.4,27.8h14a1.4,1.4,0,0,0,0-2.8H9.4a1.4,1.4,0,1,0,0,2.8Z" transform="translate(3.201 10.003)" fill="#fff"/>
    <path id="Shape-5" data-name="Shape" d="M9.4,22.8h14a1.4,1.4,0,0,0,0-2.8H9.4a1.4,1.4,0,0,0,0,2.8Z" transform="translate(3.201 8.002)" fill="#fff"/>
  </g>
</svg>
