<svg xmlns="http://www.w3.org/2000/svg" width="130.094" height="130.067" viewBox="0 0 130.094 130.067">
  <g id="pencil" transform="matrix(0.819, -0.574, 0.574, 0.819, 0.442, 53.599)">
    <path id="Caminho_45" data-name="Caminho 45" d="M90.647,10.94,81.914,2.207a7.535,7.535,0,0,0-10.656,0L33.221,40.244a1.36,1.36,0,1,0,1.923,1.923L62.032,15.28l3.9,3.9L13.225,71.884a3,3,0,0,0-1.427-.11l-2.441.406a.274.274,0,0,1-.248-.079.278.278,0,0,1-.081-.251l.714-4.281L30.657,46.655a1.36,1.36,0,0,0-1.923-1.923L7.511,65.955a1.358,1.358,0,0,0-.332.545h0L2.52,80.984l-1.893,3.7a5.6,5.6,0,0,0,7.54,7.541l3.7-1.893,14.484-4.658h0a1.36,1.36,0,0,0,.545-.332l33.06-33.06a1.36,1.36,0,1,0-1.923-1.923L25.284,83.112,21,83.825a.279.279,0,0,1-.252-.081.275.275,0,0,1-.079-.249l.406-2.439a3.008,3.008,0,0,0-.11-1.427L73.675,26.924l3.9,3.9L62.52,45.876A1.36,1.36,0,1,0,64.444,47.8l26.2-26.2a7.543,7.543,0,0,0,0-10.656ZM9.805,74.864l2.439-.406a.281.281,0,0,1,.252.083.273.273,0,0,1,.078.247l-.406,2.438a3.005,3.005,0,0,0,3.46,3.461l2.439-.406a.274.274,0,0,1,.25.081.277.277,0,0,1,.081.249l-.406,2.437a3.009,3.009,0,0,0,.551,2.285l-6.818,2.193L5.33,81.131l2.193-6.818a3,3,0,0,0,2.283.551ZM6.93,89.805a2.884,2.884,0,0,1-3.881-3.881l1.092-2.136,4.925,4.925Zm12.117-12.1A3.011,3.011,0,0,0,17.62,77.6L15.18,78a.285.285,0,0,1-.329-.33l.406-2.439a3.012,3.012,0,0,0-.109-1.427L67.854,21.1l3.9,3.9ZM63.955,13.357l2.734-2.734L82.231,26.166,79.5,28.9Zm24.769,6.316-4.569,4.569L68.612,8.7,73.181,4.13a4.821,4.821,0,0,1,6.81,0l8.733,8.733a4.821,4.821,0,0,1,0,6.81Z" transform="translate(-0.01 0)" fill="#fff" stroke="#fff" stroke-width="0.5"/>
  </g>
</svg>
