<svg xmlns="http://www.w3.org/2000/svg" width="89.191" height="117.475" viewBox="0 0 89.191 117.475">
  <g id="robotica" transform="translate(-7.659 11.471) rotate(-9)">
    <g id="Grupo_3" data-name="Grupo 3" transform="translate(22.839 23.942)">
      <g id="Grupo_2" data-name="Grupo 2">
        <path id="Caminho_3" data-name="Caminho 3" d="M165.308,105.178a7.284,7.284,0,1,0,7.284,7.284A7.284,7.284,0,0,0,165.308,105.178Zm0,10.927a3.633,3.633,0,1,1,0-7.266v-.018a3.642,3.642,0,0,1,0,7.284Z" transform="translate(-158.024 -105.178)" fill="#fff"/>
      </g>
    </g>
    <g id="Grupo_5" data-name="Grupo 5" transform="translate(43.672 23.942)">
      <g id="Grupo_4" data-name="Grupo 4">
        <path id="Caminho_4" data-name="Caminho 4" d="M256.828,105.178a7.284,7.284,0,1,0,7.284,7.284A7.284,7.284,0,0,0,256.828,105.178Zm0,10.927a3.633,3.633,0,1,1,0-7.266v-.018a3.642,3.642,0,0,1,0,7.284Z" transform="translate(-249.544 -105.178)" fill="#fff"/>
      </g>
    </g>
    <g id="Grupo_7" data-name="Grupo 7" transform="translate(7.755 0)">
      <g id="Grupo_6" data-name="Grupo 6">
        <path id="Caminho_5" data-name="Caminho 5" d="M157.168,32.327a10.143,10.143,0,0,0-8.621-8.238c-1.2-4.443-4.662-8.231-11.619-8.231H126.366V11.851a6.064,6.064,0,1,0-3.642,0v3.915H112.18c-4.917,0-10.089,2.258-11.655,8.231a10.143,10.143,0,0,0-.419,20.032l-.018.091c.546,7.995,6.483,10.927,12.074,10.927h24.767c8.322,0,11.655-5.463,12.074-10.927A10.144,10.144,0,0,0,157.168,32.327Zm-57.135,8.152a6.483,6.483,0,0,1,0-12.456Zm22.09-34.309a2.422,2.422,0,1,1,2.422,2.422A2.422,2.422,0,0,1,122.123,6.169Zm23.292,36.64c0,3.169-1.111,8.486-8.486,8.486H112.18c-3.169,0-8.486-1.111-8.486-8.486l-.018-14.787c0-7.394,5.318-8.486,8.486-8.486h24.767c7.394,0,8.486,5.318,8.486,8.486Zm3.569-2.458V27.895a6.477,6.477,0,0,1,0,12.456Z" transform="translate(-91.76 -0.001)" fill="#fff"/>
      </g>
    </g>
    <g id="Grupo_9" data-name="Grupo 9" transform="translate(28.302 43.464)">
      <g id="Grupo_8" data-name="Grupo 8">
        <path id="Caminho_6" data-name="Caminho 6" d="M204.678,190.938H183.845a1.821,1.821,0,1,0,0,3.642h20.833a1.821,1.821,0,0,0,0-3.642Z" transform="translate(-182.024 -190.938)" fill="#fff"/>
      </g>
    </g>
    <g id="Grupo_11" data-name="Grupo 11" transform="translate(0 51.363)">
      <g id="Grupo_10" data-name="Grupo 10">
        <path id="Caminho_7" data-name="Caminho 7" d="M138.752,232.726h0a7.066,7.066,0,0,0-13.95-1.53l-4.862.947H76.525l-4.862-.947a7.066,7.066,0,1,0-8.7,8.341v13.6a7.066,7.066,0,0,0-5.245,6.793v3.223a1.821,1.821,0,0,0,3.642,0v-3.242a3.424,3.424,0,1,1,6.847,0v3.242a1.821,1.821,0,0,0,3.642,0v-3.242a7.066,7.066,0,0,0-5.245-6.793v-13.6a7.048,7.048,0,0,0,4.881-4.662l3.041.6V257.93a23.548,23.548,0,0,0,2.04,9.561v.164a23.674,23.674,0,0,0,43.16,0l.091-.2a23.528,23.528,0,0,0,2.094-9.524V235.458l3.041-.6a7.048,7.048,0,0,0,4.881,4.662v13.6a7.066,7.066,0,0,0-5.245,6.793v3.242a1.821,1.821,0,0,0,3.642,0v-3.242a3.424,3.424,0,0,1,6.847,0v3.242a1.821,1.821,0,0,0,3.642,0v-3.242a7.066,7.066,0,0,0-5.245-6.793v-13.6A7.066,7.066,0,0,0,138.752,232.726ZM64.779,236.15a3.424,3.424,0,1,1,3.424-3.424A3.424,3.424,0,0,1,64.779,236.15Zm33.453,41.83a20.032,20.032,0,0,1-16.918-9.306h33.836A20.033,20.033,0,0,1,98.233,277.98Zm20.032-20.032a20.029,20.029,0,0,1-1.329,7.1H79.494a20.028,20.028,0,0,1-1.329-7.1V235.786h40.1Zm13.44-21.8h-.019l-.036-.055a2.421,2.421,0,1,1,.055.054Z" transform="translate(-57.693 -225.638)" fill="#fff"/>
      </g>
    </g>
    <g id="Grupo_13" data-name="Grupo 13" transform="translate(34.174 64.023)">
      <g id="Grupo_12" data-name="Grupo 12">
        <path id="Caminho_8" data-name="Caminho 8" d="M220.626,291.594a1.822,1.822,0,0,0-1.216-.469h-5.463l6.7-6.884a1.821,1.821,0,0,0-2.6-2.531l-9.706,9.98a1.821,1.821,0,0,0,1.311,3.1h5.609l-6.9,7.685a1.821,1.821,0,0,0,.127,2.568h0a1.821,1.821,0,0,0,2.568-.127l9.706-10.744A1.821,1.821,0,0,0,220.626,291.594Z" transform="translate(-207.817 -281.253)" fill="#fff"/>
      </g>
    </g>
  </g>
</svg>
