<svg xmlns="http://www.w3.org/2000/svg" width="122.936" height="116.583" viewBox="0 0 122.936 116.583">
  <g id="sport" transform="translate(0 39.443) rotate(-24)">
    <path id="Caminho_9" data-name="Caminho 9" d="M66.971,0a30.009,30.009,0,0,0-8.817,1.318,1.421,1.421,0,1,0,.834,2.716A27.108,27.108,0,0,1,65.55,2.882v25.7H57.331A29.691,29.691,0,0,0,49.219,9.451a27.075,27.075,0,0,1,3.933-2.837A1.42,1.42,0,0,0,51.7,4.17,29.932,29.932,0,0,0,46.29,8.278a1.432,1.432,0,0,0-.108.094,30.014,30.014,0,0,0-8.851,16.966A30,30,0,1,0,59.645,59.1,30,30,0,1,0,66.971,0Zm19.8,48.583a27.231,27.231,0,0,1-3.853-5.24,1.421,1.421,0,1,0-2.474,1.4,30.073,30.073,0,0,0,4.281,5.808,27.047,27.047,0,0,1-16.33,6.582V31.425h8.223A29.957,29.957,0,0,0,77.738,38.3a1.421,1.421,0,0,0,2.731-.784,27.119,27.119,0,0,1-1.011-6.089H94.1c0,.009,0,.017,0,.026a27.064,27.064,0,0,1-7.328,17.133Zm7.33-20H79.455a26.873,26.873,0,0,1,7.311-17.159A27.067,27.067,0,0,1,94.1,28.559c0,.008,0,.016,0,.025ZM68.392,2.878A27.047,27.047,0,0,1,84.718,9.456a29.691,29.691,0,0,0-8.107,19.128H68.391V2.878ZM54.564,47.911a.446.446,0,0,1,.385-.223h1.37a27.318,27.318,0,0,1,0,13.494H54.95a.446.446,0,0,1-.385-.223l-3.639-6.3a.446.446,0,0,1,0-.445ZM36.634,29.458l.684-1.185A27.148,27.148,0,0,1,49,35.035l-.676,1.171a.446.446,0,0,1-.385.223H40.658a.446.446,0,0,1-.385-.223l-3.638-6.3A.446.446,0,0,1,36.634,29.458Zm17.185,6.723a29.781,29.781,0,0,0-4.558-4.757h5.225A27.136,27.136,0,0,1,53.819,36.182Zm-8.58-7.6a29.885,29.885,0,0,0-5.159-2.419A27.249,27.249,0,0,1,47.171,11.42a26.875,26.875,0,0,1,7.316,17.164Zm-21.863.874a.446.446,0,0,1,0,.445l-3.638,6.3a.446.446,0,0,1-.385.223H12.074a.446.446,0,0,1-.385-.223l-.676-1.171a27.139,27.139,0,0,1,11.678-6.762ZM2.841,54.435a27.4,27.4,0,0,1,.849-6.747h1.37a.446.446,0,0,1,.385.223l3.638,6.3a.447.447,0,0,1,0,.445l-3.639,6.3a.446.446,0,0,1-.385.223H3.69a27.336,27.336,0,0,1-.849-6.747ZM23.375,79.412,22.691,80.6a27.136,27.136,0,0,1-11.678-6.762l.676-1.171a.446.446,0,0,1,.385-.223h7.277a.446.446,0,0,1,.385.223l3.639,6.3A.446.446,0,0,1,23.375,79.412ZM25.6,81.24l.235-.407a3.3,3.3,0,0,0,0-3.286l-3.639-6.3A3.3,3.3,0,0,0,19.351,69.6H12.074a3.3,3.3,0,0,0-2.846,1.643L9,71.64a27.174,27.174,0,0,1-4.41-7.616h.469A3.3,3.3,0,0,0,7.9,62.381l3.639-6.3a3.3,3.3,0,0,0,0-3.286L7.9,46.49a3.3,3.3,0,0,0-2.846-1.643H4.59A27.175,27.175,0,0,1,9,37.231l.228.4a3.3,3.3,0,0,0,2.846,1.643h7.277A3.3,3.3,0,0,0,22.2,37.626l3.638-6.3a3.3,3.3,0,0,0,0-3.286l-.235-.407a27.2,27.2,0,0,1,8.808,0l-.235.407a3.3,3.3,0,0,0,0,3.286l3.638,6.3a3.3,3.3,0,0,0,2.846,1.643h7.277a3.3,3.3,0,0,0,2.846-1.643l.228-.4a27.171,27.171,0,0,1,4.41,7.616h-.469A3.294,3.294,0,0,0,52.1,46.49l-3.639,6.3a3.3,3.3,0,0,0,0,3.286l3.638,6.3a3.3,3.3,0,0,0,2.846,1.643h.469a27.178,27.178,0,0,1-4.41,7.616l-.228-.4A3.3,3.3,0,0,0,47.934,69.6H40.657a3.3,3.3,0,0,0-2.846,1.643l-3.638,6.3a3.3,3.3,0,0,0,0,3.286l.235.407a27.194,27.194,0,0,1-8.807,0ZM37.318,80.6l-.684-1.185a.446.446,0,0,1,0-.445h0l3.638-6.3a.446.446,0,0,1,.386-.223h7.277a.446.446,0,0,1,.385.223L49,73.835A27.135,27.135,0,0,1,37.318,80.6ZM55.9,39.275a29.884,29.884,0,0,0,1.427-7.85h8.22v25.7a27.135,27.135,0,0,1-5.6-.875A29.851,29.851,0,0,0,55.9,39.275Z" fill="#fff"/>
    <path id="Caminho_10" data-name="Caminho 10" d="M119.7,254.313l3.639-6.3a3.3,3.3,0,0,0,0-3.286h0l-3.639-6.3a3.3,3.3,0,0,0-2.846-1.643h-7.277a3.3,3.3,0,0,0-2.846,1.643l-3.639,6.3a3.3,3.3,0,0,0,0,3.286l3.639,6.3a3.3,3.3,0,0,0,2.846,1.643h7.277A3.3,3.3,0,0,0,119.7,254.313Zm-2.846-1.2h-7.277a.446.446,0,0,1-.385-.223l-3.639-6.3a.447.447,0,0,1,0-.445l3.639-6.3a.446.446,0,0,1,.385-.223h7.277a.446.446,0,0,1,.385.223l3.638,6.3a.447.447,0,0,1,0,.445l-3.639,6.3A.446.446,0,0,1,116.851,253.115Z" transform="translate(-83.209 -191.933)" fill="#fff"/>
  </g>
</svg>
