<svg xmlns="http://www.w3.org/2000/svg" width="117.463" height="104.825" viewBox="0 0 117.463 104.825">
  <g id="theatre" transform="matrix(0.966, -0.259, 0.259, 0.966, 0.85, 15.565)">
    <path id="Caminho_58" data-name="Caminho 58" d="M386.873,271.37a9.324,9.324,0,0,0,6.614-2.735,1.389,1.389,0,1,0-1.965-1.965,6.583,6.583,0,0,1-9.3,0,1.389,1.389,0,1,0-1.965,1.965A9.324,9.324,0,0,0,386.873,271.37Z" transform="translate(-309.489 -217.377)" fill="#fff" stroke="#fff" stroke-width="1"/>
    <path id="Caminho_59" data-name="Caminho 59" d="M283.773,324.216a15.453,15.453,0,0,0-15.436,15.436v.038a2.166,2.166,0,0,0,4.1.961,12.657,12.657,0,0,1,22.668,0,2.149,2.149,0,0,0,1.928,1.195,2.2,2.2,0,0,0,.5-.058,2.156,2.156,0,0,0,1.674-2.1v-.034a15.453,15.453,0,0,0-15.436-15.436Zm0,6.632a15.337,15.337,0,0,0-12.394,6.229,12.659,12.659,0,0,1,24.788,0A15.336,15.336,0,0,0,283.773,330.848Z" transform="translate(-218.631 -264.594)" fill="#fff" stroke="#fff" stroke-width="1"/>
    <path id="Caminho_60" data-name="Caminho 60" d="M58.818,117.5a6.583,6.583,0,0,1,9.3,0,1.389,1.389,0,0,0,1.965-1.965,9.364,9.364,0,0,0-13.228,0,1.389,1.389,0,0,0,1.965,1.965Z" transform="translate(-45.99 -92.345)" fill="#fff" stroke="#fff" stroke-width="1"/>
    <path id="Caminho_61" data-name="Caminho 61" d="M202.259,115.54a9.365,9.365,0,0,0-13.228,0,1.389,1.389,0,1,0,1.965,1.965,6.576,6.576,0,0,1,9.3,0,1.389,1.389,0,0,0,1.965-1.965Z" transform="translate(-153.683 -92.345)" fill="#fff" stroke="#fff" stroke-width="1"/>
    <path id="Caminho_62" data-name="Caminho 62" d="M80.949,214.376A18.092,18.092,0,0,0,99.021,196.3v-.025l-1.389,0,1.389-.024a2.312,2.312,0,0,0-4.378-1.026,15.293,15.293,0,0,1-27.389,0,2.312,2.312,0,0,0-4.378,1.029v.041a18.092,18.092,0,0,0,18.072,18.072Zm0-7.877a17.959,17.959,0,0,0,15.17-8.248,15.294,15.294,0,0,1-30.34,0A17.96,17.96,0,0,0,80.949,206.5Z" transform="translate(-51.23 -158.467)" fill="#fff" stroke="#fff" stroke-width="1"/>
    <path id="Caminho_63" data-name="Caminho 63" d="M6.572,9.458A2.092,2.092,0,0,1,7.911,8.27a77.312,77.312,0,0,1,43.616,0,2.093,2.093,0,0,1,1.339,1.188A47.193,47.193,0,0,1,54.809,14.9a1.389,1.389,0,1,0,2.669-.772,50.015,50.015,0,0,0-2.058-5.759A4.862,4.862,0,0,0,52.309,5.6a80.086,80.086,0,0,0-45.181,0,4.862,4.862,0,0,0-3.11,2.76,49.515,49.515,0,0,0,1.366,42A1.389,1.389,0,1,0,7.862,49.1,46.745,46.745,0,0,1,6.572,9.458Z" transform="translate(0.001 -2.352)" fill="#fff" stroke="#fff" stroke-width="1"/>
    <path id="Caminho_64" data-name="Caminho 64" d="M127.273,106.929a4.862,4.862,0,0,0-3.111-2.76,80.449,80.449,0,0,0-14.044-2.789,1.389,1.389,0,1,0-.3,2.763,77.646,77.646,0,0,1,13.557,2.693,2.093,2.093,0,0,1,1.339,1.188,46.841,46.841,0,0,1-12.833,54.223,15.941,15.941,0,0,1-20.627,0,46.6,46.6,0,0,1-14.742-22.674,19.034,19.034,0,0,0,1.74-1.3,49.668,49.668,0,0,0,8.821-9.73,9.358,9.358,0,0,0,8.868-2.463,1.389,1.389,0,0,0-1.965-1.965,6.591,6.591,0,0,1-5.264,1.894,49.5,49.5,0,0,0,7.01-22.082,77.913,77.913,0,0,1,8-.192,1.389,1.389,0,1,0,.077-2.778c-2.641-.074-5.31-.014-7.954.175a49.447,49.447,0,0,0-.623-8.667,1.389,1.389,0,1,0-2.743.443,46.849,46.849,0,0,1-16.021,43.243,16.165,16.165,0,0,1-2.274,1.606l-.048.029a15.936,15.936,0,0,1-18.305-1.635,46.839,46.839,0,0,1-8.583-9.549,1.389,1.389,0,1,0-2.3,1.556,49.615,49.615,0,0,0,9.092,10.115,18.705,18.705,0,0,0,19.991,2.7,49.362,49.362,0,0,0,15.432,23.4,18.712,18.712,0,0,0,24.213,0,49.619,49.619,0,0,0,13.594-57.44Z" transform="translate(-36.43 -74.818)" fill="#fff" stroke="#fff" stroke-width="1"/>
  </g>
</svg>
