<svg xmlns="http://www.w3.org/2000/svg" width="99.641" height="117.127" viewBox="0 0 99.641 117.127">
  <g id="winner" transform="matrix(0.966, 0.259, -0.259, 0.966, 26.161, -2.989)">
    <g id="Grupo_14" data-name="Grupo 14" transform="translate(0 0)">
      <path id="Caminho_11" data-name="Caminho 11" d="M116.943,267.8H95.227v-9.871A5.929,5.929,0,0,0,89.3,252H69.563a5.929,5.929,0,0,0-5.923,5.922V259.9H41.925A5.929,5.929,0,0,0,36,265.821v35.535a1.974,1.974,0,0,0,1.974,1.974h82.915a1.974,1.974,0,0,0,1.974-1.974V273.718A5.929,5.929,0,0,0,116.943,267.8ZM91.279,299.382H67.589v-4.936a1.974,1.974,0,1,0-3.948,0v4.936H39.95V265.821a1.976,1.976,0,0,1,1.974-1.974H63.64v12.832a1.974,1.974,0,1,0,3.948,0V257.924a1.976,1.976,0,0,1,1.974-1.974H89.3a1.976,1.976,0,0,1,1.974,1.974Zm27.638,0H95.227V271.744h21.716a1.976,1.976,0,0,1,1.974,1.974Z" transform="translate(-36.002 -202.253)" fill="#fff"/>
      <path id="Caminho_12" data-name="Caminho 12" d="M376.864,377.926a5.9,5.9,0,0,0-10.39-3.851,1.974,1.974,0,0,0,3,2.564,1.964,1.964,0,1,1,2.848,2.7,1.974,1.974,0,0,0,.275,3.039,2.966,2.966,0,0,1-1.64,5.419,2.9,2.9,0,0,1-1.78-.605,1.974,1.974,0,1,0-2.408,3.129,6.81,6.81,0,0,0,4.188,1.425,6.915,6.915,0,0,0,5.337-11.277A5.915,5.915,0,0,0,376.864,377.926Z" transform="translate(-300.854 -298.563)" fill="#fff"/>
      <path id="Caminho_13" data-name="Caminho 13" d="M95.873,347.782H91.116c.435-.4.98-.828,1.616-1.319,2.258-1.742,5.067-3.91,5.115-7.994a6.326,6.326,0,0,0-4.665-6.3,5.744,5.744,0,0,0-6.606,3.084,1.974,1.974,0,0,0,3.488,1.85A1.8,1.8,0,0,1,92.207,336a2.358,2.358,0,0,1,1.693,2.427c-.024,2.026-1.368,3.208-3.579,4.914C88.3,344.9,86,346.668,86,349.756a1.974,1.974,0,0,0,1.974,1.974h7.9a1.974,1.974,0,1,0,0-3.948Z" transform="translate(-76.132 -266.445)" fill="#fff"/>
      <path id="Caminho_14" data-name="Caminho 14" d="M241.265,307.8h-.215V293.977a1.974,1.974,0,0,0-2.961-1.71l-2.189,1.264a1.974,1.974,0,0,0,1.2,3.673V307.8h-.215a1.974,1.974,0,0,0,0,3.948h4.378a1.974,1.974,0,0,0,0-3.948Z" transform="translate(-195.645 -234.357)" fill="#fff"/>
      <path id="Caminho_15" data-name="Caminho 15" d="M161.043,45.087l-.99,7.546a5.068,5.068,0,0,0,.427,3.191,5.116,5.116,0,0,0,6.838,2.36l6.939-3.378,7.13,3.4a5.115,5.115,0,0,0,7.263-5.321l-1.069-7.652,5.268-5.556a5.115,5.115,0,0,0-2.656-8.73l-7.6-1.347-3.77-6.935h0a5.106,5.106,0,0,0-8.989.04L166.2,29.514l-7.639,1.419a5.109,5.109,0,0,0-2.88,8.59Zm-2.488-9.943a1.151,1.151,0,0,1,.629-.311l.067-.011,8.6-1.6a1.974,1.974,0,0,0,1.382-1.013l4.077-7.654a1.158,1.158,0,0,1,2.037-.01l4.224,7.769a1.974,1.974,0,0,0,1.39,1l8.546,1.514a1.167,1.167,0,0,1,.6,2q-.044.041-.086.085L184.062,43.2a1.974,1.974,0,0,0-.523,1.631l1.2,8.591a1.17,1.17,0,0,1-1.653,1.214l-7.99-3.806a1.974,1.974,0,0,0-1.713.007l-7.794,3.794a1.168,1.168,0,0,1-1.56-.538,1.155,1.155,0,0,1-.094-.744q.014-.07.024-.142l1.122-8.551a1.974,1.974,0,0,0-.536-1.627l-6.022-6.246a1.161,1.161,0,0,1,.032-1.641Z" transform="translate(-130.906 -16.046)" fill="#fff"/>
      <path id="Caminho_16" data-name="Caminho 16" d="M95.488,3.684l7.793,4.5a1.974,1.974,0,1,0,1.974-3.419L97.462.265a1.974,1.974,0,0,0-1.974,3.419Z" transform="translate(-82.952 0)" fill="#fff"/>
      <path id="Caminho_17" data-name="Caminho 17" d="M62.628,117.227a2.025,2.025,0,0,0,.287-.021l8.9-1.3A1.974,1.974,0,1,0,71.251,112l-8.9,1.3a1.974,1.974,0,0,0,.282,3.928Z" transform="translate(-55.789 -89.876)" fill="#fff"/>
      <path id="Caminho_18" data-name="Caminho 18" d="M111.136,197.046l-6.363,6.363a1.974,1.974,0,1,0,2.792,2.792l6.363-6.363a1.974,1.974,0,1,0-2.792-2.792Z" transform="translate(-90.733 -157.682)" fill="#fff"/>
      <path id="Caminho_19" data-name="Caminho 19" d="M360,8.448a1.966,1.966,0,0,0,.985-.265l7.793-4.5A1.974,1.974,0,0,0,366.807.265l-7.793,4.5A1.974,1.974,0,0,0,360,8.448Z" transform="translate(-294.454 0)" fill="#fff"/>
      <path id="Caminho_20" data-name="Caminho 20" d="M386.26,113.672a1.974,1.974,0,0,0,1.669,2.238l8.9,1.3a1.974,1.974,0,0,0,.569-3.907l-8.9-1.3A1.975,1.975,0,0,0,386.26,113.672Z" transform="translate(-317.097 -89.875)" fill="#fff"/>
      <path id="Caminho_21" data-name="Caminho 21" d="M356.156,197.046a1.974,1.974,0,0,0,0,2.792l6.363,6.363a1.974,1.974,0,0,0,2.792-2.792l-6.363-6.363A1.974,1.974,0,0,0,356.156,197.046Z" transform="translate(-292.489 -157.682)" fill="#fff"/>
      <path id="Caminho_22" data-name="Caminho 22" d="M177.976,412a1.974,1.974,0,1,0,1.974,1.975h0A1.974,1.974,0,0,0,177.976,412Z" transform="translate(-148.364 -330.664)" fill="#fff"/>
    </g>
  </g>
</svg>
